<svg width="1091" height="1020" viewBox="0 0 1091 1020" fill="none" xmlns="http://www.w3.org/2000/svg">
<path d="M143.36 390.52H155.64V406H151.32L150.6 403.32C148.88 405.72 146.04 406.72 142.6 406.72C134.12 406.72 128.8 400.64 128.8 392.32C128.8 383.64 134.6 377.32 142.8 377.32C148.36 377.32 153.44 380.24 155.6 385.8L149.8 388.08C148.68 384.88 145.92 383.32 142.72 383.32C138.16 383.32 135.08 386.36 135.08 392.12C135.08 398.16 138.44 400.72 143.12 400.72C147.28 400.72 149.32 398.72 149.32 396.52V396.12H143.36V390.52ZM170.811 385.84C172.171 385.84 173.371 386.2 174.771 387.12L171.891 392.56C171.331 392.2 170.291 391.84 169.331 391.84C167.211 391.84 165.811 393.36 165.811 396.84V406H159.771V386.28H165.851V389.28C166.771 387.2 168.691 385.84 170.811 385.84ZM192.602 396.32C192.602 396.88 192.562 397.4 192.482 398.24H179.522C179.762 399.8 180.962 401 183.562 401C185.042 401 186.602 400.44 187.722 399.08L191.882 402.76C189.802 405.12 187.002 406.44 183.522 406.44C176.242 406.44 173.482 401.32 173.482 396.24C173.482 391.32 176.162 385.84 183.202 385.84C189.362 385.84 192.602 390.24 192.602 396.32ZM179.442 393.8H186.842C186.762 391.96 185.122 390.84 183.122 390.84C180.602 390.84 179.682 392.52 179.442 393.8ZM186.762 394.56L186.802 394.52L186.762 394.56ZM212.875 396.32C212.875 396.88 212.835 397.4 212.755 398.24H199.795C200.035 399.8 201.235 401 203.835 401C205.315 401 206.875 400.44 207.995 399.08L212.155 402.76C210.075 405.12 207.275 406.44 203.795 406.44C196.515 406.44 193.755 401.32 193.755 396.24C193.755 391.32 196.435 385.84 203.475 385.84C209.635 385.84 212.875 390.24 212.875 396.32ZM199.715 393.8H207.115C207.035 391.96 205.395 390.84 203.395 390.84C200.875 390.84 199.955 392.52 199.715 393.8ZM207.035 394.56L207.075 394.52L207.035 394.56ZM227.349 385.84C231.909 385.84 234.629 388.56 234.629 392.88V406H228.589V395.12C228.589 393.6 228.589 391.08 225.469 391.08C221.749 391.08 221.749 394.64 221.749 396.8V406H215.709V386.28H221.749V388.12C223.229 386.32 225.269 385.84 227.349 385.84ZM254.124 406V383.88H245.964V378.12H268.604V383.88H260.484V406H254.124ZM284.243 396.32C284.243 396.88 284.203 397.4 284.123 398.24H271.163C271.403 399.8 272.603 401 275.203 401C276.683 401 278.243 400.44 279.363 399.08L283.523 402.76C281.443 405.12 278.643 406.44 275.163 406.44C267.883 406.44 265.123 401.32 265.123 396.24C265.123 391.32 267.803 385.84 274.842 385.84C281.003 385.84 284.243 390.24 284.243 396.32ZM271.083 393.8H278.483C278.403 391.96 276.763 390.84 274.763 390.84C272.243 390.84 271.323 392.52 271.083 393.8ZM278.403 394.56L278.443 394.52L278.403 394.56ZM295.116 385.84C300.716 385.84 304.076 388.8 304.076 393.48V406H298.556L298.156 404.04C296.556 406.16 294.436 406.44 292.996 406.44C288.556 406.44 285.356 403.68 285.356 399.64C285.356 397.36 286.396 395.72 288.076 394.8C289.316 394.12 290.876 393.8 292.636 393.8H298.076V393.48C298.076 392.08 296.876 391.08 294.676 391.08C293.196 391.08 291.676 391.52 289.916 393.2L285.556 389.56C288.036 386.96 291.676 385.84 295.116 385.84ZM293.956 401.6C296.116 401.6 297.956 400.2 298.076 398.24H293.516C292.876 398.24 292.356 398.36 291.996 398.6C291.596 398.88 291.396 399.28 291.396 399.76C291.396 400.76 292.236 401.6 293.956 401.6Z" fill="#201806"/>
<path d="M126.16 794.12H130.96V822H126.16V802.48H119.64V798.48H123.36C125.28 798.48 126.16 797.68 126.16 795.8V794.12ZM150.718 802.84C156.318 802.84 160.198 807.2 160.198 812.28C160.198 817.6 155.958 822.4 149.998 822.4C144.638 822.4 140.598 818.64 139.918 813.96L144.638 813.16C144.918 815.44 146.638 817.8 149.958 817.8C153.478 817.8 155.118 815 155.118 812.28C155.118 809.68 153.598 807.32 150.078 807.32C147.718 807.32 146.198 808.48 145.278 809.92L140.758 808.8L143.438 794.12H158.958V798.72H147.398L146.398 804.04C147.918 803.08 149.438 802.84 150.718 802.84ZM173.795 822.4C165.155 822.4 164.115 813.96 164.115 808.08C164.115 802.12 165.075 793.68 173.515 793.68C181.195 793.68 183.155 801.16 183.155 808.12C183.155 815 181.275 822.4 173.795 822.4ZM173.675 817.8C177.915 817.8 177.995 812.52 177.995 808.04C177.995 803.32 177.875 798.28 173.515 798.28C169.155 798.28 169.035 803.36 169.035 808.08C169.035 812.64 169.155 817.8 173.675 817.8Z" fill="#201806"/>
<path d="M109.776 502V488.728H104.88V485.272H118.464V488.728H113.592V502H109.776ZM126.758 489.904C129.47 489.904 131.126 491.488 131.126 494.128V502H127.502V495.04C127.502 493.696 126.878 493.048 125.582 493.048C123.686 493.048 123.398 494.704 123.398 497.704V502H119.774V485.272H123.398V491.272C124.19 490.336 125.27 489.904 126.758 489.904ZM144.019 496.192C144.019 496.528 143.995 496.84 143.947 497.344H136.171C136.315 498.28 137.035 499 138.595 499C139.483 499 140.419 498.664 141.091 497.848L143.587 500.056C142.339 501.472 140.659 502.264 138.571 502.264C134.203 502.264 132.547 499.192 132.547 496.144C132.547 493.192 134.155 489.904 138.379 489.904C142.075 489.904 144.019 492.544 144.019 496.192ZM136.123 494.68H140.563C140.515 493.576 139.531 492.904 138.331 492.904C136.819 492.904 136.267 493.912 136.123 494.68ZM140.515 495.136L140.539 495.112L140.515 495.136ZM152.275 502V492.976H150.163V490.168H152.299V489.112C152.299 485.824 154.147 485.008 156.235 485.008C157.291 485.008 157.987 485.224 158.707 485.536L157.555 488.296C157.267 488.152 156.955 488.008 156.643 488.008C156.043 488.008 155.899 488.512 155.899 489.136V490.168H158.251V492.976H155.899V502H152.275ZM164.165 502.264C160.325 502.264 158.069 499.312 158.069 496.072C158.069 492.832 160.301 489.904 164.165 489.904C167.981 489.904 170.237 492.808 170.237 496.072C170.237 499.312 167.957 502.264 164.165 502.264ZM164.165 499.12C166.109 499.12 166.613 497.56 166.613 496.072C166.613 494.584 166.133 493.048 164.165 493.048C162.197 493.048 161.693 494.56 161.693 496.072C161.693 497.512 162.173 499.12 164.165 499.12ZM178.836 489.904C181.572 489.904 183.204 491.536 183.204 494.128V502H179.58V495.472C179.58 494.56 179.58 493.048 177.708 493.048C175.476 493.048 175.476 495.184 175.476 496.48V502H171.852V490.168H175.476V491.272C176.364 490.192 177.588 489.904 178.836 489.904ZM192.761 492.976H189.737V497.896C189.737 498.352 189.737 499.336 191.225 499.336C191.705 499.336 192.233 499.24 192.761 499.072L192.737 501.88C191.969 502.144 191.201 502.264 190.361 502.264C188.129 502.264 186.137 501.256 186.137 498.232V492.976H184.241V490.168H186.137V488.416L189.737 485.752V490.168H192.761V492.976ZM207.547 489.904C210.259 489.904 211.915 491.488 211.915 494.128V502H208.291V495.04C208.291 493.696 207.667 493.048 206.371 493.048C204.475 493.048 204.187 494.704 204.187 497.704V502H200.563V485.272H204.187V491.272C204.979 490.336 206.059 489.904 207.547 489.904ZM219.168 489.904C222.528 489.904 224.544 491.68 224.544 494.488V502H221.232L220.992 500.824C220.032 502.096 218.76 502.264 217.896 502.264C215.232 502.264 213.312 500.608 213.312 498.184C213.312 496.816 213.936 495.832 214.944 495.28C215.688 494.872 216.624 494.68 217.68 494.68H220.944V494.488C220.944 493.648 220.224 493.048 218.904 493.048C218.016 493.048 217.104 493.312 216.048 494.32L213.432 492.136C214.92 490.576 217.104 489.904 219.168 489.904ZM218.472 499.36C219.768 499.36 220.872 498.52 220.944 497.344H218.208C217.824 497.344 217.512 497.416 217.296 497.56C217.056 497.728 216.936 497.968 216.936 498.256C216.936 498.856 217.44 499.36 218.472 499.36ZM230.723 502.264C228.107 502.264 226.235 500.56 225.683 498.832L228.539 497.56C228.779 498.208 229.09 499.384 230.699 499.384C231.707 499.384 231.995 498.952 231.995 498.592C231.995 496.96 226.331 497.776 226.331 493.6C226.331 490.936 228.659 489.904 230.795 489.904C232.979 489.904 234.539 490.96 235.475 492.52L232.691 494.056C232.403 493.528 231.923 492.568 230.747 492.568C230.075 492.568 229.739 492.856 229.739 493.24C229.739 494.8 235.547 493.624 235.547 498.088C235.547 501.064 232.931 502.264 230.723 502.264ZM256.949 489.904C259.805 489.904 261.149 492.232 261.149 494.368V502H257.525V495.496C257.525 494.608 257.333 493.048 255.845 493.048C253.421 493.048 253.949 495.952 253.949 498.184V502H250.349V495.424C250.349 495.136 250.517 493.048 248.765 493.048C246.269 493.048 246.773 495.952 246.773 498.184V502H243.149L243.125 490.168H246.605V491.704C247.397 490.288 248.645 489.904 249.725 489.904C250.925 489.904 252.389 490.36 253.157 492.256C254.189 490.312 255.581 489.904 256.949 489.904ZM268.532 502.264C264.692 502.264 262.436 499.312 262.436 496.072C262.436 492.832 264.668 489.904 268.532 489.904C272.348 489.904 274.604 492.808 274.604 496.072C274.604 499.312 272.324 502.264 268.532 502.264ZM268.532 499.12C270.476 499.12 270.98 497.56 270.98 496.072C270.98 494.584 270.5 493.048 268.532 493.048C266.564 493.048 266.06 494.56 266.06 496.072C266.06 497.512 266.54 499.12 268.532 499.12ZM282.843 489.904C283.659 489.904 284.379 490.12 285.219 490.672L283.491 493.936C283.155 493.72 282.531 493.504 281.955 493.504C280.683 493.504 279.843 494.416 279.843 496.504V502H276.219V490.168H279.867V491.968C280.419 490.72 281.571 489.904 282.843 489.904ZM295.917 496.192C295.917 496.528 295.893 496.84 295.845 497.344H288.069C288.213 498.28 288.933 499 290.493 499C291.381 499 292.317 498.664 292.989 497.848L295.485 500.056C294.237 501.472 292.557 502.264 290.469 502.264C286.101 502.264 284.445 499.192 284.445 496.144C284.445 493.192 286.053 489.904 290.277 489.904C293.973 489.904 295.917 492.544 295.917 496.192ZM288.021 494.68H292.461C292.413 493.576 291.429 492.904 290.229 492.904C288.717 492.904 288.165 493.912 288.021 494.68ZM292.413 495.136L292.437 495.112L292.413 495.136ZM113.472 523.976H110.448V528.896C110.448 529.352 110.448 530.336 111.936 530.336C112.416 530.336 112.944 530.24 113.472 530.072L113.448 532.88C112.68 533.144 111.912 533.264 111.072 533.264C108.84 533.264 106.848 532.256 106.848 529.232V523.976H104.952V521.168H106.848V519.416L110.448 516.752V521.168H113.472V523.976ZM121.907 520.904C124.619 520.904 126.275 522.488 126.275 525.128V533H122.651V526.04C122.651 524.696 122.027 524.048 120.731 524.048C118.835 524.048 118.547 525.704 118.547 528.704V533H114.923V516.272H118.547V522.272C119.339 521.336 120.419 520.904 121.907 520.904ZM133.527 520.904C136.887 520.904 138.903 522.68 138.903 525.488V533H135.591L135.351 531.824C134.391 533.096 133.119 533.264 132.255 533.264C129.591 533.264 127.671 531.608 127.671 529.184C127.671 527.816 128.295 526.832 129.303 526.28C130.047 525.872 130.983 525.68 132.039 525.68H135.303V525.488C135.303 524.648 134.583 524.048 133.263 524.048C132.375 524.048 131.463 524.312 130.407 525.32L127.791 523.136C129.279 521.576 131.463 520.904 133.527 520.904ZM132.831 530.36C134.127 530.36 135.231 529.52 135.303 528.344H132.567C132.183 528.344 131.871 528.416 131.655 528.56C131.415 528.728 131.295 528.968 131.295 529.256C131.295 529.856 131.799 530.36 132.831 530.36ZM148.25 520.904C150.986 520.904 152.618 522.536 152.618 525.128V533H148.994V526.472C148.994 525.56 148.994 524.048 147.122 524.048C144.89 524.048 144.89 526.184 144.89 527.48V533H141.266V521.168H144.89V522.272C145.778 521.192 147.002 520.904 148.25 520.904ZM165.971 516.272H169.595V533H165.971V521.696H162.227V518.84H164.123C165.323 518.84 165.971 518.384 165.971 517.04V516.272ZM185.235 525.632H187.875V529.088H185.235V533H181.611V529.088H174.123V526.976L182.115 516.272H185.235V525.632ZM178.635 525.632H181.611V521.456L178.635 525.632ZM196.127 533V523.976H194.014V521.168H196.151V520.112C196.151 516.824 197.999 516.008 200.087 516.008C201.143 516.008 201.839 516.224 202.559 516.536L201.407 519.296C201.118 519.152 200.807 519.008 200.495 519.008C199.895 519.008 199.751 519.512 199.751 520.136V521.168H202.103V523.976H199.751V533H196.127ZM208.016 533.264C204.176 533.264 201.92 530.312 201.92 527.072C201.92 523.832 204.152 520.904 208.016 520.904C211.832 520.904 214.088 523.808 214.088 527.072C214.088 530.312 211.808 533.264 208.016 533.264ZM208.016 530.12C209.96 530.12 210.464 528.56 210.464 527.072C210.464 525.584 209.984 524.048 208.016 524.048C206.048 524.048 205.544 525.56 205.544 527.072C205.544 528.512 206.024 530.12 208.016 530.12ZM222.687 520.904C225.423 520.904 227.055 522.536 227.055 525.128V533H223.431V526.472C223.431 525.56 223.431 524.048 221.559 524.048C219.327 524.048 219.327 526.184 219.327 527.48V533H215.703V521.168H219.327V522.272C220.215 521.192 221.439 520.904 222.687 520.904ZM236.613 523.976H233.589V528.896C233.589 529.352 233.589 530.336 235.077 530.336C235.557 530.336 236.085 530.24 236.613 530.072L236.589 532.88C235.821 533.144 235.053 533.264 234.213 533.264C231.981 533.264 229.989 532.256 229.989 529.232V523.976H228.093V521.168H229.989V519.416L233.589 516.752V521.168H236.613V523.976ZM248.207 533.264C245.591 533.264 243.719 531.56 243.167 529.832L246.023 528.56C246.263 529.208 246.575 530.384 248.183 530.384C249.191 530.384 249.479 529.952 249.479 529.592C249.479 527.96 243.815 528.776 243.815 524.6C243.815 521.936 246.143 520.904 248.279 520.904C250.463 520.904 252.023 521.96 252.959 523.52L250.175 525.056C249.887 524.528 249.407 523.568 248.231 523.568C247.559 523.568 247.223 523.856 247.223 524.24C247.223 525.8 253.031 524.624 253.031 529.088C253.031 532.064 250.415 533.264 248.207 533.264ZM261.902 523.976H258.878V528.896C258.878 529.352 258.878 530.336 260.366 530.336C260.846 530.336 261.374 530.24 261.902 530.072L261.878 532.88C261.11 533.144 260.342 533.264 259.502 533.264C257.27 533.264 255.278 532.256 255.278 529.232V523.976H253.382V521.168H255.278V519.416L258.878 516.752V521.168H261.902V523.976ZM264.604 537.896L266.788 532.592L262.396 521.168H266.38L268.732 528.464L271.42 521.168H275.38L268.516 537.896H264.604ZM279.194 533.264C277.466 533.264 276.098 532.28 276.098 530V516.272H279.722V529.52C279.722 530.072 279.962 530.144 280.418 530.144C280.61 530.144 280.898 530.12 281.186 530.048V532.88C280.442 533.168 279.722 533.264 279.194 533.264ZM293.363 527.192C293.363 527.528 293.339 527.84 293.291 528.344H285.515C285.659 529.28 286.379 530 287.939 530C288.827 530 289.763 529.664 290.435 528.848L292.931 531.056C291.683 532.472 290.003 533.264 287.915 533.264C283.547 533.264 281.891 530.192 281.891 527.144C281.891 524.192 283.499 520.904 287.723 520.904C291.419 520.904 293.363 523.544 293.363 527.192ZM285.467 525.68H289.907C289.859 524.576 288.875 523.904 287.675 523.904C286.163 523.904 285.611 524.912 285.467 525.68ZM289.859 526.136L289.883 526.112L289.859 526.136ZM298.879 533.264C296.263 533.264 294.391 531.56 293.839 529.832L296.695 528.56C296.935 529.208 297.247 530.384 298.855 530.384C299.863 530.384 300.151 529.952 300.151 529.592C300.151 527.96 294.487 528.776 294.487 524.6C294.487 521.936 296.815 520.904 298.951 520.904C301.135 520.904 302.695 521.96 303.631 523.52L300.847 525.056C300.559 524.528 300.079 523.568 298.903 523.568C298.231 523.568 297.895 523.856 297.895 524.24C297.895 525.8 303.703 524.624 303.703 529.088C303.703 532.064 301.087 533.264 298.879 533.264ZM305.374 536.48L306.622 529.112H310.678L307.726 536.48H305.374ZM116.808 558.192C116.808 558.528 116.784 558.84 116.736 559.344H108.96C109.104 560.28 109.824 561 111.384 561C112.272 561 113.208 560.664 113.88 559.848L116.376 562.056C115.128 563.472 113.448 564.264 111.36 564.264C106.992 564.264 105.336 561.192 105.336 558.144C105.336 555.192 106.944 551.904 111.168 551.904C114.864 551.904 116.808 554.544 116.808 558.192ZM108.912 556.68H113.352C113.304 555.576 112.32 554.904 111.12 554.904C109.608 554.904 109.056 555.912 108.912 556.68ZM113.304 557.136L113.328 557.112L113.304 557.136ZM123.332 551.904C126.692 551.904 128.708 553.68 128.708 556.488V564H125.396L125.156 562.824C124.196 564.096 122.924 564.264 122.06 564.264C119.396 564.264 117.476 562.608 117.476 560.184C117.476 558.816 118.1 557.832 119.108 557.28C119.852 556.872 120.788 556.68 121.844 556.68H125.108V556.488C125.108 555.648 124.388 555.048 123.068 555.048C122.18 555.048 121.268 555.312 120.212 556.32L117.596 554.136C119.084 552.576 121.268 551.904 123.332 551.904ZM122.636 561.36C123.932 561.36 125.036 560.52 125.108 559.344H122.372C121.988 559.344 121.676 559.416 121.46 559.56C121.22 559.728 121.1 559.968 121.1 560.256C121.1 560.856 121.604 561.36 122.636 561.36ZM135.944 564.264C131.816 564.264 129.968 561.144 129.968 558.12C129.968 555 131.888 551.904 135.92 551.904C138.416 551.904 140.312 553.08 141.2 555.504L137.792 556.872C137.624 555.768 136.88 555.048 135.92 555.048C134.24 555.048 133.688 556.584 133.688 558.12C133.688 559.632 134.192 561.12 135.896 561.12C136.832 561.12 137.6 560.424 137.816 559.368L141.08 560.64C140.288 562.872 138.416 564.264 135.944 564.264ZM149.61 551.904C152.322 551.904 153.978 553.488 153.978 556.128V564H150.354V557.04C150.354 555.696 149.73 555.048 148.434 555.048C146.538 555.048 146.25 556.704 146.25 559.704V564H142.626V547.272H146.25V553.272C147.042 552.336 148.122 551.904 149.61 551.904ZM164.354 564L160.61 552.168H164.45L166.154 558.432L167.858 552.168H170.906L172.61 558.384L174.338 552.168H178.202L174.434 564H171.242L169.394 557.328L167.594 564H164.354ZM179.234 550.536V547.272H182.93V550.536H179.234ZM179.258 564V552.168H182.882V564H179.258ZM192.691 554.976H189.667V559.896C189.667 560.352 189.667 561.336 191.155 561.336C191.635 561.336 192.163 561.24 192.691 561.072L192.667 563.88C191.899 564.144 191.131 564.264 190.291 564.264C188.059 564.264 186.067 563.256 186.067 560.232V554.976H184.171V552.168H186.067V550.416L189.667 547.752V552.168H192.691V554.976ZM201.125 551.904C203.837 551.904 205.493 553.488 205.493 556.128V564H201.869V557.04C201.869 555.696 201.245 555.048 199.949 555.048C198.053 555.048 197.765 556.704 197.765 559.704V564H194.141V547.272H197.765V553.272C198.557 552.336 199.637 551.904 201.125 551.904ZM227.582 551.904C230.438 551.904 231.782 554.232 231.782 556.368V564H228.158V557.496C228.158 556.608 227.966 555.048 226.478 555.048C224.054 555.048 224.582 557.952 224.582 560.184V564H220.982V557.424C220.982 557.136 221.15 555.048 219.398 555.048C216.902 555.048 217.406 557.952 217.406 560.184V564H213.782L213.758 552.168H217.238V553.704C218.03 552.288 219.278 551.904 220.358 551.904C221.558 551.904 223.022 552.36 223.79 554.256C224.822 552.312 226.214 551.904 227.582 551.904ZM239.165 564.264C235.325 564.264 233.069 561.312 233.069 558.072C233.069 554.832 235.301 551.904 239.165 551.904C242.981 551.904 245.237 554.808 245.237 558.072C245.237 561.312 242.957 564.264 239.165 564.264ZM239.165 561.12C241.109 561.12 241.613 559.56 241.613 558.072C241.613 556.584 241.133 555.048 239.165 555.048C237.197 555.048 236.693 556.56 236.693 558.072C236.693 559.512 237.173 561.12 239.165 561.12ZM253.476 551.904C254.292 551.904 255.012 552.12 255.852 552.672L254.124 555.936C253.788 555.72 253.164 555.504 252.588 555.504C251.316 555.504 250.476 556.416 250.476 558.504V564H246.852V552.168H250.5V553.968C251.052 552.72 252.204 551.904 253.476 551.904ZM266.55 558.192C266.55 558.528 266.526 558.84 266.478 559.344H258.702C258.846 560.28 259.566 561 261.126 561C262.014 561 262.95 560.664 263.622 559.848L266.118 562.056C264.87 563.472 263.19 564.264 261.102 564.264C256.734 564.264 255.078 561.192 255.078 558.144C255.078 555.192 256.686 551.904 260.91 551.904C264.606 551.904 266.55 554.544 266.55 558.192ZM258.654 556.68H263.094C263.046 555.576 262.062 554.904 260.862 554.904C259.35 554.904 258.798 555.912 258.654 556.68ZM263.046 557.136L263.07 557.112L263.046 557.136ZM281.214 554.976H278.19V559.896C278.19 560.352 278.19 561.336 279.678 561.336C280.158 561.336 280.686 561.24 281.214 561.072L281.19 563.88C280.422 564.144 279.654 564.264 278.814 564.264C276.582 564.264 274.59 563.256 274.59 560.232V554.976H272.694V552.168H274.59V550.416L278.19 547.752V552.168H281.214V554.976ZM289.649 551.904C292.361 551.904 294.017 553.488 294.017 556.128V564H290.393V557.04C290.393 555.696 289.769 555.048 288.473 555.048C286.577 555.048 286.289 556.704 286.289 559.704V564H282.665V547.272H286.289V553.272C287.081 552.336 288.161 551.904 289.649 551.904ZM301.27 551.904C304.63 551.904 306.646 553.68 306.646 556.488V564H303.334L303.094 562.824C302.134 564.096 300.862 564.264 299.998 564.264C297.334 564.264 295.414 562.608 295.414 560.184C295.414 558.816 296.038 557.832 297.046 557.28C297.79 556.872 298.726 556.68 299.782 556.68H303.046V556.488C303.046 555.648 302.326 555.048 301.006 555.048C300.118 555.048 299.206 555.312 298.15 556.32L295.534 554.136C297.022 552.576 299.206 551.904 301.27 551.904ZM300.574 561.36C301.87 561.36 302.974 560.52 303.046 559.344H300.31C299.926 559.344 299.614 559.416 299.398 559.56C299.158 559.728 299.038 559.968 299.038 560.256C299.038 560.856 299.542 561.36 300.574 561.36ZM315.992 551.904C318.728 551.904 320.36 553.536 320.36 556.128V564H316.736V557.472C316.736 556.56 316.736 555.048 314.864 555.048C312.632 555.048 312.632 557.184 312.632 558.48V564H309.008V552.168H312.632V553.272C313.52 552.192 314.744 551.904 315.992 551.904ZM112.728 583.552C116.04 583.552 118.536 586.024 118.536 589.288C118.536 592.84 115.656 595.264 112.224 595.264C108.744 595.264 105.864 592.816 105.864 589.312C105.864 588.232 106.176 587.104 106.824 586.096L111.792 578.272H115.968L112.368 583.552H112.728ZM112.224 591.808C113.688 591.808 114.864 590.896 114.864 589.288C114.864 587.68 113.712 586.744 112.224 586.744C110.736 586.744 109.56 587.656 109.56 589.288C109.56 590.896 110.736 591.808 112.224 591.808ZM126.496 595.24C120.904 595.24 120.424 589.912 120.424 586.528C120.424 583.336 120.856 577.984 126.496 577.984C132.16 577.984 132.568 583.384 132.568 586.528C132.568 589.912 132.088 595.24 126.496 595.24ZM126.496 591.784C128.608 591.784 128.872 589.36 128.872 586.648C128.872 583.816 128.608 581.464 126.496 581.464C124.384 581.464 124.12 583.816 124.12 586.648C124.12 589.36 124.384 591.784 126.496 591.784ZM140.84 595.24C135.248 595.24 134.768 589.912 134.768 586.528C134.768 583.336 135.2 577.984 140.84 577.984C146.504 577.984 146.912 583.384 146.912 586.528C146.912 589.912 146.432 595.24 140.84 595.24ZM140.84 591.784C142.952 591.784 143.216 589.36 143.216 586.648C143.216 583.816 142.952 581.464 140.84 581.464C138.728 581.464 138.464 583.816 138.464 586.648C138.464 589.36 138.728 591.784 140.84 591.784ZM160.108 595.264C155.98 595.264 154.132 592.144 154.132 589.12C154.132 586 156.052 582.904 160.084 582.904C162.58 582.904 164.476 584.08 165.364 586.504L161.956 587.872C161.788 586.768 161.044 586.048 160.084 586.048C158.404 586.048 157.852 587.584 157.852 589.12C157.852 590.632 158.356 592.12 160.06 592.12C160.996 592.12 161.764 591.424 161.98 590.368L165.244 591.64C164.452 593.872 162.58 595.264 160.108 595.264ZM173.774 582.904C176.486 582.904 178.142 584.488 178.142 587.128V595H174.518V588.04C174.518 586.696 173.894 586.048 172.598 586.048C170.702 586.048 170.414 587.704 170.414 590.704V595H166.79V578.272H170.414V584.272C171.206 583.336 172.286 582.904 173.774 582.904ZM185.395 582.904C188.755 582.904 190.771 584.68 190.771 587.488V595H187.459L187.219 593.824C186.259 595.096 184.987 595.264 184.123 595.264C181.459 595.264 179.539 593.608 179.539 591.184C179.539 589.816 180.163 588.832 181.171 588.28C181.915 587.872 182.851 587.68 183.907 587.68H187.171V587.488C187.171 586.648 186.451 586.048 185.131 586.048C184.243 586.048 183.331 586.312 182.275 587.32L179.659 585.136C181.147 583.576 183.331 582.904 185.395 582.904ZM184.699 592.36C185.995 592.36 187.099 591.52 187.171 590.344H184.435C184.051 590.344 183.739 590.416 183.523 590.56C183.283 590.728 183.163 590.968 183.163 591.256C183.163 591.856 183.667 592.36 184.699 592.36ZM199.757 582.904C200.573 582.904 201.293 583.12 202.133 583.672L200.405 586.936C200.069 586.72 199.445 586.504 198.869 586.504C197.597 586.504 196.757 587.416 196.757 589.504V595H193.133V583.168H196.781V584.968C197.333 583.72 198.485 582.904 199.757 582.904ZM207.871 582.904C211.231 582.904 213.247 584.68 213.247 587.488V595H209.935L209.695 593.824C208.735 595.096 207.463 595.264 206.599 595.264C203.935 595.264 202.015 593.608 202.015 591.184C202.015 589.816 202.639 588.832 203.647 588.28C204.391 587.872 205.327 587.68 206.383 587.68H209.647V587.488C209.647 586.648 208.927 586.048 207.607 586.048C206.719 586.048 205.807 586.312 204.751 587.32L202.135 585.136C203.623 583.576 205.807 582.904 207.871 582.904ZM207.175 592.36C208.471 592.36 209.575 591.52 209.647 590.344H206.911C206.527 590.344 206.215 590.416 205.999 590.56C205.759 590.728 205.639 590.968 205.639 591.256C205.639 591.856 206.143 592.36 207.175 592.36ZM220.483 595.264C216.355 595.264 214.507 592.144 214.507 589.12C214.507 586 216.427 582.904 220.459 582.904C222.955 582.904 224.851 584.08 225.739 586.504L222.331 587.872C222.163 586.768 221.419 586.048 220.459 586.048C218.779 586.048 218.227 587.584 218.227 589.12C218.227 590.632 218.731 592.12 220.435 592.12C221.371 592.12 222.139 591.424 222.355 590.368L225.619 591.64C224.827 593.872 222.955 595.264 220.483 595.264ZM234.269 585.976H231.245V590.896C231.245 591.352 231.245 592.336 232.733 592.336C233.213 592.336 233.741 592.24 234.269 592.072L234.245 594.88C233.477 595.144 232.709 595.264 231.869 595.264C229.637 595.264 227.645 594.256 227.645 591.232V585.976H225.749V583.168H227.645V581.416L231.245 578.752V583.168H234.269V585.976ZM246.628 589.192C246.628 589.528 246.604 589.84 246.556 590.344H238.78C238.924 591.28 239.644 592 241.204 592C242.092 592 243.028 591.664 243.7 590.848L246.196 593.056C244.948 594.472 243.268 595.264 241.18 595.264C236.812 595.264 235.156 592.192 235.156 589.144C235.156 586.192 236.764 582.904 240.988 582.904C244.684 582.904 246.628 585.544 246.628 589.192ZM238.732 587.68H243.172C243.124 586.576 242.14 585.904 240.94 585.904C239.428 585.904 238.876 586.912 238.732 587.68ZM243.124 588.136L243.148 588.112L243.124 588.136ZM254.952 582.904C255.768 582.904 256.488 583.12 257.328 583.672L255.6 586.936C255.264 586.72 254.64 586.504 254.064 586.504C252.792 586.504 251.952 587.416 251.952 589.504V595H248.328V583.168H251.976V584.968C252.528 583.72 253.68 582.904 254.952 582.904ZM261.683 595.264C259.067 595.264 257.195 593.56 256.643 591.832L259.499 590.56C259.739 591.208 260.051 592.384 261.659 592.384C262.667 592.384 262.955 591.952 262.955 591.592C262.955 589.96 257.291 590.776 257.291 586.6C257.291 583.936 259.619 582.904 261.755 582.904C263.939 582.904 265.499 583.96 266.435 585.52L263.651 587.056C263.363 586.528 262.883 585.568 261.707 585.568C261.035 585.568 260.699 585.856 260.699 586.24C260.699 587.8 266.507 586.624 266.507 591.088C266.507 594.064 263.891 595.264 261.683 595.264Z" fill="#201806"/>
<path d="M99.5 826.5V788.5H202V826.5H99.5Z" stroke="#201806" stroke-width="5"/>
<path d="M200.738 297.114L192.568 284.672L185.233 288.819L163.914 291.584L149.93 300.801L123.797 307.714L106 321.5L127.465 300.801L163.914 291.584L185.233 288.819L192.568 284.672L200.738 297.114L204.203 286.561L203.113 284.672L185.233 269.925L172.395 251.03L154.973 232.136L157.724 222.458L163.914 218.541V211.398C163.914 211.398 145.466 207.629 149.93 203.102C152.501 200.496 155.729 199.847 159.1 201.259C163.128 202.947 163.914 211.398 163.914 211.398V218.541L170.103 214.623C170.103 214.623 165.893 210.336 165.06 206.789C163.405 199.744 187.338 216.511 180.189 217.389C176.137 217.886 170.103 214.623 170.103 214.623L163.914 218.541L157.724 222.458L154.973 232.136L172.395 251.03L185.233 269.925V250.108V222.458L192.568 197.572L207.698 176.373L212.741 169L207.698 189.738L194.402 211.398L185.233 250.108V269.925L203.113 284.672L204.203 286.561L207.698 275.916L216.409 251.03L220.076 229.37C220.076 229.37 214.473 250.343 207.698 245.961C204.983 244.205 204.964 241.706 203.113 239.048C199.89 234.418 192.233 232.741 194.402 227.527C195.919 223.882 199.357 223.624 203.113 222.458C209.467 220.485 220.076 223.956 220.076 223.956C220.076 223.956 219.615 220.604 220.076 218.541C220.801 215.302 221.429 212.078 224.661 211.398C229.153 210.452 231.712 218.903 228.787 222.458C226.588 225.131 220.076 223.956 220.076 223.956V229.37L216.409 251.03L207.698 275.916L204.203 286.561L216.409 307.714L224.661 322H216.409L207.698 307.714L200.738 297.114Z" fill="#201806"/>
<path d="M240.708 291.584L238.874 322H228.329L229.246 307.714L233.372 280.985V251.03V232.136L240.708 243.196L243 270.386L240.708 291.584Z" fill="#201806"/>
<path d="M127.465 284.672V275.916L134.801 266.238L149.93 260.708L170.103 266.238M170.103 266.238L182.023 275.916L192.568 284.672M170.103 266.238L157.724 251.03L143.97 243.196M192.568 284.672L207.698 307.714L216.409 322H224.661L216.409 307.714L203.113 284.672L185.233 269.925M192.568 284.672L185.233 288.819L163.914 291.584M185.233 269.925V250.108M185.233 269.925L172.395 251.03L154.973 232.136M185.233 250.108V222.458L192.568 197.572L207.698 176.373L212.741 169L207.698 189.738L194.402 211.398L185.233 250.108ZM154.973 232.136L157.724 222.458L163.914 218.541M154.973 232.136L143.97 222.458L135.5 210.5M170.103 214.623C170.103 214.623 165.893 210.336 165.06 206.789C163.405 199.744 187.338 216.511 180.189 217.389C176.137 217.886 170.103 214.623 170.103 214.623ZM170.103 214.623L163.914 218.541M163.914 218.541V211.398M163.914 211.398C163.914 211.398 145.466 207.629 149.93 203.102C152.501 200.496 155.729 199.847 159.1 201.259C163.128 202.947 163.914 211.398 163.914 211.398ZM143.97 243.196H123.797L110.96 251.03L105 260.708M143.97 243.196L127.465 232.136L108 218.541M163.914 291.584L149.93 300.801L123.797 307.714L106 321.5L127.465 300.801L163.914 291.584ZM192.568 322L207.698 275.916L216.409 251.03L220.076 229.37M220.076 229.37V223.956M220.076 229.37C220.076 229.37 214.473 250.343 207.698 245.961C204.983 244.205 204.964 241.706 203.113 239.048C199.89 234.418 192.233 232.741 194.402 227.527C195.919 223.882 199.357 223.624 203.113 222.458C209.467 220.485 220.076 223.956 220.076 223.956M220.076 223.956C220.076 223.956 219.615 220.604 220.076 218.541C220.801 215.302 221.429 212.078 224.661 211.398C229.153 210.452 231.712 218.903 228.787 222.458C226.588 225.131 220.076 223.956 220.076 223.956ZM238.874 322L240.708 291.584L243 270.386L240.708 243.196L233.372 232.136V251.03V280.985L229.246 307.714L228.329 322H238.874Z" stroke="#201806" stroke-width="5"/>
<path d="M287.758 170.528V184.691V208.296C287.758 208.296 311.453 210.737 324.524 217.739C338.764 225.366 346.995 231.924 356.5 245C365.416 257.266 368.986 265.369 374.5 279.5C380.777 295.587 384.323 306.743 388.5 323.5C392.33 338.867 393.914 347.8 396 363.5C399.834 392.353 399 407.5 399 431.5C399 455.5 399 502 399 502V570.872V648.298V726.667V800.315V846.581C399 846.581 397.464 875.506 392.4 892.848C388.375 906.632 383.492 913.773 374.488 924.951C364.484 937.371 357.829 944.667 343.378 951.388C328.502 958.308 301.899 957.998 301.899 957.998H117.125C117.125 957.998 98.0605 956.104 86.9578 951.388C71.4997 944.823 63.579 938.026 53.0198 924.951C44.1128 913.921 42.6973 910.283 38.874 896.624C34.0042 879.227 36.0456 868.426 36.0456 850.358C36.0456 829.709 36.0508 814.355 36.0508 793.706C36.0508 764.944 36.0508 720.057 36.0508 720.057V641.688V570.872V499.113V431.13C36.0508 431.13 33.6865 389.59 36.0508 363.147C37.444 347.565 38.3357 338.765 41.7071 323.49C45.4521 306.522 47.329 296.634 54.9053 281.001C62.0839 266.188 64.9685 258.585 75.6461 246.065C86.1347 233.767 94.4101 225.384 108.64 217.739C120.762 211.226 142.578 208.296 142.578 208.296V184.691V170.528M287.758 170.528H142.578M287.758 170.528H297.185M142.578 170.528H132.209M297.185 170.528V136.537M297.185 170.528H319.81H132.209M132.209 170.528V136.537M132.209 170.528H108.64M132.209 136.537V86.493C132.209 80.4084 134.428 74.5327 138.45 69.9671L138.884 69.4741C143.63 64.0868 150.463 61 157.643 61H275.138C282.956 61 290.189 65.1404 294.149 71.8818V71.8818C296.137 75.2668 297.185 79.1213 297.185 83.047V136.537M132.209 136.537H297.185" stroke="#201806" stroke-width="5"/>
<path d="M361.5 322H70V861H361.5V322Z" stroke="#201806" stroke-width="5"/>
<path d="M822.999 772C798.407 761.212 756.499 754.5 756.499 754.5L746.999 761L760.499 768C760.499 768 790.469 781.84 808.999 792C825.354 800.968 833.925 807.037 849.999 816.5C876.004 831.81 897.286 832.151 916.999 855C930.919 871.134 941.999 903.5 941.999 903.5C941.999 903.5 948.84 881.357 945.999 867.5C942.757 851.685 934.755 844.54 923.999 832.5C905.659 811.971 887.704 809.496 863.999 795.5C848.107 786.117 839.899 779.414 822.999 772Z" fill="#201806" stroke="#201806" stroke-width="5"/>
<path d="M750.026 828L727.026 832L747.026 854C747.026 854 769.533 863.306 768.526 875C767.46 887.379 752.315 896.191 741.026 891C727.726 884.885 747.026 854 747.026 854L727.026 832L700.026 842C700.026 842 730.455 861.568 722.526 875C714.982 887.779 692.07 887.779 684.526 875C677.288 862.739 700.026 842 700.026 842L727.026 832L705.526 800.5C705.526 800.5 676.004 794.837 677.026 781.5C678.001 768.773 694.153 759.705 705.526 765.5C717.705 771.705 705.526 800.5 705.526 800.5L727.026 832L750.026 828L768.526 824C768.526 824 772.313 814.656 777.526 814C785.158 813.039 783.933 824.474 785.526 832C787.969 843.539 791.307 854.721 782.026 862C769.634 871.719 768.526 824 768.526 824L750.026 828Z" fill="#201806"/>
<path d="M785.526 704.5C775.367 707.418 759.026 710 759.026 710C759.026 710 717.789 697.754 708.026 683.5L683.026 647C683.026 647 709.274 671.141 727.026 685.5C739.263 695.398 759.026 710 759.026 710C759.026 710 778.742 692.191 794.026 685.5C811.673 677.774 842.526 676.5 842.526 676.5C842.526 676.5 809.363 697.653 785.526 704.5Z" fill="#201806"/>
<path d="M727.026 832L750.026 828L768.526 824M727.026 832L747.026 854M727.026 832L705.526 800.5M727.026 832L700.026 842M768.526 824C768.526 824 772.313 814.656 777.526 814C785.158 813.039 783.933 824.474 785.526 832C787.969 843.539 791.307 854.721 782.026 862C769.634 871.719 768.526 824 768.526 824ZM747.026 854C747.026 854 769.533 863.306 768.526 875C767.46 887.379 752.315 896.191 741.026 891C727.726 884.885 747.026 854 747.026 854ZM705.526 800.5C705.526 800.5 717.705 771.705 705.526 765.5C694.153 759.705 678.001 768.773 677.026 781.5C676.004 794.837 705.526 800.5 705.526 800.5ZM700.026 842C700.026 842 677.288 862.739 684.526 875C692.07 887.779 714.982 887.779 722.526 875C730.455 861.568 700.026 842 700.026 842ZM759.026 710C759.026 710 775.367 707.418 785.526 704.5C809.363 697.653 842.526 676.5 842.526 676.5C842.526 676.5 811.673 677.774 794.026 685.5C778.742 692.191 759.026 710 759.026 710ZM759.026 710C759.026 710 739.263 695.398 727.026 685.5C709.274 671.141 683.026 647 683.026 647C692.789 661.254 698.263 669.246 708.026 683.5C717.789 697.754 759.026 710 759.026 710Z" stroke="#201806" stroke-width="5"/>
<path d="M814.499 643.5L783.499 648.5H841.999C841.999 648.5 865.211 652.174 879.999 655C893.127 657.508 902.236 654.805 913.499 662C927.244 670.781 935.499 697.5 935.499 697.5C935.499 697.5 932.928 660.99 917.999 645.75C894.737 622.004 866.106 638.267 832.999 641.25C825.75 641.903 814.499 643.5 814.499 643.5Z" fill="#201806" stroke="#201806" stroke-width="5"/>
<path d="M750.499 644.5V690.5L725.999 630L707.499 566C707.499 566 700.554 549.124 696.999 538C689.294 513.889 683.999 474.5 683.999 474.5L719.999 550L736.499 593.5L750.499 644.5Z" fill="#201806"/>
<path d="M750.499 690.5V644.5L736.499 593.5L719.999 550L683.999 474.5C683.999 474.5 689.294 513.889 696.999 538C700.554 549.124 707.499 566 707.499 566L725.999 630L750.499 690.5ZM750.499 690.5L759.499 706" stroke="#201806" stroke-width="5"/>
<path d="M788.909 308L779.999 294.5L771.999 299L748.749 302C748.749 302 739.889 308.856 733.499 312C723.172 317.081 715.605 315.033 704.999 319.5C696.539 323.063 684.499 331 684.499 331C684.499 331 698.271 317.614 708.999 312C723.182 304.578 748.749 302 748.749 302L771.999 299L779.999 294.5L788.909 308L792.688 296.549L791.499 294.5L771.999 278.5L757.999 258L738.999 237.5L741.999 227L748.749 222.75V215C748.749 215 728.63 210.911 733.499 206C736.303 203.172 739.823 202.468 743.499 204C747.893 205.831 748.749 215 748.749 215V222.75L755.499 218.5C755.499 218.5 750.908 213.848 749.999 210C748.194 202.356 774.295 220.548 766.499 221.5C762.079 222.04 755.499 218.5 755.499 218.5L748.749 222.75L741.999 227L738.999 237.5L757.999 258L771.999 278.5V257V227L779.999 200L796.499 177L801.499 170.5L796.499 191.5L781.999 215L771.999 257V278.5L791.499 294.5L792.688 296.549L796.499 285L805.999 258L809.999 234.5C809.999 234.5 803.888 257.254 796.499 252.5C793.539 250.595 793.517 247.884 791.499 245C787.984 239.976 779.633 238.157 781.999 232.5C783.653 228.545 787.403 228.265 791.499 227C798.428 224.859 809.999 228.625 809.999 228.625C809.999 228.625 809.496 224.988 809.999 222.75C810.789 219.236 811.474 215.738 814.999 215C819.898 213.974 822.688 223.143 819.499 227C817.101 229.901 809.999 228.625 809.999 228.625V234.5L805.999 258L796.499 285L792.688 296.549L805.999 319.5L814.999 335L809.999 392L801.999 433L796.499 457.5L791.499 453.5V433L801.999 382L805.999 335L796.499 319.5L788.909 308L779.999 335L766.499 402.5L748.749 433L741.124 459.25L756.999 451.5C756.999 451.5 769.485 430.979 775.999 437.5C776.13 437.631 776.256 437.765 776.377 437.903L773.999 423H779.499L794.499 464V490V512.5L791.499 546L794.499 551.5L808.999 528.5L824.499 498.5L854.999 457.5L834.999 497L822.499 520L799.999 559L791.499 585.5L786.499 608L808.999 596.5L842.999 572.5L883.499 541.5L866.499 562L842.999 582L808.999 603L786.645 610L787.999 628.5L777.499 664.5L772.999 682L792.999 677L832.999 661L869.499 628.5L881.499 606.5L894.499 562L890.999 514.5L887.288 489.512L874.999 476.5L862.499 450L852.499 408.5L846.999 419.5C846.999 419.5 845.95 427.964 843.999 433C841.103 440.474 840.308 448.194 832.499 450C827.193 451.227 822.89 450.311 818.999 446.5C811.438 439.093 823.309 428.25 832.499 423C837.557 420.111 846.999 419.5 846.999 419.5L852.499 408.5L862.499 412.5L869.499 437.5L862.499 427.5C860.558 421.973 862.499 412.5 862.499 412.5L852.499 408.5L862.499 450L874.999 476.5L887.288 489.512L883.499 464L869.499 414L859.999 382L848.499 376C848.499 376 848.893 385.132 846.999 390.5C843.826 399.492 839.468 411.739 830.499 408.5C822.653 405.667 822.502 396.099 824.499 388C825.848 382.532 827.609 378.794 832.499 376C837.924 372.9 848.499 376 848.499 376L859.999 382L843.999 362.5C843.999 362.5 828.853 349.174 834.999 344C839.668 340.069 846.981 341.013 850.499 346C854.492 351.659 843.999 362.5 843.999 362.5L859.999 382L865.499 362.5L862.499 357L869.499 360L865.499 362.5L859.999 382L869.499 376L881.999 370C881.999 370 895.83 368.681 901.499 374C905.837 378.07 910.639 382.948 907.499 388C904.668 392.554 899.253 391.568 893.999 390.5C886.688 389.014 886.992 380.1 879.999 377.5C876.116 376.057 869.499 376 869.499 376L859.999 382L869.499 414L883.499 464L887.288 489.512L890.999 514.5L894.499 562L881.499 606.5L869.499 628.5L832.999 661L792.999 677L772.999 682L770.499 714L758.999 737.5L750.499 756.5L732.999 840.5L728.499 916.5L722.499 920.5L732.999 787.5L740.499 745.5L755.999 707.5L760.999 667.5L770.499 628.5L775.999 610L779.499 578L783.999 546V507L781.499 470L778.205 449.36C777.015 453.202 774.274 456.539 770.499 457.5C764.908 458.923 756.999 451.5 756.999 451.5L741.124 459.25L733.499 485.5L716.999 541.5L741.124 459.25L716.999 451.5C716.999 451.5 698.497 465.685 695.499 457.5C693.114 450.989 698.094 443.127 704.999 442.5C710.833 441.97 716.999 451.5 716.999 451.5L741.124 459.25L733.499 442.5C733.499 442.5 705.183 444.731 704.999 433C704.814 421.206 726.275 413.676 733.499 423C738.163 429.02 733.499 442.5 733.499 442.5L741.124 459.25L748.749 433L766.499 402.5L779.999 335L788.909 308Z" fill="#201806"/>
<path d="M834.999 302C833.856 314.86 832.499 324 826.999 331C824.224 334.531 818.999 335 818.999 335L819.999 319.5C819.999 319.5 823.573 301.923 824.499 290.5C825.525 277.849 824.499 270.692 824.499 258V237.5C824.499 237.5 830.178 244.368 832.499 249.5C837.263 260.034 835.273 267.441 834.999 279C834.785 288.032 835.799 293 834.999 302Z" fill="#201806"/>
<path d="M708.999 294.5V285L716.999 274.5L733.499 268.5L755.499 274.5M755.499 274.5L768.499 285L779.999 294.5M755.499 274.5L741.999 258L726.999 249.5M779.999 294.5L796.499 319.5L805.999 335M779.999 294.5L771.999 299L748.749 302M805.999 335H814.999M805.999 335L801.999 382L791.499 433V453.5L796.499 457.5L801.999 433L809.999 392L814.999 335M814.999 335L805.999 319.5L791.499 294.5L771.999 278.5M771.999 278.5V257M771.999 278.5L757.999 258L738.999 237.5M771.999 257V227L779.999 200L796.499 177L801.499 170.5L796.499 191.5L781.999 215L771.999 257ZM738.999 237.5L741.999 227L748.749 222.75M738.999 237.5L726.999 227L706.499 212.5M755.499 218.5C755.499 218.5 750.908 213.848 749.999 210C748.194 202.356 774.295 220.548 766.499 221.5C762.079 222.04 755.499 218.5 755.499 218.5ZM755.499 218.5L748.749 222.75M748.749 222.75V215M748.749 215C748.749 215 728.63 210.911 733.499 206C736.303 203.172 739.823 202.468 743.499 204C747.893 205.831 748.749 215 748.749 215ZM726.999 249.5H704.999L690.999 258L684.499 268.5M726.999 249.5L708.999 237.5L686.499 221.5M748.749 302C748.749 302 739.889 308.856 733.499 312C723.172 317.081 715.605 315.033 704.999 319.5C696.539 323.063 684.499 331 684.499 331C684.499 331 698.271 317.614 708.999 312C723.182 304.578 748.749 302 748.749 302ZM809.999 234.5L805.999 258L796.499 285L779.999 335L766.499 402.5L748.749 433L741.124 459.25M809.999 234.5V228.625M809.999 234.5C809.999 234.5 803.888 257.254 796.499 252.5C793.539 250.595 793.517 247.884 791.499 245C787.984 239.976 779.633 238.157 781.999 232.5C783.653 228.545 787.403 228.265 791.499 227C798.428 224.859 809.999 228.625 809.999 228.625M809.999 228.625C809.999 228.625 809.496 224.988 809.999 222.75C810.789 219.236 811.474 215.738 814.999 215C819.898 213.974 822.688 223.143 819.499 227C817.101 229.901 809.999 228.625 809.999 228.625ZM741.124 459.25L733.499 485.5L716.999 541.5L741.124 459.25ZM741.124 459.25L733.499 442.5M741.124 459.25L716.999 451.5M741.124 459.25L756.999 451.5M733.499 442.5C733.499 442.5 738.163 429.02 733.499 423C726.275 413.676 704.814 421.206 704.999 433C705.183 444.731 733.499 442.5 733.499 442.5ZM716.999 451.5C716.999 451.5 710.833 441.97 704.999 442.5C698.094 443.127 693.114 450.989 695.499 457.5C698.497 465.685 716.999 451.5 716.999 451.5ZM756.999 451.5C756.999 451.5 764.908 458.923 770.499 457.5C778.349 455.502 781.724 443.231 775.999 437.5C769.485 430.979 756.999 451.5 756.999 451.5ZM791.499 546L794.499 512.5V490V464L779.499 423H773.999L781.499 470L783.999 507V546M791.499 546H783.999M791.499 546L794.499 551.5M783.999 546L779.499 578L775.999 610L770.499 628.5M770.499 628.5L777.499 642L787.999 628.5M770.499 628.5L760.999 667.5L755.999 707.5L740.499 745.5L732.999 787.5L722.499 920.5L728.499 916.5L732.999 840.5L750.499 756.5L758.999 737.5L770.499 714L772.999 682M787.999 628.5L777.499 664.5L772.999 682M787.999 628.5L786.645 610M786.499 608L791.499 585.5L799.999 559L822.499 520L834.999 497L854.999 457.5L824.499 498.5L808.999 528.5L794.499 551.5M786.499 608L808.999 596.5L842.999 572.5L883.499 541.5L866.499 562L842.999 582L808.999 603L786.645 610M786.499 608L786.645 610M794.499 551.5L783.999 585.5M772.999 682L792.999 677L832.999 661L869.499 628.5L881.499 606.5L894.499 562L890.999 514.5L883.499 464L869.499 414L859.999 382M859.999 382L869.499 376M859.999 382L848.499 376M859.999 382L865.499 362.5M859.999 382L843.999 362.5M869.499 376L881.999 370C881.999 370 895.83 368.681 901.499 374C905.837 378.07 910.639 382.948 907.499 388C904.668 392.554 899.253 391.568 893.999 390.5C886.688 389.014 886.992 380.1 879.999 377.5C876.116 376.057 869.499 376 869.499 376ZM848.499 376C848.499 376 837.924 372.9 832.499 376C827.609 378.794 825.848 382.532 824.499 388C822.502 396.099 822.653 405.667 830.499 408.5C839.468 411.739 843.826 399.492 846.999 390.5C848.893 385.132 848.499 376 848.499 376ZM865.499 362.5L862.499 357L869.499 360L865.499 362.5ZM843.999 362.5C843.999 362.5 828.853 349.174 834.999 344C839.668 340.069 846.981 341.013 850.499 346C854.492 351.659 843.999 362.5 843.999 362.5ZM948.999 555L932.999 538L916.499 520L900.499 503.5L874.999 476.5L862.499 450L852.499 408.5M852.499 408.5L850.499 392M852.499 408.5L846.999 419.5M852.499 408.5L862.499 412.5M846.999 419.5C846.999 419.5 837.557 420.111 832.499 423C823.309 428.25 811.438 439.093 818.999 446.5C822.89 450.311 827.193 451.227 832.499 450C840.308 448.194 841.103 440.474 843.999 433C845.95 427.964 846.999 419.5 846.999 419.5ZM862.499 412.5C862.499 412.5 860.558 421.973 862.499 427.5L869.499 437.5L862.499 412.5ZM826.999 331C832.499 324 833.856 314.86 834.999 302C835.799 293 834.785 288.032 834.999 279C835.273 267.441 837.263 260.034 832.499 249.5C830.178 244.368 824.499 237.5 824.499 237.5C824.499 237.5 824.499 249.994 824.499 258C824.499 270.692 825.525 277.849 824.499 290.5C823.573 301.923 819.999 319.5 819.999 319.5L818.999 335C818.999 335 824.224 334.531 826.999 331Z" stroke="#201806" stroke-width="5"/>
<path d="M899.499 311.5L904.499 319L924.999 313.5C924.999 313.5 929.329 322.372 930.499 328.5C931.854 335.596 930.499 347 930.499 347C930.499 347 922.822 338.702 921.499 332C920.743 328.169 920.709 325.825 921.499 322C922.225 318.484 924.999 313.5 924.999 313.5L904.499 319L899.499 311.5L892.499 309.5C892.499 309.5 879.301 337.488 879.499 328.5C879.583 324.665 880.185 322.38 881.999 319C884.614 314.128 892.499 309.5 892.499 309.5L899.499 311.5Z" fill="#201806"/>
<path d="M773.499 382L784.999 372.5L799.499 364L829.999 361.5L858.499 355.5H876.999L901.499 325L904.499 319M904.499 319L899.499 311.5L892.499 309.5M904.499 319L924.999 313.5M892.499 309.5C892.499 309.5 884.614 314.128 881.999 319C880.185 322.38 879.583 324.665 879.499 328.5C879.301 337.488 892.499 309.5 892.499 309.5ZM924.999 313.5C924.999 313.5 929.329 322.372 930.499 328.5C931.854 335.596 930.499 347 930.499 347C930.499 347 922.822 338.702 921.499 332C920.743 328.169 920.709 325.825 921.499 322C922.225 318.484 924.999 313.5 924.999 313.5Z" stroke="#201806" stroke-width="5"/>
<path d="M866.758 170.528V184.691V208.296C866.758 208.296 890.453 210.737 903.524 217.739C917.764 225.366 928.495 232.989 938 246.065C946.916 258.33 950.486 266.869 956 281.001C962.277 297.087 965.323 306.743 969.5 323.5C973.33 338.867 973.385 347.3 975.471 363C977.049 374.871 976.902 384.628 978 393.5C978 408 978 417.374 978 431.5C978 455.5 978 502 978 502V570.872V648.298V726.667V800.315V846.581C978 846.581 976.464 875.506 971.4 892.848C967.375 906.632 962.492 913.773 953.488 924.951C943.484 937.371 936.829 944.667 922.378 951.388C907.502 958.308 880.899 957.998 880.899 957.998H696.125C696.125 957.998 677.06 956.104 665.958 951.388C650.5 944.823 642.579 938.026 632.02 924.951C623.113 913.921 621.697 910.283 617.874 896.624C613.004 879.227 615.046 868.426 615.046 850.358C615.046 829.709 615.051 814.355 615.051 793.706C615.051 764.944 615.051 720.057 615.051 720.057V641.688V570.872V499.113V431.13C615.051 431.13 612.686 389.59 615.051 363.147C616.444 347.565 617.336 338.765 620.707 323.49C624.452 306.522 626.329 296.634 633.905 281.001C641.084 266.188 643.968 258.585 654.646 246.065C665.135 233.767 673.41 225.384 687.64 217.739C699.762 211.226 721.578 208.296 721.578 208.296V184.691V170.528M866.758 170.528H721.578M866.758 170.528H876.185M721.578 170.528H711.209M876.185 170.528V136.537M876.185 170.528H898.81H711.209M711.209 170.528V136.537M711.209 170.528H687.64M711.209 136.537V86.493C711.209 80.4084 713.428 74.5327 717.45 69.9671L717.884 69.4741C722.63 64.0868 729.463 61 736.643 61H854.138C861.956 61 869.189 65.1404 873.149 71.8818V71.8818C875.137 75.2668 876.185 79.1213 876.185 83.047V136.537M711.209 136.537H876.185" stroke="#201806" stroke-width="5"/>
</svg>
