<svg width="1024" height="2006" viewBox="0 0 1024 2006" fill="none" xmlns="http://www.w3.org/2000/svg">
<g clip-path="url(#clip0_337_2410)">
<rect x="-2.5" y="2.5" width="1017" height="982" transform="matrix(-1 0 0 1 1019 1019)" fill="#F4EDDB" stroke="#201806" stroke-width="5"/>
<path d="M674.92 1564L674.884 1548.88L667.468 1561.34H664.84L657.46 1549.2V1564H651.988V1538.8H656.812L666.244 1554.46L675.532 1538.8H680.32L680.392 1564H674.92ZM695.191 1564.29C693.151 1564.29 691.315 1563.87 689.683 1563.03C688.075 1562.16 686.815 1560.98 685.903 1559.46C684.991 1557.95 684.535 1556.24 684.535 1554.32C684.535 1552.4 684.991 1550.68 685.903 1549.17C686.815 1547.66 688.075 1546.48 689.683 1545.64C691.315 1544.78 693.151 1544.34 695.191 1544.34C697.231 1544.34 699.055 1544.78 700.663 1545.64C702.271 1546.48 703.531 1547.66 704.443 1549.17C705.355 1550.68 705.811 1552.4 705.811 1554.32C705.811 1556.24 705.355 1557.95 704.443 1559.46C703.531 1560.98 702.271 1562.16 700.663 1563.03C699.055 1563.87 697.231 1564.29 695.191 1564.29ZM695.191 1559.68C696.631 1559.68 697.807 1559.2 698.719 1558.24C699.655 1557.26 700.123 1555.95 700.123 1554.32C700.123 1552.68 699.655 1551.39 698.719 1550.43C697.807 1549.44 696.631 1548.95 695.191 1548.95C693.751 1548.95 692.563 1549.44 691.627 1550.43C690.691 1551.39 690.223 1552.68 690.223 1554.32C690.223 1555.95 690.691 1557.26 691.627 1558.24C692.563 1559.2 693.751 1559.68 695.191 1559.68ZM721.337 1544.34C723.737 1544.34 725.669 1545.06 727.133 1546.5C728.621 1547.94 729.365 1550.08 729.365 1552.91V1564H723.749V1553.78C723.749 1552.24 723.413 1551.1 722.741 1550.36C722.069 1549.59 721.097 1549.2 719.825 1549.2C718.409 1549.2 717.281 1549.65 716.441 1550.54C715.601 1551.4 715.181 1552.7 715.181 1554.42V1564H709.565V1544.63H714.929V1546.9C715.673 1546.08 716.597 1545.46 717.701 1545.03C718.805 1544.57 720.017 1544.34 721.337 1544.34ZM746.947 1563.06C746.395 1563.47 745.711 1563.78 744.895 1564C744.103 1564.19 743.263 1564.29 742.375 1564.29C740.071 1564.29 738.283 1563.7 737.011 1562.52C735.763 1561.35 735.139 1559.62 735.139 1557.34V1549.38H732.151V1545.06H735.139V1540.35H740.755V1545.06H745.579V1549.38H740.755V1557.27C740.755 1558.08 740.959 1558.72 741.367 1559.18C741.799 1559.61 742.399 1559.82 743.167 1559.82C744.055 1559.82 744.811 1559.58 745.435 1559.1L746.947 1563.06ZM756.616 1564.29C755.008 1564.29 753.436 1564.1 751.9 1563.71C750.364 1563.3 749.14 1562.8 748.228 1562.2L750.1 1558.17C750.964 1558.72 752.008 1559.18 753.232 1559.54C754.456 1559.87 755.656 1560.04 756.832 1560.04C759.208 1560.04 760.396 1559.45 760.396 1558.28C760.396 1557.72 760.072 1557.33 759.424 1557.09C758.776 1556.85 757.78 1556.64 756.436 1556.48C754.852 1556.24 753.544 1555.96 752.512 1555.65C751.48 1555.34 750.58 1554.78 749.812 1553.99C749.068 1553.2 748.696 1552.07 748.696 1550.61C748.696 1549.38 749.044 1548.3 749.74 1547.37C750.46 1546.41 751.492 1545.66 752.836 1545.14C754.204 1544.61 755.812 1544.34 757.66 1544.34C759.028 1544.34 760.384 1544.5 761.728 1544.81C763.096 1545.1 764.224 1545.51 765.112 1546.04L763.24 1550.03C761.536 1549.07 759.676 1548.59 757.66 1548.59C756.46 1548.59 755.56 1548.76 754.96 1549.1C754.36 1549.43 754.06 1549.86 754.06 1550.39C754.06 1550.99 754.384 1551.41 755.032 1551.65C755.68 1551.89 756.712 1552.12 758.128 1552.34C759.712 1552.6 761.008 1552.89 762.016 1553.2C763.024 1553.49 763.9 1554.03 764.644 1554.82C765.388 1555.61 765.76 1556.72 765.76 1558.13C765.76 1559.33 765.4 1560.4 764.68 1561.34C763.96 1562.27 762.904 1563 761.512 1563.53C760.144 1564.04 758.512 1564.29 756.616 1564.29ZM788.197 1554.39C788.197 1554.46 788.161 1554.96 788.089 1555.9H773.437C773.701 1557.1 774.325 1558.05 775.309 1558.74C776.293 1559.44 777.517 1559.79 778.981 1559.79C779.989 1559.79 780.877 1559.64 781.645 1559.36C782.437 1559.04 783.169 1558.56 783.841 1557.92L786.829 1561.16C785.005 1563.24 782.341 1564.29 778.837 1564.29C776.653 1564.29 774.721 1563.87 773.041 1563.03C771.361 1562.16 770.065 1560.98 769.153 1559.46C768.241 1557.95 767.785 1556.24 767.785 1554.32C767.785 1552.42 768.229 1550.72 769.117 1549.2C770.029 1547.67 771.265 1546.48 772.825 1545.64C774.409 1544.78 776.173 1544.34 778.117 1544.34C780.013 1544.34 781.729 1544.75 783.265 1545.57C784.801 1546.38 786.001 1547.56 786.865 1549.1C787.753 1550.61 788.197 1552.37 788.197 1554.39ZM778.153 1548.59C776.881 1548.59 775.813 1548.95 774.949 1549.67C774.085 1550.39 773.557 1551.38 773.365 1552.62H782.905C782.713 1551.4 782.185 1550.43 781.321 1549.71C780.457 1548.96 779.401 1548.59 778.153 1548.59ZM797.3 1547.19C797.972 1546.25 798.872 1545.54 800 1545.06C801.152 1544.58 802.472 1544.34 803.96 1544.34V1549.53C803.336 1549.48 802.916 1549.46 802.7 1549.46C801.092 1549.46 799.832 1549.91 798.92 1550.82C798.008 1551.71 797.552 1553.06 797.552 1554.86V1564H791.936V1544.63H797.3V1547.19ZM812.663 1547.19C813.335 1546.25 814.235 1545.54 815.363 1545.06C816.515 1544.58 817.835 1544.34 819.323 1544.34V1549.53C818.699 1549.48 818.279 1549.46 818.063 1549.46C816.455 1549.46 815.195 1549.91 814.283 1550.82C813.371 1551.71 812.915 1553.06 812.915 1554.86V1564H807.299V1544.63H812.663V1547.19ZM830.369 1544.34C833.369 1544.34 835.673 1545.06 837.281 1546.5C838.889 1547.92 839.693 1550.07 839.693 1552.95V1564H834.437V1561.59C833.381 1563.39 831.413 1564.29 828.533 1564.29C827.045 1564.29 825.749 1564.04 824.645 1563.53C823.565 1563.03 822.737 1562.33 822.161 1561.44C821.585 1560.56 821.297 1559.55 821.297 1558.42C821.297 1556.62 821.969 1555.2 823.313 1554.17C824.681 1553.14 826.781 1552.62 829.613 1552.62H834.077C834.077 1551.4 833.705 1550.46 832.961 1549.82C832.217 1549.14 831.101 1548.81 829.613 1548.81C828.581 1548.81 827.561 1548.98 826.553 1549.31C825.569 1549.62 824.729 1550.06 824.033 1550.61L822.017 1546.68C823.073 1545.94 824.333 1545.36 825.797 1544.96C827.285 1544.55 828.809 1544.34 830.369 1544.34ZM829.937 1560.51C830.897 1560.51 831.749 1560.29 832.493 1559.86C833.237 1559.4 833.765 1558.74 834.077 1557.88V1555.9H830.225C827.921 1555.9 826.769 1556.66 826.769 1558.17C826.769 1558.89 827.045 1559.46 827.597 1559.9C828.173 1560.3 828.953 1560.51 829.937 1560.51ZM857.268 1563.06C856.716 1563.47 856.032 1563.78 855.216 1564C854.424 1564.19 853.584 1564.29 852.696 1564.29C850.392 1564.29 848.604 1563.7 847.332 1562.52C846.084 1561.35 845.46 1559.62 845.46 1557.34V1549.38H842.472V1545.06H845.46V1540.35H851.076V1545.06H855.9V1549.38H851.076V1557.27C851.076 1558.08 851.28 1558.72 851.688 1559.18C852.12 1559.61 852.72 1559.82 853.488 1559.82C854.376 1559.82 855.132 1559.58 855.756 1559.1L857.268 1563.06Z" fill="#201806"/>
<path d="M148.168 1562V1536.91H152.668V1547.02H163.648V1536.91H168.148V1562H163.648V1551.16H152.668V1562H148.168ZM196.424 1562H191.204L183.788 1549.51L179 1554.37V1562H174.5V1536.91H179V1548.72L190.268 1536.91H196.172L186.848 1546.41L196.424 1562ZM220.266 1548.43H230.346V1562H227.142L226.602 1559.41C225.126 1561.42 222.426 1562.54 219.186 1562.54C212.166 1562.54 206.802 1557.36 206.802 1549.4C206.802 1541.95 211.518 1536.33 219.042 1536.33C224.154 1536.33 228.258 1538.92 230.094 1543.68L225.954 1545.3C224.838 1542.2 222.354 1540.62 218.97 1540.62C214.146 1540.62 211.302 1543.86 211.302 1549.36C211.302 1555.09 214.362 1558.26 219.474 1558.26C223.506 1558.26 225.882 1556.28 225.882 1552.89V1552.57H220.266V1548.43ZM244.237 1543.89C245.425 1543.89 246.469 1544.18 247.621 1544.9L245.533 1548.72C244.921 1548.32 244.237 1548.1 243.373 1548.1C240.745 1548.1 239.449 1549.72 239.449 1553.07V1562H235.129V1544.25H239.485V1547.28C240.241 1545.08 242.221 1543.89 244.237 1543.89ZM256.219 1562.36C250.711 1562.36 247.327 1558.11 247.327 1553.11C247.327 1548.07 250.711 1543.89 256.219 1543.89C261.691 1543.89 265.111 1548.07 265.111 1553.11C265.111 1558.11 261.691 1562.36 256.219 1562.36ZM256.219 1558.58C259.495 1558.58 260.791 1555.99 260.791 1553.11C260.791 1550.19 259.495 1547.67 256.219 1547.67C252.943 1547.67 251.647 1550.19 251.647 1553.11C251.647 1555.99 252.943 1558.58 256.219 1558.58ZM277.961 1547.67H273.533V1556.71C273.533 1558.11 274.397 1558.76 275.801 1558.76C276.413 1558.76 277.169 1558.62 277.961 1558.36V1561.82C276.881 1562.18 275.801 1562.36 274.721 1562.36C271.733 1562.36 269.213 1560.81 269.213 1557.03V1547.67H266.333V1544.25H269.213V1540.83L273.533 1537.63V1544.25H277.961V1547.67ZM296.691 1552.89C296.691 1553.43 296.655 1553.97 296.583 1554.55H284.415C284.595 1556.89 286.035 1558.44 288.843 1558.44C290.427 1558.44 291.867 1557.93 293.091 1556.53L296.079 1559.16C294.135 1561.32 291.795 1562.36 288.807 1562.36C282.687 1562.36 280.095 1557.97 280.095 1553.22C280.095 1548.57 282.615 1543.89 288.519 1543.89C294.027 1543.89 296.691 1547.96 296.691 1552.89ZM284.379 1551.13H292.551C292.479 1548.86 290.751 1547.49 288.483 1547.49C285.855 1547.49 284.631 1549.36 284.379 1551.13ZM305.819 1562.36C302.075 1562.36 299.231 1560.09 298.367 1557.39L301.823 1555.84C302.291 1557.14 303.227 1558.76 305.603 1558.76C307.619 1558.76 308.483 1557.61 308.483 1556.67C308.483 1553.68 299.339 1555.66 299.339 1549.08C299.339 1545.66 302.435 1543.89 305.855 1543.89C308.915 1543.89 311.255 1545.33 312.587 1547.74L309.239 1549.58C308.627 1548.46 307.655 1547.31 305.711 1547.31C304.307 1547.31 303.443 1548 303.443 1548.82C303.443 1551.52 312.731 1549.94 312.731 1556.42C312.731 1560.56 309.167 1562.36 305.819 1562.36ZM316.411 1562V1536.91H320.731V1551.45L327.247 1544.25H333.043L326.419 1551.13L333.799 1562H328.651L323.467 1553.79L320.731 1556.82V1562H316.411Z" fill="#201806"/>
<line x1="2" y1="1461.49" x2="1020" y2="1461.49" stroke="#201806" stroke-width="5.0148"/>
<rect x="3" y="1332.74" width="116.144" height="131.263" fill="#201806"/>
<rect x="135" y="1313.87" width="132.835" height="150.128" fill="#201806"/>
<rect x="284" y="1296.99" width="146" height="164.035" fill="#201806"/>
<rect x="23.0547" y="1305.49" width="70.3365" height="27.2507" fill="#201806"/>
<ellipse cx="58.2229" cy="1304.77" rx="35.1683" ry="5.01986" fill="#201806"/>
<rect x="162" y="1282.7" width="80.4448" height="31.1669" fill="#201806"/>
<ellipse cx="202.222" cy="1281.88" rx="40.2224" ry="5.74128" fill="#201806"/>
<rect x="313.641" y="1262.6" width="87.8971" height="34.0542" fill="#201806"/>
<ellipse cx="357.589" cy="1261.71" rx="43.9486" ry="6.27315" fill="#201806"/>
<rect x="478.023" y="1241.94" width="97.2918" height="37.694" fill="#201806"/>
<ellipse cx="526.669" cy="1240.94" rx="48.6459" ry="6.94364" fill="#201806"/>
<rect x="661.852" y="1217.08" width="108.402" height="41.9985" fill="#201806"/>
<ellipse cx="716.053" cy="1215.97" rx="54.201" ry="7.73656" fill="#201806"/>
<rect x="860.852" y="1189.54" width="120.514" height="46.691" fill="#201806"/>
<ellipse cx="921.109" cy="1188.31" rx="60.2569" ry="8.60098" fill="#201806"/>
<rect x="446" y="1279.43" width="160.654" height="181.568" fill="#201806"/>
<rect x="626" y="1259.08" width="179" height="202.302" fill="#201806"/>
<rect x="821" y="1236.23" width="199" height="224.905" fill="#201806"/>
<path d="M56.8676 1307.01H60.8261V1330H56.8676V1313.9H51.4906V1310.6H54.5585C56.1419 1310.6 56.8676 1309.94 56.8676 1308.39V1307.01Z" fill="#F4EDDB"/>
<path d="M199.644 1306.74H210.321V1311H191.91V1307.26C196.55 1304.44 204.7 1299 204.7 1292.85C204.7 1290.48 203.492 1288.74 200.889 1288.74C197.569 1288.74 196.513 1291.57 196.4 1294.29L191.948 1293.95C191.948 1289.12 195.117 1284.36 200.965 1284.36C205.794 1284.36 209.227 1287.61 209.227 1292.51C209.227 1298.44 204.172 1303.94 199.644 1306.74Z" fill="#F4EDDB"/>
<path d="M355.138 1293.41C349.408 1293.41 344.461 1290.28 344.461 1283.93L349.367 1283.64C349.367 1286.9 351.881 1288.67 355.262 1288.67C358.189 1288.67 360.827 1287.31 360.827 1284.01C360.827 1280.06 356.952 1279.93 353.86 1279.93V1276.02C357.859 1276.02 359.302 1274.57 359.302 1272.35C359.302 1269.79 357.447 1268.6 355.138 1268.6C352.5 1268.6 350.768 1270.12 350.727 1272.72L345.863 1272.39C345.863 1266.99 350.109 1263.85 355.056 1263.85C359.837 1263.85 364.248 1266.78 364.248 1271.73C364.248 1273.95 363.341 1276.1 360.909 1277.42C364.331 1278.49 365.774 1281.42 365.774 1284.55C365.774 1290.36 360.744 1293.41 355.138 1293.41Z" fill="#F4EDDB"/>
<path d="M533.491 1261.27H538.556V1266.52H533.491V1274H528.015V1266.52H513.14V1263.23L528.7 1242.2H533.491V1261.27ZM520.076 1261.27H528.015V1250.09L520.076 1261.27Z" fill="#F4EDDB"/>
<path d="M715.749 1230.65C722.866 1230.65 727.798 1236.19 727.798 1242.65C727.798 1249.41 722.409 1255.51 714.833 1255.51C708.021 1255.51 702.886 1250.73 702.022 1244.78L708.021 1243.76C708.377 1246.66 710.563 1249.66 714.783 1249.66C719.257 1249.66 721.341 1246.1 721.341 1242.65C721.341 1239.34 719.409 1236.34 714.935 1236.34C711.936 1236.34 710.004 1237.82 708.834 1239.65L703.089 1238.22L706.496 1219.56H726.222V1225.41H711.529L710.258 1232.17C712.19 1230.95 714.122 1230.65 715.749 1230.65Z" fill="#F4EDDB"/>
<path d="M921.113 1205.27C929.195 1205.27 934.395 1211.14 934.395 1218.83C934.395 1226.97 927.952 1232.57 920.095 1232.57C912.183 1232.57 905.683 1226.97 905.683 1218.89C905.683 1216.34 906.474 1213.8 907.887 1211.54L919.643 1192.61H927.443L919.135 1205.38C919.813 1205.32 920.435 1205.27 921.113 1205.27ZM920.095 1226.07C924.222 1226.07 927.5 1223.35 927.5 1218.83C927.5 1214.31 924.222 1211.6 920.095 1211.6C915.913 1211.6 912.635 1214.31 912.635 1218.83C912.635 1223.35 915.913 1226.07 920.095 1226.07Z" fill="#F4EDDB"/>
<line x1="521.5" y1="1425" x2="521.5" y2="2006" stroke="#201806" stroke-width="5"/>
<path d="M349.488 1957H143.922V1600.07H349.488V1662.08H219.605V1740.45H340.455V1802.46H219.605V1894.5H349.488V1957Z" fill="#201806"/>
<path d="M899.5 1883V1948H628.5V1598H893V1663H709V1739H871.5V1802H709V1883H899.5Z" fill="#201806"/>
<rect x="-2.5" y="2.5" width="1016" height="1018.93" transform="matrix(-1 0 0 1 1019 9.03772)" fill="#F4EDDB" stroke="#201806" stroke-width="5"/>
<line x1="516.5" y1="9" x2="516.5" y2="1033" stroke="#201806" stroke-width="5"/>
<line x1="3" y1="518.5" x2="1019" y2="518.501" stroke="#201806" stroke-width="5"/>
<path d="M630.04 232V208.72H621.32V204.12H643.8V208.72H635.08V232H630.04ZM657.842 211.88C662.282 211.88 664.802 214.56 664.802 219.28V232H660.002V220.48C660.002 217.48 658.842 216.08 656.362 216.08C653.202 216.08 651.882 218.44 651.882 224.12V232H647.082V204.12H651.882V214.52C653.202 212.8 655.242 211.88 657.842 211.88ZM686.772 221.88C686.772 222.48 686.732 223.08 686.652 223.72H673.132C673.332 226.32 674.932 228.04 678.052 228.04C679.812 228.04 681.412 227.48 682.772 225.92L686.092 228.84C683.932 231.24 681.332 232.4 678.012 232.4C671.212 232.4 668.332 227.52 668.332 222.24C668.332 217.08 671.132 211.88 677.692 211.88C683.812 211.88 686.772 216.4 686.772 221.88ZM673.092 219.92H682.172C682.092 217.4 680.172 215.88 677.652 215.88C674.732 215.88 673.372 217.96 673.092 219.92ZM706.641 232.4C702.481 232.4 699.321 229.88 698.361 226.88L702.201 225.16C702.721 226.6 703.761 228.4 706.401 228.4C708.641 228.4 709.601 227.12 709.601 226.08C709.601 222.76 699.441 224.96 699.441 217.64C699.441 213.84 702.881 211.88 706.681 211.88C710.081 211.88 712.681 213.48 714.161 216.16L710.441 218.2C709.761 216.96 708.681 215.68 706.521 215.68C704.961 215.68 704.001 216.44 704.001 217.36C704.001 220.36 714.321 218.6 714.321 225.8C714.321 230.4 710.361 232.4 706.641 232.4ZM725.854 211.88C731.054 211.88 734.294 214.8 734.294 219.56V232H729.894L729.494 229.44C728.334 231.28 726.094 232.4 723.494 232.4C719.334 232.4 716.374 229.72 716.374 225.96C716.374 223.64 717.414 221.88 719.334 221C720.654 220.4 722.334 220.12 724.574 220.12H729.494V219.56C729.494 217.4 728.054 216.08 725.774 216.08C723.774 216.08 721.894 217.12 720.454 219.04L716.974 216.12C719.334 213.28 722.254 211.88 725.854 211.88ZM724.254 228.32C727.134 228.32 729.494 226.28 729.494 223.72H725.214C723.574 223.72 722.614 223.92 721.974 224.4C721.454 224.76 721.174 225.32 721.174 226.04C721.174 227.44 722.334 228.32 724.254 228.32ZM761.387 211.88C766.147 211.88 768.267 215.48 768.267 219.44V232H763.467V220.88C763.467 219.32 763.267 216.08 760.107 216.08C756.067 216.08 756.227 220.52 756.227 224.48V232H751.427V220.88C751.427 219.32 751.227 216.08 748.107 216.08C744.067 216.08 744.187 220.52 744.187 224.48V232H739.387L739.347 212.28H743.987V214.76C745.267 212.56 747.307 211.88 749.267 211.88C751.427 211.88 753.827 212.72 755.027 215.76C756.547 212.8 758.827 211.88 761.387 211.88ZM790.17 221.88C790.17 222.48 790.13 223.08 790.05 223.72H776.53C776.73 226.32 778.33 228.04 781.45 228.04C783.21 228.04 784.81 227.48 786.17 225.92L789.49 228.84C787.33 231.24 784.73 232.4 781.41 232.4C774.61 232.4 771.73 227.52 771.73 222.24C771.73 217.08 774.53 211.88 781.09 211.88C787.21 211.88 790.17 216.4 790.17 221.88ZM776.49 219.92H785.57C785.49 217.4 783.57 215.88 781.05 215.88C778.13 215.88 776.77 217.96 776.49 219.92ZM810.039 232.4C805.879 232.4 802.719 229.88 801.759 226.88L805.599 225.16C806.119 226.6 807.159 228.4 809.799 228.4C812.039 228.4 812.999 227.12 812.999 226.08C812.999 222.76 802.839 224.96 802.839 217.64C802.839 213.84 806.279 211.88 810.079 211.88C813.479 211.88 816.079 213.48 817.559 216.16L813.839 218.2C813.159 216.96 812.079 215.68 809.919 215.68C808.359 215.68 807.399 216.44 807.399 217.36C807.399 220.36 817.719 218.6 817.719 225.8C817.719 230.4 813.759 232.4 810.039 232.4ZM832.289 211.88C837.649 211.88 840.609 216.24 840.609 222.16C840.609 228.6 837.129 232.4 832.289 232.4C830.049 232.4 827.849 231.48 826.609 230V240.16H821.809V212.28H826.609V214.24C827.969 212.56 830.169 211.88 832.289 211.88ZM831.089 228.2C834.289 228.2 835.809 225.96 835.809 222.12C835.809 218.24 834.329 216.08 831.129 216.08C827.649 216.08 826.169 218.6 826.169 222.12C826.169 225.56 827.649 228.2 831.089 228.2ZM861.498 221.88C861.498 222.48 861.458 223.08 861.378 223.72H847.858C848.058 226.32 849.658 228.04 852.778 228.04C854.538 228.04 856.138 227.48 857.498 225.92L860.818 228.84C858.658 231.24 856.058 232.4 852.738 232.4C845.938 232.4 843.058 227.52 843.058 222.24C843.058 217.08 845.858 211.88 852.418 211.88C858.538 211.88 861.498 216.4 861.498 221.88ZM847.818 219.92H856.898C856.818 217.4 854.898 215.88 852.378 215.88C849.458 215.88 848.098 217.96 847.818 219.92ZM869.881 232.4C867.201 232.4 865.241 230.8 865.241 227.28V204.12H870.041V226.96C870.041 227.84 870.561 228.2 871.441 228.2C871.881 228.2 872.401 228.12 872.961 227.96V231.8C871.881 232.2 870.801 232.4 869.881 232.4ZM881.013 232.4C878.333 232.4 876.373 230.8 876.373 227.28V204.12H881.173V226.96C881.173 227.84 881.693 228.2 882.573 228.2C883.013 228.2 883.533 228.12 884.093 227.96V231.8C883.013 232.2 881.933 232.4 881.013 232.4ZM887.586 208.56V204.12H892.626V208.56H887.586ZM887.706 232V212.28H892.506V232H887.706ZM908.857 211.88C913.297 211.88 915.817 214.6 915.817 219.28V232H911.017V220.48C911.017 219.12 911.017 216.08 907.377 216.08C902.897 216.08 902.897 220.6 902.897 224.12V232H898.097V212.28H902.897V214.56C904.297 212.68 906.457 211.88 908.857 211.88ZM928.548 229C932.548 229.52 937.708 229.96 937.708 234.68C937.708 238.8 933.948 240.56 928.628 240.56C922.748 240.56 919.388 238.4 919.388 234.32C919.388 233.84 919.428 233.64 919.468 233.44L922.308 231.64C920.908 230.88 919.948 229.64 919.948 227.6C919.948 225.88 920.628 224.64 921.788 223.64C920.788 222.4 920.188 220.84 920.188 219.12C920.188 214.84 923.868 211.88 928.268 211.88C929.988 211.88 931.588 212.32 932.908 213.12L935.908 210.56L938.428 213.6L935.588 215.92C936.108 216.92 936.428 218.08 936.428 219.36C936.428 223.76 932.748 226.56 928.428 226.56C927.068 226.56 925.788 226.28 924.628 225.8C924.268 226.04 924.067 226.36 924.067 226.84C924.067 228.28 926.068 228.68 928.548 229ZM928.348 215.88C926.308 215.88 924.988 217.24 924.988 219.24C924.988 221.12 926.108 222.64 928.348 222.64C930.548 222.64 931.628 221.16 931.628 219.24C931.628 217.2 930.388 215.88 928.348 215.88ZM928.828 236.96C930.868 236.96 932.908 236.48 932.908 235.12C932.908 233.6 930.388 233.44 927.548 233.04L925.908 232.8L924.188 234.44C924.148 234.56 924.148 234.68 924.148 234.76C924.148 236.44 926.588 236.96 928.828 236.96ZM631.92 284.4C625.8 284.4 622.04 279.68 622.04 274.12C622.04 268.52 625.8 263.88 631.92 263.88C638 263.88 641.8 268.52 641.8 274.12C641.8 279.68 638 284.4 631.92 284.4ZM631.92 280.2C635.56 280.2 637 277.32 637 274.12C637 270.88 635.56 268.08 631.92 268.08C628.28 268.08 626.84 270.88 626.84 274.12C626.84 277.32 628.28 280.2 631.92 280.2ZM646.796 284V268.08H643.036V264.28H646.836V262.04C646.836 257.04 649.676 255.72 652.796 255.72C654.316 255.72 655.476 256.04 656.516 256.52L654.956 260.2C654.516 259.92 653.956 259.72 653.316 259.72C651.596 259.72 651.596 261.28 651.596 262V264.28H656.196V268.08H651.596V284H646.796ZM674.805 284.4C670.645 284.4 667.485 281.88 666.525 278.88L670.365 277.16C670.885 278.6 671.925 280.4 674.565 280.4C676.805 280.4 677.765 279.12 677.765 278.08C677.765 274.76 667.605 276.96 667.605 269.64C667.605 265.84 671.045 263.88 674.845 263.88C678.245 263.88 680.845 265.48 682.325 268.16L678.605 270.2C677.925 268.96 676.845 267.68 674.685 267.68C673.125 267.68 672.165 268.44 672.165 269.36C672.165 272.36 682.485 270.6 682.485 277.8C682.485 282.4 678.525 284.4 674.805 284.4ZM686.414 260.56V256.12H691.454V260.56H686.414ZM686.534 284V264.28H691.334V284H686.534ZM694.245 284L701.005 274.08L694.245 264.28H700.125L704.205 270.8L708.285 264.28H714.165L707.365 274.08L714.165 284H708.285L704.205 277.36L700.125 284H694.245ZM734.448 263.88C739.648 263.88 742.888 266.8 742.888 271.56V284H738.488L738.088 281.44C736.928 283.28 734.688 284.4 732.088 284.4C727.928 284.4 724.968 281.72 724.968 277.96C724.968 275.64 726.008 273.88 727.928 273C729.248 272.4 730.928 272.12 733.168 272.12H738.088V271.56C738.088 269.4 736.648 268.08 734.368 268.08C732.368 268.08 730.488 269.12 729.048 271.04L725.568 268.12C727.928 265.28 730.848 263.88 734.448 263.88ZM732.848 280.32C735.728 280.32 738.088 278.28 738.088 275.72H733.808C732.168 275.72 731.208 275.92 730.568 276.4C730.048 276.76 729.768 277.32 729.768 278.04C729.768 279.44 730.928 280.32 732.848 280.32ZM758.701 263.88C763.141 263.88 765.661 266.6 765.661 271.28V284H760.861V272.48C760.861 271.12 760.861 268.08 757.221 268.08C752.741 268.08 752.741 272.6 752.741 276.12V284H747.941V264.28H752.741V266.56C754.141 264.68 756.301 263.88 758.701 263.88ZM783.311 256.12H788.111V284H783.311V282.04C781.951 283.72 779.751 284.4 777.631 284.4C772.271 284.4 769.311 280.04 769.311 274.12C769.311 267.68 772.791 263.88 777.631 263.88C779.871 263.88 782.071 264.8 783.311 266.28V256.12ZM778.791 279.96C782.271 279.96 783.751 277.44 783.751 274.16C783.751 270.88 782.271 268.24 778.831 268.24C775.631 268.24 774.111 270.48 774.111 274.16C774.111 277.8 775.591 279.96 778.791 279.96ZM814.248 263.88C818.688 263.88 821.208 266.6 821.208 271.28V284H816.408V272.48C816.408 271.12 816.408 268.08 812.768 268.08C808.288 268.08 808.288 272.6 808.288 276.12V284H803.488V264.28H808.288V266.56C809.688 264.68 811.848 263.88 814.248 263.88ZM826.258 260.56V256.12H831.298V260.56H826.258ZM826.378 284V264.28H831.178V284H826.378ZM847.529 263.88C851.969 263.88 854.489 266.6 854.489 271.28V284H849.689V272.48C849.689 271.12 849.689 268.08 846.049 268.08C841.569 268.08 841.569 272.6 841.569 276.12V284H836.769V264.28H841.569V266.56C842.969 264.68 845.129 263.88 847.529 263.88ZM876.459 273.88C876.459 274.48 876.419 275.08 876.339 275.72H862.819C863.019 278.32 864.619 280.04 867.739 280.04C869.499 280.04 871.099 279.48 872.459 277.92L875.779 280.84C873.619 283.24 871.019 284.4 867.699 284.4C860.899 284.4 858.019 279.52 858.019 274.24C858.019 269.08 860.819 263.88 867.379 263.88C873.499 263.88 876.459 268.4 876.459 273.88ZM862.779 271.92H871.859C871.779 269.4 869.859 267.88 867.339 267.88C864.419 267.88 863.059 269.96 862.779 271.92Z" fill="#201806"/>
<path d="M739.244 505.259C740.226 506.229 741.809 506.219 742.779 505.236L758.586 489.223C759.556 488.241 759.545 486.658 758.563 485.688C757.58 484.718 755.997 484.728 755.027 485.711L740.977 499.944L726.744 485.894C725.761 484.924 724.178 484.934 723.208 485.917C722.238 486.899 722.249 488.482 723.231 489.452L739.244 505.259ZM737.5 349.016L738.5 503.496L743.5 503.463L742.5 348.984L737.5 349.016Z" fill="#201806"/>
<path d="M439.234 193.768C438.257 192.791 438.257 191.209 439.234 190.232L455.144 174.322C456.12 173.346 457.703 173.346 458.679 174.322C459.655 175.299 459.655 176.882 458.679 177.858L444.537 192L458.679 206.142C459.655 207.118 459.655 208.701 458.679 209.678C457.703 210.654 456.12 210.654 455.144 209.678L439.234 193.768ZM595.484 194.5H441.002V189.5H595.484V194.5Z" fill="#201806"/>
<path d="M268.5 207.5C340 207.5 386 259.5 386 327.5C386 399.5 329 449 259.5 449C189.5 449 132 399.5 132 328C132 305.5 139 283 151.5 263L255.5 95.5H324.5L251 208.5C257 208 262.5 207.5 268.5 207.5ZM259.5 391.5C296 391.5 325 367.5 325 327.5C325 287.5 296 263.5 259.5 263.5C222.5 263.5 193.5 287.5 193.5 327.5C193.5 367.5 222.5 391.5 259.5 391.5Z" fill="#201806"/>
<path d="M787 590.5C857 590.5 914.5 640 914.5 711.5C914.5 734 907.5 756.5 895 776.5L791 944H722L795.5 831C789.5 831.5 784 832 778 832C706.5 832 660.5 780 660.5 712C660.5 640 717.5 590.5 787 590.5ZM787 776C824 776 853 752 853 712C853 672 824 648 787 648C750.5 648 721.5 672 721.5 712C721.5 752 750.5 776 787 776Z" fill="#201806"/>
<path d="M99.2344 688L110.289 660.402H114L124.996 688H119.645L117.438 682.004H106.871L104.645 688H99.2344ZM108.434 677.766H115.875L112.164 667.688L108.434 677.766ZM132.047 688.391C129.801 688.391 127.965 687.551 127.965 684.113V660.402H132.73V682.805C132.73 683.723 133.336 684.113 134.293 684.113C134.566 684.113 135.094 684.074 135.602 683.996V688C134.605 688.195 133.18 688.391 132.047 688.391ZM143.258 688.391C141.012 688.391 139.176 687.551 139.176 684.113V660.402H143.941V682.805C143.941 683.723 144.547 684.113 145.504 684.113C145.777 684.113 146.305 684.074 146.812 683.996V688C145.816 688.195 144.391 688.391 143.258 688.391ZM167.047 688.391C163.238 688.391 160.953 686.164 160.953 682.609V672.473H157.809V668.488H161.031V663.645L165.719 660.246V668.488H170.602V672.473H165.719V681.77C165.719 683.645 166.637 684.191 167.887 684.191C168.883 684.191 169.957 683.801 170.602 683.488V687.805C169.879 688.078 168.473 688.391 167.047 688.391ZM174.059 688V660.402H178.902V670.754C180.465 668.84 182.633 668.078 184.547 668.078C189.664 668.078 191.754 672.199 191.754 676.281V688H186.91V676.887C186.91 674.484 186.266 672.395 183.395 672.395C180.348 672.395 178.902 674.875 178.902 678.117V688H174.059ZM205.035 688.391C198.316 688.391 195.152 683.566 195.152 678.312C195.152 673.234 198.121 668.078 204.723 668.078C211.559 668.078 213.766 673.566 213.766 677.922C213.766 678.723 213.688 679.523 213.59 679.797H200.191C200.602 682.355 202.008 684.074 205.074 684.074C206.832 684.074 208.395 683.527 209.762 682.004L213.043 684.875C210.914 687.238 208.316 688.391 205.035 688.391ZM200.191 676.359H209.078C209.078 675.93 209.039 675.52 208.922 675.129C208.434 673.117 206.754 672.082 204.684 672.082C201.871 672.082 200.641 673.918 200.191 676.359ZM227.418 688V668.488H232.184V670.754C233.746 668.84 235.992 668.078 237.906 668.078C243.023 668.078 245.035 672.199 245.035 676.281V688H240.27V676.887C240.27 674.328 238.98 672.473 236.539 672.473C233.863 672.473 232.184 673.918 232.184 677.316V688H227.418ZM256.52 688.391C251.402 688.391 249.449 684.289 249.449 680.207V668.488H254.156V679.602C254.156 682.16 255.445 683.996 257.887 683.996C260.562 683.996 262.281 682.551 262.281 679.152V668.488H267.008V688H262.281V685.715C260.719 687.648 258.453 688.391 256.52 688.391ZM272.73 688L272.691 668.488H277.301V670.93C278.57 668.762 280.582 668.078 282.574 668.078C284.781 668.078 287.184 668.918 288.336 671.516C289.898 668.996 292.223 668.078 294.586 668.078C299.547 668.078 301.578 672.16 301.578 676.281V688H296.812V676.887C296.812 674.484 296.09 672.512 293.629 672.512C291.051 672.512 289.547 674.68 289.547 677.277V688H284.781V676.809C284.781 674.445 284.059 672.512 281.617 672.512C279.02 672.512 277.496 674.68 277.496 677.277V688H272.73ZM317.242 688.391C315.211 688.391 313.043 687.727 311.676 686.047V688H306.754V660.402H311.676V670.441C313.043 668.762 315.074 668.078 317.164 668.078C322.652 668.078 325.602 672.805 325.602 678.234C325.602 683.645 322.652 688.391 317.242 688.391ZM316.051 683.996C319.332 683.996 320.797 681.477 320.797 678.234C320.797 674.992 319.332 672.395 316.051 672.395C312.77 672.395 311.246 674.953 311.246 678.234C311.246 681.516 312.77 683.996 316.051 683.996ZM337.848 688.391C331.129 688.391 327.965 683.566 327.965 678.312C327.965 673.234 330.934 668.078 337.535 668.078C344.371 668.078 346.578 673.566 346.578 677.922C346.578 678.723 346.5 679.523 346.402 679.797H333.004C333.414 682.355 334.82 684.074 337.887 684.074C339.645 684.074 341.207 683.527 342.574 682.004L345.855 684.875C343.727 687.238 341.129 688.391 337.848 688.391ZM333.004 676.359H341.891C341.891 675.93 341.852 675.52 341.734 675.129C341.246 673.117 339.566 672.082 337.496 672.082C334.684 672.082 333.453 673.918 333.004 676.359ZM350.582 688V668.488H355.23V671.77C356.07 669.406 358.277 668.078 360.465 668.078C361.754 668.078 363.102 668.527 364.039 669.484L361.871 673.391C361.227 672.961 360.504 672.727 359.742 672.727C357.516 672.727 355.191 674.797 355.191 679.758V688H350.582ZM371.812 688.391C367.711 688.391 364.586 685.93 363.629 682.922L367.418 681.242C367.945 682.648 368.98 684.445 371.578 684.445C373.785 684.445 374.742 683.156 374.742 682.121C374.742 678.84 364.938 681.047 364.938 674.152C364.938 670.031 368.414 668.078 372.184 668.078C375.543 668.078 378.102 669.68 379.586 672.316L375.895 674.328C375.23 673.117 374.137 671.848 372.027 671.848C370.465 671.848 369.508 672.609 369.508 673.527C369.508 676.477 379.43 674.719 379.43 681.887C379.43 686.398 375.504 688.391 371.812 688.391ZM108.688 736.391C103.199 736.391 100.23 731.684 100.23 726.234C100.23 720.844 103.199 716.078 108.609 716.078C110.641 716.078 112.809 716.762 114.156 718.441V708.402H119V736H114.566L114.352 733.793C113.004 735.648 110.836 736.391 108.688 736.391ZM109.84 732.074C113.121 732.074 114.566 729.555 114.566 726.234C114.566 722.953 113.121 720.395 109.84 720.395C106.559 720.395 105.074 722.992 105.074 726.234C105.074 729.516 106.559 732.074 109.84 732.074ZM124.605 712.797V708.402H129.605V712.797H124.605ZM124.723 736V716.488H129.488V736H124.723ZM135.953 736V720.473H132.75V716.488H135.953V715.082C135.953 710.609 139.801 707.992 144.195 707.992C145.953 707.992 147.848 708.402 149.391 709.359C150.562 708.48 152.008 707.992 153.551 707.992C154.84 707.992 156.031 708.324 157.086 708.793L155.523 712.719C155.074 712.445 154.527 712.23 154 712.23C153.043 712.23 152.203 712.836 152.203 714.359V716.488H156.754V720.473H152.203V736H147.281V720.473H140.719V736H135.953ZM140.719 716.488H147.32V713.871C147.32 713.402 147.359 712.953 147.438 712.523C146.637 712.113 145.641 711.84 144.43 711.84C141.871 711.84 140.719 713.207 140.719 715.16V716.488ZM167.77 736.391C161.051 736.391 157.887 731.566 157.887 726.312C157.887 721.234 160.855 716.078 167.457 716.078C174.293 716.078 176.5 721.566 176.5 725.922C176.5 726.723 176.422 727.523 176.324 727.797H162.926C163.336 730.355 164.742 732.074 167.809 732.074C169.566 732.074 171.129 731.527 172.496 730.004L175.777 732.875C173.648 735.238 171.051 736.391 167.77 736.391ZM162.926 724.359H171.812C171.812 723.93 171.773 723.52 171.656 723.129C171.168 721.117 169.488 720.082 167.418 720.082C164.605 720.082 163.375 721.918 162.926 724.359ZM180.504 736V716.488H185.152V719.77C185.992 717.406 188.199 716.078 190.387 716.078C191.676 716.078 193.023 716.527 193.961 717.484L191.793 721.391C191.148 720.961 190.426 720.727 189.664 720.727C187.438 720.727 185.113 722.797 185.113 727.758V736H180.504ZM205.973 712.797V708.402H210.973V712.797H205.973ZM206.09 736V716.488H210.855V736H206.09ZM216.559 736V716.488H221.324V718.754C222.887 716.84 225.133 716.078 227.047 716.078C232.164 716.078 234.176 720.199 234.176 724.281V736H229.41V724.887C229.41 722.328 228.121 720.473 225.68 720.473C223.004 720.473 221.324 721.918 221.324 725.316V736H216.559ZM256.148 716.078C261.461 716.078 264.586 719.398 264.586 724.164V736H260.66L260.367 733.402C259.098 735.414 256.5 736.391 254.273 736.391C250.27 736.391 247.184 734.086 247.184 730.004C247.184 725.766 250.582 724.359 254.957 724.359H260.25C260.152 721.469 259.293 720.238 256.188 720.238C253.941 720.238 252.438 721.566 251.598 722.992L247.945 720.355C249.82 717.797 252.301 716.078 256.148 716.078ZM255.23 732.367C258.16 732.367 259.977 730.258 260.27 727.953V727.797H255.23C253.062 727.797 252.066 728.93 252.066 730.16C252.066 731.449 253.102 732.367 255.23 732.367ZM269.684 736V716.488H274.449V718.754C276.012 716.84 278.258 716.078 280.172 716.078C285.289 716.078 287.301 720.199 287.301 724.281V736H282.535V724.887C282.535 722.328 281.246 720.473 278.805 720.473C276.129 720.473 274.449 721.918 274.449 725.316V736H269.684ZM310.23 736.391C303.512 736.391 300.348 731.566 300.348 726.312C300.348 721.234 303.316 716.078 309.918 716.078C316.754 716.078 318.961 721.566 318.961 725.922C318.961 726.723 318.883 727.523 318.785 727.797H305.387C305.797 730.355 307.203 732.074 310.27 732.074C312.027 732.074 313.59 731.527 314.957 730.004L318.238 732.875C316.109 735.238 313.512 736.391 310.23 736.391ZM305.387 724.359H314.273C314.273 723.93 314.234 723.52 314.117 723.129C313.629 721.117 311.949 720.082 309.879 720.082C307.066 720.082 305.836 721.918 305.387 724.359ZM327.535 736L319.586 716.488H324.781L329.508 729.848L334.254 716.488H339.43L331.461 736H327.535ZM349.645 736.391C342.926 736.391 339.762 731.566 339.762 726.312C339.762 721.234 342.73 716.078 349.332 716.078C356.168 716.078 358.375 721.566 358.375 725.922C358.375 726.723 358.297 727.523 358.199 727.797H344.801C345.211 730.355 346.617 732.074 349.684 732.074C351.441 732.074 353.004 731.527 354.371 730.004L357.652 732.875C355.523 735.238 352.926 736.391 349.645 736.391ZM344.801 724.359H353.688C353.688 723.93 353.648 723.52 353.531 723.129C353.043 721.117 351.363 720.082 349.293 720.082C346.48 720.082 345.25 721.918 344.801 724.359ZM362.379 736V716.488H367.145V718.754C368.707 716.84 370.953 716.078 372.867 716.078C377.984 716.078 379.996 720.199 379.996 724.281V736H375.23V724.887C375.23 722.328 373.941 720.473 371.5 720.473C368.824 720.473 367.145 721.918 367.145 725.316V736H362.379ZM109.039 764.078C114.352 764.078 117.477 767.398 117.477 772.164V784H113.551L113.258 781.402C111.988 783.414 109.391 784.391 107.164 784.391C103.16 784.391 100.074 782.086 100.074 778.004C100.074 773.766 103.473 772.359 107.848 772.359H113.141C113.043 769.469 112.184 768.238 109.078 768.238C106.832 768.238 105.328 769.566 104.488 770.992L100.836 768.355C102.711 765.797 105.191 764.078 109.039 764.078ZM108.121 780.367C111.051 780.367 112.867 778.258 113.16 775.953V775.797H108.121C105.953 775.797 104.957 776.93 104.957 778.16C104.957 779.449 105.992 780.367 108.121 780.367ZM122.574 784V764.488H127.34V766.754C128.902 764.84 131.148 764.078 133.062 764.078C138.18 764.078 140.191 768.199 140.191 772.281V784H135.426V772.887C135.426 770.328 134.137 768.473 131.695 768.473C129.02 768.473 127.34 769.918 127.34 773.316V784H122.574ZM152.164 784.391C146.676 784.391 143.707 779.684 143.707 774.234C143.707 768.844 146.676 764.078 152.086 764.078C154.117 764.078 156.285 764.762 157.633 766.441V756.402H162.477V784H158.043L157.828 781.793C156.48 783.648 154.312 784.391 152.164 784.391ZM153.316 780.074C156.598 780.074 158.043 777.555 158.043 774.234C158.043 770.953 156.598 768.395 153.316 768.395C150.035 768.395 148.551 770.992 148.551 774.234C148.551 777.516 150.035 780.074 153.316 780.074ZM177.73 760.797V756.402H182.73V760.797H177.73ZM177.848 784V764.488H182.613V784H177.848ZM195.172 784.391C189.684 784.391 186.715 779.684 186.715 774.234C186.715 768.844 189.684 764.078 195.094 764.078C197.125 764.078 199.293 764.762 200.641 766.441V756.402H205.484V784H201.051L200.836 781.793C199.488 783.648 197.32 784.391 195.172 784.391ZM196.324 780.074C199.605 780.074 201.051 777.555 201.051 774.234C201.051 770.953 199.605 768.395 196.324 768.395C193.043 768.395 191.559 770.992 191.559 774.234C191.559 777.516 193.043 780.074 196.324 780.074ZM219.371 784.391C212.652 784.391 209.488 779.566 209.488 774.312C209.488 769.234 212.457 764.078 219.059 764.078C225.895 764.078 228.102 769.566 228.102 773.922C228.102 774.723 228.023 775.523 227.926 775.797H214.527C214.938 778.355 216.344 780.074 219.41 780.074C221.168 780.074 222.73 779.527 224.098 778.004L227.379 780.875C225.25 783.238 222.652 784.391 219.371 784.391ZM214.527 772.359H223.414C223.414 771.93 223.375 771.52 223.258 771.129C222.77 769.117 221.09 768.082 219.02 768.082C216.207 768.082 214.977 769.918 214.527 772.359ZM232.105 784V764.488H236.871V766.754C238.434 764.84 240.68 764.078 242.594 764.078C247.711 764.078 249.723 768.199 249.723 772.281V784H244.957V772.887C244.957 770.328 243.668 768.473 241.227 768.473C238.551 768.473 236.871 769.918 236.871 773.316V784H232.105ZM261.734 784.391C257.926 784.391 255.641 782.164 255.641 778.609V768.473H252.496V764.488H255.719V759.645L260.406 756.246V764.488H265.289V768.473H260.406V777.77C260.406 779.645 261.324 780.191 262.574 780.191C263.57 780.191 264.645 779.801 265.289 779.488V783.805C264.566 784.078 263.16 784.391 261.734 784.391ZM269.566 760.797V756.402H274.566V760.797H269.566ZM269.684 784V764.488H274.449V784H269.684ZM287.887 784.391C281.52 784.391 278.434 779.449 278.434 774.273C278.434 769.156 281.48 764.078 287.848 764.078C291.715 764.078 294.801 765.953 296.285 769.84L291.754 771.598C291.246 769.723 289.801 768.395 287.848 768.395C284.566 768.395 283.277 771.363 283.277 774.273C283.277 777.242 284.527 780.074 287.848 780.074C289.762 780.074 291.246 778.805 291.754 776.969L296.09 778.609C294.801 782.242 291.754 784.391 287.887 784.391ZM306.891 764.078C312.203 764.078 315.328 767.398 315.328 772.164V784H311.402L311.109 781.402C309.84 783.414 307.242 784.391 305.016 784.391C301.012 784.391 297.926 782.086 297.926 778.004C297.926 773.766 301.324 772.359 305.699 772.359H310.992C310.895 769.469 310.035 768.238 306.93 768.238C304.684 768.238 303.18 769.566 302.34 770.992L298.688 768.355C300.562 765.797 303.043 764.078 306.891 764.078ZM305.973 780.367C308.902 780.367 310.719 778.258 311.012 775.953V775.797H305.973C303.805 775.797 302.809 776.93 302.809 778.16C302.809 779.449 303.844 780.367 305.973 780.367ZM324.391 784.391C322.145 784.391 320.309 783.551 320.309 780.113V756.402H325.074V778.805C325.074 779.723 325.68 780.113 326.637 780.113C326.91 780.113 327.438 780.074 327.945 779.996V784C326.949 784.195 325.523 784.391 324.391 784.391ZM349.449 784.391C343.414 784.391 339.449 779.723 339.449 774.195C339.449 768.688 343.414 764.078 349.449 764.078C355.484 764.078 359.449 768.688 359.449 774.195C359.449 779.723 355.484 784.391 349.449 784.391ZM349.449 780.289C353.062 780.289 354.488 777.398 354.488 774.195C354.488 770.992 353.062 768.199 349.449 768.199C345.855 768.199 344.41 770.992 344.41 774.195C344.41 777.398 345.855 780.289 349.449 780.289ZM369.762 784.391C364.645 784.391 362.691 780.289 362.691 776.207V764.488H367.398V775.602C367.398 778.16 368.688 779.996 371.129 779.996C373.805 779.996 375.523 778.551 375.523 775.152V764.488H380.25V784H375.523V781.715C373.961 783.648 371.695 784.391 369.762 784.391ZM392.828 784.391C389.02 784.391 386.734 782.164 386.734 778.609V768.473H383.59V764.488H386.812V759.645L391.5 756.246V764.488H396.383V768.473H391.5V777.77C391.5 779.645 392.418 780.191 393.668 780.191C394.664 780.191 395.738 779.801 396.383 779.488V783.805C395.66 784.078 394.254 784.391 392.828 784.391ZM403.766 784.391C401.52 784.391 399.684 783.551 399.684 780.113V756.402H404.449V778.805C404.449 779.723 405.055 780.113 406.012 780.113C406.285 780.113 406.812 780.074 407.32 779.996V784C406.324 784.195 404.898 784.391 403.766 784.391ZM410.895 760.797V756.402H415.895V760.797H410.895ZM411.012 784V764.488H415.777V784H411.012ZM421.48 784V764.488H426.246V766.754C427.809 764.84 430.055 764.078 431.969 764.078C437.086 764.078 439.098 768.199 439.098 772.281V784H434.332V772.887C434.332 770.328 433.043 768.473 430.602 768.473C427.926 768.473 426.246 769.918 426.246 773.316V784H421.48ZM452.379 784.391C445.66 784.391 442.496 779.566 442.496 774.312C442.496 769.234 445.465 764.078 452.066 764.078C458.902 764.078 461.109 769.566 461.109 773.922C461.109 774.723 461.031 775.523 460.934 775.797H447.535C447.945 778.355 449.352 780.074 452.418 780.074C454.176 780.074 455.738 779.527 457.105 778.004L460.387 780.875C458.258 783.238 455.66 784.391 452.379 784.391ZM447.535 772.359H456.422C456.422 771.93 456.383 771.52 456.266 771.129C455.777 769.117 454.098 768.082 452.027 768.082C449.215 768.082 447.984 769.918 447.535 772.359Z" fill="#201806"/>
</g>
<defs>
<clipPath id="clip0_337_2410">
<rect width="1024" height="2006" fill="white"/>
</clipPath>
</defs>
</svg>
