<svg width="177" height="30" viewBox="0 0 177 30" fill="none" xmlns="http://www.w3.org/2000/svg">
<path d="M15.36 13.52H27.64V29H23.32L22.6 26.32C20.88 28.72 18.04 29.72 14.6 29.72C6.12 29.72 0.8 23.64 0.8 15.32C0.8 6.64 6.6 0.32 14.8 0.32C20.36 0.32 25.44 3.24 27.6 8.8L21.8 11.08C20.68 7.88 17.92 6.32 14.72 6.32C10.16 6.32 7.08 9.36 7.08 15.12C7.08 21.16 10.44 23.72 15.12 23.72C19.28 23.72 21.32 21.72 21.32 19.52V19.12H15.36V13.52ZM42.8113 8.84C44.1713 8.84 45.3713 9.2 46.7713 10.12L43.8913 15.56C43.3313 15.2 42.2913 14.84 41.3313 14.84C39.2113 14.84 37.8113 16.36 37.8113 19.84V29H31.7713V9.28H37.8513V12.28C38.7713 10.2 40.6913 8.84 42.8113 8.84ZM64.6019 19.32C64.6019 19.88 64.5619 20.4 64.4819 21.24H51.5219C51.7619 22.8 52.9619 24 55.5619 24C57.0419 24 58.6019 23.44 59.7219 22.08L63.8819 25.76C61.8019 28.12 59.0019 29.44 55.5219 29.44C48.2419 29.44 45.4819 24.32 45.4819 19.24C45.4819 14.32 48.1619 8.84 55.2019 8.84C61.3619 8.84 64.6019 13.24 64.6019 19.32ZM51.4419 16.8H58.8419C58.7619 14.96 57.1219 13.84 55.1219 13.84C52.6019 13.84 51.6819 15.52 51.4419 16.8ZM58.7619 17.56L58.8019 17.52L58.7619 17.56ZM84.8753 19.32C84.8753 19.88 84.8353 20.4 84.7553 21.24H71.7953C72.0353 22.8 73.2353 24 75.8353 24C77.3153 24 78.8753 23.44 79.9953 22.08L84.1553 25.76C82.0753 28.12 79.2753 29.44 75.7953 29.44C68.5153 29.44 65.7553 24.32 65.7553 19.24C65.7553 14.32 68.4353 8.84 75.4753 8.84C81.6353 8.84 84.8753 13.24 84.8753 19.32ZM71.7153 16.8H79.1153C79.0353 14.96 77.3953 13.84 75.3953 13.84C72.8753 13.84 71.9553 15.52 71.7153 16.8ZM79.0353 17.56L79.0753 17.52L79.0353 17.56ZM99.3488 8.84C103.909 8.84 106.629 11.56 106.629 15.88V29H100.589V18.12C100.589 16.6 100.589 14.08 97.4688 14.08C93.7488 14.08 93.7488 17.64 93.7488 19.8V29H87.7088V9.28H93.7488V11.12C95.2288 9.32 97.2688 8.84 99.3488 8.84ZM126.124 29V6.88H117.964V1.12H140.604V6.88H132.484V29H126.124ZM156.243 19.32C156.243 19.88 156.203 20.4 156.123 21.24H143.163C143.403 22.8 144.603 24 147.203 24C148.683 24 150.243 23.44 151.363 22.08L155.523 25.76C153.443 28.12 150.643 29.44 147.163 29.44C139.883 29.44 137.123 24.32 137.123 19.24C137.123 14.32 139.803 8.84 146.842 8.84C153.003 8.84 156.243 13.24 156.243 19.32ZM143.083 16.8H150.483C150.403 14.96 148.763 13.84 146.763 13.84C144.243 13.84 143.323 15.52 143.083 16.8ZM150.403 17.56L150.443 17.52L150.403 17.56ZM167.116 8.84C172.716 8.84 176.076 11.8 176.076 16.48V29H170.556L170.156 27.04C168.556 29.16 166.436 29.44 164.996 29.44C160.556 29.44 157.356 26.68 157.356 22.64C157.356 20.36 158.396 18.72 160.076 17.8C161.316 17.12 162.876 16.8 164.636 16.8H170.076V16.48C170.076 15.08 168.876 14.08 166.676 14.08C165.196 14.08 163.676 14.52 161.916 16.2L157.556 12.56C160.036 9.96 163.676 8.84 167.116 8.84ZM165.956 24.6C168.116 24.6 169.956 23.2 170.076 21.24H165.516C164.876 21.24 164.356 21.36 163.996 21.6C163.596 21.88 163.396 22.28 163.396 22.76C163.396 23.76 164.236 24.6 165.956 24.6Z" fill="#201806"/>
</svg>
