<svg width="277" height="758" viewBox="0 0 277 758" fill="none" xmlns="http://www.w3.org/2000/svg">
<path d="M148.999 604C124.407 593.212 82.4985 586.5 82.4985 586.5L72.9985 593L86.4985 600C86.4985 600 116.469 613.84 134.999 624C151.354 632.968 159.925 639.037 175.999 648.5C202.004 663.81 223.285 664.151 242.999 687C256.918 703.134 267.999 735.5 267.999 735.5C267.999 735.5 274.84 713.357 271.999 699.5C268.756 683.685 260.754 676.54 249.999 664.5C231.658 643.971 213.704 641.496 189.999 627.5C174.107 618.117 165.899 611.414 148.999 604Z" fill="#201806" stroke="#201806" stroke-width="5"/>
<path d="M76.0259 660L53.0259 664L73.0259 686C73.0259 686 95.5332 695.306 94.5259 707C93.4596 719.379 78.3146 728.191 67.0259 723C53.7263 716.885 73.0259 686 73.0259 686L53.0259 664L26.0259 674C26.0259 674 56.455 693.568 48.5259 707C40.9821 719.779 18.0698 719.779 10.5259 707C3.28802 694.739 26.0259 674 26.0259 674L53.0259 664L31.5259 632.5C31.5259 632.5 2.00432 626.837 3.02592 613.5C4.00072 600.773 20.1532 591.705 31.5259 597.5C43.7045 603.705 31.5259 632.5 31.5259 632.5L53.0259 664L76.0259 660L94.5259 656C94.5259 656 98.3131 646.656 103.526 646C111.158 645.039 109.933 656.474 111.526 664C113.969 675.539 117.307 686.721 108.026 694C95.6336 703.719 94.5259 656 94.5259 656L76.0259 660Z" fill="#201806"/>
<path d="M111.526 536.5C101.367 539.418 85.0259 542 85.0259 542C85.0259 542 43.789 529.754 34.0259 515.5L9.02592 479C9.02592 479 35.2737 503.141 53.0259 517.5C65.263 527.398 85.0259 542 85.0259 542C85.0259 542 104.742 524.191 120.026 517.5C137.673 509.774 168.526 508.5 168.526 508.5C168.526 508.5 135.363 529.653 111.526 536.5Z" fill="#201806"/>
<path d="M53.0259 664L76.0259 660L94.5259 656M53.0259 664L73.0259 686M53.0259 664L31.5259 632.5M53.0259 664L26.0259 674M94.5259 656C94.5259 656 98.3131 646.656 103.526 646C111.158 645.039 109.933 656.474 111.526 664C113.969 675.539 117.307 686.721 108.026 694C95.6336 703.719 94.5259 656 94.5259 656ZM73.0259 686C73.0259 686 95.5332 695.306 94.5259 707C93.4596 719.379 78.3146 728.191 67.0259 723C53.7263 716.885 73.0259 686 73.0259 686ZM31.5259 632.5C31.5259 632.5 43.7045 603.705 31.5259 597.5C20.1532 591.705 4.00072 600.773 3.02592 613.5C2.00432 626.837 31.5259 632.5 31.5259 632.5ZM26.0259 674C26.0259 674 3.28802 694.739 10.5259 707C18.0698 719.779 40.9821 719.779 48.5259 707C56.455 693.568 26.0259 674 26.0259 674ZM85.0259 542C85.0259 542 101.367 539.418 111.526 536.5C135.363 529.653 168.526 508.5 168.526 508.5C168.526 508.5 137.673 509.774 120.026 517.5C104.742 524.191 85.0259 542 85.0259 542ZM85.0259 542C85.0259 542 65.2629 527.398 53.0259 517.5C35.2737 503.141 9.02592 479 9.02592 479C18.789 493.254 24.2628 501.246 34.0259 515.5C43.789 529.754 85.0259 542 85.0259 542Z" stroke="#201806" stroke-width="5"/>
<path d="M140.499 475.5L109.499 480.5H167.999C167.999 480.5 191.211 484.174 205.999 487C219.126 489.508 228.235 486.805 239.499 494C253.243 502.781 261.499 529.5 261.499 529.5C261.499 529.5 258.928 492.99 243.999 477.75C220.737 454.004 192.105 470.267 158.999 473.25C151.75 473.903 140.499 475.5 140.499 475.5Z" fill="#201806" stroke="#201806" stroke-width="5"/>
<path d="M76.4985 476.5V522.5L51.9985 462L33.4985 398C33.4985 398 26.5534 381.124 22.9985 370C15.2934 345.889 9.99854 306.5 9.99854 306.5L45.9985 382L62.4985 425.5L76.4985 476.5Z" fill="#201806"/>
<path d="M76.4985 522.5V476.5L62.4985 425.5L45.9985 382L9.99854 306.5C9.99854 306.5 15.2934 345.889 22.9985 370C26.5534 381.124 33.4985 398 33.4985 398L51.9985 462L76.4985 522.5ZM76.4985 522.5L85.4985 538" stroke="#201806" stroke-width="5"/>
<path d="M114.909 140L105.999 126.5L97.9985 131L74.7485 134C74.7485 134 65.8887 140.856 59.4985 144C49.1718 149.081 41.605 147.033 30.9985 151.5C22.5389 155.063 10.4985 163 10.4985 163C10.4985 163 24.2707 149.614 34.9985 144C49.1811 136.578 74.7485 134 74.7485 134L97.9985 131L105.999 126.5L114.909 140L118.687 128.549L117.499 126.5L97.9985 110.5L83.9985 90L64.9985 69.5L67.9985 59L74.7485 54.75V47C74.7485 47 54.6299 42.911 59.4985 38C62.3024 35.1717 65.8225 34.4677 69.4985 36C73.8921 37.8314 74.7485 47 74.7485 47V54.75L81.4985 50.5C81.4985 50.5 76.9071 45.8479 75.9985 42C74.1937 34.3559 100.295 52.5477 92.4985 53.5C88.0787 54.0399 81.4985 50.5 81.4985 50.5L74.7485 54.75L67.9985 59L64.9985 69.5L83.9985 90L97.9985 110.5V89V59L105.999 32L122.499 9L127.499 2.5L122.499 23.5L107.999 47L97.9985 89V110.5L117.499 126.5L118.687 128.549L122.499 117L131.999 90L135.999 66.5C135.999 66.5 129.888 89.2544 122.499 84.5C119.538 82.5953 119.517 79.8841 117.499 77C113.983 71.9764 105.633 70.1565 107.999 64.5C109.653 60.5451 113.403 60.2655 117.499 59C124.428 56.8591 135.999 60.625 135.999 60.625C135.999 60.625 135.495 56.9884 135.999 54.75C136.789 51.236 137.473 47.7384 140.999 47C145.897 45.974 148.688 55.1428 145.499 59C143.1 61.9007 135.999 60.625 135.999 60.625V66.5L131.999 90L122.499 117L118.687 128.549L131.999 151.5L140.999 167L135.999 224L127.999 265L122.499 289.5L117.499 285.5V265L127.999 214L131.999 167L122.499 151.5L114.909 140L105.999 167L92.4985 234.5L74.7485 265L67.1235 291.25L82.9985 283.5C82.9985 283.5 95.4847 262.979 101.999 269.5C102.129 269.631 102.255 269.765 102.377 269.903L99.9985 255H105.499L120.499 296V322V344.5L117.499 378L120.499 383.5L134.999 360.5L150.499 330.5L180.999 289.5L160.999 329L148.499 352L125.999 391L117.499 417.5L112.499 440L134.999 428.5L168.999 404.5L209.499 373.5L192.499 394L168.999 414L134.999 435L112.645 442L113.999 460.5L103.499 496.5L98.9985 514L118.999 509L158.999 493L195.499 460.5L207.499 438.5L220.499 394L216.999 346.5L213.287 321.512L200.999 308.5L188.499 282L178.499 240.5L172.999 251.5C172.999 251.5 171.95 259.964 169.999 265C167.103 272.474 166.308 280.194 158.499 282C153.192 283.227 148.889 282.311 144.999 278.5C137.438 271.093 149.308 260.25 158.499 255C163.557 252.111 172.999 251.5 172.999 251.5L178.499 240.5L188.499 244.5L195.499 269.5L188.499 259.5C186.558 253.973 188.499 244.5 188.499 244.5L178.499 240.5L188.499 282L200.999 308.5L213.287 321.512L209.499 296L195.499 246L185.999 214L174.499 208C174.499 208 174.893 217.132 172.999 222.5C169.825 231.492 165.468 243.739 156.499 240.5C148.653 237.667 148.501 228.099 150.499 220C151.847 214.532 153.608 210.794 158.499 208C163.924 204.9 174.499 208 174.499 208L185.999 214L169.999 194.5C169.999 194.5 154.852 181.174 160.999 176C165.668 172.069 172.98 173.013 176.499 178C180.491 183.659 169.999 194.5 169.999 194.5L185.999 214L191.499 194.5L188.499 189L195.499 192L191.499 194.5L185.999 214L195.499 208L207.999 202C207.999 202 221.829 200.681 227.499 206C231.836 210.07 236.639 214.948 233.499 220C230.668 224.554 225.253 223.568 219.999 222.5C212.687 221.014 212.992 212.1 205.999 209.5C202.116 208.057 195.499 208 195.499 208L185.999 214L195.499 246L209.499 296L213.287 321.512L216.999 346.5L220.499 394L207.499 438.5L195.499 460.5L158.999 493L118.999 509L98.9985 514L96.4985 546L84.9985 569.5L76.4985 588.5L58.9985 672.5L54.4985 748.5L48.4985 752.5L58.9985 619.5L66.4985 577.5L81.9985 539.5L86.9985 499.5L96.4985 460.5L101.999 442L105.499 410L109.999 378V339L107.499 302L104.205 281.36C103.014 285.202 100.274 288.539 96.4985 289.5C90.9074 290.923 82.9985 283.5 82.9985 283.5L67.1235 291.25L59.4985 317.5L42.9985 373.5L67.1235 291.25L42.9985 283.5C42.9985 283.5 24.4964 297.685 21.4985 289.5C19.1139 282.989 24.0931 275.127 30.9985 274.5C36.8324 273.97 42.9985 283.5 42.9985 283.5L67.1235 291.25L59.4985 274.5C59.4985 274.5 31.1828 276.731 30.9985 265C30.8133 253.206 52.2741 245.676 59.4985 255C64.1628 261.02 59.4985 274.5 59.4985 274.5L67.1235 291.25L74.7485 265L92.4985 234.5L105.999 167L114.909 140Z" fill="#201806"/>
<path d="M160.999 134C159.856 146.86 158.499 156 152.999 163C150.224 166.531 144.999 167 144.999 167L145.999 151.5C145.999 151.5 149.572 133.923 150.499 122.5C151.524 109.849 150.499 102.692 150.499 90V69.5C150.499 69.5 156.178 76.3682 158.499 81.5C163.263 92.0345 161.273 99.4415 160.999 111C160.784 120.032 161.798 125 160.999 134Z" fill="#201806"/>
<path d="M34.9985 126.5V117L42.9985 106.5L59.4985 100.5L81.4985 106.5M81.4985 106.5L94.4985 117L105.999 126.5M81.4985 106.5L67.9985 90L52.9985 81.5M105.999 126.5L122.499 151.5L131.999 167M105.999 126.5L97.9985 131L74.7485 134M131.999 167H140.999M131.999 167L127.999 214L117.499 265V285.5L122.499 289.5L127.999 265L135.999 224L140.999 167M140.999 167L131.999 151.5L117.499 126.5L97.9985 110.5M97.9985 110.5V89M97.9985 110.5L83.9985 90L64.9985 69.5M97.9985 89V59L105.999 32L122.499 9L127.499 2.5L122.499 23.5L107.999 47L97.9985 89ZM64.9985 69.5L67.9985 59L74.7485 54.75M64.9985 69.5L52.9985 59L32.4985 44.5M81.4985 50.5C81.4985 50.5 76.9071 45.848 75.9985 42C74.1937 34.3559 100.295 52.5477 92.4985 53.5C88.0787 54.0399 81.4985 50.5 81.4985 50.5ZM81.4985 50.5L74.7485 54.75M74.7485 54.75V47M74.7485 47C74.7485 47 54.6299 42.911 59.4985 38C62.3024 35.1717 65.8225 34.4677 69.4985 36C73.8921 37.8314 74.7485 47 74.7485 47ZM52.9985 81.5H30.9985L16.9985 90L10.4985 100.5M52.9985 81.5L34.9985 69.5L12.4985 53.5M74.7485 134C74.7485 134 65.8887 140.856 59.4985 144C49.1718 149.081 41.605 147.033 30.9985 151.5C22.5389 155.063 10.4985 163 10.4985 163C10.4985 163 24.2707 149.614 34.9985 144C49.1811 136.578 74.7485 134 74.7485 134ZM135.999 66.5L131.999 90L122.499 117L105.999 167L92.4985 234.5L74.7485 265L67.1235 291.25M135.999 66.5V60.625M135.999 66.5C135.999 66.5 129.888 89.2544 122.499 84.5C119.538 82.5953 119.517 79.8841 117.499 77C113.983 71.9764 105.633 70.1566 107.999 64.5C109.653 60.5451 113.403 60.2655 117.499 59C124.428 56.8591 135.999 60.625 135.999 60.625M135.999 60.625C135.999 60.625 135.495 56.9884 135.999 54.75C136.789 51.236 137.473 47.7384 140.999 47C145.897 45.974 148.688 55.1428 145.499 59C143.1 61.9007 135.999 60.625 135.999 60.625ZM67.1235 291.25L59.4985 317.5L42.9985 373.5L67.1235 291.25ZM67.1235 291.25L59.4985 274.5M67.1235 291.25L42.9985 283.5M67.1235 291.25L82.9985 283.5M59.4985 274.5C59.4985 274.5 64.1628 261.02 59.4985 255C52.2741 245.676 30.8133 253.206 30.9985 265C31.1828 276.731 59.4985 274.5 59.4985 274.5ZM42.9985 283.5C42.9985 283.5 36.8324 273.97 30.9985 274.5C24.0931 275.127 19.1139 282.989 21.4985 289.5C24.4964 297.685 42.9985 283.5 42.9985 283.5ZM82.9985 283.5C82.9985 283.5 90.9074 290.923 96.4985 289.5C104.349 287.502 107.723 275.231 101.999 269.5C95.4847 262.979 82.9985 283.5 82.9985 283.5ZM117.499 378L120.499 344.5V322V296L105.499 255H99.9985L107.499 302L109.999 339V378M117.499 378H109.999M117.499 378L120.499 383.5M109.999 378L105.499 410L101.999 442L96.4985 460.5M96.4985 460.5L103.499 474L113.999 460.5M96.4985 460.5L86.9985 499.5L81.9985 539.5L66.4985 577.5L58.9985 619.5L48.4985 752.5L54.4985 748.5L58.9985 672.5L76.4985 588.5L84.9985 569.5L96.4985 546L98.9985 514M113.999 460.5L103.499 496.5L98.9985 514M113.999 460.5L112.645 442M112.499 440L117.499 417.5L125.999 391L148.499 352L160.999 329L180.999 289.5L150.499 330.5L134.999 360.5L120.499 383.5M112.499 440L134.999 428.5L168.999 404.5L209.499 373.5L192.499 394L168.999 414L134.999 435L112.645 442M112.499 440L112.645 442M120.499 383.5L109.999 417.5M98.9985 514L118.999 509L158.999 493L195.499 460.5L207.499 438.5L220.499 394L216.999 346.5L209.499 296L195.499 246L185.999 214M185.999 214L195.499 208M185.999 214L174.499 208M185.999 214L191.499 194.5M185.999 214L169.999 194.5M195.499 208L207.999 202C207.999 202 221.829 200.681 227.499 206C231.836 210.07 236.639 214.948 233.499 220C230.668 224.554 225.253 223.568 219.999 222.5C212.687 221.014 212.992 212.1 205.999 209.5C202.116 208.057 195.499 208 195.499 208ZM174.499 208C174.499 208 163.924 204.9 158.499 208C153.608 210.794 151.847 214.532 150.499 220C148.501 228.099 148.653 237.667 156.499 240.5C165.468 243.739 169.825 231.492 172.999 222.5C174.893 217.132 174.499 208 174.499 208ZM191.499 194.5L188.499 189L195.499 192L191.499 194.5ZM169.999 194.5C169.999 194.5 154.852 181.174 160.999 176C165.668 172.069 172.98 173.013 176.499 178C180.491 183.659 169.999 194.5 169.999 194.5ZM274.999 387L258.999 370L242.499 352L226.499 335.5L200.999 308.5L188.499 282L178.499 240.5M178.499 240.5L176.499 224M178.499 240.5L172.999 251.5M178.499 240.5L188.499 244.5M172.999 251.5C172.999 251.5 163.557 252.111 158.499 255C149.308 260.25 137.438 271.093 144.999 278.5C148.889 282.311 153.192 283.227 158.499 282C166.308 280.194 167.103 272.474 169.999 265C171.95 259.964 172.999 251.5 172.999 251.5ZM188.499 244.5C188.499 244.5 186.558 253.973 188.499 259.5L195.499 269.5L188.499 244.5ZM152.999 163C158.499 156 159.856 146.86 160.999 134C161.798 125 160.784 120.032 160.999 111C161.273 99.4415 163.263 92.0345 158.499 81.5C156.178 76.3682 150.499 69.5 150.499 69.5C150.499 69.5 150.499 81.9943 150.499 90C150.499 102.692 151.524 109.849 150.499 122.5C149.572 133.923 145.999 151.5 145.999 151.5L144.999 167C144.999 167 150.224 166.531 152.999 163Z" stroke="#201806" stroke-width="5"/>
<path d="M225.499 143.5L230.499 151L250.999 145.5C250.999 145.5 255.328 154.372 256.499 160.5C257.854 167.596 256.499 179 256.499 179C256.499 179 248.821 170.702 247.499 164C246.742 160.169 246.709 157.825 247.499 154C248.224 150.484 250.999 145.5 250.999 145.5L230.499 151L225.499 143.5L218.499 141.5C218.499 141.5 205.301 169.488 205.499 160.5C205.583 156.665 206.184 154.38 207.999 151C210.614 146.128 218.499 141.5 218.499 141.5L225.499 143.5Z" fill="#201806"/>
<path d="M99.4985 214L110.999 204.5L125.499 196L155.999 193.5L184.499 187.5H202.999L227.499 157L230.499 151M230.499 151L225.499 143.5L218.499 141.5M230.499 151L250.999 145.5M218.499 141.5C218.499 141.5 210.614 146.128 207.999 151C206.184 154.38 205.583 156.665 205.499 160.5C205.301 169.488 218.499 141.5 218.499 141.5ZM250.999 145.5C250.999 145.5 255.328 154.372 256.499 160.5C257.854 167.596 256.499 179 256.499 179C256.499 179 248.821 170.702 247.499 164C246.742 160.169 246.709 157.825 247.499 154C248.224 150.484 250.999 145.5 250.999 145.5Z" stroke="#201806" stroke-width="5"/>
</svg>
