<svg width="1440" height="182" viewBox="0 0 1440 182" fill="none" xmlns="http://www.w3.org/2000/svg">
<rect width="1440" height="182" fill="#201806"/>
<g clip-path="url(#clip0_338_2613)">
<path d="M1107.54 67.9807H1102.45V89.5576H1095V40.4614H1102.45V60.1345H1107.54V40.4614H1114.99V89.6153H1107.54V67.9807Z" fill="#F4EDDB"/>
<path d="M1127.82 90.1346H1126.37C1120.42 90.1346 1117.24 86.9038 1117.24 80.8462V70.9808H1124.64V79.5769C1124.64 81.8269 1125.39 83.0385 1127.06 83.0385C1128.86 83.0385 1129.49 81.8269 1129.49 78.8269V77.7308C1129.49 74.2115 1129.14 73 1126.43 69.4808L1121.75 63.3077C1118.57 59.2115 1117.65 56.0385 1117.65 51.1346V49.5769C1117.65 43.0577 1120.94 40 1126.83 40H1128.22C1134.34 40 1136.77 42.7115 1136.77 48.5385V56.6154H1129.55V49.5192C1129.55 47.8462 1129.2 46.6346 1127.41 46.6346C1125.62 46.6346 1125.22 47.7308 1125.22 50.0962V51.0192C1125.22 53.7885 1125.74 55.2885 1128.28 58.5769L1133.01 64.6923C1136.37 69.0769 1137.46 71.5577 1137.46 77.0962V78.6538C1137.46 85.8654 1134.34 90.1346 1127.82 90.1346Z" fill="#F4EDDB"/>
<path d="M1156.59 40.4614V47.6153H1147.05V60.4807H1154.51V67.923H1147.05V82.1153H1156.99V89.5576H1139.6V40.4614H1156.59Z" fill="#F4EDDB"/>
<path d="M1177.15 80.3269H1171.72L1170.74 89.5577H1164.04L1170.05 40.4038H1178.89L1185.3 89.5577H1178.08L1177.15 80.3269ZM1176.34 73L1174.38 54.8269L1172.47 73H1176.34Z" fill="#F4EDDB"/>
<path d="M1194.02 89.6153H1186.57V40.4614H1198.7C1203.67 40.4614 1206.16 42.596 1206.16 48.0768V56.7883C1206.16 60.8845 1204.25 62.4422 1202.92 63.0768C1204.6 63.8268 1206.16 65.1537 1206.16 68.4422V85.6922C1206.16 87.6537 1206.56 88.5768 1206.91 89.3268V89.673H1199.51C1199.16 89.1537 1198.76 88.2883 1198.76 85.6345V70.7499C1198.76 68.5576 1198.36 67.6345 1195.99 67.6345H1194.08L1194.02 89.6153ZM1194.02 60.6537H1195.99C1198.07 60.6537 1198.7 59.3268 1198.7 57.1345V50.2691C1198.7 48.1345 1198.24 47.096 1195.99 47.096H1194.02V60.6537Z" fill="#F4EDDB"/>
<path d="M1221.23 47.5576V89.5576H1213.84V47.5576H1207.54V40.4614H1227.53V47.6153L1221.23 47.5576Z" fill="#F4EDDB"/>
<path d="M1247.52 80.3269H1242.09L1241.11 89.5577H1234.41L1240.42 40.4038H1249.25L1255.67 89.5577H1248.45L1247.52 80.3269ZM1246.71 73L1244.75 54.8269L1242.84 73H1246.71Z" fill="#F4EDDB"/>
<path d="M1263.64 40.4614L1270.05 66.8268V40.4614H1276.87V89.6153H1270.8L1263.64 61.346V89.6153H1256.88V40.4614H1263.64Z" fill="#F4EDDB"/>
<path d="M1279.64 40.4614H1291.14C1297.55 40.4614 1299.52 44.096 1299.52 49.923V79.8653C1299.52 85.8653 1297.26 89.6153 1291.14 89.6153H1279.7V40.4614H1279.64ZM1287.15 82.4614H1288.94C1291.2 82.4614 1291.83 81.2499 1291.83 78.6537V50.9614C1291.83 48.1345 1291.08 47.1537 1289.23 47.1537H1287.1V82.4614H1287.15Z" fill="#F4EDDB"/>
<path d="M1095 92.1538H1106.44C1112.85 92.1538 1114.82 95.7884 1114.82 101.615V131.558C1114.82 137.558 1112.56 141.308 1106.44 141.308H1095V92.1538ZM1102.45 134.212H1104.24C1106.5 134.212 1107.13 133 1107.13 130.404V102.711C1107.13 99.8846 1106.38 98.9038 1104.53 98.9038H1102.39V134.212H1102.45Z" fill="#F4EDDB"/>
<path d="M1134.52 92.1538V99.3077H1124.98V112.173H1132.44V119.615H1124.98V133.808H1134.92V141.25H1117.47V92.1538H1134.52Z" fill="#F4EDDB"/>
<path d="M1146.82 141.827H1145.38C1139.43 141.827 1136.25 138.596 1136.25 132.538V122.673H1143.64V131.269C1143.64 133.519 1144.4 134.731 1146.07 134.731C1147.86 134.731 1148.5 133.519 1148.5 130.519V129.423C1148.5 125.904 1148.15 124.692 1145.44 121.173L1140.7 115.115C1137.52 111.019 1136.6 107.846 1136.6 102.942V101.385C1136.6 94.8653 1139.89 91.8076 1145.78 91.8076H1147.17C1153.35 91.8076 1155.72 94.5192 1155.72 100.346V108.423H1148.5V101.327C1148.5 99.6538 1148.15 98.4422 1146.36 98.4422C1144.57 98.4422 1144.16 99.5384 1144.16 101.904V102.827C1144.16 105.596 1144.68 107.096 1147.23 110.385L1151.96 116.5C1155.32 120.885 1156.41 123.365 1156.41 128.904V130.461C1156.47 137.558 1153.35 141.827 1146.82 141.827Z" fill="#F4EDDB"/>
<path d="M1166.06 141.308H1158.61V92.1538H1166.06V141.308Z" fill="#F4EDDB"/>
<path d="M1175.77 142C1171.38 142 1168.6 138.077 1168.6 133V102.25C1168.6 96.7693 1170.74 91.6924 1177.79 91.6924H1179.23C1187.26 91.6924 1188.19 96.8847 1188.19 102.712V107.731H1180.91V102.192C1180.91 100 1180.39 98.8462 1178.54 98.8462C1176.98 98.8462 1176.23 100.058 1176.23 102.192V130.923C1176.23 133.231 1177.15 134.442 1178.66 134.442C1180.56 134.442 1181.43 133.115 1181.43 131.269V118.981H1178.08V111.423H1188.53V141.308H1184.32C1184.26 141.019 1183.68 138.596 1183.05 136.462C1182.53 138.135 1179.98 141.942 1176.23 141.942H1175.77V142Z" fill="#F4EDDB"/>
<path d="M1197.89 92.1538L1204.31 118.519V92.1538H1211.12V141.308H1205.06L1197.89 113.038V141.308H1191.13V92.1538H1197.89Z" fill="#F4EDDB"/>
<path d="M1230.65 141.827H1229.21C1223.26 141.827 1220.08 138.596 1220.08 132.538V122.673H1227.47V131.269C1227.47 133.519 1228.22 134.731 1229.9 134.731C1231.69 134.731 1232.33 133.519 1232.33 130.519V129.423C1232.33 125.904 1231.98 124.692 1229.26 121.173L1224.53 115.115C1221.35 111.019 1220.43 107.846 1220.43 102.942V101.385C1220.43 94.8653 1223.72 91.8076 1229.61 91.8076H1231C1237.12 91.8076 1239.55 94.5192 1239.55 100.346V108.423H1232.33V101.327C1232.33 99.6538 1231.98 98.4422 1230.19 98.4422C1228.4 98.4422 1227.99 99.5384 1227.99 101.904V102.827C1227.99 105.596 1228.51 107.096 1231.06 110.385L1235.79 116.5C1239.14 120.885 1240.24 123.365 1240.24 128.904V130.461C1240.3 137.558 1237.18 141.827 1230.65 141.827Z" fill="#F4EDDB"/>
<path d="M1254.63 131.327V119.904H1261.96V131.269C1261.96 136.577 1260.23 141.885 1253.01 141.885H1251.33C1243.77 141.885 1242.15 136.462 1242.15 131.5V101.5C1242.15 96.4809 1244.34 91.6348 1251.1 91.6348H1252.84C1261.04 91.6348 1261.96 97.0578 1261.96 101.846V110.616H1254.63V101.962C1254.63 99.8271 1253.99 98.7309 1252.08 98.7309C1250.24 98.7309 1249.77 99.7694 1249.77 101.962V131.154C1249.77 133.346 1250.53 134.5 1252.14 134.5C1253.99 134.673 1254.63 133.346 1254.63 131.327Z" fill="#F4EDDB"/>
<path d="M1276.93 119.731H1271.84V141.308H1264.39V92.1538H1271.84V111.827H1276.93V92.1538H1284.38V141.308H1276.93V119.731Z" fill="#F4EDDB"/>
<path d="M1307.43 130.346C1307.43 137.212 1305.12 141.885 1297.9 141.885H1296.63C1289.46 141.885 1286.98 137.212 1286.98 130.346V103C1286.98 96.1924 1289.58 91.6924 1296.57 91.6924H1297.84C1305.12 91.6924 1307.43 96.1924 1307.43 102.942V130.346ZM1299.81 102.596C1299.81 100 1298.94 98.8462 1297.21 98.8462C1295.3 98.8462 1294.55 100.115 1294.55 102.596V130.865C1294.55 133 1295.13 134.615 1297.26 134.615C1299.23 134.615 1299.81 132.942 1299.81 130.865V102.596Z" fill="#F4EDDB"/>
<path d="M1330.25 130.346C1330.25 137.212 1327.94 141.885 1320.72 141.885H1319.45C1312.28 141.885 1309.8 137.212 1309.8 130.346V103C1309.8 96.1924 1312.4 91.6924 1319.39 91.6924H1320.66C1327.94 91.6924 1330.25 96.1924 1330.25 102.942V130.346ZM1322.63 102.596C1322.63 100 1321.76 98.8462 1320.03 98.8462C1318.12 98.8462 1317.37 100.115 1317.37 102.596V130.865C1317.37 133 1317.95 134.615 1320.08 134.615C1322.05 134.615 1322.63 132.942 1322.63 130.865V102.596Z" fill="#F4EDDB"/>
<path d="M1340.3 92.1538V133.692H1349.43V141.308H1332.85V92.1538H1340.3Z" fill="#F4EDDB"/>
<path fill-rule="evenodd" clip-rule="evenodd" d="M1359.89 91.6348C1354.34 91.6348 1349.78 96.1348 1349.78 101.731C1349.78 107.269 1354.29 111.827 1359.89 111.827C1365.49 111.827 1370 107.327 1370 101.731C1369.94 96.1348 1365.44 91.6348 1359.89 91.6348Z" fill="#F4EDDB"/>
<path fill-rule="evenodd" clip-rule="evenodd" d="M1361.57 100.808C1362.2 100.519 1362.61 100.115 1362.89 99.8269C1363.41 99.25 1363.59 98.5577 1363.59 97.8654C1363.59 97.3462 1363.41 96.25 1362.49 95.5C1361.85 94.9808 1361.28 94.75 1359.89 94.75H1359.2H1359.14H1356.25V108.25H1364.4V105.654C1364.45 103.173 1363.64 101.5 1361.57 100.808ZM1362.61 107.5H1361.1V103H1359.43V107.5H1358.16V95.3846H1359.49C1360.01 95.3846 1360.76 95.5 1361.28 96.1346C1361.57 96.4808 1361.74 96.9423 1361.8 97.3462H1359.43V98.0385H1361.8C1361.8 98.4423 1361.68 98.9615 1361.28 99.4808C1360.93 99.9423 1360.29 100.346 1359.43 100.346V101.038C1361.74 101.038 1362.61 102.538 1362.61 105.365V107.5Z" fill="#201806"/>
</g>
<path d="M80.0949 53.3476C74.2723 53.3476 70.7091 49.3789 70.7091 42.8611C70.7091 36.4011 74.3012 32.4614 80.1818 32.4614C84.2953 32.4614 87.2791 34.3733 88.6985 38.1102L86.3231 39.0372C85.3092 36.2563 83.2235 34.9237 80.1818 34.9237C75.7786 34.9237 73.2873 37.7916 73.2873 42.8611C73.2873 47.9595 75.7786 50.8853 80.0949 50.8853C83.1076 50.8853 85.2803 49.4659 86.3231 46.6849L88.7565 47.5829C87.2791 51.3488 84.2084 53.3476 80.0949 53.3476ZM100.84 38.7186H103.331V53H100.84V51.0591C99.826 52.5655 98.0589 53.2607 96.2629 53.2607C92.9026 53.2607 91.4541 50.8853 91.4541 47.525V38.7186H93.9454V46.9166C93.9454 48.7706 94.2061 51.0591 96.9002 51.0591C99.884 51.0591 100.84 48.2202 100.84 44.9178V38.7186ZM114.814 38.4579C115.712 38.4579 116.524 38.6606 117.364 39.1531L116.147 41.2388C115.539 40.9491 114.93 40.8043 114.293 40.8043C112.12 40.8043 110.701 42.3396 110.701 45.2944V53H108.21V38.7186H110.701V40.9491C111.599 39.1241 113.308 38.4579 114.814 38.4579ZM125.106 38.4579C128.756 38.4579 130.929 40.5436 130.929 44.0777V53H128.64L128.467 50.8563C127.453 52.3917 125.743 53.2607 123.6 53.2607C120.529 53.2607 118.588 51.5226 118.588 48.7706C118.588 47.2643 119.226 46.1055 120.384 45.4682C121.456 44.8888 122.876 44.6571 125.28 44.6571H128.438V44.0777C128.438 41.8761 127.221 40.6595 125.048 40.6595C123.368 40.6595 122.007 41.4416 120.877 42.948L119.081 41.4416C120.674 39.4138 122.615 38.4579 125.106 38.4579ZM124.179 51.175C126.699 51.175 128.438 49.3789 128.438 46.7428V46.598H125.57C123.397 46.598 122.412 46.7718 121.804 47.2353C121.34 47.6119 121.08 48.1623 121.08 48.8865C121.08 50.277 122.267 51.175 124.179 51.175ZM141.856 40.7464H138.351V49.1762C138.351 50.4797 139.018 51.0591 140.147 51.0591C140.64 51.0591 141.219 50.9432 141.856 50.7405V52.8552C141.074 53.1159 140.292 53.2607 139.539 53.2607C137.482 53.2607 135.86 52.1309 135.86 49.4369V40.7464H133.514V38.7186H135.86V35.3293L138.351 33.4753V38.7186H141.856V40.7464ZM150.947 53.2607C146.746 53.2607 144.023 50.0163 144.023 45.8448C144.023 41.6733 146.746 38.4579 150.947 38.4579C155.118 38.4579 157.928 41.6733 157.928 45.8448C157.928 49.9873 155.147 53.2607 150.947 53.2607ZM150.947 51.0591C153.872 51.0591 155.437 48.7416 155.437 45.8448C155.437 42.89 153.872 40.6595 150.947 40.6595C148.021 40.6595 146.515 42.919 146.515 45.8448C146.515 48.7706 148.05 51.0591 150.947 51.0591ZM168.112 38.4579C169.01 38.4579 169.821 38.6606 170.661 39.1531L169.444 41.2388C168.836 40.9491 168.228 40.8043 167.59 40.8043C165.418 40.8043 163.998 42.3396 163.998 45.2944V53H161.507V38.7186H163.998V40.9491C164.896 39.1241 166.605 38.4579 168.112 38.4579ZM186.623 53V45.2075L178.918 32.809H181.959L187.869 42.7162L193.807 32.809H196.878L189.201 45.2075V53H186.623ZM202.959 38.4579C206.609 38.4579 208.781 40.5436 208.781 44.0777V53H206.493L206.319 50.8563C205.305 52.3917 203.596 53.2607 201.452 53.2607C198.382 53.2607 196.441 51.5226 196.441 48.7706C196.441 47.2643 197.078 46.1055 198.237 45.4682C199.309 44.8888 200.728 44.6571 203.133 44.6571H206.29V44.0777C206.29 41.8761 205.074 40.6595 202.901 40.6595C201.221 40.6595 199.859 41.4416 198.729 42.948L196.933 41.4416C198.527 39.4138 200.468 38.4579 202.959 38.4579ZM202.032 51.175C204.552 51.175 206.29 49.3789 206.29 46.7428V46.598H203.422C201.25 46.598 200.265 46.7718 199.656 47.2353C199.193 47.6119 198.932 48.1623 198.932 48.8865C198.932 50.277 200.12 51.175 202.032 51.175ZM219.853 38.4579C220.751 38.4579 221.562 38.6606 222.403 39.1531L221.186 41.2388C220.577 40.9491 219.969 40.8043 219.332 40.8043C217.159 40.8043 215.74 42.3396 215.74 45.2944V53H213.248V38.7186H215.74V40.9491C216.638 39.1241 218.347 38.4579 219.853 38.4579ZM229.535 53.2607C225.334 53.2607 222.611 50.0163 222.611 45.8448C222.611 41.6733 225.334 38.4579 229.535 38.4579C233.706 38.4579 236.516 41.6733 236.516 45.8448C236.516 49.9873 233.735 53.2607 229.535 53.2607ZM229.535 51.0591C232.461 51.0591 234.025 48.7416 234.025 45.8448C234.025 42.89 232.461 40.6595 229.535 40.6595C226.609 40.6595 225.103 42.919 225.103 45.8448C225.103 48.7706 226.638 51.0591 229.535 51.0591ZM244.469 53.2607C241.602 53.2607 239.313 51.6675 238.56 49.4369L240.617 48.5099C241.08 49.8424 242.268 51.1171 244.383 51.1171C246.237 51.1171 247.279 50.1611 247.279 48.9155C247.279 45.5841 239.342 47.6988 239.342 42.5424C239.342 39.9642 241.544 38.4579 244.354 38.4579C246.7 38.4579 248.583 39.5007 249.597 41.4995L247.627 42.5714C246.99 41.4126 245.976 40.5725 244.296 40.5725C242.731 40.5725 241.746 41.2388 241.746 42.2817C241.746 45.2654 249.742 43.4115 249.742 48.7706C249.742 51.8123 247.192 53.2607 244.469 53.2607ZM256.229 53.2607C254.491 53.2607 253.304 52.1309 253.304 49.7845V32.809H255.795V49.6397C255.795 50.5087 256.143 51.0301 256.983 51.0301C257.388 51.0301 257.852 50.9143 258.257 50.7984L258.286 52.8552C257.62 53.0869 256.867 53.2607 256.229 53.2607ZM266.469 38.4579C270.119 38.4579 272.291 40.5436 272.291 44.0777V53H270.003L269.829 50.8563C268.815 52.3917 267.106 53.2607 264.962 53.2607C261.892 53.2607 259.951 51.5226 259.951 48.7706C259.951 47.2643 260.588 46.1055 261.747 45.4682C262.819 44.8888 264.238 44.6571 266.642 44.6571H269.8V44.0777C269.8 41.8761 268.583 40.6595 266.411 40.6595C264.731 40.6595 263.369 41.4416 262.239 42.948L260.443 41.4416C262.037 39.4138 263.977 38.4579 266.469 38.4579ZM265.542 51.175C268.062 51.175 269.8 49.3789 269.8 46.7428V46.598H266.932C264.76 46.598 263.775 46.7718 263.166 47.2353C262.703 47.6119 262.442 48.1623 262.442 48.8865C262.442 50.277 263.63 51.175 265.542 51.175ZM280.41 53L274.588 38.7186H277.282L281.424 49.7845L285.625 38.7186H288.348L282.496 53H280.41ZM304.736 53.3187C300.913 53.3187 297.987 51.0301 297.436 47.5539L299.986 46.9166C300.333 49.4659 302.187 51.0012 304.765 51.0012C307.402 51.0012 308.821 49.6397 308.821 47.7567C308.821 45.8448 307.633 44.8019 304.273 43.4984C300.13 41.9051 298.682 40.4277 298.682 37.7047C298.682 34.5761 301.086 32.4614 304.621 32.4614C307.228 32.4614 309.256 33.6491 310.501 35.8797L308.329 37.2122C307.517 35.6769 306.156 34.7789 304.534 34.7789C302.651 34.7789 301.26 36.0535 301.26 37.6178C301.26 39.2979 302.535 40.196 305.663 41.4126C310.096 43.0928 311.428 44.6861 311.428 47.525C311.428 51.0301 308.908 53.3187 304.736 53.3187ZM323.62 38.7186H326.111V53H323.62V51.0591C322.606 52.5655 320.839 53.2607 319.043 53.2607C315.682 53.2607 314.234 50.8853 314.234 47.525V38.7186H316.725V46.9166C316.725 48.7706 316.986 51.0591 319.68 51.0591C322.664 51.0591 323.62 48.2202 323.62 44.9178V38.7186ZM338 38.4579C341.823 38.4579 344.257 41.3257 344.257 45.8448C344.257 50.1032 342.084 53.2607 338 53.2607C336.117 53.2607 334.494 52.5655 333.481 51.2329V53H330.989V32.809H333.481V40.5146C334.465 39.211 336.117 38.4579 338 38.4579ZM337.536 51.0012C340.346 51.0012 341.766 48.8865 341.766 45.8448C341.766 42.7162 340.23 40.6884 337.536 40.6884C334.784 40.6884 333.278 42.8031 333.278 45.8448C333.278 48.7996 334.697 51.0012 337.536 51.0012ZM355.002 38.4579C358.825 38.4579 361.259 41.3257 361.259 45.8448C361.259 50.1032 359.086 53.2607 355.002 53.2607C353.119 53.2607 351.496 52.5655 350.483 51.2329V53H347.991V32.809H350.483V40.5146C351.467 39.211 353.119 38.4579 355.002 38.4579ZM354.538 51.0012C357.348 51.0012 358.768 48.8865 358.768 45.8448C358.768 42.7162 357.232 40.6884 354.538 40.6884C351.786 40.6884 350.28 42.8031 350.28 45.8448C350.28 48.7996 351.699 51.0012 354.538 51.0012ZM370.671 53.2607C366.471 53.2607 363.748 50.0163 363.748 45.8448C363.748 41.6733 366.471 38.4579 370.671 38.4579C374.842 38.4579 377.652 41.6733 377.652 45.8448C377.652 49.9873 374.871 53.2607 370.671 53.2607ZM370.671 51.0591C373.597 51.0591 375.161 48.7416 375.161 45.8448C375.161 42.89 373.597 40.6595 370.671 40.6595C367.745 40.6595 366.239 42.919 366.239 45.8448C366.239 48.7706 367.774 51.0591 370.671 51.0591ZM387.607 40.7464H384.102V49.1762C384.102 50.4797 384.768 51.0591 385.898 51.0591C386.39 51.0591 386.97 50.9432 387.607 50.7405V52.8552C386.825 53.1159 386.043 53.2607 385.29 53.2607C383.233 53.2607 381.611 52.1309 381.611 49.4369V40.7464H379.264V38.7186H381.611V35.3293L384.102 33.4753V38.7186H387.607V40.7464ZM398.032 38.4579C401.132 38.4579 402.812 40.4277 402.812 44.1067V53H400.32V44.715C400.32 41.9341 399.393 40.6595 397.366 40.6595C394.787 40.6595 393.426 42.7162 393.426 46.7139V53H390.935V32.809H393.426V40.6595C394.382 39.269 396.033 38.4579 398.032 38.4579ZM407.198 35.8507V32.809H409.979V35.8507H407.198ZM407.343 53V38.7186H409.834V53H407.343ZM72.0417 91V70.809H77.6616C84.2664 70.809 88.0323 74.5459 88.0323 81.0638C88.0323 87.4948 84.3533 91 77.6326 91H72.0417ZM74.6199 88.6246H77.4008C82.8469 88.6246 85.4251 86.1623 85.4251 80.948C85.4251 75.7626 82.8469 73.1844 77.6036 73.1844H74.6199V88.6246ZM97.8191 91.2607C93.6186 91.2607 90.8956 88.0163 90.8956 83.8448C90.8956 79.6733 93.6186 76.4579 97.8191 76.4579C101.991 76.4579 104.8 79.6733 104.8 83.8448C104.8 87.9873 102.019 91.2607 97.8191 91.2607ZM97.8191 89.0591C100.745 89.0591 102.309 86.7416 102.309 83.8448C102.309 80.89 100.745 78.6595 97.8191 78.6595C94.8932 78.6595 93.3869 80.919 93.3869 83.8448C93.3869 86.7706 94.9222 89.0591 97.8191 89.0591ZM114.984 76.4579C115.882 76.4579 116.693 76.6606 117.533 77.1531L116.317 79.2388C115.708 78.9491 115.1 78.8043 114.463 78.8043C112.29 78.8043 110.871 80.3396 110.871 83.2944V91H108.379V76.7186H110.871V78.9491C111.769 77.1241 113.478 76.4579 114.984 76.4579ZM124.666 91.2607C120.465 91.2607 117.742 88.0163 117.742 83.8448C117.742 79.6733 120.465 76.4579 124.666 76.4579C128.837 76.4579 131.647 79.6733 131.647 83.8448C131.647 87.9873 128.866 91.2607 124.666 91.2607ZM124.666 89.0591C127.592 89.0591 129.156 86.7416 129.156 83.8448C129.156 80.89 127.592 78.6595 124.666 78.6595C121.74 78.6595 120.234 80.919 120.234 83.8448C120.234 86.7706 121.769 89.0591 124.666 89.0591ZM136.095 91V78.7464H133.169V76.7186H136.124V74.7197C136.124 71.4753 137.978 70.5483 139.948 70.5483C140.846 70.5483 141.686 70.7511 142.555 71.1277L141.715 73.0685C141.194 72.8078 140.701 72.634 140.209 72.634C139.05 72.634 138.586 73.532 138.586 74.6039V76.7186H142.439V78.7464H138.586V91H136.095ZM156.32 83.3234C156.32 83.7289 156.291 84.2214 156.233 84.598H146.007C146.094 87.321 147.63 88.9722 150.266 88.9722C151.714 88.9722 152.931 88.5667 154.147 87.2631L155.857 88.7984C154.234 90.5365 152.496 91.2607 150.237 91.2607C145.689 91.2607 143.516 87.9004 143.516 83.9317C143.516 79.992 145.66 76.4579 150.005 76.4579C154.379 76.4579 156.32 79.8472 156.32 83.3234ZM146.007 82.5702H153.945C153.916 82.5123 153.916 82.4253 153.916 82.3095C153.829 80.1079 152.38 78.5436 149.976 78.5436C147.543 78.5436 146.181 80.4265 146.007 82.5702ZM171.625 83.3234C171.625 83.7289 171.596 84.2214 171.538 84.598H161.312C161.399 87.321 162.934 88.9722 165.57 88.9722C167.019 88.9722 168.235 88.5667 169.452 87.2631L171.161 88.7984C169.539 90.5365 167.801 91.2607 165.541 91.2607C160.993 91.2607 158.821 87.9004 158.821 83.9317C158.821 79.992 160.964 76.4579 165.31 76.4579C169.684 76.4579 171.625 79.8472 171.625 83.3234ZM161.312 82.5702H169.249C169.22 82.5123 169.22 82.4253 169.22 82.3095C169.133 80.1079 167.685 78.5436 165.281 78.5436C162.847 78.5436 161.486 80.4265 161.312 82.5702ZM179.021 91L173.198 76.7186H175.892L180.035 87.7845L184.235 76.7186H186.958L181.107 91H179.021ZM194.755 76.4579C198.405 76.4579 200.578 78.5436 200.578 82.0777V91H198.289L198.115 88.8563C197.101 90.3917 195.392 91.2607 193.249 91.2607C190.178 91.2607 188.237 89.5226 188.237 86.7706C188.237 85.2643 188.874 84.1055 190.033 83.4682C191.105 82.8888 192.524 82.6571 194.929 82.6571H198.086V82.0777C198.086 79.8761 196.87 78.6595 194.697 78.6595C193.017 78.6595 191.655 79.4416 190.525 80.948L188.729 79.4416C190.323 77.4138 192.264 76.4579 194.755 76.4579ZM193.828 89.175C196.348 89.175 198.086 87.3789 198.086 84.7428V84.598H195.218C193.046 84.598 192.061 84.7718 191.452 85.2353C190.989 85.6119 190.728 86.1623 190.728 86.8865C190.728 88.277 191.916 89.175 193.828 89.175ZM213.263 91V70.809H215.841V88.6246H224.879V91H213.263ZM228.047 96.9096L230.48 90.7683L224.571 76.7186H227.323L231.813 87.8714L235.897 76.7186H238.649L230.741 96.9096H228.047ZM250.322 76.7186H252.813V91H250.322V89.0591C249.308 90.5655 247.541 91.2607 245.744 91.2607C242.384 91.2607 240.936 88.8853 240.936 85.525V76.7186H243.427V84.9166C243.427 86.7706 243.688 89.0591 246.382 89.0591C249.366 89.0591 250.322 86.2202 250.322 82.9178V76.7186ZM267.225 70.809H269.716V91H267.225V89.2329C266.211 90.5655 264.588 91.2607 262.706 91.2607C258.621 91.2607 256.448 88.1032 256.448 83.8448C256.448 79.3257 258.882 76.4579 262.706 76.4579C264.588 76.4579 266.24 77.211 267.225 78.5146V70.809ZM263.169 89.0012C266.008 89.0012 267.427 86.7996 267.427 83.8448C267.427 80.8031 265.921 78.6884 263.169 78.6884C260.475 78.6884 258.94 80.7162 258.94 83.8448C258.94 86.8865 260.359 89.0012 263.169 89.0012ZM289.731 76.4579C293.149 76.4579 294.626 78.8333 294.626 82.0198V91H292.135V82.744C292.135 81.5563 292.077 78.6595 289.238 78.6595C286.312 78.6595 285.849 81.4984 285.849 84.598V91H283.357V82.8019C283.357 80.8611 282.807 78.6595 280.403 78.6595C277.564 78.6595 277.071 81.4984 277.071 84.598V91H274.58L274.551 76.7186H276.984V78.4856C277.882 77.0083 279.331 76.4579 280.866 76.4579C282.72 76.4579 284.284 77.24 285.067 79.2388C286.052 77.2979 287.674 76.4579 289.731 76.4579ZM298.99 73.8507V70.809H301.771V73.8507H298.99ZM299.135 91V76.7186H301.627V91H299.135ZM309.301 91.2607C307.562 91.2607 306.375 90.1309 306.375 87.7845V70.809H308.866V87.6397C308.866 88.5087 309.214 89.0301 310.054 89.0301C310.459 89.0301 310.923 88.9143 311.328 88.7984L311.357 90.8552C310.691 91.0869 309.938 91.2607 309.301 91.2607ZM319.54 76.4579C323.19 76.4579 325.362 78.5436 325.362 82.0777V91H323.074L322.9 88.8563C321.886 90.3917 320.177 91.2607 318.033 91.2607C314.963 91.2607 313.022 89.5226 313.022 86.7706C313.022 85.2643 313.659 84.1055 314.818 83.4682C315.89 82.8888 317.309 82.6571 319.714 82.6571H322.871V82.0777C322.871 79.8761 321.654 78.6595 319.482 78.6595C317.802 78.6595 316.44 79.4416 315.31 80.948L313.514 79.4416C315.108 77.4138 317.048 76.4579 319.54 76.4579ZM318.613 89.175C321.133 89.175 322.871 87.3789 322.871 84.7428V84.598H320.003C317.831 84.598 316.846 84.7718 316.237 85.2353C315.774 85.6119 315.513 86.1623 315.513 86.8865C315.513 88.277 316.701 89.175 318.613 89.175ZM72.0417 129V108.809H77.6616C84.2664 108.809 88.0323 112.546 88.0323 119.064C88.0323 125.495 84.3533 129 77.6326 129H72.0417ZM74.6199 126.625H77.4008C82.8469 126.625 85.4251 124.162 85.4251 118.948C85.4251 113.763 82.8469 111.184 77.6036 111.184H74.6199V126.625ZM95.1546 126.654H104.975V129H90.9542V126.798C95.2995 124.104 101.557 119.904 101.557 114.748C101.557 112.459 100.311 110.924 97.9066 110.924C95.0098 110.924 93.8221 113.125 93.7642 115.819L91.3018 115.646C91.3018 111.764 93.6483 108.519 97.9356 108.519C101.557 108.519 104.077 110.837 104.077 114.69C104.077 119.614 99.7316 123.815 95.1546 126.654ZM114.426 129.29C110.399 129.29 107.213 127.059 107.213 122.859L109.675 122.714C109.675 125.379 111.674 126.914 114.484 126.914C117.091 126.914 119.148 125.553 119.148 122.946C119.148 119.759 115.932 119.411 113.47 119.411V117.384C116.367 117.384 118.076 116.312 118.076 114.11C118.076 111.909 116.482 110.895 114.513 110.895C112.224 110.895 110.66 112.198 110.631 114.458L108.197 114.284C108.197 110.692 110.949 108.519 114.426 108.519C117.67 108.519 120.567 110.431 120.567 113.792C120.567 115.935 119.321 117.529 117.757 118.166C120.017 118.687 121.639 120.483 121.639 123.206C121.639 127.117 118.365 129.29 114.426 129.29ZM125.933 129V108.809H131.553C138.158 108.809 141.924 112.546 141.924 119.064C141.924 125.495 138.245 129 131.524 129H125.933ZM128.511 126.625H131.292C136.738 126.625 139.317 124.162 139.317 118.948C139.317 113.763 136.738 111.184 131.495 111.184H128.511V126.625ZM160.495 108.809V110.779L147.923 126.625H160.437V129H144.447V127.117L157.106 111.184H145.113V108.809H160.495ZM170.248 129.29C164.57 129.29 163.614 123.554 163.614 118.919C163.614 114.284 164.512 108.519 170.045 108.519C175.085 108.519 176.679 113.589 176.679 118.948C176.679 124.307 175.143 129.29 170.248 129.29ZM170.19 126.914C173.405 126.914 173.985 123.033 173.985 118.919C173.985 114.661 173.376 110.895 170.045 110.895C166.655 110.895 166.163 114.892 166.163 118.919C166.163 122.859 166.655 126.914 170.19 126.914ZM186.653 129.261C183.061 129.261 179.613 127.262 179.613 123.206C179.613 120.773 180.888 118.89 183.09 118.021C181.641 117.21 180.685 115.732 180.685 113.821C180.685 110.489 183.64 108.548 186.682 108.548C189.868 108.548 192.62 110.605 192.62 113.907C192.62 115.79 191.635 117.268 190.216 118.021C192.417 118.89 193.663 120.802 193.663 123.206C193.663 127.233 190.245 129.261 186.653 129.261ZM186.682 117.297C188.71 117.297 190.158 116.051 190.158 114.081C190.158 112.227 188.71 110.953 186.682 110.953C184.741 110.953 183.177 112.111 183.177 114.023C183.177 116.051 184.596 117.297 186.682 117.297ZM186.653 126.885C189.115 126.885 191.201 125.582 191.201 123.004C191.201 120.541 189.318 119.035 186.653 119.035C183.988 119.035 182.105 120.541 182.105 123.004C182.105 125.582 184.19 126.885 186.653 126.885Z" fill="#F4EDDB"/>
<defs>
<clipPath id="clip0_338_2613">
<rect width="275" height="102" fill="white" transform="translate(1095 40)"/>
</clipPath>
</defs>
</svg>
