<svg width="1664" height="1203" viewBox="0 0 1664 1203" fill="none" xmlns="http://www.w3.org/2000/svg">
<rect x="850.243" y="3.50489" width="193.014" height="1066.58" rx="12.5" transform="rotate(52.5494 850.243 3.50489)" fill="#201806" stroke="#F4EDDB" stroke-width="5"/>
<rect x="921.97" y="197.003" width="181.41" height="1066.58" rx="12.5" transform="rotate(52.5494 921.97 197.003)" fill="#201806" stroke="#F4EDDB" stroke-width="5"/>
<rect x="1403.91" y="59.8281" width="179.52" height="1066.58" rx="12.5" transform="rotate(52.5494 1403.91 59.8281)" fill="#201806" stroke="#F4EDDB" stroke-width="5"/>
<path d="M665.233 738.873C653.032 722.945 656.123 700.141 671.976 687.999C687.828 675.857 710.649 678.813 722.85 694.742C735.05 710.67 731.959 733.474 716.107 745.616C700.254 757.758 677.433 754.802 665.233 738.873ZM667.976 736.772C679.009 751.176 699.677 753.847 714.005 742.872C728.333 731.898 731.139 711.248 720.106 696.843C709.073 682.439 688.405 679.768 674.077 690.743C659.749 701.717 656.944 722.367 667.976 736.772ZM669.924 709.16C669.34 708.398 669.483 707.321 670.245 706.737L690.442 691.268C691.204 690.684 692.28 690.827 692.864 691.589C693.448 692.351 693.305 693.428 692.543 694.012L672.347 709.481C671.584 710.065 670.508 709.922 669.924 709.16ZM682.533 725.622C681.949 724.86 682.092 723.783 682.854 723.199L703.05 707.73C703.813 707.146 704.889 707.289 705.473 708.051C706.057 708.813 705.914 709.89 705.152 710.474L684.956 725.943C684.193 726.527 683.117 726.384 682.533 725.622ZM695.259 742.236C694.967 741.855 694.827 741.358 694.881 740.954L696.629 722.081C696.624 721.601 696.947 721.233 697.252 720.999C697.557 720.766 698.054 720.626 698.458 720.68L716.79 723.931C717.463 724.02 717.848 724.208 718.14 724.59C718.491 725.047 718.752 726.177 717.837 726.877C717.532 727.111 717.169 727.268 716.631 727.197L699.703 724.2L698.111 741.382C698.057 741.786 697.869 742.172 697.488 742.464C696.879 742.931 695.784 742.922 695.259 742.236ZM684.263 706.884C683.68 706.121 683.822 705.045 684.584 704.461C685.347 703.877 686.423 704.02 687.007 704.782L691.21 710.269C691.794 711.032 691.651 712.108 690.889 712.692C690.127 713.276 689.05 713.133 688.466 712.371L684.263 706.884Z" fill="#F4EDDB"/>
<rect x="1259.41" y="401.884" width="179.52" height="1066.58" rx="12.5" transform="rotate(52.5494 1259.41 401.884)" fill="#201806" stroke="#F4EDDB" stroke-width="5"/>
<rect x="1550.84" y="408.016" width="179.52" height="1066.58" rx="12.5" transform="rotate(52.5494 1550.84 408.016)" fill="#201806" stroke="#F4EDDB" stroke-width="5"/>
<rect x="651.922" y="88.428" width="193" height="1067" rx="12.5" transform="rotate(-11.2907 651.922 88.428)" fill="#201806" stroke="#F4EDDB" stroke-width="5"/>
<path d="M764.242 206.751C765.839 214.753 761.62 220.099 757.816 223.11L792.366 216.212L793.475 221.767L750.17 230.412L748.91 224.104C755.652 220.605 760.097 213.942 758.857 207.728C758.143 204.151 755.583 200.648 753.532 197.24L744.212 199.1L743.122 193.64L751.03 192.061C749.581 189.707 747.888 185.64 747.137 181.875C744.975 171.048 750.74 161.185 762.131 158.911C771.169 157.106 779.188 160.988 783.44 169.047L778.657 172.058C775.27 165.392 769.453 163.225 763.334 164.446C755.426 166.025 751.018 172.387 752.729 180.954C753.443 184.531 755.079 188.316 756.773 190.915L776.637 186.949L777.727 192.41L759.181 196.112C761.119 199.445 763.415 202.609 764.242 206.751Z" fill="#F4EDDB"/>
<path d="M787.539 378.389L783.341 375.507L787.014 369.879C779.279 363.494 777.155 352.366 781.771 343.613L776.331 339.903L779.081 335.536L784.634 339.322C790.944 331.699 802.109 329.274 810.994 334.059L814.686 328.526L818.959 331.295L815.173 336.847C823.002 343.214 825.164 354.529 820.435 363.207L826.082 366.975L823.313 371.247L817.666 367.48C811.281 375.216 799.965 377.377 791.306 372.742L787.539 378.389ZM791.779 367.264C799.684 372.538 809.908 370.301 814.938 362.64C820.137 354.848 818.22 344.756 810.427 339.557C802.747 334.433 792.298 336.519 787.174 344.199C782.22 351.747 784.212 362.216 791.779 367.264Z" fill="#F4EDDB"/>
<path d="M852.508 588.25C844.506 589.848 837.371 587.944 831.65 581.352L836.509 576.76C840.612 581.619 845.563 583.372 851.494 582.188C858.178 580.853 862.378 575.414 861.157 569.294C859.747 562.234 852.047 560.932 843.745 559.555C834.219 557.932 823.582 556.14 821.233 544.372C820.237 539.383 821.236 534.582 823.704 530.761C822.387 529.066 821.371 526.92 820.826 524.189C818.777 513.928 825.84 505.665 836.102 503.617C843.727 502.094 850.994 503.678 856.96 510.515L852.007 515.126C847.885 510.173 842.859 508.533 837.116 509.679C830.432 511.014 826.232 516.453 827.453 522.573C828.882 529.727 836.563 530.935 844.771 532.331C854.504 534.01 865.047 535.821 867.396 547.589C868.411 552.673 867.374 557.285 864.812 561.125C866.223 562.801 867.258 565.042 867.784 567.678C869.833 577.939 862.77 586.202 852.508 588.25ZM859.504 557.583C860.822 555.362 861.313 552.425 860.73 549.507C859.095 541.317 850.981 539.902 842.265 538.411C837.502 537.6 832.532 536.732 829.125 534.378C827.731 536.712 827.222 539.555 827.804 542.473C829.439 550.663 837.742 552.041 846.251 553.474C851.522 554.38 856.097 555.229 859.504 557.583Z" fill="#F4EDDB"/>
<path d="M876.764 755.859L874.696 745.504L858.033 748.83L856.981 743.558L873.644 740.232L871.821 731.1L855.158 734.427L854.105 729.155L867.756 726.429L838.716 695.223L846.907 693.588L873.932 723.532L887.388 685.506L895.578 683.871L880.842 723.817L894.398 721.111L895.451 726.383L878.787 729.709L880.61 738.841L897.274 735.514L898.326 740.786L881.663 744.113L883.73 754.469L876.764 755.859Z" fill="#F4EDDB"/>
<path d="M933.584 920.53C935.614 930.698 930.49 938.867 918.91 942.158L920.883 952.043L914.971 953.321L912.96 943.248C902.115 944.336 892.911 938.929 889.299 929.175L895.664 926.241C898.579 934.469 906.052 938.557 914.902 936.79C924.41 934.892 928.215 928.944 926.918 922.448C925.509 915.388 920.728 912.524 908.265 910.411C893.995 908.072 888.442 904.286 886.732 895.719C884.909 886.587 889.957 879.02 899.277 876.18L897.342 866.484L903.272 865.3L905.208 874.996C912.156 874.49 918.236 876.997 922.922 882.326L917.969 886.937C914.13 882.417 908.727 880.363 903.079 881.491C896.206 882.863 892.251 888.547 893.359 894.102C894.562 900.127 899.72 902.426 910.865 904.312C926.566 906.954 931.761 911.399 933.584 920.53Z" fill="#F4EDDB"/>
<path d="M922.923 1065.52L918.713 1044.44L911.464 1045.88L910.693 1042.02L929.239 1038.32L930.01 1042.18L922.949 1043.59L927.159 1064.68L922.923 1065.52ZM939.774 1062.16L934.794 1037.21L941.572 1035.86L950.942 1051.9L953.434 1033.49L960.024 1032.18L965.004 1057.12L960.862 1057.95L956.784 1037.52L953.482 1057.76L950.846 1058.29L939.801 1040.72L943.917 1061.33L939.774 1062.16Z" fill="#F4EDDB"/>
<path d="M609.109 334.931L606.907 341.213C600.595 339.76 594.989 336.073 590.086 329.671C579.987 316.486 581.936 302.296 592.016 290.827L588.163 285.797L591.879 283.071L595.265 287.491C596.502 286.423 597.816 285.296 599.188 284.245C600.56 283.194 601.99 282.22 603.478 281.322L600.034 276.825L603.616 274.081L607.527 279.188C620.733 273.063 634.735 275.398 644.659 288.355C649.154 294.223 651.635 300.304 651.563 306.526L644.848 307.074C644.934 302.292 643.387 297.43 639.476 292.324C632.004 282.569 621.713 280.657 611.73 284.675L630.644 309.368L627.003 312.035L607.623 286.733C606.076 287.555 604.646 288.529 603.198 289.638C601.826 290.689 600.589 291.758 599.41 292.903L618.849 318.282L615.132 321.007L596.219 296.314C588.954 305.144 587.679 315.794 595.268 325.701C599.354 331.036 604.107 333.926 609.109 334.931Z" fill="#F4EDDB"/>
<path d="M487.098 444.123L483.363 446.983L480.386 443.097C471.665 448.446 461.849 446.049 453.91 435.684L446.438 425.929L423.269 443.675L419.125 438.264L455.402 410.478L451.607 405.524L455.342 402.663L459.136 407.617L472.245 397.577L483.861 412.743C492.384 423.87 491.539 433.345 484.121 440.236L487.098 444.123ZM471.283 406.899L463.281 413.028L479.918 434.749C484.44 430.076 484.359 423.971 478.755 416.654L471.283 406.899ZM459.016 431.773C464.737 439.242 470.552 440.834 476.183 437.609L459.546 415.889L451.544 422.018L459.016 431.773Z" fill="#F4EDDB"/>
<path d="M269.556 536.91L284.333 532.364L280.072 526.8L284.797 523.181L290.459 530.574L300.03 527.597L292.266 517.46L296.991 513.841L306.214 525.883L337.912 516.115L341.356 520.611L323.668 548.67L332.833 560.636L328.108 564.255L320.344 554.119L314.977 562.583L320.639 569.976L315.914 573.595L311.711 568.108L303.413 581.114L298.86 575.169L307.333 562.392L288.77 538.156L274.168 542.931L269.556 536.91ZM310.417 531.37L319.524 543.259L331.966 524.297L310.417 531.37ZM294.837 536.29L310.715 557.02L316.141 548.631L304.349 533.236L294.837 536.29Z" fill="#F4EDDB"/>
<path d="M634.159 541.156C628.497 533.763 628.212 524.55 632.392 518.325L637.566 521.133C634.73 525.482 634.026 531.826 638.404 537.542C642.666 543.105 647.915 543.801 651.649 540.94C661.709 533.235 638.958 516.319 652.523 505.928C664.718 496.588 672.825 516.014 679.837 510.644C683.419 507.9 682.256 501.172 677.878 495.457C668.772 483.567 659.487 490.074 653.694 494.511L619.475 520.721L615.33 515.31L649.55 489.1C655.266 484.722 669.446 474.344 682.639 491.568C689.761 500.866 690.437 510.748 684.111 515.593C673.06 524.057 664.419 505.04 656.569 511.052C647.805 517.765 670.251 534.915 655.923 545.889C648.302 551.727 639.763 548.472 634.159 541.156Z" fill="#F4EDDB"/>
<path d="M521.491 651.797L518.29 654.248L514.554 649.371L475.152 679.55L470.949 674.063L495.49 655.266L474.358 627.677L449.817 646.474L445.673 641.063L485.075 610.883L481.222 605.853L484.423 603.401L488.276 608.431L498.793 600.376L502.938 605.787L492.42 613.843L513.552 641.432L524.069 633.376L528.272 638.863L517.755 646.919L521.491 651.797ZM500.596 651.355L510.351 643.883L489.219 616.294L479.464 623.766L500.596 651.355Z" fill="#F4EDDB"/>
<path d="M327.622 755.08L336.006 748.659L340.384 754.375L332 760.796L327.622 755.08ZM307.48 753.095L311.9 749.71L333.09 777.375L328.67 780.761L307.48 753.095ZM299.805 776.387L308.112 770.024L312.49 775.74L304.183 782.103L299.805 776.387Z" fill="#F4EDDB"/>
<path d="M949.922 482.776L954.189 479.508L966.215 495.207L966.447 493.458C964.976 482.854 969.847 470.901 979.069 463.837C992.482 453.563 1010.01 455.133 1020.58 468.928C1031.08 482.646 1027.92 499.825 1014.43 510.157C1004.98 517.395 991.995 519.236 982.54 514.627L980.867 514.337L992.892 530.037L988.624 533.306L972.98 512.881L979.229 508.094C988.582 513.99 1000.12 513.739 1010.79 505.566C1022.22 496.81 1024.66 483.575 1016.02 472.296C1007.32 460.94 993.815 460.04 982.688 468.562C972.399 476.443 969.111 487.306 971.739 498.473L965.566 503.202L949.922 482.776Z" fill="#F4EDDB"/>
<path d="M1088.9 415.36C1081.13 405.224 1083.3 393.528 1093.21 385.939C1106.16 376.015 1122.2 378.483 1130.84 389.763C1136.1 396.622 1133.79 404.191 1130.64 409.388C1132.28 408.373 1134.37 406.528 1135.93 405.091C1145.9 396.004 1147.16 387.543 1141.67 380.379C1138.11 375.73 1132.57 372.599 1125.58 374.686L1123.84 369.73C1132.17 367.342 1140.21 370.256 1145.99 377.801C1155.44 390.147 1149.72 403.358 1134.17 415.266C1118.63 427.175 1100.05 429.917 1088.9 415.36ZM1093.7 412.162C1100.94 421.613 1112.42 421.285 1121.01 416.398C1127.81 412.163 1133.74 402.541 1126.97 393.7C1119.14 383.487 1106.47 383.52 1097.02 390.758C1089.17 396.771 1088.57 405.456 1093.7 412.162Z" fill="#F4EDDB"/>
<path d="M1249.7 284.484C1247.89 282.122 1244.57 282.367 1240.84 285.227L1238.44 282.102C1244.31 277.607 1249.84 277.724 1253.17 282.068C1257.55 287.784 1251.34 293.262 1254.5 297.377C1256.01 299.359 1259.54 299.074 1263.43 296.096L1265.94 299.374C1259.92 303.985 1254.16 304.044 1251.07 300.004C1246.22 293.679 1252.79 288.524 1249.7 284.484ZM1261.99 314.736L1265.08 318.775L1261.42 321.577C1255.4 326.189 1249.32 327.095 1244.05 322.425C1242.36 325.898 1239.69 329.036 1236.26 331.663C1225.2 340.127 1211.22 339.232 1202.99 328.486C1194.76 317.74 1197.52 304.137 1208.64 295.614C1219.77 287.092 1233.55 288.027 1241.78 298.773C1246.27 304.642 1247.49 311.446 1245.83 317.799C1249.46 321.91 1253.83 320.982 1257.95 317.83L1261.99 314.736ZM1207.64 324.925C1213.82 333.004 1223.84 332.826 1232.23 326.404C1240.76 319.866 1243.26 310.337 1237.13 302.334C1230.94 294.256 1221.13 294.393 1212.67 300.873C1204.14 307.411 1201.51 316.923 1207.64 324.925Z" fill="#F4EDDB"/>
<path d="M1390.47 200.971C1385.62 194.646 1392.2 189.491 1389.1 185.452C1387.29 183.089 1383.97 183.334 1380.24 186.194L1377.85 183.07C1383.71 178.575 1389.25 178.691 1392.57 183.036C1396.95 188.752 1390.75 194.229 1393.9 198.345C1395.42 200.326 1398.95 200.041 1402.83 197.064L1405.34 200.341C1399.32 204.952 1393.56 205.011 1390.47 200.971ZM1361.66 196.674L1382.48 198.748L1379.06 219.386L1375.73 215.041L1377.83 202.309L1365.05 201.094L1361.66 196.674ZM1327.99 240.486C1319.76 229.74 1322.52 216.137 1333.64 207.614C1344.77 199.092 1358.55 200.027 1366.78 210.773C1374.95 221.443 1372.38 235.14 1361.26 243.663C1350.2 252.127 1336.22 251.232 1327.99 240.486ZM1332.64 236.925C1338.82 245.004 1348.84 244.826 1357.23 238.404C1365.76 231.866 1368.26 222.337 1362.13 214.334C1355.94 206.256 1346.13 206.393 1337.67 212.873C1329.14 219.411 1326.51 228.923 1332.64 236.925Z" fill="#F4EDDB"/>
<path d="M578.75 1055.44L541.178 1084.22L537.15 1078.96L570.302 1053.57L559.153 1039.01L526 1064.41L521.972 1059.15L555.125 1033.76L550.163 1027.28L554.583 1023.89L559.545 1030.37L562.594 1028.03C571.511 1021.2 580.314 1024.02 585.976 1031.41C589.479 1035.98 591.061 1040.57 591.326 1045.81L585.741 1046.1C585.644 1042.18 584.609 1038.62 581.807 1034.96C577.663 1029.55 572.719 1028.62 566.545 1033.35L563.573 1035.63L578.75 1055.44Z" fill="#F4EDDB"/>
<path d="M730.947 929.742L727.795 925.627L731.302 907.945L735.622 913.585L730.947 929.742ZM743.775 956.436L746.869 960.475L743.21 963.277C736.428 968.473 729.578 969.003 723.921 962.09L705.63 976.1C692.292 986.316 680.144 984.979 670.629 972.557C661.172 960.21 662.97 948.191 676.003 938.209L709.918 912.233L714.062 917.644L680.681 943.212C670.392 951.092 668.9 959.249 675.964 968.47C683.085 977.768 691.425 978.394 701.866 970.397L735.019 945.004L739.163 950.415L727.503 959.347C731.117 963.592 735.544 962.741 739.736 959.53L743.775 956.436Z" fill="#F4EDDB"/>
<path d="M1017.64 677.804L1086.82 658.076L1087.93 659.524L1050.8 721.093L1017.64 677.804ZM1027.1 680.838L1050.34 711.171L1078.27 665.708L1027.1 680.838Z" fill="#F4EDDB"/>
<path d="M1196.56 592.985C1191.01 585.745 1195.17 580.749 1200.2 576.896L1223.83 558.8L1213.43 545.234L1180.36 570.569L1176.91 566.072L1209.99 540.738L1207.01 536.851L1211.51 533.407L1235.62 564.882L1231.12 568.327L1227.21 563.22L1204.27 580.791C1199.7 584.294 1198.42 587.206 1200.87 590.407C1201.4 591.093 1202.44 591.985 1203.47 592.531L1201.07 596.664C1199.33 595.818 1197.84 594.662 1196.56 592.985Z" fill="#F4EDDB"/>
<path d="M1067.16 901.641C1067.95 905.031 1067.23 907.88 1064.33 910.098C1059.99 913.426 1054.47 912.694 1050.85 907.969C1049.04 905.607 1048.16 901.929 1049.24 898.443L1053.21 898.422C1052.16 901.159 1052.77 903.841 1054.17 905.67C1056.33 908.49 1059.14 908.999 1061.8 906.956C1064.32 905.03 1064.14 902.266 1062.94 899.437C1062.15 897.621 1060.79 895.522 1059.03 893.236L1069.22 891.846C1067.83 887.828 1069.07 883.611 1074.1 879.758L1098.42 861.136L1093.63 854.887L1098.05 851.501L1102.84 857.751L1112.59 850.279L1120.58 852.502L1106.86 863.009L1113.81 872.079L1109.39 875.464L1102.44 866.395L1078.82 884.491C1075.16 887.293 1074.77 890.254 1077.04 893.226C1078.04 894.522 1079.45 895.737 1081.27 897.005L1076.68 900.642C1074.55 899.127 1072.65 897.438 1071.31 895.685L1070.96 895.227L1064.65 895.829C1065.86 898.044 1066.72 899.802 1067.16 901.641Z" fill="#F4EDDB"/>
<path d="M1264.77 744.263L1257 750.217L1252.33 744.12L1260.1 738.166L1264.77 744.263ZM1200.89 793.315L1200.81 797.483C1197.35 797.23 1194.11 795.841 1191.95 793.022C1188.98 789.135 1189.08 784.218 1193.04 781.183C1197.46 777.797 1203.6 778.541 1207.97 780.148L1207.33 779.31L1244.9 750.531L1248.93 755.79L1211.36 784.569C1207.71 783.127 1200.66 780.549 1196.01 784.11C1193.5 786.036 1193.87 788.413 1195.27 790.242C1196.61 791.995 1198.54 792.936 1200.89 793.315Z" fill="#F4EDDB"/>
<path d="M1470.23 588.873C1458.56 573.631 1461.29 551.944 1476.38 540.386C1491.47 528.828 1513.2 531.776 1524.88 547.018C1536.55 562.261 1533.74 584.006 1518.65 595.564C1503.56 607.122 1481.91 604.116 1470.23 588.873ZM1473.66 586.246C1483.88 599.583 1502.91 602.175 1516.02 592.134C1529.21 582.036 1531.66 562.983 1521.45 549.645C1511.17 536.232 1492.2 533.717 1479.01 543.815C1465.9 553.856 1463.39 572.833 1473.66 586.246ZM1474.53 571.913L1507.38 546.754L1514.45 555.976C1519.58 562.683 1519.25 569.829 1513.61 574.148C1509.42 577.359 1504.45 577.179 1500.03 573.787L1491.75 594.396L1488.6 590.281L1496.89 570.631C1496.37 569.945 1495.76 569.318 1495.24 568.632L1491.91 564.288L1477.28 575.495L1474.53 571.913ZM1494.96 561.953L1499.51 567.897C1503.07 572.546 1507.21 573.368 1510.87 570.566C1514.68 567.648 1514.79 563.211 1511.23 558.562L1506.85 552.846L1494.96 561.953Z" fill="#F4EDDB"/>
<path d="M1386.83 644.78C1400.08 662.08 1397.78 679.442 1380.63 692.576C1363.71 705.536 1347.13 702.996 1333.65 685.391L1322.67 671.063L1347.44 652.091L1343.12 646.451L1346.7 643.708L1351.02 649.348L1375.79 630.376L1386.83 644.78ZM1338.33 681.081C1349.71 695.942 1362.33 697.888 1376.65 686.914C1391.06 675.881 1392.77 662.961 1381.74 648.557L1374.91 639.64L1355.17 654.759L1362.46 664.285L1358.88 667.029L1351.59 657.502L1331.85 672.621L1338.33 681.081Z" fill="#F4EDDB"/>
</svg>
