<svg width="1440" height="182" viewBox="0 0 1440 182" fill="none" xmlns="http://www.w3.org/2000/svg">
<rect width="1440" height="182" fill="#201806"/>
<g clip-path="url(#clip0_338_2611)">
<path d="M1107.54 67.9807H1102.45V89.5576H1095V40.4614H1102.45V60.1345H1107.54V40.4614H1114.99V89.6153H1107.54V67.9807Z" fill="#F4EDDB"/>
<path d="M1127.82 90.1346H1126.37C1120.42 90.1346 1117.24 86.9038 1117.24 80.8462V70.9808H1124.64V79.5769C1124.64 81.8269 1125.39 83.0385 1127.06 83.0385C1128.86 83.0385 1129.49 81.8269 1129.49 78.8269V77.7308C1129.49 74.2115 1129.14 73 1126.43 69.4808L1121.75 63.3077C1118.57 59.2115 1117.65 56.0385 1117.65 51.1346V49.5769C1117.65 43.0577 1120.94 40 1126.83 40H1128.22C1134.34 40 1136.77 42.7115 1136.77 48.5385V56.6154H1129.55V49.5192C1129.55 47.8462 1129.2 46.6346 1127.41 46.6346C1125.62 46.6346 1125.22 47.7308 1125.22 50.0962V51.0192C1125.22 53.7885 1125.74 55.2885 1128.28 58.5769L1133.01 64.6923C1136.37 69.0769 1137.46 71.5577 1137.46 77.0962V78.6538C1137.46 85.8654 1134.34 90.1346 1127.82 90.1346Z" fill="#F4EDDB"/>
<path d="M1156.59 40.4614V47.6153H1147.05V60.4807H1154.51V67.923H1147.05V82.1153H1156.99V89.5576H1139.6V40.4614H1156.59Z" fill="#F4EDDB"/>
<path d="M1177.15 80.3269H1171.72L1170.74 89.5577H1164.04L1170.05 40.4038H1178.89L1185.3 89.5577H1178.08L1177.15 80.3269ZM1176.34 73L1174.38 54.8269L1172.47 73H1176.34Z" fill="#F4EDDB"/>
<path d="M1194.02 89.6153H1186.57V40.4614H1198.7C1203.67 40.4614 1206.16 42.596 1206.16 48.0768V56.7883C1206.16 60.8845 1204.25 62.4422 1202.92 63.0768C1204.6 63.8268 1206.16 65.1537 1206.16 68.4422V85.6922C1206.16 87.6537 1206.56 88.5768 1206.91 89.3268V89.673H1199.51C1199.16 89.1537 1198.76 88.2883 1198.76 85.6345V70.7499C1198.76 68.5576 1198.36 67.6345 1195.99 67.6345H1194.08L1194.02 89.6153ZM1194.02 60.6537H1195.99C1198.07 60.6537 1198.7 59.3268 1198.7 57.1345V50.2691C1198.7 48.1345 1198.24 47.096 1195.99 47.096H1194.02V60.6537Z" fill="#F4EDDB"/>
<path d="M1221.23 47.5576V89.5576H1213.84V47.5576H1207.54V40.4614H1227.53V47.6153L1221.23 47.5576Z" fill="#F4EDDB"/>
<path d="M1247.52 80.3269H1242.09L1241.11 89.5577H1234.41L1240.42 40.4038H1249.25L1255.67 89.5577H1248.45L1247.52 80.3269ZM1246.71 73L1244.75 54.8269L1242.84 73H1246.71Z" fill="#F4EDDB"/>
<path d="M1263.64 40.4614L1270.05 66.8268V40.4614H1276.87V89.6153H1270.8L1263.64 61.346V89.6153H1256.88V40.4614H1263.64Z" fill="#F4EDDB"/>
<path d="M1279.64 40.4614H1291.14C1297.55 40.4614 1299.52 44.096 1299.52 49.923V79.8653C1299.52 85.8653 1297.26 89.6153 1291.14 89.6153H1279.7V40.4614H1279.64ZM1287.15 82.4614H1288.94C1291.2 82.4614 1291.83 81.2499 1291.83 78.6537V50.9614C1291.83 48.1345 1291.08 47.1537 1289.23 47.1537H1287.1V82.4614H1287.15Z" fill="#F4EDDB"/>
<path d="M1095 92.1538H1106.44C1112.85 92.1538 1114.82 95.7884 1114.82 101.615V131.558C1114.82 137.558 1112.56 141.308 1106.44 141.308H1095V92.1538ZM1102.45 134.212H1104.24C1106.5 134.212 1107.13 133 1107.13 130.404V102.711C1107.13 99.8846 1106.38 98.9038 1104.53 98.9038H1102.39V134.212H1102.45Z" fill="#F4EDDB"/>
<path d="M1134.52 92.1538V99.3077H1124.98V112.173H1132.44V119.615H1124.98V133.808H1134.92V141.25H1117.47V92.1538H1134.52Z" fill="#F4EDDB"/>
<path d="M1146.82 141.827H1145.38C1139.43 141.827 1136.25 138.596 1136.25 132.538V122.673H1143.64V131.269C1143.64 133.519 1144.4 134.731 1146.07 134.731C1147.86 134.731 1148.5 133.519 1148.5 130.519V129.423C1148.5 125.904 1148.15 124.692 1145.44 121.173L1140.7 115.115C1137.52 111.019 1136.6 107.846 1136.6 102.942V101.385C1136.6 94.8653 1139.89 91.8076 1145.78 91.8076H1147.17C1153.35 91.8076 1155.72 94.5192 1155.72 100.346V108.423H1148.5V101.327C1148.5 99.6538 1148.15 98.4422 1146.36 98.4422C1144.57 98.4422 1144.16 99.5384 1144.16 101.904V102.827C1144.16 105.596 1144.68 107.096 1147.23 110.385L1151.96 116.5C1155.32 120.885 1156.41 123.365 1156.41 128.904V130.461C1156.47 137.558 1153.35 141.827 1146.82 141.827Z" fill="#F4EDDB"/>
<path d="M1166.06 141.308H1158.61V92.1538H1166.06V141.308Z" fill="#F4EDDB"/>
<path d="M1175.77 142C1171.38 142 1168.6 138.077 1168.6 133V102.25C1168.6 96.7693 1170.74 91.6924 1177.79 91.6924H1179.23C1187.26 91.6924 1188.19 96.8847 1188.19 102.712V107.731H1180.91V102.192C1180.91 100 1180.39 98.8462 1178.54 98.8462C1176.98 98.8462 1176.23 100.058 1176.23 102.192V130.923C1176.23 133.231 1177.15 134.442 1178.66 134.442C1180.56 134.442 1181.43 133.115 1181.43 131.269V118.981H1178.08V111.423H1188.53V141.308H1184.32C1184.26 141.019 1183.68 138.596 1183.05 136.462C1182.53 138.135 1179.98 141.942 1176.23 141.942H1175.77V142Z" fill="#F4EDDB"/>
<path d="M1197.89 92.1538L1204.31 118.519V92.1538H1211.12V141.308H1205.06L1197.89 113.038V141.308H1191.13V92.1538H1197.89Z" fill="#F4EDDB"/>
<path d="M1230.65 141.827H1229.21C1223.26 141.827 1220.08 138.596 1220.08 132.538V122.673H1227.47V131.269C1227.47 133.519 1228.22 134.731 1229.9 134.731C1231.69 134.731 1232.33 133.519 1232.33 130.519V129.423C1232.33 125.904 1231.98 124.692 1229.26 121.173L1224.53 115.115C1221.35 111.019 1220.43 107.846 1220.43 102.942V101.385C1220.43 94.8653 1223.72 91.8076 1229.61 91.8076H1231C1237.12 91.8076 1239.55 94.5192 1239.55 100.346V108.423H1232.33V101.327C1232.33 99.6538 1231.98 98.4422 1230.19 98.4422C1228.4 98.4422 1227.99 99.5384 1227.99 101.904V102.827C1227.99 105.596 1228.51 107.096 1231.06 110.385L1235.79 116.5C1239.14 120.885 1240.24 123.365 1240.24 128.904V130.461C1240.3 137.558 1237.18 141.827 1230.65 141.827Z" fill="#F4EDDB"/>
<path d="M1254.63 131.327V119.904H1261.96V131.269C1261.96 136.577 1260.23 141.885 1253.01 141.885H1251.33C1243.77 141.885 1242.15 136.462 1242.15 131.5V101.5C1242.15 96.4809 1244.34 91.6348 1251.1 91.6348H1252.84C1261.04 91.6348 1261.96 97.0578 1261.96 101.846V110.616H1254.63V101.962C1254.63 99.8271 1253.99 98.7309 1252.08 98.7309C1250.24 98.7309 1249.77 99.7694 1249.77 101.962V131.154C1249.77 133.346 1250.53 134.5 1252.14 134.5C1253.99 134.673 1254.63 133.346 1254.63 131.327Z" fill="#F4EDDB"/>
<path d="M1276.93 119.731H1271.84V141.308H1264.39V92.1538H1271.84V111.827H1276.93V92.1538H1284.38V141.308H1276.93V119.731Z" fill="#F4EDDB"/>
<path d="M1307.43 130.346C1307.43 137.212 1305.12 141.885 1297.9 141.885H1296.63C1289.46 141.885 1286.98 137.212 1286.98 130.346V103C1286.98 96.1924 1289.58 91.6924 1296.57 91.6924H1297.84C1305.12 91.6924 1307.43 96.1924 1307.43 102.942V130.346ZM1299.81 102.596C1299.81 100 1298.94 98.8462 1297.21 98.8462C1295.3 98.8462 1294.55 100.115 1294.55 102.596V130.865C1294.55 133 1295.13 134.615 1297.26 134.615C1299.23 134.615 1299.81 132.942 1299.81 130.865V102.596Z" fill="#F4EDDB"/>
<path d="M1330.25 130.346C1330.25 137.212 1327.94 141.885 1320.72 141.885H1319.45C1312.28 141.885 1309.8 137.212 1309.8 130.346V103C1309.8 96.1924 1312.4 91.6924 1319.39 91.6924H1320.66C1327.94 91.6924 1330.25 96.1924 1330.25 102.942V130.346ZM1322.63 102.596C1322.63 100 1321.76 98.8462 1320.03 98.8462C1318.12 98.8462 1317.37 100.115 1317.37 102.596V130.865C1317.37 133 1317.95 134.615 1320.08 134.615C1322.05 134.615 1322.63 132.942 1322.63 130.865V102.596Z" fill="#F4EDDB"/>
<path d="M1340.3 92.1538V133.692H1349.43V141.308H1332.85V92.1538H1340.3Z" fill="#F4EDDB"/>
<path fill-rule="evenodd" clip-rule="evenodd" d="M1359.89 91.6348C1354.34 91.6348 1349.78 96.1348 1349.78 101.731C1349.78 107.269 1354.29 111.827 1359.89 111.827C1365.49 111.827 1370 107.327 1370 101.731C1369.94 96.1348 1365.44 91.6348 1359.89 91.6348Z" fill="#F4EDDB"/>
<path fill-rule="evenodd" clip-rule="evenodd" d="M1361.57 100.808C1362.2 100.519 1362.61 100.115 1362.89 99.8269C1363.41 99.25 1363.59 98.5577 1363.59 97.8654C1363.59 97.3462 1363.41 96.25 1362.49 95.5C1361.85 94.9808 1361.28 94.75 1359.89 94.75H1359.2H1359.14H1356.25V108.25H1364.4V105.654C1364.45 103.173 1363.64 101.5 1361.57 100.808ZM1362.61 107.5H1361.1V103H1359.43V107.5H1358.16V95.3846H1359.49C1360.01 95.3846 1360.76 95.5 1361.28 96.1346C1361.57 96.4808 1361.74 96.9423 1361.8 97.3462H1359.43V98.0385H1361.8C1361.8 98.4423 1361.68 98.9615 1361.28 99.4808C1360.93 99.9423 1360.29 100.346 1359.43 100.346V101.038C1361.74 101.038 1362.61 102.538 1362.61 105.365V107.5Z" fill="#201806"/>
</g>
<defs>
<clipPath id="clip0_338_2611">
<rect width="275" height="102" fill="white" transform="translate(1095 40)"/>
</clipPath>
</defs>
</svg>
