<svg width="1440" height="1438" viewBox="0 0 1440 1438" fill="none" xmlns="http://www.w3.org/2000/svg">
<path d="M1154.14 923.91C1154.14 923.91 1136.23 929.461 1135.64 943.91C1135.05 958.359 1134.73 966.461 1134.14 980.91C1134.14 980.91 1127.9 1008.32 1134.14 1023.91C1138.85 1035.66 1143.97 1041.88 1154.14 1049.41C1163.78 1056.55 1170.74 1059.36 1182.64 1060.91M1154.14 923.91C1154.14 923.91 1174.43 925.44 1182.64 933.91C1195.41 947.091 1182.64 962.555 1182.64 980.91C1182.64 1000.44 1167.39 1018.71 1182.64 1030.91C1194.84 1040.67 1208.78 1023.71 1222.64 1030.91C1231.71 1035.62 1243.46 1039.46 1241.14 1049.41C1239.21 1057.69 1230.6 1057.9 1222.64 1060.91C1208.03 1066.44 1198.26 1060.91 1182.64 1060.91M1154.14 923.91C1154.14 923.91 1154.14 947.375 1154.14 962.41C1154.14 980.765 1150.07 991.513 1154.14 1009.41C1159.24 1031.82 1171.51 1040.8 1182.64 1060.91M1200.14 971.91C1200.14 971.91 1195.82 958.415 1200.14 951.91C1203.53 946.806 1211.91 949.789 1213.64 943.91C1215.82 936.488 1207.73 927.917 1200.14 929.41C1193.6 930.696 1193.63 937.727 1191.14 943.91C1185.75 957.315 1185.17 967.753 1191.14 980.91C1194.64 988.629 1197.26 993.734 1204.64 997.91C1214.33 1003.39 1222.05 996.957 1233.14 997.91C1247.22 999.12 1254.58 1003.5 1268.64 1004.91C1283.41 1006.39 1291.8 1004.91 1306.64 1004.91C1320.7 1004.91 1328.63 1006.03 1342.64 1004.91C1358.64 1003.63 1383.14 997.91 1383.14 997.91L1415.64 988.41C1415.64 988.41 1443.1 985.198 1447.14 971.91C1448.79 966.492 1450.75 961.77 1447.14 957.41C1442.78 952.148 1436.4 956.418 1429.64 957.41C1411.88 960.015 1407.8 977.68 1390.14 980.91C1381.02 982.579 1375.67 980.91 1366.39 980.91M1200.14 971.91L1218.64 951.91L1245.14 933.91L1286.64 912.91L1314.64 902.41C1314.64 902.41 1334.71 899.679 1342.64 890.91C1348.74 884.158 1346.56 869.41 1351.64 869.41C1356.72 869.41 1360.3 866.783 1364.64 869.41C1371.83 873.754 1371.83 886.566 1364.64 890.91M1200.14 971.91C1200.14 971.91 1208.37 975.201 1213.64 977.31M1364.64 890.91C1356.05 896.963 1351.38 900.572 1342.64 906.41C1331.92 913.573 1323.6 914.639 1314.64 923.91C1311.16 927.506 1306.64 933.91 1306.64 933.91M1364.64 890.91C1364.64 893.839 1369.72 888.452 1364.64 898.41C1359.56 908.368 1356.72 913.952 1351.64 923.91C1346.56 933.868 1341.27 937.214 1331.64 939.41C1321.89 941.631 1306.64 933.91 1306.64 933.91M1306.64 933.91C1293.17 933.91 1285.61 933.91 1272.14 933.91C1258.67 933.91 1256.14 943.91 1256.14 943.91C1256.14 943.91 1239.01 958.233 1227.64 966.91C1222.23 971.042 1219.16 973.32 1213.64 977.31M1213.64 977.31C1217.15 978.716 1222.64 980.91 1222.64 980.91C1222.64 980.91 1233.92 982.748 1241.14 983.926M1367.64 890.91C1367.64 890.91 1390.15 889.089 1397.14 890.91C1405.37 893.054 1410.37 895.733 1415.64 902.41C1418.51 906.043 1419.89 908.453 1421.14 912.91C1424.61 925.279 1418.51 934.165 1410.14 943.91C1404 951.059 1397.52 951.545 1390.14 957.41C1379.93 965.532 1375.67 971.733 1366.39 980.91M1366.39 980.91C1357.12 980.91 1342.64 980.91 1342.64 980.91C1342.64 980.91 1316.43 983.566 1299.64 985.268M1299.64 985.268C1287.53 986.495 1280.8 988.868 1268.64 988.41C1257.77 988 1251.58 986.991 1241.14 983.926M1299.64 985.268C1294.56 980.051 1291.72 977.127 1286.64 971.91C1281.56 966.693 1275.48 970.29 1268.64 971.91C1263.47 973.135 1261.01 975.184 1256.14 977.31C1250.27 979.869 1246.99 981.318 1241.14 983.926M630.14 883.41C625.844 881.848 623.687 879.875 619.14 879.41C609.752 878.449 597.14 889.41 597.14 889.41C597.14 889.41 579.453 898.277 571.14 907.41C563.25 916.079 552.068 922.418 556.14 933.41C557.363 936.711 559.505 937.792 561.14 940.91C563.807 945.996 565.64 954.91 565.64 954.91M630.14 883.41C632.951 890.452 631.552 897.098 626.14 902.41C622.645 905.84 617.947 903.798 614.64 907.41C611.429 910.917 613.764 915.325 610.64 918.91C607.599 922.4 603.46 921.184 600.14 924.41C595.199 929.212 593.89 940.91 593.89 940.91C593.89 940.91 588.58 949.942 584.14 954.91M630.14 883.41C635.803 883.41 638.977 883.41 644.64 883.41M651.64 861.41C651.64 861.41 661.14 866.734 661.14 872.41C661.14 878.086 651.64 883.41 651.64 883.41C651.64 883.41 647.374 883.41 644.64 883.41M651.64 861.41C651.64 861.41 636.098 861.41 626.14 861.41M651.64 861.41V851.91C651.64 851.91 650.137 836.251 644.64 828.41C637.891 818.784 630.896 812.314 619.14 812.41C609.535 812.488 605.732 819.114 597.14 823.41M549.14 902.41C551.874 894.99 551.094 889.498 556.14 883.41C562.381 875.88 569.49 875.865 578.64 872.41C585.691 869.747 597.14 866.91 597.14 866.91C597.14 866.91 610.299 861.919 619.14 861.41C621.869 861.253 623.406 861.41 626.14 861.41M549.14 902.41C543.922 910.729 542.087 916.601 541.64 926.41C541.116 937.907 542.66 945.399 549.14 954.91C553.97 961.999 558.399 964.81 565.64 969.41C570.431 972.454 578.64 975.91 578.64 975.91M549.14 902.41C541.72 902.41 537.56 902.41 530.14 902.41C519.986 902.41 509.419 911.083 504.14 902.41C498.963 893.905 508.884 887.156 515.14 879.41C523.001 869.677 532.245 869.671 541.64 861.41C550.152 853.925 552.21 846.891 561.14 839.91C573.324 830.385 581.971 826.422 597.14 823.41M578.64 975.91C578.64 975.91 584.617 969.365 584.14 964.41L565.64 954.91M578.64 975.91C578.64 975.91 587.619 983.089 593.89 986.91C600.154 990.727 603.568 993.462 610.64 995.41C620.053 998.002 626.071 993.473 635.64 995.41C646.347 997.578 650.741 1003.56 661.14 1006.91C667.271 1008.88 672.225 1015.07 677.14 1010.91C681.76 1007 679.387 1001.03 677.14 995.41C672.271 983.228 657.466 989.667 644.64 986.91C637.451 985.365 633.372 984.741 626.14 983.41C617.363 981.795 610.122 985.544 603.64 979.41C599.003 975.022 597.14 964.41 597.14 964.41M565.64 954.91C565.64 954.91 576.915 954.91 584.14 954.91M584.14 954.91C587.948 955.789 590.082 956.281 593.89 957.16M597.14 964.41C597.14 964.41 609.549 974.496 619.14 975.91C623.39 976.536 625.89 976.535 630.14 975.91C646.151 973.557 649.229 959.365 661.14 948.41C667.444 942.612 673.449 941.139 677.14 933.41C681.516 924.248 681.041 916.784 677.14 907.41C674.829 901.857 674.062 893.857 668.14 894.91C664.196 895.611 663.631 899.272 661.14 902.41C656.517 908.233 655.629 912.635 651.64 918.91C645.941 927.876 642.327 932.655 635.64 940.91C629.546 948.432 628.335 956.38 619.14 959.41C613.391 961.304 609.636 960.242 603.64 959.41C599.77 958.873 597.698 958.039 593.89 957.16M597.14 964.41C597.14 964.41 595.159 959.991 593.89 957.16M593.89 957.16C600.431 952.181 604.733 950.127 610.64 944.41C617.741 937.538 619.942 932.106 626.14 924.41C633.181 915.667 641.588 913.213 644.64 902.41C646.657 895.269 644.64 890.83 644.64 883.41M597.14 823.41C603.974 823.41 609.497 818.91 614.64 823.41C618.133 826.466 617.396 830.109 619.14 834.41C621.906 841.231 625.209 844.608 626.14 851.91C626.609 855.59 626.609 857.73 626.14 861.41M295.64 959.41C289.164 951.069 285.849 946.096 280.64 936.91C274.391 925.889 279.79 908.122 267.14 907.41C262.023 907.122 258.653 908.221 254.64 911.41C249.579 915.432 249.237 920.146 247.64 926.41C245.517 934.735 246.707 939.869 247.64 948.41C248.843 959.426 254.64 975.91 254.64 975.91L280.64 1022.91C280.64 1022.91 286.715 1039.52 292.14 1049.41C301.274 1066.06 305.515 1078.23 321.858 1087.91C335.073 1095.73 344.823 1098.03 360.14 1096.91M295.64 959.41C305.879 961.363 311.709 962.035 321.858 964.41C337.058 967.966 345.184 971.441 360.14 975.91C374.583 980.226 386.671 976.064 397.14 986.91C405.299 995.363 406.156 1003.33 408.14 1014.91C409.789 1024.53 417.841 1041.01 408.14 1039.91C402.239 1039.24 401.473 1033.47 397.14 1029.41C387.556 1020.43 383.241 1013.93 372.14 1006.91C362.907 1001.07 356.625 999.842 346.64 995.41C335.931 990.656 326.462 985.753 319.14 983.41C311.818 981.067 307.712 979.753 300.39 977.41M295.64 959.41C297.495 966.439 300.39 977.41 300.39 977.41M360.14 1096.91C379.526 1093.71 390.37 1091.74 409.64 1087.91C421.772 1085.5 435.583 1092.7 440.64 1081.41C443.195 1075.71 440.64 1065.41 440.64 1065.41C440.64 1065.41 439.959 1043.25 429.64 1039.91C418.032 1036.15 417.329 1056.41 405.64 1059.91C390.167 1064.54 379.753 1057.26 365.64 1049.41C357.484 1044.87 353.91 1040.76 346.64 1034.91C335.537 1025.97 329.142 1021.07 319.14 1010.91C313.417 1005.1 308.924 1002.64 305.14 995.41C301.768 988.969 300.39 977.41 300.39 977.41M360.14 1096.91C347.839 1099.64 328.64 1103.91 328.64 1103.91C328.64 1103.91 316.967 1104.06 310.64 1107.41C302.687 1111.63 300.551 1117.37 295.64 1124.91C290.684 1132.52 285.64 1145.91 285.64 1145.91C285.64 1145.91 280.614 1159.1 280.64 1167.91C280.697 1187.24 288.286 1201.45 305.14 1210.91C321.146 1219.89 336.134 1219.89 352.14 1210.91M360.14 1096.91C374.59 1099.64 384.999 1095.61 397.14 1103.91C402.043 1107.26 405.767 1108.97 408.14 1114.41C413.757 1127.3 385.579 1110.28 372.14 1114.41C363.708 1117 359.869 1120.66 352.14 1124.91C347.62 1127.4 344.175 1127.65 340.64 1131.41C334.602 1137.83 335.64 1153.41 335.64 1153.41C335.64 1153.41 334.884 1162.3 335.64 1167.91C337.658 1182.89 342.016 1192.88 354.14 1201.91C362.169 1207.89 368.16 1210.13 378.14 1210.91M114.14 1096.91L87.6401 1081.41C87.6401 1081.41 76.8846 1064.96 66.1401 1059.91C57.5422 1055.87 51.6061 1056.73 42.1401 1055.91C31.6357 1055 24.3794 1050.83 15.1401 1055.91C5.10205 1061.43 5.8365 1071.2 0.640099 1081.41C-5.74509 1093.96 -10.68 1100.7 -13.8599 1114.41C-17.7416 1131.15 -13.8599 1141.23 -13.8599 1158.41C-13.8599 1165.63 -17.734 1170.81 -13.8599 1176.91C-10.392 1182.37 -5.55485 1183.05 0.640099 1184.91C9.0569 1187.43 14.3533 1184.91 23.1401 1184.91C28.2169 1184.91 31.288 1186.4 36.1401 1184.91C48.859 1180.99 43.1655 1165.3 49.1401 1153.41C54.9583 1141.83 71.6793 1136.63 66.1401 1124.91C63.4785 1119.28 60.3395 1115 54.1401 1114.41C44.397 1113.49 46.5893 1127.69 42.1401 1136.41C37.8121 1144.89 38.2741 1151.58 31.6401 1158.41C26.8082 1163.38 22.7858 1171.12 16.6401 1167.91C12.8405 1165.92 12.0046 1162.61 11.1401 1158.41C9.77043 1151.76 16.6401 1155.38 16.6401 1141.91C16.6401 1128.44 16.6401 1120.88 16.6401 1107.41C16.6401 1093.94 12.15 1081.11 23.1401 1072.91C32.8446 1065.67 42.6801 1069.01 54.1401 1072.91C67.6333 1077.51 70.8732 1087.57 81.6401 1096.91C94.2943 1107.89 100.371 1115.37 114.14 1124.91C125.068 1132.48 134.481 1132.27 143.64 1141.91C151.648 1150.34 158.14 1167.91 158.14 1167.91L164.64 1223.41C164.64 1223.41 164.64 1266.68 164.64 1294.41C164.64 1317.06 159.878 1330.27 164.64 1352.41C168.254 1369.21 176.736 1376.67 180.64 1393.41C184.074 1408.13 169.932 1428.42 184.64 1431.91C199.085 1435.34 215.232 1442.5 206.64 1400.91C198.049 1359.32 193.232 1336 184.64 1294.41C176.049 1252.82 185.743 1248.07 184.64 1218.41C183.768 1194.94 189.254 1180.26 180.64 1158.41C176.144 1147.01 172.719 1140.63 164.64 1131.41C153.688 1118.92 129.51 1107.41 129.51 1107.41M114.14 1096.91C114.14 1096.91 122.449 1090.38 128.64 1087.91C141.701 1082.71 151.154 1083.94 164.64 1087.91C181.236 1092.8 186.979 1103.18 200.14 1114.41C207.605 1120.78 212.525 1123.74 218.64 1131.41C228.389 1143.64 228.932 1153.55 235.14 1167.91C240.177 1179.56 241.074 1187.05 247.64 1197.91C252.894 1206.6 258.208 1209.83 263.64 1218.41C266.399 1222.77 269.791 1224.76 270.14 1229.91C270.848 1240.34 257.633 1241.34 247.64 1244.41C236.814 1247.74 226.2 1252.84 218.64 1244.41C211.862 1236.85 219.879 1228.49 218.64 1218.41C217.311 1207.6 213.021 1202.21 211.64 1191.41C210.254 1180.56 216.131 1171.81 211.64 1163.41C207.149 1155.01 204.631 1150.31 200.14 1141.91C195.649 1133.51 189.271 1130.16 180.64 1124.91C170.036 1118.46 162.396 1118.39 150.64 1114.41C142.407 1111.62 129.51 1107.41 129.51 1107.41M114.14 1096.91L129.51 1107.41M378.14 1210.91C387.805 1208.36 393.296 1207.15 403.14 1205.41C413.42 1203.59 419.488 1204.34 429.64 1201.91C441.175 1199.15 446.52 1193.79 458.14 1191.41C473.635 1188.24 486.334 1181.47 498.64 1191.41C502.745 1194.72 505.28 1196.97 507.14 1201.91C512.988 1217.43 481.55 1206.23 465.64 1210.91C449.634 1215.62 441.228 1219.96 425.64 1225.91C414.493 1230.16 408.527 1233.35 397.14 1236.91C385.071 1240.68 377.954 1241.53 365.64 1244.41C351.987 1247.6 342.434 1259.99 330.64 1252.41C322.339 1247.07 318.176 1239.73 319.14 1229.91C320.594 1215.11 339.253 1218.33 352.14 1210.91M378.14 1210.91C367.986 1210.91 362.294 1210.91 352.14 1210.91M498.64 933.41C488.701 929.89 481.579 929.89 471.64 933.41C464.34 935.995 461.495 939.984 455.14 944.41C449.403 948.406 440.64 946.709 440.64 954.91C440.64 963.111 440.64 967.709 440.64 975.91C440.64 984.111 430.854 991.438 436.14 998.91C439.148 1003.16 447.64 1005.66 447.64 1005.66M498.64 933.41C507.427 937.706 513.085 938.862 521.14 944.41C530.351 950.754 540.339 953.301 541.64 964.41C542.788 974.211 526.684 977.667 530.14 986.91C532.575 993.423 538.293 994.147 544.14 997.91C549.612 1001.43 552.886 1003.15 558.89 1005.66M498.64 933.41C500.788 941.806 505.11 946.298 504.14 954.91C503.463 960.928 501.579 964.115 498.64 969.41C494.21 977.392 483.14 986.91 483.14 986.91M668.14 1059.91C666.652 1054.16 664.982 1050.94 661.14 1046.41C655.312 1039.54 650.131 1034.32 641.14 1034.91C631.98 1035.51 631.815 1049.7 622.64 1049.41C615.544 1049.19 612.506 1044.56 607.14 1039.91C600.778 1034.4 600.445 1028.19 593.89 1022.91C587.088 1017.43 573.64 1013.41 573.64 1013.41C573.64 1013.41 564.591 1008.8 558.89 1005.66M668.14 1059.91C673.803 1066.74 682.64 1077.41 682.64 1077.41C682.64 1077.41 695.309 1095.75 706.64 1103.91C713.659 1108.96 726.14 1114.41 726.14 1114.41C726.14 1114.41 735.58 1120.83 741.14 1118.41C745.908 1116.34 748.452 1112.61 748.64 1107.41M668.14 1059.91C671.46 1058.93 674.079 1059.74 676.64 1057.41C681.9 1052.63 674.139 1046.56 671.64 1039.91C668.417 1031.33 653.787 1024.39 661.14 1018.91C667.659 1014.05 673.425 1022.83 680.14 1027.41C690.445 1034.44 700.64 1051.91 700.64 1051.91L710.64 1065.41L726.14 1084.91C726.14 1084.91 739.853 1098.62 748.64 1107.41M748.64 1107.41C754.635 1113.17 755.942 1121.02 752.14 1128.41C749.602 1133.35 746.036 1134.8 741.14 1137.41C729.255 1143.76 718.503 1143.8 706.64 1137.41C696.597 1132 696.359 1122.81 688.64 1114.41C682.94 1108.21 679.374 1105.08 673.14 1099.41C665.037 1092.04 658.495 1089.95 651.64 1081.41C648.555 1077.57 648.729 1073.66 644.64 1070.91C638.646 1066.88 633.209 1069.42 626.14 1070.91C619.718 1072.27 615.77 1073.31 610.64 1077.41C604.8 1082.07 601.544 1086.07 600.14 1093.41C598.915 1099.81 599.516 1106.59 602.64 1109.91C605.764 1113.23 607.516 1115.09 610.64 1118.41C610.64 1118.41 624.564 1121.73 633.64 1122.91C641.6 1123.94 646.122 1124.02 654.14 1124.41C661.554 1124.77 667.977 1119.58 673.14 1124.91C675.145 1126.98 675.938 1128.61 676.64 1131.41C679.387 1142.36 662.694 1143.63 651.64 1145.91C637.12 1148.9 614.64 1137.41 614.64 1137.41C614.64 1137.41 597.698 1130.33 593.89 1122.91C590.082 1115.49 587.948 1111.33 584.14 1103.91M584.14 1103.91C585.507 1095.12 588.183 1090.29 587.64 1081.41C587.25 1075.03 585.86 1071.57 584.14 1065.41C582.363 1059.05 581.411 1055.41 578.64 1049.41C574.733 1040.95 570.733 1037.21 565.64 1029.41C561.939 1023.74 556.236 1021.68 556.14 1014.91C556.087 1011.14 556.787 1008.79 558.89 1005.66M584.14 1103.91C581.992 1108.01 579.838 1109.94 578.64 1114.41C577.226 1119.69 579.571 1123.02 578.64 1128.41C577.374 1135.74 574.839 1139.46 571.14 1145.91C566.437 1154.11 562.782 1158.18 556.14 1164.91C551.765 1169.34 548.624 1171.09 544.14 1175.41C535.767 1183.48 536.198 1199.18 524.64 1197.91C520.639 1197.47 517.727 1196.99 515.14 1193.91C509.921 1187.69 518.92 1181.18 524.64 1175.41C527.391 1172.64 532.64 1169.41 532.64 1169.41C532.64 1169.41 543.244 1160.18 549.14 1153.41C554.271 1147.52 557.377 1144.25 561.14 1137.41C564.093 1132.04 566.243 1128.97 567.14 1122.91C568.031 1116.89 565.692 1113.49 565.64 1107.41C565.584 1100.75 565.782 1096.93 567.14 1090.41C568.222 1085.21 570.739 1082.71 571.14 1077.41C571.752 1069.33 569.108 1064.73 565.64 1057.41C563.482 1052.86 561.822 1050.51 558.89 1046.41C555.465 1041.62 552.344 1039.85 549.14 1034.91C546.859 1031.39 547.312 1028.15 544.14 1025.41C537.011 1019.25 542.101 1040 541.64 1049.41C541.23 1057.8 544.441 1062.99 541.64 1070.91C538.771 1079.02 533.616 1081.72 527.64 1087.91C519.354 1096.49 514.152 1100.93 504.14 1107.41C496.367 1112.44 492.351 1117.48 483.14 1118.41C472.88 1119.44 461.405 1119.69 458.14 1109.91C456.842 1106.02 458.14 1103.51 458.14 1099.41C458.14 1090.82 460.874 1086.39 458.14 1077.41C455.406 1068.43 453.874 1063.39 451.14 1054.41C448.406 1045.43 447.64 1034.91 447.64 1034.91C447.64 1023.49 447.64 1017.08 447.64 1005.66M447.64 1005.66L458.14 998.91M458.14 998.91L483.14 986.91M458.14 998.91L460.14 1008.41C460.14 1008.41 457.455 1021.2 458.14 1029.41C458.9 1038.52 462.549 1043.01 464.64 1051.91C466.952 1061.75 468.417 1067.32 469.14 1077.41C469.643 1084.42 464.846 1089.84 469.14 1095.41C474.401 1102.23 482.773 1098.95 491.14 1096.91C498.272 1095.17 501.88 1092.46 507.64 1087.91C516.283 1081.08 524.64 1065.41 524.64 1065.41C526.788 1059.16 530.14 1049.41 530.14 1049.41C530.14 1049.41 528.616 1034.78 527.64 1025.41C526.664 1016.04 515.811 1012.99 507.64 1005.66C504.187 1002.56 502.262 1000.81 498.64 997.91C492.845 993.272 483.14 986.91 483.14 986.91M641.14 1252.41C641.14 1252.41 646.081 1267.64 641.14 1274.91C636 1282.47 627.212 1278.62 619.14 1282.91C612.205 1286.6 610.481 1294.86 602.64 1294.41C593.048 1293.86 585.976 1284.37 587.64 1274.91C589.587 1263.84 607.107 1273.26 614.64 1264.91C620.398 1258.53 620.402 1252.71 622.64 1244.41C625.308 1234.52 628.784 1228.31 626.14 1218.41C623.55 1208.71 616.261 1206.22 610.64 1197.91C606.27 1191.45 607.705 1182.82 600.14 1180.91C590.144 1178.38 588.453 1192.55 584.14 1201.91C579.479 1212.03 588.947 1225.67 578.64 1229.91C573.944 1231.84 570.408 1231.65 565.64 1229.91C552.426 1225.07 562.135 1207.06 567.14 1193.91C570.166 1185.96 572.063 1180.81 578.64 1175.41C588.47 1167.35 598.644 1165.2 610.64 1169.41C617.752 1171.91 620.547 1175.86 626.14 1180.91C632.71 1186.84 641.14 1186.98 641.14 1197.91C641.14 1202.95 641.14 1206.97 641.14 1210.91M641.14 1252.41V1225.91C641.14 1220.02 641.14 1215.52 641.14 1210.91M641.14 1252.41C641.14 1252.41 653.543 1250.6 661.14 1252.41C670.587 1254.66 675.114 1258.77 682.64 1264.91C689.062 1270.15 695.983 1272.2 697.139 1280.41C698.612 1290.86 685.849 1292.54 680.14 1301.41C674.47 1310.22 668.14 1325.41 668.14 1325.41C668.14 1330.49 664.41 1334.97 668.14 1338.41C673.217 1343.1 675.538 1330.56 680.14 1325.41C686.968 1317.76 691.67 1314.08 697.139 1305.41C701.753 1298.1 706.013 1294.03 706.64 1285.41C707.245 1277.09 705.603 1271.61 700.64 1264.91C694.456 1256.56 685.12 1259.07 677.14 1252.41C672.048 1248.16 668.533 1245.88 665.639 1239.91C662.543 1233.52 667.202 1227.73 663.139 1221.91C660.345 1217.91 657.506 1216.59 653.139 1214.41C648.773 1212.23 641.14 1210.91 641.14 1210.91M1139.64 1138.41C1141.79 1130.79 1144.17 1126.76 1145.14 1118.91C1145.93 1112.51 1146.87 1108.62 1145.14 1102.41C1143.28 1095.73 1140.87 1091.96 1135.64 1087.41C1132.08 1084.31 1125.14 1081.41 1125.14 1081.41C1125.14 1081.41 1115.75 1076.03 1109.14 1075.91C1103.93 1075.81 1101.25 1077.92 1096.14 1078.91C1089.55 1080.19 1084.31 1077.13 1079.14 1081.41C1074.83 1084.98 1073.14 1094.41 1073.14 1094.41C1073.14 1094.41 1071.14 1103.27 1066.64 1105.41C1060.78 1108.2 1057.11 1101.95 1051.14 1099.41C1046.8 1097.56 1044.82 1094.99 1040.14 1094.41C1033.64 1093.6 1029.98 1096.45 1024.14 1099.41C1019.26 1101.88 1017.9 1108.93 1012.64 1107.41C1008.77 1106.29 1008.55 1102.63 1006.14 1099.41C1002.76 1094.9 1002.03 1091.49 998.139 1087.41C994.284 1083.37 990.844 1082.59 986.639 1078.91C981.23 1074.18 978.967 1070.73 974.139 1065.41C969.401 1060.18 968.104 1055.68 962.139 1051.91C956.604 1048.41 951.938 1043.87 946.139 1046.91C943.693 1048.19 942.292 1049.4 941.139 1051.91C938.793 1057.02 946.139 1065.41 946.139 1065.41C946.139 1065.41 948.586 1075.16 954.639 1081.41C960.693 1087.66 964.086 1091.16 970.139 1097.41L982.139 1109.91L994.139 1128.41L1002.14 1145.91C1002.14 1145.91 1008.54 1162.06 1012.64 1172.41M1139.64 1138.41C1145.61 1142.48 1148.81 1145.02 1154.14 1149.91C1161.48 1156.64 1166.09 1160.33 1171.14 1168.91C1173.75 1173.35 1173.01 1177.24 1176.64 1180.91C1179.35 1183.65 1179.28 1191.18 1185.14 1185.91C1191 1180.64 1194.28 1177.68 1200.14 1172.41C1200.14 1172.41 1211.12 1151.94 1218.64 1157.41C1223.54 1160.98 1224.68 1166.7 1222.64 1172.41C1221.01 1176.96 1217.45 1177.93 1213.64 1180.91C1205.87 1186.99 1198.48 1185.81 1191.14 1192.41C1187.33 1195.84 1184.43 1197.61 1182.64 1202.41C1180.8 1207.35 1183.44 1210.7 1182.64 1215.91C1181.61 1222.69 1180.65 1226.85 1176.64 1232.41C1172.57 1238.05 1168.08 1239.08 1162.64 1243.41C1152 1251.88 1145.38 1255.91 1135.64 1265.41C1124.02 1276.74 1122.37 1288.02 1109.14 1297.41C1104.36 1300.8 1100.83 1308.42 1096.14 1304.91C1092.92 1302.5 1092.2 1298.67 1093.64 1294.91C1095.3 1290.59 1100.45 1292.21 1104.14 1289.41C1110.02 1284.95 1115.64 1274.41 1115.64 1274.41C1115.64 1274.41 1119.27 1268.91 1121.64 1265.41C1126.43 1258.32 1134.14 1247.41 1134.14 1247.41C1134.14 1247.41 1140.89 1242.28 1145.14 1238.91C1152.09 1233.39 1156.97 1231.24 1162.64 1224.41C1166.62 1219.61 1173 1216.85 1171.14 1210.91C1168.81 1203.45 1158.9 1210 1151.14 1210.91C1142.95 1211.87 1138.73 1217.46 1130.64 1215.91C1121.11 1214.09 1118.18 1207.07 1111.64 1199.91C1104.34 1191.91 1100.48 1186.83 1096.14 1176.91C1093.52 1170.91 1091.97 1167.4 1091.14 1160.91C1090.02 1152.14 1087.59 1140.56 1093.64 1138.41C1099.69 1136.26 1103.09 1135.06 1109.14 1132.91C1109.14 1132.91 1116.79 1132.33 1121.64 1132.91C1128.94 1133.78 1132.61 1136.26 1139.64 1138.41ZM1064.14 1212.91C1070.39 1212.91 1074.25 1215 1080.14 1212.91C1085.15 1211.13 1088.83 1209.69 1091.14 1204.91C1093.26 1200.51 1091.96 1197.22 1091.14 1192.41C1090.34 1187.72 1089.6 1184.98 1087.14 1180.91C1083.42 1174.74 1079.05 1173.01 1073.14 1168.91C1069.76 1166.56 1068.07 1164.64 1064.14 1163.41C1059.29 1161.89 1056.15 1162.57 1051.14 1163.41C1045.17 1164.4 1036.64 1168.91 1036.64 1168.91L1033.39 1174.91M1064.14 1212.91C1060.23 1208.81 1057.88 1206.66 1054.14 1202.41C1049.37 1196.98 1048.26 1192.45 1042.64 1187.91C1038.29 1184.39 1029.83 1186.5 1030.14 1180.91C1030.28 1178.25 1033.39 1174.91 1033.39 1174.91M1064.14 1212.91C1059.96 1214.46 1057.69 1215.71 1054.14 1218.41C1048.5 1222.69 1045.42 1225.9 1042.64 1232.41C1038.72 1241.56 1039.93 1248.33 1042.64 1257.91C1044.61 1264.88 1052.69 1267.33 1051.14 1274.41C1049.39 1282.37 1040.38 1281.21 1033.39 1285.41C1027.09 1289.2 1024.07 1292.47 1017.14 1294.91C1012.98 1296.37 1010.52 1296.9 1006.14 1297.41C1001.48 1297.95 998.278 1299.61 994.139 1297.41C986.138 1293.16 1004.81 1287.97 1012.64 1283.41C1020.27 1278.97 1029.32 1282.25 1033.39 1274.41C1036.36 1268.69 1035.34 1264.05 1033.39 1257.91C1029.47 1245.54 1006.14 1238.91 1006.14 1238.91C1006.14 1238.91 995.519 1226.73 986.639 1221.91C980.613 1218.64 976.994 1215.77 970.139 1215.91C963.65 1216.04 961.127 1222.12 954.639 1221.91C944.52 1221.58 940.524 1213.65 934.64 1205.41C931.088 1200.44 926.881 1197.48 927.639 1191.41C928.251 1186.52 930.953 1184.18 934.64 1180.91C940.74 1175.5 946.51 1174.27 954.639 1174.91C961.111 1175.41 963.65 1180.78 970.139 1180.91C976.994 1181.05 980.392 1177.73 986.639 1174.91C991.255 1172.82 993.129 1169.66 998.139 1168.91C1003.9 1168.05 1006.98 1171.04 1012.64 1172.41M1033.39 1174.91C1033.39 1174.91 1020.74 1173.39 1012.64 1172.41M600.14 1315.91C600.14 1315.91 606.834 1321.4 610.64 1325.41C617.874 1333.03 623.875 1337.15 626.14 1347.41C628.692 1358.97 626.062 1367.3 619.14 1376.91C611.022 1388.18 600.607 1388.44 587.64 1393.41C577.597 1397.26 571.892 1401.17 561.14 1400.91C550.892 1400.66 546.143 1395.15 536.139 1392.91C525.007 1390.42 518.369 1387.4 507.14 1389.41C496.909 1391.24 492.719 1396.88 483.14 1400.91C474.315 1404.63 469.279 1412.27 460.14 1409.41C447.571 1405.48 439.847 1383.68 451.14 1376.91C457.168 1373.29 462.134 1377.48 469.14 1376.91C480.898 1375.96 498.64 1370.41 498.64 1370.41C498.64 1370.41 511.483 1364.49 520.139 1364.91C533.059 1365.54 536.262 1379.7 549.14 1380.91C557.834 1381.72 562.633 1378.88 571.14 1376.91C580.142 1374.82 586.837 1376.38 593.89 1370.41C598.561 1366.46 600.076 1362.97 602.64 1357.41C605.835 1350.49 609.15 1345.77 607.14 1338.41C603.915 1326.61 578.64 1325.41 578.64 1325.41L546.139 1319.41C546.139 1319.41 528.386 1316.51 520.139 1309.41C513.406 1303.62 509.264 1299.14 507.64 1290.41C505.742 1280.2 507.547 1271.99 515.14 1264.91C520.525 1259.89 525.395 1259.21 532.64 1257.91C538.983 1256.77 542.881 1256.38 549.14 1257.91C557.142 1259.87 567.14 1268.91 567.14 1268.91L578.64 1282.91L593.89 1305.41L600.14 1315.91ZM600.14 1315.91L586.89 1312.66M586.89 1312.66C586.89 1312.66 578.78 1310.81 573.64 1309.41C563.93 1306.76 558.709 1304.53 549.14 1301.41C540.745 1298.67 533.071 1301.37 527.64 1294.41C522.901 1288.34 518.127 1279.03 524.64 1274.91C528.436 1272.51 531.649 1274.91 536.139 1274.91C543.95 1274.91 549.248 1271.23 556.14 1274.91C562.689 1278.4 562.241 1284.83 567.14 1290.41C571.242 1295.08 574.568 1296.71 578.64 1301.41C582.209 1305.53 586.89 1312.66 586.89 1312.66ZM1272.14 1289.41C1260.01 1292.45 1253.22 1294.2 1241.14 1297.41C1230.38 1300.27 1224.73 1303.96 1213.64 1304.91C1208.39 1305.36 1203.78 1308.72 1200.14 1304.91C1195.79 1300.35 1202.88 1295.46 1204.64 1289.41M1272.14 1289.41C1276.29 1287.07 1282.77 1283.41 1282.77 1283.41M1272.14 1289.41C1275.26 1295.46 1277.57 1298.6 1280.14 1304.91C1283.95 1314.25 1282.64 1320.65 1286.64 1329.91C1293.57 1345.98 1301.82 1352.99 1314.64 1364.91C1322.59 1372.3 1326.07 1379.43 1336.64 1381.91C1347.53 1384.46 1360.68 1386.37 1364.64 1375.91C1367.44 1368.51 1363.5 1363.01 1359.14 1356.41C1350.83 1343.82 1330.94 1355.32 1323.14 1342.41C1322.12 1340.73 1321.63 1339.73 1320.89 1337.91M1227.64 1283.41C1234.33 1284.79 1238.45 1284.79 1245.14 1283.41C1257.55 1280.85 1261.93 1272.92 1272.14 1265.41C1281.21 1258.74 1285.87 1254.45 1294.64 1247.41C1305.79 1238.45 1311.65 1232.93 1323.14 1224.41C1333.97 1216.37 1339.94 1211.62 1351.64 1204.91C1361.26 1199.39 1367.57 1186.81 1377.14 1192.41C1385.32 1197.19 1384.9 1206.6 1383.14 1215.91C1380.72 1228.66 1369.27 1230.79 1359.14 1238.91C1343.35 1251.56 1314.64 1265.41 1314.64 1265.41L1282.77 1283.41M1227.64 1283.41C1218.66 1285.75 1213.62 1287.07 1204.64 1289.41M1227.64 1283.41C1227.64 1276.38 1226.62 1272.36 1227.64 1265.41C1228.7 1258.14 1229.18 1253.6 1233.14 1247.41C1238.48 1239.05 1244.79 1236.9 1253.64 1232.41C1263.28 1227.52 1269.67 1227.09 1280.14 1224.41C1284.22 1223.36 1287.7 1224.93 1290.64 1221.91C1295.96 1216.43 1287.38 1207.85 1280.14 1205.41C1273.35 1203.12 1269.44 1208.67 1262.64 1210.91C1254.19 1213.69 1249.38 1215.06 1241.14 1218.41C1235.79 1220.58 1232.46 1221.24 1227.64 1224.41C1221.06 1228.73 1218.14 1232.45 1213.64 1238.91C1208.95 1245.65 1206.22 1249.85 1204.64 1257.91C1203.4 1264.23 1204.64 1274.41 1204.64 1274.41C1204.64 1280.27 1204.64 1283.55 1204.64 1289.41M1282.77 1283.41C1282.77 1283.41 1294.8 1296.51 1302.51 1304.91M1302.51 1304.91C1304.12 1306.67 1306.64 1309.41 1306.64 1309.41C1306.64 1309.41 1315.33 1326.78 1320.89 1337.91M1302.51 1304.91C1310.54 1305.5 1315.1 1305.5 1323.14 1304.91C1337.46 1303.85 1345.32 1301.3 1359.14 1297.41C1368.65 1294.73 1373.4 1291.04 1383.14 1289.41C1393.54 1287.67 1400.52 1285.1 1410.14 1289.41C1414.99 1291.58 1418.47 1292.82 1421.14 1297.41C1426.51 1306.63 1419.1 1316.62 1410.14 1322.41C1399.17 1329.5 1390.2 1316.92 1377.14 1316.91C1368.3 1316.9 1363.18 1317.13 1354.64 1319.41C1345.1 1321.95 1339.97 1324.61 1331.64 1329.91C1327.22 1332.72 1325.09 1334.78 1320.89 1337.91M1145.14 1078.91C1146.89 1071.33 1154.92 1070.32 1162.64 1069.41C1175.71 1067.88 1178.95 1082.44 1191.14 1087.41C1202.81 1092.17 1210.53 1099.49 1222.64 1094.41C1234.75 1089.33 1241.53 1086.49 1253.64 1081.41C1265.75 1076.33 1269.14 1072.27 1280.14 1069.41C1296.39 1065.19 1307.99 1062.16 1323.14 1069.41C1328.95 1072.19 1334.1 1072.98 1336.64 1078.91C1341.44 1090.1 1318.45 1090.39 1306.64 1087.41C1301.56 1086.13 1299.87 1081.78 1294.64 1081.41C1288.53 1080.97 1280.14 1087.41 1280.14 1087.41C1280.14 1087.41 1265.54 1098.41 1256.14 1105.41C1247.18 1112.08 1244.18 1120.73 1233.14 1122.41C1225.49 1123.58 1221.34 1119.64 1213.64 1118.91C1204.89 1118.08 1199.23 1122.33 1191.14 1118.91C1184.01 1115.9 1182.53 1110.43 1176.64 1105.41C1171.35 1100.9 1168 1098.84 1162.64 1094.41C1155.61 1088.59 1143.08 1087.8 1145.14 1078.91ZM247.64 883.41C243.247 870.556 280.64 872.41 280.64 872.41H310.64C310.64 872.41 335.956 871.557 352.14 872.41C374.149 873.571 408.14 879.41 408.14 879.41C408.14 879.41 442.756 881.447 458.14 894.91C464.405 900.393 471.679 903.084 471.64 911.41C471.588 922.462 457.401 921.224 447.64 926.41C422.499 939.767 405.898 954.734 378.14 948.41C361.585 944.639 353.712 937.246 340.64 926.41C332.608 919.751 331.022 912.397 321.858 907.41C311.521 901.785 301.903 905.339 292.14 902.41C282.377 899.481 276.903 897.839 267.14 894.91C267.14 894.91 250.499 891.776 247.64 883.41ZM365.64 1137.41C372.952 1134.77 376.236 1143.54 383.64 1145.91C388.784 1147.56 392.231 1146.66 397.14 1148.91C402.823 1151.51 403.942 1156.34 409.64 1158.91C417.667 1162.53 423.905 1157.29 432.14 1160.41C435.652 1161.74 440.64 1164.91 440.64 1164.91L443.64 1167.91C447.18 1173.69 438.033 1177.56 432.14 1180.91C423.143 1186.02 415.989 1180.91 405.64 1180.91C398.611 1180.91 393.782 1184.33 387.64 1180.91C381.291 1177.37 384.381 1168.63 378.14 1164.91C370.921 1160.6 360.945 1173.13 356.64 1165.91C354.14 1161.72 355.639 1158.19 356.64 1153.41C358.11 1146.39 358.897 1139.84 365.64 1137.41ZM-32.8599 1218.41C-32.2482 1221.88 -30.2867 1223.36 -27.8599 1225.91C-16.1081 1238.26 -1.20297 1223.25 15.1401 1218.41C30.9955 1213.71 42.8322 1213.98 54.1401 1201.91C60.5987 1195.02 74.3411 1185.6 66.1401 1180.91C62.0713 1178.58 58.7428 1180.03 54.1401 1180.91C43.3238 1182.98 41.8449 1193.77 31.6401 1197.91C24.0818 1200.98 19.192 1200.61 11.1401 1201.91C-0.88646 1203.86 -9.40438 1199.16 -19.8599 1205.41C-26.0215 1209.1 -34.1076 1211.34 -32.8599 1218.41ZM-32.8599 1301.41C-46.2777 1291.56 -9.61119 1289 6.6401 1285.41C21.5425 1282.12 30.6078 1285.55 45.6401 1282.91C57.583 1280.82 63.9958 1278.29 75.6401 1274.91C94.7937 1269.35 104.906 1264.19 124.14 1258.91C134.416 1256.09 144.468 1243.72 150.64 1252.41C154.486 1257.82 152.936 1263.18 150.64 1269.41C147.06 1279.12 138.688 1280.62 129.51 1285.41C116.704 1292.09 108.036 1293.25 93.6401 1294.41C86.6333 1294.97 82.6519 1293.91 75.6401 1294.41C62.3086 1295.36 55.4502 1300.2 42.1401 1301.41C31.6394 1302.37 25.6556 1300.63 15.1401 1301.41C3.71052 1302.25 -2.43456 1306.81 -13.8599 1305.91C-21.4616 1305.31 -26.7124 1305.92 -32.8599 1301.41ZM254.64 1264.91C254.089 1258.03 260.625 1254.69 267.14 1252.41C272.115 1250.67 275.575 1250.95 280.64 1252.41C287.965 1254.53 290.204 1259.56 295.64 1264.91C302.164 1271.33 306.099 1274.97 310.64 1282.91C316.033 1292.35 317.426 1298.68 319.14 1309.41C320.927 1320.59 308.612 1334.24 319.14 1338.41C323.315 1340.07 326.187 1338.99 330.64 1338.41C341.897 1336.94 347.15 1331.64 356.64 1325.41C368.434 1317.67 372.881 1310.53 383.64 1301.41C391.153 1295.04 393.354 1284.29 403.14 1285.41C411.783 1286.4 416.633 1292.95 418.64 1301.41C421 1311.36 412.127 1315.99 408.14 1325.41C403.703 1335.9 403.306 1342.84 397.14 1352.41C389.737 1363.9 383.185 1368.86 372.14 1376.91C360.92 1385.09 353.337 1387.78 340.64 1393.41C333.419 1396.61 321.858 1400.91 321.858 1400.91C321.858 1400.91 306.932 1406.25 300.39 1413.41C296.224 1417.97 296.818 1422.87 292.14 1426.91C284.602 1433.41 274.465 1438.65 267.14 1431.91C261.73 1426.93 264.347 1420.73 263.64 1413.41C262.889 1405.64 266.557 1400.66 263.64 1393.41C259.745 1383.73 251.449 1382.49 242.64 1376.91C233.79 1371.3 225.209 1373.07 218.64 1364.91C214.026 1359.17 211.227 1354.76 211.64 1347.41C212.003 1340.96 214.13 1337.04 218.64 1332.41C228.45 1322.34 241.544 1327.3 254.64 1332.41C263.881 1336.02 265.708 1344.34 275.14 1347.41C284.516 1350.46 295.354 1355.89 300.39 1347.41C303.382 1342.37 301.153 1338.22 300.39 1332.41C299.517 1325.76 297.577 1322.33 295.64 1315.91C292.019 1303.91 294.053 1294.7 285.64 1285.41C280.733 1279.99 276.239 1278.94 270.14 1274.91C264.131 1270.94 255.215 1272.09 254.64 1264.91ZM791.14 1023.91C788.609 1017.63 800.64 1009.41 800.64 1009.41L815.14 986.91L820.14 969.41V943.91L805.64 933.91L791.14 933.41C791.14 933.41 777.46 928.247 774.14 933.91C770.821 939.573 768.96 942.747 765.64 948.41C765.64 948.41 754.423 967.357 752.14 980.91C750.453 990.923 752.14 1006.91 752.14 1006.91L748.64 1023.91C748.64 1023.91 744.264 1048.11 741.14 1039.91C738.016 1031.71 736.264 1027.11 733.14 1018.91C730.016 1010.71 733.14 1006.72 733.14 998.91C733.14 991.295 733.14 987.025 733.14 979.41C733.14 974.528 733.82 971.744 733.14 966.91C732.065 959.261 733.55 950.591 726.14 948.41C719.472 946.447 713.812 950.975 710.64 957.16C708.012 962.286 710.403 966.155 710.64 971.91C711.142 984.106 712.701 990.858 714.64 1002.91C716.313 1013.31 717.33 1019.13 719.64 1029.41C721.853 1039.25 716.343 1052 726.14 1054.41C728.795 1055.06 730.408 1054.51 733.14 1054.41C740.619 1054.15 745.588 1055.53 752.14 1051.91C760.676 1047.2 763.498 1040.42 765.64 1030.91C767.013 1024.81 765.64 1021.16 765.64 1014.91C765.64 1003.98 765.64 997.845 765.64 986.91C765.64 981.052 762.901 977.088 765.64 971.91C767.71 967.997 770.209 966.446 774.14 964.41C781.595 960.548 789.406 958.786 795.64 964.41C800.225 968.546 800.976 973.244 800.64 979.41C800.111 989.123 790.26 990.638 785.14 998.91C779.714 1007.68 776.211 1012.81 774.14 1022.91C772.297 1031.9 768.036 1039.56 774.14 1046.41C778.781 1051.62 784.17 1051.58 791.14 1051.91C796.88 1052.18 800.172 1051.18 805.64 1049.41C815.587 1046.2 819.046 1040.07 828.14 1034.91C836.496 1030.17 854.041 1032.69 850.14 1023.91C846.647 1016.05 836.686 1021.94 828.14 1022.91C819.052 1023.94 814.733 1030.4 805.64 1029.41C799.619 1028.76 793.405 1029.53 791.14 1023.91ZM795.64 1137.41C796.004 1145.33 804.078 1147.52 811.64 1149.91C821.253 1152.94 828.187 1150.54 837.14 1145.91C845.725 1141.47 847.742 1135.18 854.64 1128.41C866.37 1116.9 872.89 1110.37 885.14 1099.41C894.327 1091.19 899.743 1086.89 909.14 1078.91C919.071 1070.48 935.473 1070.41 934.64 1057.41C934.11 1049.14 930.717 1041.76 922.64 1039.91C912.808 1037.66 911.459 1051.04 903.64 1057.41C896.708 1063.06 892.471 1065.79 885.14 1070.91C875.552 1077.61 869.014 1079.79 860.14 1087.41C852.069 1094.34 849.686 1100.45 841.64 1107.41C832.261 1115.52 825.542 1118.16 815.14 1124.91C807.553 1129.84 795.225 1128.37 795.64 1137.41ZM1017.14 1122.41C1017.03 1116.45 1025.39 1118.01 1030.14 1114.41C1034.33 1111.24 1035.21 1107.23 1040.14 1105.41C1046.23 1103.16 1052.18 1102.69 1056.64 1107.41C1059.48 1110.42 1059.56 1113.31 1060.14 1117.41C1060.55 1120.31 1060.14 1121.98 1060.14 1124.91C1060.14 1134.67 1069.33 1146.6 1060.14 1149.91C1056.83 1151.1 1051.14 1149.91 1051.14 1149.91C1051.14 1149.91 1041.77 1148.77 1036.64 1145.91C1032.64 1143.68 1030.86 1141.66 1027.64 1138.41C1024.12 1134.85 1021.99 1132.83 1019.64 1128.41C1019.64 1128.41 1017.19 1124.95 1017.14 1122.41ZM1115.64 1145.91L1102.14 1151.91V1163.41L1111.64 1180.91L1127.14 1187.91L1145.14 1192.41L1154.14 1199.91H1167.14L1173.64 1187.91L1154.14 1163.41L1134.14 1149.91L1118.64 1145.91H1115.64ZM1079.14 1117.41C1075.96 1112.12 1080.86 1107.64 1084.14 1102.41C1086.34 1098.89 1087.74 1096.8 1091.14 1094.41C1097 1090.29 1109.14 1090.91 1109.14 1090.91L1120.14 1097.41C1120.14 1097.41 1128.93 1102.01 1130.64 1107.41C1132.46 1113.14 1131.9 1118.73 1127.14 1122.41C1124.4 1124.53 1118.64 1124.91 1118.64 1124.91C1118.64 1124.91 1106.69 1125.87 1099.14 1124.91C1094.39 1124.31 1091.54 1124.3 1087.14 1122.41C1083.75 1120.96 1081.04 1120.57 1079.14 1117.41ZM875.639 962.41C880.81 965.988 883.551 968.216 888.639 971.91C897.585 978.404 911.639 988.41 911.639 988.41C911.639 988.41 921.337 998.519 927.639 1004.91C932.874 1010.22 937.146 1012.11 941.139 1018.41C943.667 1022.39 946.223 1024.69 946.139 1029.41C946.058 1033.95 945.162 1037.8 941.139 1039.91C936.16 1042.52 932.259 1038.11 927.639 1034.91C921.186 1030.43 921.223 1024.4 916.139 1018.41C909.61 1010.72 897.139 1000.91 897.139 1000.91L885.14 991.409L860.14 966.91C860.14 966.91 846.315 955.387 837.14 948.409C834.809 946.636 831.898 946.739 831.139 943.91C829.94 939.439 837.03 937.984 841.64 938.409C845.577 938.771 850.14 943.91 850.14 943.91L866.639 956.409C866.639 956.409 872.166 960.006 875.639 962.41ZM-69.3606 1355.91C-61.7081 1368.38 -47.0811 1350.87 -32.8599 1347.41C-23.4726 1345.13 -18.2034 1343.87 -8.86062 1341.41C12.591 1335.76 25.074 1317.1 45.6401 1325.41C51.1665 1327.64 56.2134 1327.96 58.6394 1333.41C62.2987 1341.62 50.4438 1344.81 45.6401 1352.41C39.7523 1361.72 23.065 1369.99 31.6401 1376.91C38.7573 1382.65 45.9865 1374.55 54.1401 1370.41C63.9018 1365.45 71.0944 1362.37 75.6401 1352.41C80.0173 1342.82 80.4652 1334.79 75.6401 1325.41C70.1081 1314.66 60.882 1312.29 49.1401 1309.41C36.1846 1306.24 28.3852 1311.09 15.1401 1312.66C5.74779 1313.78 0.453006 1314.26 -8.86062 1315.91C-20.1015 1317.9 -26.277 1319.68 -37.3606 1322.41C-47.7532 1324.97 -56.5278 1321.61 -63.8606 1329.41C-71.1013 1337.11 -74.887 1346.9 -69.3606 1355.91ZM-19.8599 1400.91C-18.1145 1407.17 -14.274 1409.81 -8.86062 1413.41C4.37109 1422.21 16.3313 1413.68 31.6401 1409.41C45.9451 1405.42 53.8398 1401.73 66.1401 1393.41C72.5808 1389.05 74.5043 1384 81.6401 1380.91C94.6013 1375.29 106.381 1375.88 117.639 1384.41C123.967 1389.2 125.342 1394.15 129.51 1400.91C133.785 1407.84 134.371 1412.81 139.139 1419.41C143.023 1424.79 144.038 1431.26 150.64 1431.91C157.935 1432.63 162.141 1426.3 164.64 1419.41C168.572 1408.57 155.55 1403.84 150.64 1393.41C145.53 1382.55 149.813 1370.4 139.139 1364.91C131.672 1361.07 125.993 1365.75 117.639 1364.91C105.624 1363.7 98.5131 1352.15 87.6401 1357.41C81.4194 1360.42 80.9877 1366.03 75.6401 1370.41C64.6656 1379.39 55.775 1380.52 42.1401 1384.41C32.3815 1387.19 26.5002 1387.01 16.6401 1389.41C2.11903 1392.94 -23.8715 1386.51 -19.8599 1400.91ZM850.14 1380.91C861.243 1379.34 870.27 1368.02 866.639 1357.41C863.235 1347.46 848.329 1355.52 841.64 1347.41C834.594 1338.86 837.599 1330.47 837.14 1319.41C836.978 1315.51 836.629 1313.28 837.14 1309.41C838.535 1298.84 846.437 1295.41 850.14 1285.41C852.461 1279.15 851.122 1274.59 854.64 1268.91C857.988 1263.5 866.639 1257.91 866.639 1257.91L897.139 1221.91L909.14 1197.91V1180.91C909.14 1180.91 909.481 1161.85 903.64 1151.91C896.774 1140.23 888.944 1133.99 875.639 1131.41C869.697 1130.26 859.612 1125.38 860.14 1131.41C860.466 1135.13 863.949 1135.83 866.639 1138.41C869.94 1141.58 872.375 1142.7 875.639 1145.91C879.795 1149.99 882.52 1152.21 885.14 1157.41C888.274 1163.63 889.863 1168.05 888.639 1174.91C887.145 1183.29 880.422 1185.37 875.639 1192.41C868.999 1202.19 871.082 1222.88 860.14 1218.41C851.063 1214.7 858.943 1202.72 854.64 1193.91C850.972 1186.4 846.826 1183.46 841.64 1176.91C836.475 1170.38 835.36 1164.56 828.14 1160.41C820.453 1156 814.44 1158.48 805.64 1157.41C790.055 1155.52 780.506 1148.37 765.64 1153.41C758.346 1155.89 751.535 1156.27 748.64 1163.41C746.02 1169.87 745.534 1178.69 752.14 1180.91C758.045 1182.9 759.935 1174.91 765.64 1172.41C772.797 1169.27 785.14 1167.91 785.14 1167.91C789.241 1167.91 791.54 1167.91 795.64 1167.91C799.741 1167.91 811.086 1174.97 820.14 1180.91C827.126 1185.5 833.386 1186.44 837.14 1193.91C840.999 1201.59 837.556 1207.33 837.14 1215.91C836.338 1232.46 834.738 1241.74 831.139 1257.91C827.866 1272.62 823.411 1280.19 820.14 1294.91C817.521 1306.69 813.982 1313.4 815.14 1325.41C816.434 1338.84 820.797 1346.09 828.14 1357.41C834.984 1367.95 837.692 1382.67 850.14 1380.91ZM719.64 1294.91C724.17 1299.82 726.653 1307 733.14 1305.41C737.432 1304.36 739.3 1301.43 741.14 1297.41C745.606 1287.66 726.14 1274.41 726.14 1274.41C726.14 1274.41 714.545 1256.98 719.64 1247.41C722.777 1241.51 727.88 1241.03 733.14 1236.91C740.585 1231.08 743.387 1225.48 752.14 1221.91C764.072 1217.04 772.439 1219.72 785.14 1221.91C791.301 1222.97 794.883 1223.47 800.64 1225.91C809.274 1229.56 811.375 1243.23 820.14 1239.91C824.144 1238.39 827.43 1236.63 828.14 1232.41C828.995 1227.33 820.14 1221.91 820.14 1221.91C820.14 1221.91 805.551 1211.31 795.64 1205.41C787.459 1200.54 783.256 1196.66 774.14 1193.91C765.862 1191.41 760.673 1190.01 752.14 1191.41C744.118 1192.72 740.224 1195.92 733.14 1199.91C725.445 1204.24 720.707 1206.49 714.64 1212.91C706.717 1221.29 702.416 1227.51 700.64 1238.91C698.8 1250.71 706.64 1268.91 706.64 1268.91C706.64 1268.91 711.94 1286.57 719.64 1294.91ZM741.14 1352.41C745.015 1345.17 752.897 1347.1 759.639 1342.41C771.43 1334.21 781.201 1329.72 785.14 1315.91C787.443 1307.84 776.757 1294.88 785.14 1294.41C792.279 1294.01 793.636 1302.55 795.64 1309.41C797.392 1315.41 795.64 1325.41 795.64 1325.41C795.64 1325.41 792.618 1343.92 785.14 1352.41C779.161 1359.2 773.963 1361.37 765.64 1364.91C756.618 1368.75 747.401 1377.96 741.14 1370.41C736.652 1365 737.824 1358.61 741.14 1352.41ZM909.14 1294.41H934.64C934.64 1294.41 951.776 1294.36 962.139 1297.41C975.988 1301.48 984.963 1304.77 994.139 1315.91C1002.51 1326.07 1004.51 1334.35 1006.14 1347.41C1006.98 1354.19 1009.96 1359.24 1006.14 1364.91C1001.72 1371.47 994.386 1372.02 986.639 1370.41C974.213 1367.83 977.857 1352.48 970.139 1342.41C964.676 1335.28 962.307 1330.09 954.639 1325.41C947.68 1321.16 942.172 1322.53 934.64 1319.41C927.054 1316.26 924.214 1310.91 916.139 1309.41C911.34 1308.52 908.516 1309.65 903.64 1309.41C892.578 1308.87 884.049 1312.12 875.639 1304.91C870.325 1300.35 862.843 1295.29 866.639 1289.41C870.698 1283.12 877.736 1293.31 885.14 1294.41C894.412 1295.78 909.14 1294.41 909.14 1294.41ZM1410.14 1054.91C1408.85 1066.16 1399.29 1069.24 1390.14 1075.91C1382.16 1081.72 1371.9 1078.51 1367.64 1087.41C1364.6 1093.75 1365.43 1098.74 1367.64 1105.41C1369.67 1111.53 1370.76 1117.98 1377.14 1118.91C1383.85 1119.89 1384.23 1110.74 1390.14 1107.41C1398.98 1102.43 1405.85 1105.08 1415.64 1102.41C1424.81 1099.9 1430.7 1099.64 1438.64 1094.41C1445.67 1089.78 1451.16 1086.96 1453.64 1078.91C1457.44 1066.56 1449.95 1055.66 1438.64 1049.41C1428.9 1044.03 1412.25 1038.48 1410.14 1049.41C1409.73 1051.52 1410.39 1052.78 1410.14 1054.91ZM1415.64 1145.91C1416.57 1132.09 1431.93 1131.03 1438.64 1118.91C1443.02 1111.01 1440.4 1103.41 1447.14 1097.41C1452.31 1092.8 1458.54 1086.22 1463.64 1090.91C1467.81 1094.74 1464.7 1099.85 1463.64 1105.41C1462.04 1113.82 1458.91 1118.17 1453.64 1124.91C1448.79 1131.12 1443.25 1132.02 1438.64 1138.41C1431.37 1148.48 1441.98 1170.34 1429.64 1168.91C1420.49 1167.85 1416.45 1159.09 1415.64 1149.91C1415.64 1149.91 1415.54 1147.47 1415.64 1145.91ZM1280.14 1172.41C1281.85 1178.09 1288.91 1175.4 1294.64 1176.91C1302.34 1178.93 1306.72 1180.09 1314.64 1180.91C1323.19 1181.79 1328.05 1180.91 1336.64 1180.91C1347.57 1180.91 1353.72 1181.53 1364.64 1180.91C1377.41 1180.19 1393.64 1189.21 1397.14 1176.91C1399.36 1169.13 1396.05 1162.94 1390.14 1157.41C1381.3 1149.14 1371.24 1157.02 1359.14 1157.41C1341.72 1157.97 1332.06 1160.38 1314.64 1160.91C1303.71 1161.24 1294.75 1153.58 1286.64 1160.91C1282.81 1164.37 1278.66 1167.47 1280.14 1172.41ZM1033.39 1370.41C1041.77 1373.18 1043.45 1360.74 1051.14 1356.41C1061.15 1350.77 1067.77 1349.04 1079.14 1347.41C1088.8 1346.02 1094.72 1344.84 1104.14 1347.41C1111.55 1349.43 1114 1355.61 1121.64 1356.41C1128.85 1357.16 1137.49 1358.83 1139.64 1351.91C1141.57 1345.7 1135.35 1342.38 1130.64 1337.91C1120.61 1328.39 1109.9 1331.34 1096.14 1329.91C1084.68 1328.72 1077.88 1327.38 1066.64 1329.91C1055.48 1332.42 1049.57 1335.93 1040.14 1342.41C1033.3 1347.11 1024.4 1348.11 1024.14 1356.41C1023.93 1362.96 1027.17 1368.35 1033.39 1370.41ZM1390.14 1210.91C1394.1 1205.75 1397.34 1203.67 1402.64 1199.91C1407.42 1196.52 1409.9 1193.58 1415.64 1192.41C1419.27 1191.67 1421.89 1190.62 1425.14 1192.41C1431.62 1195.96 1424.86 1204.52 1421.14 1210.91C1418.08 1216.16 1410.46 1215.84 1410.14 1221.91C1409.9 1226.53 1414.41 1227.95 1415.64 1232.41C1418.36 1242.23 1415.69 1249.37 1410.14 1257.91C1403.41 1268.27 1395.3 1276.62 1383.14 1274.41C1373.62 1272.68 1365.54 1267.55 1364.64 1257.91C1363.81 1249.07 1373.12 1246.83 1377.14 1238.91C1379.91 1233.44 1383.14 1224.41 1383.14 1224.41C1383.14 1224.41 1386.52 1215.62 1390.14 1210.91ZM1436.64 758.909C1441.6 755.305 1444.88 753.862 1450.14 750.909C1458.37 746.283 1454.87 738.722 1464.14 736.909C1469.7 735.822 1474.34 733.22 1478.64 736.909C1484.68 742.1 1476.98 749.728 1472.64 756.409C1466.18 766.355 1456.51 765.642 1447.14 772.909C1439.92 778.502 1435.73 781.611 1429.64 788.409C1423.28 795.508 1419.51 799.697 1415.64 808.409C1411.5 817.718 1405.97 824.614 1410.14 833.909C1413.89 842.26 1421.7 842.349 1429.64 846.909C1434.79 849.867 1437.81 851.29 1443.14 853.909C1448.55 856.567 1451.78 857.642 1457.14 860.409C1463.36 863.622 1468.84 863.534 1472.64 869.41C1477.2 876.458 1477.71 884.217 1472.64 890.91C1467.2 898.085 1459.09 896.869 1450.14 895.909C1436.24 894.417 1431.02 884.803 1421.14 874.909C1413.77 867.528 1409.41 863.186 1404.64 853.909C1399.81 844.51 1398.38 838.404 1397.14 827.909C1396.25 820.346 1395.84 815.913 1397.14 808.409C1398.56 800.189 1402.55 794.36 1410.14 790.909C1415.64 788.409 1423.52 768.451 1436.64 758.909Z" stroke="#201806" stroke-width="5"/>
<path d="M1010.95 347C1010.95 347 1003.5 355.535 1000.45 362C997.251 368.767 991.645 374.054 995.448 380.5C997.815 384.511 1000.8 386.678 1005.45 387C1011.96 387.451 1014.67 381.823 1018.45 376.5C1021.95 371.56 1019.85 366.458 1023.95 362C1029.13 356.363 1034.79 355.773 1042.45 355.5C1051.27 355.186 1055.83 359.023 1063.95 362.5C1071.25 365.63 1075.02 368.105 1081.95 372C1091.73 377.497 1097.43 380.32 1106.45 387C1114.12 392.687 1116.21 399.135 1124.95 403C1132.02 406.13 1138.55 411.511 1144.45 406.5C1147.85 403.611 1148.86 400.46 1148.95 396C1149.12 387.302 1139.43 386.307 1132.95 380.5C1125.61 373.924 1121.34 370.393 1113.45 364.5C1103.51 357.081 1097.93 352.763 1086.95 347C1077.57 342.079 1072.49 337.475 1061.95 336.5C1054.3 335.793 1050.11 338.526 1042.45 339C1035.24 339.446 1030.84 336.845 1023.95 339C1018.26 340.778 1010.95 347 1010.95 347Z" stroke="#201806" stroke-width="5"/>
<path d="M1127.45 320C1122.66 316.277 1124.92 308.051 1118.95 307C1113.96 306.122 1110.07 308.663 1107.45 313C1103.42 319.675 1110.93 324.82 1114.95 331.5C1118.88 338.033 1121.21 342.116 1127.45 346.5C1138.57 354.311 1148.42 352.283 1161.95 351C1174.8 349.781 1188.96 347.248 1193.45 341L1204.95 325C1209.44 318.751 1220.63 326.918 1222.95 320C1224.66 314.905 1222.59 310.425 1218.45 307C1211.88 301.562 1205.66 310.695 1197.45 313C1187.51 315.79 1182.03 317.761 1171.95 320C1159.98 322.658 1152.98 327.373 1140.95 325C1135.43 323.912 1131.89 323.45 1127.45 320Z" stroke="#201806" stroke-width="5"/>
<path d="M1461.45 221.5C1461.45 221.5 1480.91 225.028 1493.45 224.5C1502.12 224.136 1507.65 225.287 1515.45 221.5C1523.28 217.701 1526.55 213.188 1531.45 206C1539.32 194.454 1537.31 184.991 1540.95 171.5C1543.32 162.721 1547.11 158.093 1546.95 149C1546.8 140.472 1545.99 134.881 1540.95 128C1535.96 121.185 1523.45 114 1523.45 114C1523.45 114 1511.5 106.058 1502.45 104C1495.79 102.484 1486.77 97.4127 1484.95 104C1483.98 107.516 1481.6 110.267 1487.45 113C1493.31 115.734 1496.6 117.267 1502.45 120C1502.45 120 1512.43 126.077 1518.45 130.5C1523.71 134.363 1528.5 135.182 1531.45 141C1534.72 147.442 1536.53 146.418 1531.45 159.5C1526.38 172.583 1523.53 179.918 1518.45 193C1513.38 206.083 1514.67 202.693 1509.45 206C1504.11 209.388 1499.78 208.389 1493.45 208.5C1482.23 208.697 1476.06 205.684 1465.45 202C1459.66 199.989 1455.71 199.858 1450.95 196C1447.61 193.293 1446.35 191.069 1443.95 187.5C1442.68 185.61 1441.4 185.757 1439.95 184C1435.27 178.321 1423.69 170.166 1420.95 177C1419.94 179.538 1421.94 185.226 1423.45 187.5C1426.45 192 1426.38 191.15 1429.45 195C1435.06 202.019 1447.45 208.5 1447.45 208.5C1452.92 213.577 1461.45 221.5 1461.45 221.5ZM1461.45 221.5C1461.45 221.5 1459.96 238.012 1465.45 246C1469.81 252.341 1475.5 252.624 1481.45 257.5C1487.44 262.403 1494.37 263.427 1495.95 271C1497.01 276.061 1496.71 279.982 1493.45 284C1491.03 286.994 1488.69 288.065 1484.95 289C1473.96 291.753 1463.45 269.5 1463.45 269.5L1450.95 249.5L1436.95 216L1420.95 202L1414.95 196" stroke="#201806" stroke-width="5"/>
<path d="M1399.95 150C1399.95 150 1389.6 137.191 1388.44 127.5C1387.26 117.543 1391.44 102 1391.44 102C1391.44 102 1394.4 96.5268 1396.94 93.5001C1402.55 86.8251 1407.3 84.1021 1415.44 81.0001C1420.31 79.1464 1423.55 79.7852 1428.44 78.0001C1433.61 76.115 1440.94 71.5001 1440.94 71.5001C1448.56 67.9853 1452.83 66.0148 1460.44 62.5001C1468.06 58.9853 1470.27 58.2635 1476.94 58.0001C1484.75 57.6918 1496.44 62.5001 1496.44 62.5001L1531.44 71.5001C1531.44 71.5001 1551.07 77.5945 1562.44 84.0001C1568.34 87.3221 1572.09 88.778 1576.94 93.5001C1584.03 100.393 1589.83 105.626 1589.44 115.5C1589.17 122.573 1588.27 128.832 1581.94 132C1572.44 136.759 1570.62 119.803 1562.44 113C1554.7 106.552 1541.44 98.0001 1541.44 98.0001C1534.61 93.8995 1530.78 91.6006 1523.94 87.5001C1523.94 87.5001 1512.39 79.8512 1503.94 78.0001C1495.93 76.2443 1490.53 74.8775 1482.94 78.0001C1479.04 79.6084 1477.59 81.857 1473.94 84.0001C1471.46 85.4627 1467.44 87.5001 1467.44 87.5001" stroke="#201806" stroke-width="5"/>
<path d="M1414.45 165C1414.45 173.592 1414.45 187 1414.45 187C1414.45 187 1414.82 205.107 1407.95 213C1402.33 219.454 1388.45 223 1388.45 223C1388.45 223 1375.84 230.706 1366.95 230.5C1358.61 230.307 1353.58 228.059 1346.95 223C1338.58 216.623 1336.15 210.014 1332.95 200C1328.78 186.983 1325.93 176.733 1332.95 165C1336.77 158.596 1339.79 154.096 1346.95 152C1351.44 150.684 1354.6 150.253 1358.95 152C1362.8 153.548 1366.95 159 1366.95 159M1414.45 165C1425.58 171.444 1430.19 179.856 1442.95 181.5C1453.62 182.876 1462.91 184.143 1469.95 176C1476.14 168.833 1473.45 152 1473.45 152C1473.45 141.456 1473.45 135.544 1473.45 125C1473.45 114.456 1471.31 113.725 1469.95 106.5M1414.45 165C1417.86 159.728 1423.2 151.5 1423.2 151.5M1414.45 165C1408.24 164.342 1403.75 165.988 1399.45 170.5C1392.7 177.561 1405.23 187.635 1399.45 195.5C1397.97 197.502 1396.95 198.528 1394.95 200M1469.95 106.5C1465.45 103.962 1463.48 98.8918 1458.45 100C1453.54 101.078 1450.7 110.25 1450.7 110.25M1469.95 106.5C1472.83 101.626 1472.83 96.8749 1469.95 92.0002C1466.51 86.1943 1460.56 86.802 1453.95 85.5002C1447.24 84.1811 1442.42 82.1725 1436.45 85.5002C1429.43 89.4123 1427.45 104 1427.45 104L1411.45 133.5C1411.45 133.5 1403.64 144.481 1399.45 152C1394.42 161.003 1398.41 173.351 1388.45 176C1378.1 178.75 1366.95 159 1366.95 159M1423.2 151.5C1423.2 151.5 1428.56 143.293 1431.95 138C1436.29 131.2 1438.29 127.096 1442.95 120.5C1445.84 116.4 1450.7 110.25 1450.7 110.25M1423.2 151.5C1423.2 151.5 1429.35 163.483 1436.45 164C1441.51 164.369 1445.01 162.737 1448.45 159C1454 152.964 1447.38 146.132 1448.45 138C1449.52 129.782 1455.92 125.551 1453.95 117.5C1453.21 114.487 1450.7 110.25 1450.7 110.25M1366.95 159L1358.95 176L1358.04 178M1358.04 178C1358.04 178 1354.05 183.141 1353.95 187C1353.76 194.177 1360.74 196.386 1366.95 200C1375.02 204.704 1382.71 209.747 1390.45 204.5C1392.5 203.105 1393.19 201.758 1394.95 200M1358.04 178C1358.04 178 1364.32 183.98 1368.95 187C1375.9 191.544 1388.45 195.5 1388.45 195.5C1388.45 195.5 1392.41 198.243 1394.95 200" stroke="#201806" stroke-width="5"/>
<path d="M1253.94 -9.50001C1257.82 1.03482 1232.48 -2.21256 1231.94 8.99999C1231.43 19.7713 1240.18 32.8044 1250.44 29.5C1257.1 27.3577 1260.94 15 1260.94 15L1271.44 -9.50001L1278.44 -26.5C1278.44 -26.5 1279.35 -42.2663 1285.94 -48.5C1292.18 -54.3957 1298.65 -57.2119 1306.94 -55C1318.84 -51.827 1320.44 -26.5 1320.44 -26.5L1306.94 4.49999L1293.94 43.5C1293.94 43.5 1290.44 54.7011 1285.94 60.5C1281.44 66.3091 1272.57 65.2357 1271.44 72.5C1269.88 82.6272 1286.25 79.2273 1293.94 86C1304.27 95.0927 1313.94 115 1313.94 115L1320.44 137.5C1322.98 146.287 1320.44 160.051 1320.44 174.5C1320.44 183.092 1325.39 189.473 1320.44 196.5C1316.92 201.512 1312.79 202.647 1306.94 204.5C1299.13 206.979 1293.46 207.777 1285.94 204.5C1278.21 201.13 1268.5 196.4 1271.44 188.5C1273.67 182.527 1281.2 185.257 1285.94 181C1289.9 177.453 1291.94 174.918 1293.94 170C1298.88 157.898 1287.21 150.51 1285.94 137.5C1285.09 128.754 1290.65 122.42 1285.94 115C1282.32 109.284 1271.44 105.5 1271.44 105.5L1260.94 92C1260.94 92 1258.18 82.4084 1253.94 78C1243.66 67.2975 1230.6 80.3389 1215.94 78C1207.39 76.634 1200.72 78.4815 1194.44 72.5C1189.12 67.4199 1188.94 62.2063 1187.44 55C1185.95 47.7937 1184.46 41.0559 1187.44 33C1190.81 23.9338 1198.25 22.4249 1204.44 15C1211.98 5.97083 1212.85 -2.04713 1221.94 -9.50001C1228.16 -14.5971 1231.95 -20.408 1239.94 -19.5C1246.62 -18.7414 1251.62 -15.8055 1253.94 -9.50001Z" stroke="#201806" stroke-width="5"/>
<path d="M1220.95 -71.5002C1219.33 -80.5359 1218.8 -87.5097 1211.45 -93.0002C1196.72 -103.992 1190.63 -73.2625 1176.95 -61.0002C1169.01 -53.891 1162.99 -51.41 1156.45 -43.0002C1149.37 -33.901 1147.44 -27.3132 1143.45 -16.5002C1138.79 -3.88287 1138.99 4.02553 1135.45 16.9998C1132.76 26.832 1128.56 31.825 1127.95 41.9998C1126.89 59.635 1134.04 69.5474 1143.45 84.4998C1151.32 97.0174 1159.02 101.539 1168.95 112.5C1176.19 120.492 1177.64 128.512 1187.45 133C1197.75 137.713 1205.12 133 1216.45 133H1242.45C1254.55 133 1268.61 144.099 1273.45 133C1273.45 133 1275.32 124.43 1273.45 119.5C1269.05 107.894 1254.67 114.643 1242.45 112.5C1226.96 109.786 1217.5 112.516 1202.45 108C1188.48 103.81 1176.37 104.052 1168.95 91.4998C1164.58 84.1162 1166.78 78.2551 1164.45 69.9998C1161.96 61.2021 1156.86 57.1326 1156.45 47.9998C1155.98 37.5734 1161.6 32.5397 1164.45 22.4998C1166.32 15.8935 1168.95 5.49984 1168.95 5.49984L1176.95 -16.5002C1176.95 -16.5002 1187.33 -29.8991 1195.45 -37.0002C1204.45 -44.8814 1216.88 -42.7421 1220.95 -54.0002C1223.27 -60.4287 1222.15 -64.7729 1220.95 -71.5002Z" stroke="#201806" stroke-width="5"/>
<path d="M942.953 25.5C948.03 25.5 953.376 25.5 958.453 25.5C963.53 25.5 958.453 32.8137 958.453 37.5C958.453 52.5352 958.453 76 958.453 76V99.5L962.453 129C962.453 129 962.277 142.482 964.953 150.5C966.972 156.547 972.453 165 972.453 165C972.453 165 975.638 172.751 976.453 178C977.322 183.596 973.915 186.056 976.453 192.5C978.992 198.944 980.415 202.556 982.953 209C985.492 215.444 988.332 220.711 992.953 227.5C999.177 236.642 1007.58 238.34 1011.95 248.5C1014.33 254.026 1015.72 257.491 1015.45 263.5C1015.23 268.564 1013.58 271.199 1011.95 276C1009.71 282.629 1004.95 288.595 1004.95 292.5C1004.95 296.405 1004.95 298.595 1004.95 302.5C1004.95 306.405 1009.07 309.003 1011.95 313C1015.45 317.848 1016.86 321.173 1021.45 325C1028.11 330.548 1035.95 339.751 1041.95 333.5C1046.42 328.852 1044.23 323.029 1041.95 317C1038.93 308.974 1029.82 309.886 1025.45 302.5C1023.31 298.879 1021.84 296.688 1021.45 292.5C1020.95 287.025 1025.45 279 1025.45 279C1025.45 279 1031.29 270.014 1032.95 263.5C1035.04 255.366 1037.52 249.047 1032.95 242C1028.77 235.55 1021.57 237.649 1015.45 233C1007.73 227.132 1001.99 222.396 999.453 214C996.915 205.604 995.492 200.896 992.953 192.5C990.415 184.104 991.125 183.359 992.953 178C994.58 173.231 998.971 172.316 1000.45 167.5C1001.83 163.021 1002.45 152.5 1002.45 152.5" stroke="#201806" stroke-width="5"/>
<path d="M940.453 13.9998C940.453 13.9998 956.016 7.86112 963.453 9.49975C968.341 10.5767 970.808 12.1365 975.453 13.9997C981.783 16.5388 988.008 15.1138 991.453 20.9997C994.412 26.0552 991.453 30.1419 991.453 35.9997C991.453 48.4965 995.416 56.148 991.453 67.9997C988.532 76.7348 983.21 79.8322 978.953 87.9997C975.883 93.8895 971.142 96.9077 971.953 103.5C972.784 110.249 978.155 112.18 982.953 117C986.076 120.137 987.189 123.309 991.453 124.5C997.93 126.308 1000.93 119.992 1006.95 117C1017.2 111.909 1024.28 110.96 1032.95 103.5C1041.1 96.4969 1039.4 85.2792 1049.45 81.4997C1056.03 79.0259 1060.54 80.2299 1067.45 81.4997C1076.74 83.2046 1089.45 91.4997 1089.45 91.4997C1094.53 96.186 1097.38 98.8135 1102.45 103.5C1102.45 103.5 1112.02 110.325 1118.95 113C1128.72 116.765 1135.96 112.6 1145.45 117C1150.32 119.254 1153.15 120.718 1156.95 124.5C1162.04 129.556 1163.4 133.801 1165.95 140.5C1169.55 149.918 1170.02 155.92 1169.95 166C1169.89 175.694 1169.03 181.305 1165.95 190.5C1161.25 204.576 1151.91 209.139 1145.45 222.5C1141.25 231.183 1140.08 236.563 1136.45 245.5C1131.58 257.496 1127.03 263.556 1123.45 276C1120.92 284.796 1128.72 294.509 1118.95 299C1109.19 303.491 1103.72 306.009 1093.95 310.5C1084.19 314.991 1090.93 286.385 1080.95 276C1074.87 269.669 1066.97 271.203 1061.95 264C1055.78 255.132 1059.53 247.288 1058.95 236.5C1058.4 226.165 1058.95 210 1058.95 210V202C1061.89 193.925 1073.25 198.188 1080.95 202C1088.17 205.572 1085.92 218.486 1093.95 218C1097.62 217.778 1099.23 215.756 1102.45 214C1109.45 210.185 1114.55 208.639 1118.95 202C1121.62 197.981 1121.05 194.682 1123.45 190.5C1129.04 180.764 1144.85 183.209 1145.45 172C1145.74 166.696 1143.32 163.972 1141.45 159C1139.03 152.54 1137.92 148.646 1133.95 143C1130.54 138.141 1128.84 134.499 1123.45 132C1117.25 129.124 1112.64 133.421 1105.95 132C1099.03 130.528 1096.02 127.149 1089.45 124.5C1081.04 121.102 1074.9 111.804 1067.45 117C1064.48 119.079 1064.1 121.571 1061.95 124.5C1059.81 127.429 1074.4 127.447 1080.95 132C1090.12 138.374 1096.94 143.877 1097.95 155C1098.57 161.792 1099.02 167.436 1093.95 172C1088 177.357 1080.62 175.559 1073.45 172C1067.38 168.987 1066.2 164.284 1061.95 159C1054.02 149.12 1050.02 143.126 1043.95 132M1043.95 132C1037.51 129.071 1034.4 125.831 1027.45 124.5C1021.89 123.434 1018.29 122.616 1012.95 124.5C1006.31 126.843 1001.3 130.087 999.953 137C999.505 139.3 999.953 143 999.953 143C999.953 143 998.316 148.339 999.953 151C1003.08 156.077 1007.65 145.716 1012.95 143C1018.41 140.207 1021.69 139.076 1027.45 137C1033.79 134.719 1037.51 133.952 1043.95 132Z" stroke="#201806" stroke-width="5"/>
<path d="M880.952 57C880.952 57 877.571 46.1162 877.952 39C878.241 33.607 878.676 30.398 880.952 25.5C883.754 19.4687 886.799 16.7044 891.952 12.5C897.434 8.02691 899.751 4 907.952 4C916.153 4 920.751 4 928.952 4C937.153 4 940.158 15.8744 941.452 25.5C943.032 37.2555 933.315 42.3766 930.952 54C929.31 62.0729 928.952 75 928.952 75V93.5V127.5C928.952 127.5 928.859 143.12 933.952 151C939.275 159.236 946.167 160.254 954.452 165.5C959.997 169.011 967.295 167.649 968.952 174C970.973 181.749 951.5 190.5 951.5 190.5M898.952 70C895.924 64.5342 900.322 60.0964 898.952 54C897.247 46.4129 887.793 44.0972 889.452 36.5C890.663 30.9546 894.179 28.5726 898.952 25.5C901.303 23.9866 905.452 22.5 905.452 22.5C905.452 22.5 911.478 20.2866 913.952 22.5C916.717 24.9738 913.777 28.2941 913.952 32C914.362 40.6899 917.314 45.3015 917.452 54C917.605 63.6638 923.424 76.5771 913.952 78.5C907.353 79.8396 902.214 75.8897 898.952 70Z" stroke="#201806" stroke-width="5"/>
<path d="M946.453 318.5L939.953 326C939.953 326 931.407 332.76 924.953 335C914.623 338.586 907.794 336.43 896.953 335C884.455 333.351 877.598 330.827 865.953 326C855.3 321.584 848.624 319.603 839.953 312C829.896 303.181 825.95 295.908 820.953 283.5C817.716 275.461 815.999 270.65 815.453 262C814.727 250.496 820.953 233 820.953 233C820.953 233 831.626 223.981 839.953 223C850.757 221.727 856.255 228.071 865.953 233C876.14 238.178 882.998 240.339 890.453 249C897.633 257.341 900.22 263.723 902.453 274.5C904.394 283.869 902.453 299 902.453 299C902.453 299 899.864 310.689 904.453 315C911.451 321.573 928.271 310.439 924.953 301.43M924.953 301.43C930.811 297.552 933.146 293.235 939.953 291.5C945.062 290.198 948.436 289.88 953.453 291.5C966.855 295.828 966.585 312.165 963.953 326C962.304 334.666 959.98 340.066 953.453 346C945.96 352.813 938.865 352.421 928.953 354.5C912.901 357.868 903.038 357.709 886.953 354.5C872.338 351.584 864.622 347.477 851.453 340.5C836.229 332.434 826.224 328.447 815.453 315C804.73 301.612 801.557 291.37 798.453 274.5C795.343 257.591 796.939 247.427 799.953 230.5C801.797 220.148 798.812 211.155 806.953 204.5C813.714 198.973 820.269 201.417 828.953 200.5C841.187 199.208 848.368 198.203 860.453 200.5C872.85 202.856 880.885 204.494 890.453 212.5C900.021 220.506 905.385 224.994 914.953 233C924.521 241.006 922.727 250.229 924.953 262C927.815 277.13 924.953 286.031 924.953 301.43Z" stroke="#201806" stroke-width="5"/>
<path d="M860.453 38L876.453 59C876.453 59 888.748 69.8481 894.453 78.5C899.889 86.7429 902.642 91.9004 904.953 101.5C907.786 113.27 902.453 120.655 904.953 132.5C907.517 144.643 910.831 151.336 917.953 161.5C925.642 172.473 933.187 175.826 942.953 185C955.64 196.917 967.289 200.128 975.453 215.5C981.052 226.042 980.738 233.376 983.453 245C988.718 267.538 994.203 280.389 992.953 303.5C992.014 320.863 987.735 330.147 983.453 347C981.96 352.876 982.406 356.705 979.453 362C976.426 367.428 974.573 372.419 968.453 373.5C958.262 375.3 965.587 356.944 968.453 347C970.195 340.958 973.515 338.482 975.453 332.5C979.847 318.94 975.453 310.254 975.453 296C975.453 285.261 977.091 279.114 975.453 268.5C973.993 259.036 972.232 253.799 968.453 245C963.046 232.409 959.917 224.347 949.453 215.5C942.313 209.463 935.412 210.245 928.453 204C923.596 199.641 922.403 195.774 917.953 191C913.242 185.946 911.068 182.216 904.953 179C901.127 176.988 891.953 176.5 891.953 176.5" stroke="#201806" stroke-width="5"/>
<path d="M789.953 59.4998C789.953 59.4998 806.999 57.4886 815.953 59.4998C820.592 60.5419 823.169 61.4365 827.453 63.4998C835.23 67.2453 839.738 70.1223 844.953 76.9998C847.28 80.0685 850.135 81.653 849.953 85.4998C849.62 92.5214 838.983 85.4998 831.953 85.4998C825.705 85.4998 822.01 87.0332 815.953 85.4998C809.426 83.8476 806.849 80.2509 800.953 76.9998C795.904 74.2157 785.953 69.5 785.953 69.5M777.453 80C782.725 80 787.724 83.1687 792.453 85.4998C797.894 88.1819 796.421 94.468 800.953 98.5C807.322 104.167 813.069 104.458 821.453 106C830.479 107.66 836.025 103.878 844.953 106C849.4 107.057 851.717 108.282 855.953 110C863.803 113.185 869.432 113.541 875.453 119.5C878.535 122.55 880.54 124.401 881.953 128.5C883.544 133.115 883.156 136.269 881.953 141C879.402 151.037 865.158 149.381 862.953 159.5C860.517 170.68 864.118 184.433 875.453 186C883.682 187.137 893.953 175.5 893.953 175.5" stroke="#201806" stroke-width="5"/>
<path d="M753.453 33.9999C753.453 33.9999 761.376 33.9999 766.453 33.9999C774.654 33.9999 779.252 33.9999 787.453 33.9999C794.092 33.9999 799.897 38.8288 804.453 33.9999C809.686 28.4537 802.437 22.2093 799.953 14.9999C796.454 4.84454 791.842 0.303499 787.453 -9.50005C781.42 -22.9752 776.113 -30.3297 774.453 -45C773.663 -51.9849 772.501 -54.799 774.453 -63C776.406 -71.2011 777.501 -75.799 779.453 -84.0001C779.453 -84.0001 793.325 -96.7549 804.453 -100C815.513 -103.225 822.67 -102.326 833.953 -100C841.453 -98.4541 845.565 -96.8459 852.453 -93.5001C864.116 -87.8351 872.901 -84.9662 878.953 -73.5001C882.601 -66.5884 883.1 -61.8075 883.453 -54C883.892 -44.2821 881.161 -38.9741 878.953 -29.5001C877.115 -21.611 874.193 -17.5666 873.453 -9.50005C872.683 -1.10279 876.302 3.61028 875.453 11.9999C874.545 20.9701 875.678 28.607 868.453 33.9999C863.327 37.8258 858.846 37.7148 852.453 37.4999C840.928 37.1125 831.483 33.8771 826.453 23.4999C822.706 15.7689 826.453 10.0915 826.453 1.49995M826.453 1.49995C827.67 -7.68187 829.418 -12.9245 833.953 -21.0001C840.444 -32.5569 847.131 -37.3473 857.953 -45C863.668 -49.0413 873.386 -47.0008 873.453 -54C873.492 -58.0206 870.992 -59.8825 868.453 -63C861.309 -71.7722 847.311 -69.3995 841.453 -73.5001C835.595 -77.6006 832.311 -79.8995 826.453 -84.0001C826.453 -84.0001 816.725 -85.8232 810.953 -84.0001C801.868 -81.1303 797.308 -75.4177 793.953 -66.5C790.997 -58.6415 791.805 -53.1169 793.953 -45C796.892 -33.8967 810.953 -21.0001 810.953 -21.0001C810.953 -21.0001 820.4 -7.28685 826.453 1.49995Z" stroke="#201806" stroke-width="5"/>
<path d="M646.446 9.99999C646.446 9.99999 646.446 -0.0563569 646.446 -6.50001C646.446 -15.0915 644.283 -20.1852 646.446 -28.5C648.647 -36.9617 652.871 -40.5492 657.446 -48C663.255 -57.4612 665.614 -63.6308 673.446 -71.5C676.374 -74.4424 677.891 -76.3557 681.446 -78.5C685.36 -80.8611 687.954 -81.6505 692.446 -82.5C697.626 -83.4798 700.674 -82.5 705.946 -82.5C711.999 -82.5 715.393 -82.5 721.446 -82.5C724.57 -82.5 727.309 -80.2208 729.446 -82.5C731.449 -84.6368 729.446 -87.0711 729.446 -90C729.446 -93.5147 728.278 -95.6851 729.446 -99C730.734 -102.656 732.397 -104.941 735.946 -106.5C741.374 -108.885 745.262 -104.879 750.446 -102C757.81 -97.9105 761.331 -93.8501 765.446 -86.5C768.462 -81.1121 771.207 -77.6276 770.446 -71.5C769.212 -61.5741 759.993 -58.4814 750.446 -55.5C742.618 -53.0555 737.632 -55.989 729.446 -55.5C720.21 -54.9484 715.191 -52.8359 705.946 -52.5C702.238 -52.3653 699.603 -54.4478 696.446 -52.5C692.866 -50.2917 693.46 -46.5821 692.446 -42.5C690.657 -35.2988 689.016 -30.0795 692.446 -23.5C695.533 -17.5775 700.502 -16.8698 705.946 -13C713.453 -7.66347 717.618 -4.43554 725.946 -0.500008C732.703 2.69342 738.602 0.775029 743.946 5.99999C747.756 9.72599 748.558 13.0159 750.446 18C752.224 22.6947 757.236 27.2084 753.446 30.5C750.645 32.9325 747.406 31.8386 743.946 30.5C739.56 28.8032 739.774 24.2312 735.946 21.5C730.312 17.4808 725.363 19.0902 718.946 16.5C713.682 14.3754 711.528 11.0297 705.946 9.99999C702.297 9.32698 696.446 9.99999 696.446 9.99999" stroke="#201806" stroke-width="5"/>
<path d="M682.953 46C682.953 46 685.689 55.6783 687.968 60.5C689.833 64.4475 689.439 67.9284 692.968 70.5C696.186 72.8457 699.054 73.2361 702.968 72.5C707.883 71.5757 708.133 65.7796 712.968 64.5C714.859 63.9994 716.462 65.2669 717.953 64C719.617 62.5865 718.953 58.5 718.953 58.5M634.453 42C634.453 42 632.07 55.4338 628.953 60.5C626.332 64.7595 624.049 66.5722 620.953 70.5C618.197 73.997 618.108 77.8995 613.953 79.5C607.174 82.111 604.586 73.0873 598.953 68.5C596.161 66.2263 589.453 64.5 589.453 64.5M735.453 65.5C728.953 72 729.782 69.7815 724.953 70.5C721.768 70.974 719.758 70.9182 716.953 72.5C712.701 74.8978 713.536 79.8243 709.453 82.5C705.886 84.8375 703.188 84.9999 698.953 85.5C695.85 85.8664 693.647 83.918 690.953 85.5C687.277 87.6587 689.98 92.2416 687.968 96C686.327 99.065 683.881 99.8238 682.468 103C681.019 106.255 680.968 112 680.968 112M664.453 50.5C661.282 52.9774 662.91 56.5331 661.968 60.5C660.87 65.1224 659.737 67.7547 659.968 72.5C660.375 80.8773 660.988 89.4174 668.968 92C672.312 93.0823 674.912 93.7358 677.968 92C680.652 90.4753 681.444 88.4127 682.468 85.5C684.162 80.6787 683.251 77.0721 680.968 72.5C679.054 68.6687 676.127 67.8566 673.468 64.5C669.496 59.4866 669.577 46.4967 664.453 50.5Z" stroke="#201806" stroke-width="5"/>
<path d="M567.953 -4.49994C567.953 -4.49994 579.228 -4.49994 586.453 -4.49994C592.506 -4.49994 596.113 -6.09089 601.953 -4.49994C607.608 -2.95946 609.784 0.236739 614.953 3.00006C621.268 6.37627 624.599 8.92614 631.453 11.0001C638.061 12.9994 642.107 14.3885 648.953 13.5001C652.571 13.0306 654.533 12.2677 657.953 11.0001C664.017 8.7526 666.093 4.17326 672.453 3.00006C682.169 1.20785 688.063 5.78429 696.453 11.0001C700.934 13.7853 702.577 16.5529 706.953 19.5001C715.8 25.4586 722.32 25.9203 731.953 30.5001C745.916 37.1382 752.712 42.982 766.953 49.0001C775.374 52.5586 787.876 47.9219 788.953 57.0001C789.434 61.0488 787.639 63.2879 785.953 67.0001C783.691 71.9811 782.403 75.3171 777.953 78.5001C767.784 85.7742 758.769 74.5863 746.953 70.5001C734.643 66.2429 728.856 60.9802 716.453 57.0001C708.787 54.54 704.034 54.7092 696.453 52.0001C690.199 49.7651 687.442 46.4182 680.953 45.0001C674.277 43.5409 670.266 45.5454 663.453 45.0001C654.139 44.2544 648.884 43.2482 639.953 40.5001M639.953 40.5001C632.728 36.5948 628.998 33.7449 621.453 30.5001C613.171 26.9378 607.759 27.0067 599.453 23.5001C591.728 20.2389 580.453 13.5001 580.453 13.5001M639.953 40.5001C632.728 42.2574 628.844 44.1919 621.453 45.0001C615.242 45.6792 612.873 43.438 605.453 45.0001C598.033 46.5622 594.873 45.9379 587.453 47.5" stroke="#201806" stroke-width="5"/>
<path d="M532.453 -9C532.453 -9 527.267 -6.66763 525.477 -5C522.793 -2.49944 521.715 -0.16095 521.477 3.5C521.132 8.81844 524.558 11.4118 527.977 15.5C530.64 18.6844 532.956 19.6528 535.977 22.5C540.299 26.5731 542.665 28.9465 546.477 33.5C549.611 37.243 550.617 39.9592 553.977 43.5C558.092 47.8354 571.453 47 571.453 47" stroke="#201806" stroke-width="5"/>
<path d="M574.955 -122.998C574.955 -122.998 579.852 -116.576 584.455 -115.498C586.926 -114.92 588.483 -114.919 590.955 -115.498C597.724 -117.084 596.383 -125.339 601.955 -129.498C607.359 -133.533 611.211 -136.074 617.955 -135.998C624.518 -135.925 627.88 -132.964 633.455 -129.498C640.259 -125.268 644.592 -122.519 648.455 -115.498C652.648 -107.876 653.249 -102.101 651.955 -93.4984C650.951 -86.8291 647.595 -83.8941 645.455 -77.4984C643.275 -70.9857 644.245 -66.5265 640.955 -60.4984C636.317 -52.0008 630.141 -49.8831 622.455 -43.9984C615.746 -38.8628 610.707 -37.6802 604.455 -31.9984C598.293 -26.3991 597.785 -20.2592 590.955 -15.4984C585.422 -11.6418 581.3 -11.282 574.955 -8.99836C569.551 -7.0538 566.557 -5.75944 560.955 -4.49837C553.676 -2.86001 548.719 0.649428 541.955 -2.49837C537.448 -4.59546 534.416 -6.7476 532.955 -11.4984C531.139 -17.4 534.771 -21.2078 537.955 -26.4984C541.159 -31.8232 543.256 -35.5178 548.955 -37.9984C556.152 -41.1314 559.191 -32.8742 568.955 -35.9984C578.718 -39.1226 584.191 -40.8742 593.955 -43.9984C603.718 -47.1226 604.455 -56.9984 604.455 -56.9984C604.455 -56.9984 616.076 -65.7629 622.455 -72.4984C627.131 -77.4361 629.67 -80.3478 633.455 -85.9984C636.81 -91.0095 640.54 -93.4816 640.955 -99.4984C641.429 -106.383 638.919 -111.284 633.455 -115.498C629.835 -118.29 627.026 -119.498 622.455 -119.498C617.884 -119.498 615.194 -118.127 611.455 -115.498C608.058 -113.111 601.721 -110.623 604.455 -107.498C607.188 -104.374 608.721 -102.623 611.455 -99.4984C614.188 -96.3742 618.687 -92.4035 623.455 -87.9984C625.586 -86.0283 628.955 -82.9984 628.955 -82.9984" stroke="#201806" stroke-width="5"/>
<path d="M589.454 59.5V47H568.954V76.5C568.954 81.3816 567.756 84.2678 568.954 89C571.195 97.8502 577.767 100.285 584.454 106.5C592.436 113.918 598.599 116.006 606.954 123C610.349 125.841 615.454 130.5 615.454 130.5L624.454 116C624.454 116 622.707 112.901 621.454 111C618.4 106.365 616.456 103.847 612.454 100C606.988 94.7449 601.364 94.7782 596.454 89C592.831 84.7365 590.987 81.8808 589.454 76.5C587.636 70.1151 589.454 66.1389 589.454 59.5Z" stroke="#201806" stroke-width="5"/>
<path d="M557.953 257.5C557.953 257.5 570.969 259.208 573.953 253.5C577.189 247.309 568.152 244.131 565.953 237.5C564.627 233.499 561.605 230.788 563.453 227C564.67 224.506 568.953 222.5 568.953 222.5" stroke="#201806" stroke-width="5"/>
<path d="M535.95 240.5C535.95 240.5 532.861 232.329 533.45 227C533.979 222.207 535.676 219.753 537.95 215.5C541.486 208.884 544.067 205.156 549.95 200.5C553.995 197.299 556.683 195.974 561.45 194C566.133 192.06 568.905 190.005 573.95 190.5C577.703 190.869 579.998 191.654 582.95 194C586.647 196.939 588.105 199.854 588.95 204.5C589.404 206.998 588.95 211 588.95 211" stroke="#201806" stroke-width="5"/>
<path d="M554.948 266C554.948 266 565.392 267.043 571.948 266C577.379 265.137 580.527 264.454 585.448 262C591.781 258.843 596.989 257.134 599.448 250.5C601.145 245.923 600.896 242.662 599.448 238C595.901 226.575 578.237 234.678 571.948 224.5C569.546 220.612 566.446 217.817 567.948 213.5C570.195 207.046 579.065 215.942 585.448 213.5C589.394 211.991 592.172 211.059 594.448 207.5C597.5 202.73 594.448 198.663 594.448 193C594.448 186.166 593.114 182.203 594.448 175.5C596.188 166.764 600.139 162.796 604.448 155C606.863 150.633 608.675 148.442 610.948 144C614.583 136.899 613.695 131.406 618.448 125C624.034 117.472 628.965 113.68 637.948 111C645.807 108.656 650.764 110.478 658.948 111C667.795 111.564 667.975 114 681.448 114C694.921 114 702.475 114 715.948 114C715.948 114 739.959 109.984 754.448 114C759.69 115.453 763.65 115.107 767.448 119C771.589 123.244 771.065 127.637 771.948 133.5C772.821 139.293 774.554 143.254 771.948 148.5C767.545 157.366 757.345 154.814 747.448 155C736.795 155.201 731.603 148.674 720.948 148.5C709.534 148.314 703.599 152.555 692.448 155C679.393 157.863 671.612 157.728 658.948 162C650.494 164.852 645.907 166.966 637.948 171C630.063 174.998 620.324 173.861 618.448 182.5C617.191 188.294 623.484 191.095 622.948 197C622.228 204.935 611.956 205.597 610.948 213.5C609.94 221.413 617.257 224.613 618.448 232.5C619.95 242.439 617.66 248.321 614.948 258C612.188 267.851 611.297 274.4 604.448 282C598.574 288.52 593.961 291.866 585.448 294C578.819 295.662 574.764 293.491 567.948 294C560.457 294.56 556.438 296.424 548.948 297C541.745 297.554 536.476 300.983 530.448 297C524.984 293.39 518.063 292.038 518.453 285.5" stroke="#201806" stroke-width="5"/>
<path d="M544.949 195.5C544.949 195.5 557.981 193.91 563.448 190.5C567.493 187.977 568.29 184.75 570.448 180.5C574.766 171.998 577.676 165.637 574.948 156.5C573.367 151.205 570.877 148.834 567.448 144.5C563.85 139.952 560.189 138.809 556.948 134C552.668 127.65 552.355 122.917 550.448 115.5C548.09 106.326 547.522 100.954 546.948 91.5C546.534 84.6784 546.948 80.8342 546.948 74M546.948 74C550.853 70.4853 552.377 67.5904 556.948 65C561.732 62.289 570.448 61 570.448 61M546.948 74C542.156 75.3886 539.476 76.9717 535.948 80.5C532.42 84.0283 531.412 86.9129 529.448 91.5C526.389 98.6465 526.29 103.272 525.448 111C524.476 119.929 524.115 125.118 525.448 134C526.376 140.182 529.448 149.5 529.448 149.5" stroke="#201806" stroke-width="5"/>
<path d="M423.953 217.5C423.953 217.5 428.355 209.481 430.953 206.5C433.5 203.579 435.096 201.938 438.453 200C442.844 197.466 449.953 194 449.953 194M467.453 188C467.453 188 475.023 184.13 477.453 179C480.56 172.443 481.167 168.191 484.953 162C486.564 159.367 487.555 157.935 489.453 155.5M489.453 155.5C491.21 152.962 491.696 151.107 493.953 149C498.973 144.314 504.086 144.549 510.953 144.5C518.009 144.451 522.543 145.145 528.453 149C535.259 153.44 538.568 158.096 540.453 166C541.631 170.939 540.277 173.927 540.453 179C540.828 189.797 549.133 197.311 543.453 206.5C540.836 210.735 538.511 212.998 533.953 215C524.173 219.297 513.786 215.45 507.953 206.5C502.054 197.45 513.437 189.514 510.953 179C509.246 171.777 507.93 167.011 502.453 162C498.265 158.169 494.53 158.039 489.453 155.5ZM508.953 193C505.438 197.101 501.265 195.12 498.953 200C495.192 207.941 496.54 214.051 498.953 222.5C499.939 225.952 500.723 227.855 502.453 231M502.453 231C496.791 230.219 493.507 230.352 487.953 229C481.047 227.32 477.833 224.286 470.953 222.5C464.832 220.912 459.929 216.097 454.953 220C451.357 222.822 451.519 226.465 450.953 231C450.086 237.957 451.037 242.686 454.953 248.5C459.933 255.894 467.281 254.962 474.953 259.5C484.556 265.181 489.4 269.236 498.953 275C503.598 277.803 506.937 278.353 510.953 282C512.898 283.767 512.978 286.119 515.453 287C520.564 288.82 518.638 278.857 522.453 275C526.151 271.263 529.13 270.093 533.953 268C541.964 264.525 552.658 272.087 555.953 264C557.427 260.384 557.032 257.754 555.953 254C553.223 244.504 542.925 245.642 533.953 241.5C522.18 236.066 514.755 235.101 502.453 231Z" stroke="#201806" stroke-width="5"/>
<path d="M376.953 210C376.953 210 379.093 203.573 381.453 200C383.966 196.196 385.589 193.918 389.453 191.5C393.751 188.811 397.379 190.186 401.953 188C406.992 185.592 409.172 183.087 413.453 179.5C418.005 175.686 421.148 173.934 424.453 169C427.723 164.12 429.953 155 429.953 155C429.953 155 429.453 146.14 429.953 140.5C430.569 133.558 433.453 123 433.453 123" stroke="#201806" stroke-width="5"/>
<path d="M420.453 61.5C420.453 61.5 428.424 61.459 431.453 64C433.818 65.9842 434.996 67.5647 435.953 70.5C436.742 72.9206 436.337 74.4568 436.453 77C436.622 80.7062 436.172 82.8008 436.453 86.5C437.032 94.1033 439.221 98.0741 440.953 105.5C442.137 110.574 446.776 114.121 443.953 118.5C441.233 122.719 436.448 120.999 431.453 121.5C427.762 121.87 425.643 121.115 421.953 121.5C416.111 122.11 411.007 120.823 407.453 125.5C403.909 130.164 407.453 134.642 407.453 140.5C407.453 145.967 410.895 150.252 407.453 154.5C404.053 158.696 398.791 159.9 393.953 157.5C388.853 154.971 389.598 149.576 388.453 144C387.196 137.879 389.805 134.1 388.453 128C387.355 123.043 383.453 116 383.453 116" stroke="#201806" stroke-width="5"/>
<path d="M357.953 98C357.953 98 347.558 95.7778 340.965 95C330.172 93.7269 324.57 90.5021 314.465 86.5C305.45 82.9295 300.238 81.0583 291.965 76C285.768 72.2106 276.574 72.2536 276.965 65C277.187 60.887 279.237 58.5586 282.465 56C288.28 51.3912 301.465 56 301.465 56L317.965 65C317.965 65 326.303 74.0507 333.465 76C338.929 77.4872 347.965 76 347.965 76C347.965 76 359.559 73.1059 365.965 76C370.131 77.8822 374.953 83.5 374.953 83.5" stroke="#201806" stroke-width="5"/>
<path d="M384.449 74.5C384.449 74.5 381.659 69.4356 380.449 67.0003C377.788 61.6482 374.01 60.1339 370.949 55.0003C367.086 48.5222 364.957 44.4749 363.949 37.0003C363.375 32.743 364.73 34.3965 363.949 26.0003C363.168 17.604 362.73 12.8965 361.949 4.50027C361.168 -3.896 364.563 -5.98733 368.449 -11.4997C372.111 -16.6958 375.913 -18.045 380.449 -22.4997C386.165 -28.1146 387.514 -33.4848 394.449 -37.4997C399.258 -40.2842 402.492 -40.9493 407.949 -41.9997C415.81 -43.513 420.499 -42.9463 428.449 -41.9997C434.191 -41.316 438.003 -41.9963 442.949 -38.9997C447.568 -36.2011 450.726 -33.7602 451.949 -28.4997C452.981 -24.0597 452.172 -20.9792 449.949 -16.9997C446.369 -10.592 439.886 -11.5255 433.449 -7.99973C423.867 -2.75216 419.715 3.64797 408.949 5.50027C403.368 6.46042 399.789 7.38422 394.449 5.50027C387.807 3.15707 387.961 -9.68062 381.449 -6.99973C376.517 -4.96966 377.149 0.303987 375.949 5.50027C374.498 11.7785 375.109 15.6116 375.949 22.0003C376.819 28.6223 376.889 32.849 380.449 38.5003C383.69 43.6459 388.009 44.3676 391.949 49.0003C395.597 53.2908 399.949 61.0003 399.949 61.0003L402.449 67.0003" stroke="#201806" stroke-width="5"/>
<path d="M406.449 53.5C406.449 53.5 399.666 51.0281 397.948 48.4999C395.973 45.5924 396.497 42.7011 397.948 39.4999C399.435 36.2205 401.965 35.5161 404.948 33.4999C409.877 30.1689 412.895 26.3283 418.948 27.4999C425.001 28.6714 428.395 29.3283 434.448 30.4999C440.501 31.6714 447.743 35.6398 452.948 42.4999C457.245 48.1619 457.539 52.6534 459.448 59.4999C464.955 79.2489 456.347 91.7332 459.448 112C460.23 117.11 459.632 120.378 461.948 125C465.365 131.817 474.459 130.292 476.948 137.5C479.424 144.667 474.407 149.059 472.948 156.5C470.509 168.943 470.24 176.131 467.448 188.5C466.208 193.997 469.307 200.755 463.948 202.5C459.204 204.045 456.442 199.563 452.948 196C448.298 191.257 452.162 182.847 445.948 180.5C442.843 179.327 440.599 179.455 437.448 180.5C429.977 182.977 433.959 192.549 429.448 199C426.045 203.867 419.311 204.072 418.948 210C418.628 215.248 424.582 213.104 425.948 221.5C427.315 229.896 428.082 234.604 429.448 243C430.815 251.396 421.22 243 415.948 243C414.386 243 411.948 243 411.948 243" stroke="#201806" stroke-width="5"/>
<path d="M204.449 425C204.449 425 207.757 449.74 205.948 462.5C204.299 474.132 206.247 483.184 197.948 491.5C193.5 495.957 190.076 500.947 183.948 499.5C175.206 497.437 185.951 485.256 183.948 476.5C180.891 463.142 173.971 457.313 164.948 447C153.22 433.595 146.522 421.891 128.948 419C122.975 418.017 119.495 418.739 113.448 419C99.6536 419.597 92.1522 425.681 78.4479 424C71.0196 423.089 65.2122 413.681 59.9479 419C55.69 423.303 61.042 428.547 59.9479 434.5C57.5789 447.39 48.151 451.238 41.4479 462.5C34.88 473.535 37.4961 485.884 25.9479 491.5C17.3435 495.684 8.11856 498.359 1.44785 491.5C-7.15036 482.659 9.30178 473.924 13.9479 462.5C21.628 443.616 19.0324 429.273 31.9479 413.5C38.0811 406.01 42.5955 402.662 50.4479 397C60.5098 389.745 66.5434 385.488 78.4479 382C94.7503 377.224 105.302 378.61 121.948 382C137.226 385.112 145.253 389.546 158.948 397C169.222 402.592 190.949 416 190.949 416M316.949 197C316.949 197 316.949 177.287 316.949 168.5C316.949 157.761 313.701 151.237 316.949 141C320.493 129.833 326.925 125.536 334.949 117C346.585 104.622 356.679 101.705 369.449 90.5002C376.095 84.6691 378.612 79.9318 385.949 75.0002C391.747 71.1033 397.512 72.3957 401.949 67.0002C405.754 62.374 402.108 56.0277 406.949 52.5002C415.398 46.344 423.317 64.715 421.449 75.0002C419.968 83.1557 412.666 84.4978 406.949 90.5002C398.855 98.9994 395.205 104.784 385.949 112C377.181 118.836 372.374 124.437 361.449 126.5C355.501 127.623 350.792 122.869 345.949 126.5C340.402 130.66 342.736 137.07 342.949 144C343.212 152.525 347.663 156.568 348.949 165C350.48 175.038 351.949 197 351.949 197" stroke="#201806" stroke-width="5"/>
<path d="M273.453 219.5C273.453 219.5 277.982 212.74 281.953 209.5C287.3 205.137 291.391 204.134 297.953 202C306.593 199.19 311.896 199.217 320.953 198.5C330.88 197.715 336.535 197.605 346.453 198.5C354.734 199.248 360.288 197.782 367.453 202C374.891 206.379 374.461 213.812 380.953 219.5C386.947 224.753 392.206 225.051 398.453 230C404.84 235.059 408.477 238.193 412.953 245C416.94 251.063 417.204 255.512 420.453 262C423.663 268.41 425.631 271.935 429.453 278C432.225 282.399 435.047 284.163 436.953 289C444.971 309.347 392.06 307.839 380.953 289C377.657 283.409 377.944 279.317 376.453 273C374.359 264.127 377.232 257.764 372.453 250C367.622 242.151 360.793 241.575 353.453 236C345.147 229.692 342.606 221.887 332.453 219.5C326.941 218.204 322.611 216.28 317.953 219.5C314.145 222.132 314.771 225.993 312.453 230C308.928 236.095 306.723 239.403 302.453 245" stroke="#201806" stroke-width="5"/>
<path d="M162.5 113.5C170.896 115.843 181.454 116.043 188.945 120.5C194.883 124.033 197.517 127.197 201.945 132.5C205.278 136.491 205.567 140.037 209.445 143.5C214.936 148.402 221.534 145.51 226.945 150.5C232.79 155.89 233.951 161.191 235.445 169C236.62 175.137 232.113 179.714 235.445 185M235.445 185C238.429 189.733 244.485 187.603 247.945 192C250.886 195.737 251.932 198.745 251.945 203.5M235.445 185C235.445 185 230.384 188.968 222.445 185C216.255 181.906 212.308 180.888 205.445 180C193.093 178.402 184.287 178.059 173.945 185C166.324 190.116 164.801 196.045 159.445 203.5C153.6 211.638 140.381 216.355 145.445 225C148.535 230.274 151.478 234.266 156.945 237C166.318 241.686 174.33 248.834 183.945 253C197.771 258.989 201.181 254.647 215.445 259.5C229.3 264.213 242.192 262.294 255.445 268.5C262.488 271.798 276.692 271.186 272.945 278C270.757 281.98 264.908 279.184 262.445 283C259.904 286.938 260.35 290.808 262.445 295C266.637 303.383 277.093 294.382 286.445 295C295.484 295.597 300.403 297.471 309.445 298C316.853 298.433 321.2 299.6 328.445 298C339.4 295.581 344.273 290.117 352.945 283C359.136 277.92 363.915 275.688 367.445 268.5C369.243 264.84 370.831 262.559 370.445 258.5C369.725 250.909 363.056 246.472 355.445 246C345.799 245.401 346.468 258.942 337.945 263.5C330.176 267.655 324.718 267.685 315.945 268.5C309.724 269.078 305.895 270.41 299.945 268.5C293.699 266.494 291.717 262.405 286.445 258.5M251.945 203.5C256.046 207.601 258.054 210.213 262.445 214C268.066 218.848 277.945 225 277.945 225C277.945 225 286.968 232.099 292.445 237C295.431 239.672 298.08 240.454 299.945 244C302.581 249.012 304.09 254.641 299.945 258.5C296.087 262.092 291.717 258.5 286.445 258.5M251.945 203.5C250.383 206.038 250.096 207.936 247.945 210C242.028 215.678 232.863 215.678 226.945 210M286.445 258.5C283.068 255.839 281.205 254.305 277.945 251.5C271.662 246.094 268.108 238.953 262.445 237C256.783 235.047 253.608 233.953 247.945 232C242.283 230.047 238.024 228.837 231.445 228.5C222.757 228.054 218.11 232.774 209.445 232C201.019 231.247 188.783 233.458 188.945 225C189.054 219.325 194.735 218.296 198.445 214M198.445 214C209.575 212.438 215.815 211.562 226.945 210M198.445 214C198.445 209.899 198.445 203.5 198.445 203.5C200.924 199.659 204.951 200.335 209.445 199.5C214.437 198.573 218.33 196.528 222.445 199.5C226.062 202.112 225.188 205.899 226.945 210" stroke="#201806" stroke-width="5"/>
<path d="M206.952 293.5C206.952 299.944 205.965 303.632 206.952 310C208.401 319.352 221.095 324.556 215.952 332.5C211.679 339.099 204.312 337.364 196.452 337.5C188.023 337.645 183.82 333.525 175.452 332.5C166.343 331.384 161.097 333.268 151.952 332.5C143.475 331.788 137.895 333.119 130.452 329C125.372 326.189 121.987 324.223 119.452 319C115.569 311 119.122 304.525 122.952 296.5C126.821 288.392 132.958 286.608 138.452 279.5C143.188 273.373 146.006 269.936 149.452 263C152.502 256.86 157.953 239 157.953 239C157.953 239 128.794 272.06 140.452 281C144.225 283.894 147.733 282.807 151.952 285C161.141 289.777 160.707 300.494 170.452 304C177.985 306.71 183.305 306.371 190.952 304C198.09 301.787 202.081 299.168 206.952 293.5ZM206.952 293.5C200.703 293.5 197.116 294.522 190.952 293.5C182.402 292.083 175.723 291.879 170.452 285C165.956 279.133 158.837 271.577 166.452 266.5C174.067 261.423 178.337 258.577 185.952 253.5M206.952 293.5C207.928 288.033 209.452 279.5 209.452 279.5C211.99 271.885 213.413 267.615 215.952 260M226.452 260V281V300.5C226.452 300.5 225.694 309.388 226.452 315C227.411 322.099 228.676 326.129 231.952 332.5C234.33 337.124 239.334 338.302 239.452 343.5C239.664 352.88 229.23 343.423 215.952 348.5C202.674 353.577 181.952 361.5 181.952 361.5C181.952 361.5 171.112 365.149 163.953 365C154.321 364.8 150.303 360.415 140.452 357.5C131.896 354.968 119.452 348.5 119.452 348.5C119.452 348.5 103.228 336.403 98.9519 325C96.052 317.267 96.0543 312.249 96.4519 304C96.8964 294.775 101.357 290.216 101.952 281C102.178 277.493 101.952 272 101.952 272" stroke="#201806" stroke-width="5"/>
<path d="M78.448 239.5C78.448 239.5 70.6756 254.169 61.948 259C55.7742 262.417 51.5023 263.324 44.448 263.5C36.635 263.695 31.9362 255.501 24.948 259C16.5201 263.22 16.912 273.422 19.448 282.5C20.9349 287.823 26.948 294.5 26.948 294.5C33.0011 298.405 36.3948 300.595 42.448 304.5C48.5011 308.405 54.6298 304.746 61.948 302.5C74.4921 298.649 79.0166 291.076 88.948 282.5C99.921 273.024 107.928 268.685 114.948 256C117.915 250.638 118.187 246.971 120.948 241.5C123.83 235.79 129.366 233.896 129.448 227.5C129.524 221.562 126.792 218.049 122.448 214C118.228 210.066 108.948 208 108.948 208" stroke="#201806" stroke-width="5"/>
<path d="M112.447 198.5C112.447 198.5 111.438 200.328 110.792 201.5M110.792 201.5C105.19 211.653 105.085 219.762 96.4471 227.5C84.03 238.623 68.8992 246.624 54.9471 237.5C48.4103 233.225 42.9471 221.5 42.9471 221.5C42.9471 221.5 37.9295 209.136 39.9471 201.5C43.0009 189.942 58.5126 193.147 63.9471 182.5C66.7891 176.932 65.2419 172.636 67.9471 167C74.0834 154.216 83.7022 150.717 96.4471 144.5C106.331 139.678 112.649 138.585 123.447 136.5C144.536 132.426 159.546 126.297 178.447 136.5C190.233 142.862 208.324 148.964 202.447 161C197.541 171.049 181.267 158.137 174.447 167C170.603 171.995 174.773 178.446 169.947 182.5C163.055 188.289 156.427 176.875 147.447 177.5C138.51 178.122 133.396 180.523 125.947 185.5C118.791 190.281 115.178 194.095 110.792 201.5ZM46.9453 218.5C51.6688 230.49 61.5139 227.447 72.9471 221.5C87.0502 214.164 81.2986 197.303 91.9471 185.5C104.218 171.899 144.124 174.685 131.947 161C128.051 156.621 124.69 154.673 118.947 153.5C109.872 151.646 103.8 155.368 96.4471 161C87.6985 167.7 89.0474 176.675 82.4471 185.5C77.3964 192.252 74.1055 195.739 67.9471 201.5C58.1333 210.679 42.0201 205.997 46.9453 218.5Z" stroke="#201806" stroke-width="5"/>
<path d="M37.947 82C33.8668 81.5923 27.447 82 27.447 82C27.447 82 17.9648 101.539 22.947 112.5C26.3184 119.917 30.2847 124.231 37.947 127C47.0644 130.295 52.9357 121.124 62.447 123C70.7645 124.64 73.7089 130.037 81.447 133.5C85.849 135.47 88.1912 137.2 92.947 138C101.406 139.423 106.408 136.494 114.447 133.5C122.392 130.542 125.619 126.256 133.447 123C143.679 118.744 155.755 125.791 160.947 116C162.104 113.818 162.119 112.327 162.947 110C168.184 95.2789 179.83 77.6836 188.027 66.3109C193.367 58.9008 194.964 49.1039 189.995 41.4396C185.778 34.936 179.962 28.2009 173.447 27C160.27 24.5709 162.947 27 162.947 27C162.947 27 177.654 61.8459 162.947 66.5C158.293 67.9728 153.587 62.7622 150.447 66.5C147.81 69.6398 151.111 72.9536 150.447 77C148.613 88.1775 144.23 97.0327 133.447 100.5C127.87 102.293 118.447 100.5 118.447 100.5C118.447 100.5 107.975 86.1036 97.947 84.5C94.6692 83.9759 91.8603 82.2208 89.447 84.5C86.8918 86.9133 88.5949 90.0901 89.447 93.5C91.4958 101.698 105.947 107.5 105.947 107.5C105.947 107.5 89.7391 111.458 79.447 110C60.0896 107.258 57.4007 83.9441 37.947 82Z" stroke="#201806" stroke-width="5"/>
<path d="M292.953 295C292.953 295 292.953 311.456 292.953 322C292.953 329.615 295.602 342.563 293.966 350C292.032 358.785 287.667 362.547 283.466 370.5C277.424 381.937 277.062 390.827 267.466 399.5C264.249 402.407 259.788 401.871 258.466 406C256.391 412.477 267.419 411.942 271.966 417C275.623 421.069 280.764 423.088 279.966 428.5C278.954 435.351 270.248 433.599 263.466 435C255.434 436.659 249.568 439.1 242.466 435C235.418 430.931 238.593 421.722 231.966 417C228.038 414.202 225.288 412.466 220.466 412.5C212.537 412.556 212.393 425.183 204.466 425C198.339 424.858 191.675 423.087 190.966 417C190.309 411.362 197.236 410.668 200.466 406C204.341 400.398 205.64 396.698 208.466 390.5C210.827 385.32 209.659 380.723 213.966 377C220.17 371.637 227.216 379.683 234.966 377C239.681 375.368 242.648 374.227 245.966 370.5C250.692 365.191 249.379 359.928 250.966 353C252.47 346.429 253.357 342.714 253.966 336C254.617 328.805 255.64 324.528 253.966 317.5C251.605 307.594 246.502 303.309 239.966 295.5C237.04 292.005 235.244 290.167 231.966 287C229.878 284.983 226.466 282 226.466 282" stroke="#201806" stroke-width="5"/>
</svg>
