<svg width="1210" height="1209" viewBox="0 0 1210 1209" fill="none" xmlns="http://www.w3.org/2000/svg">
<path d="M584.341 422.984C678.617 426.919 763.768 456.391 825.226 500.729C886.697 545.078 924.244 604.104 924.029 667.243C923.813 730.382 885.874 786.258 824.118 825.463C762.376 864.659 677.048 887.016 582.772 883.081C488.496 879.146 403.345 849.673 341.887 805.335C280.416 760.986 242.869 701.96 243.084 638.821C243.3 575.682 281.239 519.806 342.995 480.601C404.737 441.405 490.065 419.048 584.341 422.984Z" stroke="#201806" stroke-width="5"/>
<path d="M585.739 458.243C667.68 461.663 741.674 486.856 795.064 524.692C848.472 562.541 881.02 612.831 880.837 666.531C880.654 720.23 847.772 767.789 794.121 801.169C740.488 834.538 666.343 853.549 584.403 850.129C502.462 846.708 428.468 821.515 375.078 783.679C321.67 745.83 289.122 695.54 289.305 641.84C289.488 588.141 322.37 540.582 376.021 507.202C429.654 473.833 503.799 454.822 585.739 458.243Z" fill="#F4EDDB" stroke="#201806" stroke-width="5"/>
<path d="M720.607 694.857C749.627 716.166 756.441 755.9 736.128 783.564C715.816 811.228 675.863 816.623 646.843 795.315C617.824 774.006 611.009 734.272 631.322 706.608C651.635 678.944 691.587 673.549 720.607 694.857Z" stroke="#201806" stroke-width="5"/>
<path d="M714.127 703.681C738.072 721.263 743.672 754.027 726.937 776.818C710.202 799.61 677.264 804.076 653.32 786.494C629.375 768.912 623.774 736.148 640.509 713.357C657.245 690.565 690.182 686.099 714.127 703.681Z" stroke="#201806" stroke-width="5"/>
<path d="M549.011 691.247C581.332 714.98 588.937 759.249 566.296 790.083C543.656 820.916 499.141 826.915 466.82 803.183C434.498 779.45 426.894 735.181 449.534 704.347C472.174 673.514 516.69 667.515 549.011 691.247Z" stroke="#201806" stroke-width="5"/>
<path d="M541.821 701.039C568.51 720.636 574.767 757.169 556.097 782.595C537.428 808.021 500.698 812.989 474.009 793.392C447.32 773.796 441.063 737.263 459.733 711.837C478.402 686.411 515.133 681.443 541.821 701.039Z" stroke="#201806" stroke-width="5"/>
<path d="M430.011 568.247C462.332 591.98 469.937 636.249 447.296 667.083C424.656 697.916 380.141 703.915 347.82 680.183C315.498 656.45 307.894 612.181 330.534 581.347C353.174 550.514 397.69 544.515 430.011 568.247Z" stroke="#201806" stroke-width="5"/>
<path d="M422.821 578.039C449.51 597.636 455.767 634.169 437.097 659.595C418.428 685.021 381.698 689.989 355.009 670.392C328.32 650.796 322.063 614.263 340.733 588.837C359.402 563.411 396.133 558.443 422.821 578.039Z" fill="#F4EDDB" stroke="#201806" stroke-width="5"/>
<path d="M534.331 538.897C534.331 538.897 521.128 558.473 512.912 571.176C501.894 588.211 495.371 597.574 485.39 615.237C476.415 631.121 471.725 640.243 464.032 656.786M464.032 656.786C456.641 670.592 454.139 679.346 445.106 692.138C438.884 700.949 427.322 713.268 427.322 713.268M464.032 656.786C472.347 658.277 477.368 658.244 485.663 656.644C502.493 653.396 508 641.914 522.589 632.916C536.857 624.114 559.527 611.042 559.527 611.042L624.731 564.26" stroke="#201806" stroke-width="5"/>
<path d="M629.505 538.272C626.838 548.889 622.886 565.509 622.886 565.509C622.886 565.509 631.541 559.094 637.031 554.91C645.517 548.443 650.498 545.079 658.552 538.081C668.472 529.462 674.713 525.025 682.5 514.439C691.581 502.091 693.218 493.047 699.572 479.098C710.201 455.766 716.982 442.875 724.512 418.367C728.759 404.546 731.02 396.698 733.547 382.462C736.849 363.851 737.189 353.126 737.556 334.229C737.705 326.507 737.426 314.452 737.426 314.452C737.426 314.452 729.702 332.426 724.02 343.588C717.448 356.501 712.539 363.077 705.692 375.846C697.632 390.876 693.811 399.663 686.171 414.911C670.988 445.213 663.751 462.885 647.127 492.422C643.148 499.492 639.978 502.975 636.739 510.413C632.25 520.719 632.244 527.371 629.505 538.272Z" fill="#201806" stroke="#201806" stroke-width="5"/>
<path d="M626.362 579.439C615.654 580.635 599.836 587.03 599.836 587.03C599.836 587.03 617.298 589.587 626.467 595.507C634.788 600.879 636.226 607.664 643.893 613.933C652.034 620.589 657.705 622.813 666.853 627.997C680.752 635.873 688.814 639.867 703.438 646.298C720.918 653.985 729.061 657.533 746.82 664.553C758.992 669.365 769.105 671.229 781.788 674.462C795.658 677.997 802.523 678.033 816.756 679.545C832.236 681.188 856.341 684.228 856.341 684.228C856.341 684.228 841.567 677.512 832.776 672.023C822.415 665.554 815.978 662.072 805.774 655.359C786.477 642.663 775.342 637.608 754.61 627.42C739.304 619.899 731.172 614.73 715.546 607.9C702.938 602.389 696.722 598.342 683.93 593.275C668.637 587.218 660.022 581.074 643.666 579.325C636.946 578.607 633.078 578.688 626.362 579.439Z" fill="#201806" stroke="#201806" stroke-width="5"/>
<path d="M578.871 574.558C577.382 583.283 577.125 594.603 577.125 594.603C577.125 594.603 592.055 586.231 599.099 578.149C607.369 568.661 610.151 561.48 613.647 549.387C617.13 537.337 615.518 529.901 616.699 517.414C619.941 483.155 626.44 464.042 624.801 429.67C624.204 417.133 622.876 410.178 621.643 397.688L618.12 362.016C617.266 353.37 617.619 348.399 615.933 339.875C613.524 327.701 605.515 309.853 605.515 309.853C605.515 309.853 607.156 321.065 607.338 328.304C607.868 349.449 600.179 360.563 597.064 381.485C594.52 398.574 593.962 408.271 592.091 425.448C588.384 459.468 583.313 512.638 583.313 512.638C583.313 512.638 581.572 529.749 581.741 540.739C581.939 553.529 581.023 561.949 578.871 574.558Z" fill="#201806" stroke="#201806" stroke-width="5"/>
<path d="M465.236 277.304L446.546 254.56C453.899 271.648 458.455 279.821 462.903 298.333C467.351 316.845 467.555 319.571 470.546 332.893C473.975 348.163 478.187 356.099 482.54 371.132C487.116 386.932 488.6 396.092 493.315 411.851C498.193 428.157 501.143 437.256 507.183 453.168C511.525 464.607 514.794 470.691 519.116 482.137C522.81 491.92 525.287 497.303 527.935 507.419C531.15 519.703 533.09 539.523 533.09 539.523C533.09 539.523 538.383 526.468 540.982 517.84C545.529 502.748 547.644 493.957 548.756 478.234C549.455 468.364 549.365 462.761 548.59 452.896C547.299 436.475 545.874 427.037 540.283 411.542C536.289 400.474 534.186 393.396 529.586 382.565C524.484 370.551 521.226 364.86 515.795 352.99C510.401 341.202 506.361 335.071 499.536 324.049C493.121 313.692 489.329 307.984 482.061 298.207C475.809 289.798 465.236 277.304 465.236 277.304Z" fill="#201806" stroke="#201806" stroke-width="5"/>
<path d="M496.777 562.01C497.51 565.556 496.838 571.28 496.838 571.28C496.838 571.28 502.415 559.553 503.506 551.459C504.311 545.48 504.542 541.935 503.404 536.009C501.674 526.999 497.588 522.867 492.76 515.066C488.212 507.718 485.19 503.873 479.664 497.229C474.857 491.45 471.913 488.41 466.592 483.1C460.547 477.069 457.204 473.57 450.426 468.374C442.082 461.977 437.809 459.559 428.703 454.302C419.161 448.793 412.389 444.79 402.649 439.64C392.532 434.292 387.277 431.596 376.611 427.451C369.069 424.52 364.55 423.707 356.794 421.401C343.543 417.461 323.979 412.346 323.979 412.346L340.738 423.361C340.738 423.361 352.231 434.495 360.014 441.157C366.4 446.623 376.79 454.643 376.79 454.643C376.79 454.643 390.268 462.868 398.514 468.715C408.599 475.866 413.733 480.577 423.364 488.329C430.441 494.026 434.537 497.072 441.384 503.043C451.803 512.129 457.202 517.729 466.885 527.597C473.582 534.423 477.465 538.149 483.689 545.409C489.062 551.677 495.104 553.926 496.777 562.01Z" fill="#201806"/>
<path d="M496.996 595.383L496.838 571.28M496.838 571.28C496.838 571.28 497.51 565.556 496.777 562.01C495.104 553.926 489.062 551.677 483.689 545.409C477.465 538.149 473.582 534.423 466.885 527.597C457.202 517.729 451.803 512.129 441.384 503.043C434.537 497.072 430.441 494.026 423.364 488.329C413.733 480.577 408.599 475.866 398.514 468.715C390.268 462.868 376.79 454.643 376.79 454.643C376.79 454.643 366.4 446.623 360.014 441.157C352.231 434.495 340.738 423.361 340.738 423.361L323.979 412.346C323.979 412.346 343.543 417.461 356.794 421.401C364.55 423.707 369.069 424.52 376.611 427.451C387.277 431.596 392.532 434.292 402.649 439.64C412.389 444.79 419.161 448.793 428.703 454.302C437.809 459.559 442.082 461.977 450.426 468.374C457.204 473.57 460.547 477.069 466.592 483.1C471.913 488.41 474.857 491.45 479.664 497.229C485.19 503.873 488.212 507.718 492.76 515.066C497.588 522.867 501.674 526.999 503.404 536.009C504.542 541.935 504.311 545.48 503.506 551.459C502.416 559.553 496.838 571.28 496.838 571.28Z" stroke="#201806" stroke-width="5"/>
<path d="M556.416 514.031C549.821 522.903 539.88 537.007 539.88 537.007C539.88 537.007 560.827 532.489 573.813 528.131C587.665 523.482 595.276 520.257 608.328 513.689C623.414 506.099 630.941 500.147 645.262 491.197C665.418 478.601 676.51 471.206 696.342 458.106C712.762 447.258 723.217 442.799 738.183 430.019C747.398 422.149 752.848 417.807 760.289 408.242C767.864 398.507 776.179 380.944 776.179 380.944L748.478 397.813C748.478 397.813 723.582 409.421 707.815 417.24C691.087 425.536 681.953 430.672 665.315 439.151C644.927 449.54 632.665 453.827 612.955 465.452C597.042 474.839 586.527 478.494 573.573 491.669C565.856 499.518 562.982 505.196 556.416 514.031Z" fill="#201806" stroke="#201806" stroke-width="5"/>
<path d="M362.736 632L362.736 615.272L364.44 615.272L364.44 632L362.736 632ZM374.924 619.976C377.468 619.976 378.788 621.608 378.788 624.752L378.788 632L377.132 632L377.132 625.16C377.132 622.616 376.316 621.44 374.54 621.44C372.308 621.44 371.012 623.36 371.012 626.696L371.012 632L369.356 632L369.356 620.168L371.012 620.168L371.012 621.896C371.78 620.696 373.22 619.976 374.924 619.976ZM391.111 615.272L392.767 615.272L392.767 632L391.111 632L391.111 630.416C390.247 631.52 388.927 632.192 387.199 632.192C383.743 632.192 381.943 629.6 381.943 626.072C381.943 622.376 383.911 619.952 387.199 619.952C388.879 619.952 390.223 620.6 391.111 621.752L391.111 615.272ZM387.439 630.728C389.935 630.728 391.255 628.76 391.255 626.072C391.255 623.264 389.815 621.416 387.439 621.416C385.039 621.416 383.599 623.264 383.599 626.072C383.599 628.76 384.919 630.728 387.439 630.728ZM396.985 617.72L396.985 615.272L398.905 615.272L398.905 617.72L396.985 617.72ZM397.129 632L397.129 620.168L398.785 620.168L398.785 632L397.129 632ZM407.257 619.976C410.233 619.976 411.961 621.68 411.961 624.632L411.961 632L410.449 632L410.353 630.176C409.417 631.496 407.977 632.192 406.105 632.192C403.537 632.192 402.025 630.848 402.025 628.568C402.025 627.368 402.505 626.456 403.369 625.928C404.281 625.4 405.553 625.184 407.881 625.184L410.305 625.184L410.305 624.632C410.305 622.568 409.225 621.44 407.233 621.44C405.745 621.44 404.593 622.088 403.633 623.408L402.433 622.4C403.705 620.744 405.241 619.976 407.257 619.976ZM406.585 630.824C408.865 630.824 410.305 629.216 410.305 626.696L410.305 626.528L408.025 626.528C405.841 626.528 404.905 626.672 404.329 627.128C403.897 627.464 403.681 627.992 403.681 628.664C403.681 629.984 404.809 630.824 406.585 630.824Z" fill="#201806"/>
<path d="M661.24 754.24C656.488 754.24 653.632 751 653.632 745.6C653.632 740.224 656.536 737.032 661.36 737.032C664.72 737.032 667.072 738.568 668.248 741.616L666.664 742.216C665.776 739.816 664 738.664 661.36 738.664C657.52 738.664 655.336 741.16 655.336 745.6C655.336 750.064 657.496 752.608 661.24 752.608C663.856 752.608 665.728 751.384 666.664 748.984L668.296 749.584C667.048 752.632 664.576 754.24 661.24 754.24ZM677.002 741.976C679.546 741.976 680.866 743.608 680.866 746.752L680.866 754L679.21 754L679.21 747.16C679.21 744.592 678.394 743.44 676.618 743.44C674.362 743.44 673.09 745.288 673.09 748.552L673.09 754L671.434 754L671.434 737.272L673.09 737.272L673.09 743.896C673.858 742.696 675.298 741.976 677.002 741.976ZM684.813 739.72L684.813 737.272L686.733 737.272L686.733 739.72L684.813 739.72ZM684.957 754L684.957 742.168L686.613 742.168L686.613 754L684.957 754ZM696.549 741.976C699.093 741.976 700.413 743.608 700.413 746.752L700.413 754L698.757 754L698.757 747.16C698.757 744.616 697.941 743.44 696.165 743.44C693.933 743.44 692.637 745.36 692.637 748.696L692.637 754L690.981 754L690.981 742.168L692.637 742.168L692.637 743.896C693.405 742.696 694.845 741.976 696.549 741.976ZM708.608 741.976C711.584 741.976 713.312 743.68 713.312 746.632L713.312 754L711.8 754L711.704 752.176C710.768 753.496 709.328 754.192 707.456 754.192C704.888 754.192 703.376 752.848 703.376 750.568C703.376 749.368 703.856 748.456 704.72 747.928C705.632 747.4 706.904 747.184 709.232 747.184L711.656 747.184L711.656 746.632C711.656 744.568 710.576 743.44 708.584 743.44C707.096 743.44 705.944 744.088 704.984 745.408L703.784 744.4C705.056 742.744 706.592 741.976 708.608 741.976ZM707.936 752.824C710.216 752.824 711.656 751.216 711.656 748.696L711.656 748.528L709.376 748.528C707.192 748.528 706.256 748.672 705.68 749.128C705.248 749.464 705.032 749.992 705.032 750.664C705.032 751.984 706.16 752.824 707.936 752.824Z" fill="#201806"/>
<path d="M463.736 755L463.736 738.272L474.704 738.272L474.704 739.856L465.44 739.856L465.44 745.688L473.768 745.688L473.768 747.272L465.44 747.272L465.44 753.416L474.704 753.416L474.704 755L463.736 755ZM483.916 742.976C486.46 742.976 487.78 744.608 487.78 747.752L487.78 755L486.124 755L486.124 748.16C486.124 745.616 485.308 744.44 483.532 744.44C481.3 744.44 480.004 746.36 480.004 749.696L480.004 755L478.348 755L478.348 743.168L480.004 743.168L480.004 744.896C480.772 743.696 482.212 742.976 483.916 742.976ZM495.951 753.56C498.304 753.92 501.088 754.256 501.088 756.824C501.088 759.056 498.999 760.088 496.023 760.088C492.735 760.088 490.743 758.792 490.743 756.44C490.743 756.2 490.767 756.056 490.791 755.912L492.711 754.28C491.799 753.872 491.175 753.2 491.175 752.024C491.175 751.064 491.607 750.344 492.447 749.768C491.823 749.048 491.439 748.136 491.439 747.08C491.439 744.68 493.407 742.976 495.952 742.976C497.104 742.976 498.136 743.336 498.903 743.936L500.536 742.52L501.4 743.6L499.792 744.944C500.2 745.592 500.44 746.336 500.44 747.176C500.44 749.6 498.472 751.208 495.976 751.208C495.063 751.208 494.223 750.992 493.528 750.608C493.047 750.872 492.759 751.304 492.759 751.808C492.759 753.008 494.248 753.296 495.951 753.56ZM495.976 744.368C494.295 744.368 493.071 745.496 493.071 747.128C493.071 748.664 494.175 749.84 495.951 749.84C497.727 749.84 498.783 748.688 498.783 747.128C498.784 745.496 497.679 744.368 495.976 744.368ZM496.096 758.696C498.183 758.696 499.432 758.12 499.432 756.968C499.432 755.528 497.559 755.312 495.591 755C495.063 754.928 494.511 754.832 494.007 754.712L492.399 756.272C492.375 756.392 492.375 756.44 492.375 756.488C492.375 758.168 494.079 758.696 496.096 758.696ZM506.547 755.192C505.179 755.192 504.291 754.28 504.291 752.432L504.291 738.272L505.947 738.272L505.947 752.336C505.947 753.152 506.235 753.68 507.027 753.68C507.387 753.68 507.795 753.584 508.155 753.464L508.179 754.88C507.675 755.048 507.075 755.192 506.547 755.192ZM514.96 742.976C517.936 742.976 519.664 744.68 519.664 747.632L519.664 755L518.152 755L518.056 753.176C517.12 754.496 515.68 755.192 513.808 755.192C511.24 755.192 509.728 753.848 509.728 751.568C509.728 750.368 510.208 749.456 511.072 748.928C511.984 748.4 513.256 748.184 515.584 748.184L518.008 748.184L518.008 747.632C518.008 745.568 516.928 744.44 514.936 744.44C513.448 744.44 512.296 745.088 511.336 746.408L510.136 745.4C511.408 743.744 512.944 742.976 514.96 742.976ZM514.288 753.824C516.568 753.824 518.008 752.216 518.008 749.696L518.008 749.528L515.728 749.528C513.544 749.528 512.608 749.672 512.032 750.128C511.6 750.464 511.384 750.992 511.384 751.664C511.384 752.984 512.512 753.824 514.288 753.824ZM529.268 742.976C531.812 742.976 533.132 744.608 533.132 747.752L533.132 755L531.476 755L531.476 748.16C531.476 745.616 530.66 744.44 528.884 744.44C526.652 744.44 525.356 746.36 525.356 749.696L525.356 755L523.7 755L523.7 743.168L525.356 743.168L525.356 744.896C526.124 743.696 527.564 742.976 529.268 742.976ZM545.455 738.272L547.111 738.272L547.111 755L545.455 755L545.455 753.416C544.591 754.52 543.271 755.192 541.543 755.192C538.087 755.192 536.287 752.6 536.287 749.072C536.287 745.376 538.255 742.952 541.543 742.952C543.223 742.952 544.567 743.6 545.455 744.752L545.455 738.272ZM541.783 753.728C544.279 753.728 545.599 751.76 545.599 749.072C545.599 746.264 544.159 744.416 541.783 744.416C539.383 744.416 537.943 746.264 537.943 749.072C537.943 751.76 539.263 753.728 541.783 753.728Z" fill="#201806"/>
</svg>
