<svg width="1113" height="936" viewBox="0 0 1113 936" fill="none" xmlns="http://www.w3.org/2000/svg">
<rect x="374.536" y="227.309" width="316.463" height="564.724" transform="rotate(-45 374.536 227.309)" stroke="#201806" stroke-width="5"/>
<rect x="533.543" y="82.5957" width="92.7321" height="132.975" transform="rotate(-45 533.543 82.5957)" stroke="#201806" stroke-width="5"/>
<rect x="637.075" y="186.002" width="92.7321" height="132.975" transform="rotate(-45 637.075 186.002)" stroke="#201806" stroke-width="5"/>
<rect x="386.95" y="228.235" width="92.7321" height="132.975" transform="rotate(-45 386.95 228.235)" stroke="#201806" stroke-width="5"/>
<rect x="460.723" y="155.415" width="92.7321" height="132.975" transform="rotate(-45 460.723 155.415)" stroke="#201806" stroke-width="5"/>
<rect x="564.246" y="258.822" width="92.7321" height="132.975" transform="rotate(-45 564.246 258.822)" stroke="#201806" stroke-width="5"/>
<rect x="490.473" y="331.643" width="92.7321" height="132.975" transform="rotate(-45 490.473 331.643)" stroke="#201806" stroke-width="5"/>
<rect x="801.672" y="190.854" width="439.46" height="339.155" transform="rotate(45 801.672 190.854)" fill="#201806"/>
<path d="M671.819 419.017C665.522 425.315 658.837 422.691 654.515 415.744C650.385 409.157 649.902 400.801 656.089 394.614C660.025 390.678 664.569 390.167 668.905 393.04L666.806 396.851C663.934 394.365 661.199 395.166 658.561 397.804C654.142 402.224 654.556 408.162 657.76 413.3C660.826 418.216 664.969 420.205 669.32 415.855C672.096 413.079 673.049 409.695 672.054 405.248L675.907 404.102C677.137 410.054 675.604 415.233 671.819 419.017ZM682.633 407.679L667.621 383.662L670.521 380.762L676.211 390.015C676.101 387.198 677.192 385.002 678.642 383.552C682.191 380.002 685.948 381.88 688.213 385.471L694.621 395.691L691.721 398.591L685.451 388.592C683.959 386.189 682.357 385.029 680.258 387.129C677.938 389.449 678.159 393.012 679.995 395.981L685.533 404.779L682.633 407.679ZM704.551 386.286C700.325 390.512 694.87 389.2 691.734 384.187C688.82 379.56 689.138 373.055 693.226 368.967C697.452 364.741 702.894 365.957 706.015 370.956C708.915 375.624 708.639 382.198 704.551 386.286ZM702.355 383.538C705.117 380.776 704.703 376.577 702.645 373.276C700.822 370.349 698.06 369.078 695.436 371.702C692.674 374.464 693.046 378.594 695.104 381.867C696.941 384.808 699.731 386.162 702.355 383.538ZM719.894 370.942C715.503 375.334 710.503 373.29 707.506 368.526C704.868 364.23 704.219 357.974 708.528 353.665C711.277 350.917 714.55 350.516 717.63 352.74L715.613 356.414C714.025 355.074 712.285 355.102 710.835 356.552C708.238 359.148 708.915 363.25 710.821 366.261C712.506 368.995 715.075 370.57 717.56 368.084C719.135 366.509 719.522 363.968 718.831 361.786L722.436 360.64C723.485 364.617 722.505 368.332 719.894 370.942ZM734.023 356.814C729.797 361.04 724.341 359.728 721.206 354.715C718.292 350.088 718.61 343.583 722.698 339.496C726.924 335.269 732.366 336.485 735.487 341.484C738.387 346.152 738.111 352.726 734.023 356.814ZM731.827 354.066C734.589 351.304 734.175 347.105 732.117 343.804C730.294 340.877 727.532 339.606 724.908 342.23C722.146 344.992 722.518 349.122 724.576 352.395C726.413 355.336 729.203 356.69 731.827 354.066ZM746.687 344.15C744.906 345.931 743.055 345.959 741.315 343.169L728.554 322.729L731.399 319.884L743.732 339.647C744.339 340.614 744.892 340.808 745.734 339.965C746.038 339.661 746.37 339.219 746.701 338.75L748.745 341.595C748.165 342.451 747.35 343.487 746.687 344.15ZM756.658 334.178C752.764 338.073 747.847 336.167 744.74 331.237C741.895 326.679 741.563 320.63 745.278 316.915C747.032 315.161 749.366 314.484 751.424 315.354L749.877 312.841L752.791 309.927L763.426 326.886L760.76 329.552L759.144 327.19C759.434 330.021 758.343 332.493 756.658 334.178ZM755.029 330.615C757.598 328.046 757.363 324.11 755.222 320.754C753.372 317.744 750.748 316.639 748.317 319.07C745.734 321.652 745.969 325.671 748.068 328.958C749.933 331.955 752.598 333.046 755.029 330.615ZM772.624 318.213C769.944 320.893 767.086 320.437 765.111 317.302L759.379 308.145L757.128 310.396L755.277 307.441L757.57 305.148L754.766 300.715L756.009 295.384L760.374 302.345L763.964 298.754L765.815 301.709L762.224 305.3L767.748 314.139C768.936 316.017 769.861 315.921 770.856 314.926C771.602 314.181 772.126 313.076 772.375 312.413L774.599 315.575C774.267 316.266 773.494 317.343 772.624 318.213ZM781.048 288.824C784.432 292.208 780.869 297.704 774.999 303.546C775.206 303.781 775.413 304.016 775.634 304.237C777.485 306.087 779.363 306.281 781.449 304.195C782.968 302.676 783.658 300.853 783.81 298.519L787.387 298.782C787.139 302.29 785.965 304.872 783.783 307.054C779.916 310.921 776.035 310.383 772.817 307.165C768.19 302.538 767.389 294.804 772.375 289.818C775.634 286.559 779.046 286.822 781.048 288.824ZM774.695 292.304C772.361 294.638 772.237 297.856 773.3 300.632C775.717 298.16 780.399 293.313 778.438 291.351C777.499 290.412 775.938 291.061 774.695 292.304Z" fill="#F4EDDB"/>
<circle cx="841.484" cy="407.643" r="35.6435" fill="#201806"/>
<circle cx="841.485" cy="407.644" r="29.4446" fill="#F4EDDB"/>
<circle cx="799.643" cy="466.533" r="35.6435" fill="#201806"/>
<circle cx="835.283" cy="526.971" r="35.6435" fill="#201806"/>
<circle cx="906.574" cy="508.375" r="35.6435" fill="#201806"/>
<circle cx="906.574" cy="437.088" r="35.6435" fill="#201806"/>
<circle cx="906.576" cy="437.088" r="29.4446" fill="#F4EDDB"/>
<circle cx="906.576" cy="508.375" r="29.4446" fill="#F4EDDB"/>
<circle cx="835.285" cy="526.971" r="29.4446" fill="#F4EDDB"/>
<circle cx="799.639" cy="466.533" r="29.4446" fill="#F4EDDB"/>
<path d="M907.64 519.4C901.2 519.4 898.08 514.4 898.08 509.2C898.08 504 901.16 498.88 907.6 498.88C911.52 498.88 914.6 500.76 916.12 504.68L911.56 506.48C911.04 504.4 909.56 503.08 907.6 503.08C904.28 503.08 903 506.08 903 509.2C903 512.32 904.24 515.2 907.6 515.2C909.52 515.2 911.04 513.92 911.56 511.88L915.92 513.56C914.6 517.24 911.56 519.4 907.64 519.4Z" fill="#201806"/>
<path d="M836.44 517.88C841.64 517.88 844.88 520.8 844.88 525.56V538H840.48L840.08 535.44C838.92 537.28 836.68 538.4 834.08 538.4C829.92 538.4 826.96 535.72 826.96 531.96C826.96 529.64 828 527.88 829.92 527C831.24 526.4 832.92 526.12 835.16 526.12H840.08V525.56C840.08 523.4 838.64 522.08 836.36 522.08C834.36 522.08 832.48 523.12 831.04 525.04L827.56 522.12C829.92 519.28 832.84 517.88 836.44 517.88ZM834.84 534.32C837.72 534.32 840.08 532.28 840.08 529.72H835.8C834.16 529.72 833.2 529.92 832.56 530.4C832.04 530.76 831.76 531.32 831.76 532.04C831.76 533.44 832.92 534.32 834.84 534.32Z" fill="#201806"/>
<path d="M842.32 398.88C847.16 398.88 850.64 402.68 850.64 409.12C850.64 415.04 847.68 419.4 842.32 419.4C840.2 419.4 838 418.72 836.64 417.04V419H831.84V391.12H836.64V401.28C837.88 399.8 840.08 398.88 842.32 398.88ZM841.16 414.96C844.36 414.96 845.84 412.8 845.84 409.16C845.84 405.48 844.32 403.24 841.12 403.24C837.68 403.24 836.2 405.88 836.2 409.16C836.2 412.44 837.68 414.96 841.16 414.96Z" fill="#201806"/>
<path d="M897.84 451V423.12H902.64V439.28L909.88 431.28H916.32L908.96 438.92L917.16 451H911.44L905.68 441.88L902.64 445.24V451H897.84Z" fill="#201806"/>
<path d="M801.24 477.4C798.56 477.4 796.6 475.8 796.6 472.28V449.12H801.4V471.96C801.4 472.84 801.92 473.2 802.8 473.2C803.24 473.2 803.76 473.12 804.32 472.96V476.8C803.24 477.2 802.16 477.4 801.24 477.4Z" fill="#201806"/>
<path d="M234.5 757C284.5 765 343 771.5 343 823.5C343 868 301 889.5 240.5 889.5C174 889.5 132.5 863 132.5 814.5C132.5 810 133 806.5 133.5 803.5L175.5 765.5C155 757.5 140.5 744 140.5 719.5C140.5 699.5 150 685 168.5 673.5C154.5 659 146.5 639.5 146.5 617.5C146.5 568.5 186 534 238 534C263 534 285 542 300.5 556L333.5 527L346.5 543.5L314 571.5C323.5 584.5 328.5 601 328.5 619C328.5 668 289.5 700.5 238 700.5C217.5 700.5 199.5 695.5 185 686.5C171.5 693 164 703 164 716.5C164 744.5 197 751 234.5 757ZM238.5 555C199.5 555 171 581 171 618C171 653.5 197 680 238 680C278.5 680 303.5 654 303.5 618.5C303.5 581 277.5 555 238.5 555ZM241.5 868.5C289 868.5 318 854 318 825.5C318 790.5 273.5 786 229.5 778.5C218 776.5 206.5 774.5 195.5 772L157.5 809C157 812 157 813.5 157 815C157 853 193.5 868.5 241.5 868.5Z" fill="#201806"/>
<circle cx="237" cy="691" r="234.5" stroke="#201806" stroke-width="5"/>
<path d="M380.217 889.232C379.241 890.208 379.241 891.791 380.217 892.768L396.127 908.678C397.103 909.654 398.686 909.654 399.662 908.678C400.639 907.701 400.639 906.118 399.662 905.142L385.52 891L399.662 876.858C400.639 875.881 400.639 874.299 399.662 873.322C398.686 872.346 397.103 872.346 396.127 873.322L380.217 889.232ZM729.008 888.5L381.985 888.5V893.5L729.008 893.5V888.5Z" fill="#201806"/>
</svg>
