<svg width="546" height="529" viewBox="0 0 546 529" fill="none" xmlns="http://www.w3.org/2000/svg">
<path d="M207.285 210.324L207.3 210.327L207.314 210.329L363.146 240.088L363.187 240.096L363.228 240.103L505.253 262.33L500.193 314.411L491.551 348.784L354.881 329.302L199.128 299.559L199.107 299.554L38.5854 267.489L46.4308 207.005L52.549 178.84L207.285 210.324ZM443.478 512.592L232.358 483.431L23.0665 441.405C19.2027 440.629 16.5985 436.995 17.1054 433.087L37.9407 272.459L198.148 304.462L198.159 304.464L198.169 304.466L354.001 334.224L354.059 334.235L354.117 334.243L490.326 353.659L451.778 506.991C450.845 510.702 447.268 513.115 443.478 512.592ZM95.1471 15.3718L304.938 44.3887L515.55 86.5784C519.325 87.3345 521.914 90.8258 521.542 94.6575L505.737 257.345L364.043 235.169L208.282 205.424L208.252 205.418L53.6104 173.954L86.7905 21.209C87.6226 17.3784 91.2642 14.8347 95.1471 15.3718Z" stroke="#201806" stroke-width="5"/>
<path d="M211.514 137.229C212.69 169.648 246.932 213.766 246.932 213.766L304.36 224.566C304.36 224.566 334.973 158.543 323.981 118.917C314.007 82.9594 264.408 44.2101 264.408 44.2101C264.408 44.2101 209.999 95.4678 211.514 137.229Z" fill="#201806"/>
<path d="M150.283 391.292C126.676 411.322 98.3097 456.03 98.3097 456.03L183.085 472.806C183.085 472.806 191.56 455.24 200.085 448.342C215.139 436.162 225.792 431.839 244.077 425.466C274.896 414.724 294.671 417.487 327.307 417.888C354.093 418.217 408.012 468.542 408.012 468.542C408.012 468.542 371.963 379.666 346.282 362.299C305.599 334.787 268.275 336.442 221.112 350.139C190.391 359.061 174.677 370.596 150.283 391.292Z" fill="#201806"/>
<path d="M397.908 505.733L408.113 467.508L411.63 431.302L424.216 343.517L462.391 348.732L446.329 450.337L431.603 510.513L397.908 505.733Z" fill="#201806"/>
<path d="M365.691 130.278C367.629 105.251 384.961 91.3342 387.842 66.3975C388.075 64.3815 388.345 61.2252 388.345 61.2252L433.359 70.8194C433.359 70.8194 451.847 110.724 458.059 136.119C464.056 160.63 469.103 175.647 464.343 200.427C460.638 219.713 442.073 248.376 442.073 248.376L400.896 242.287C393.017 226.841 388.761 215.075 380.882 199.629C373.003 184.183 363.55 157.921 365.691 130.278Z" fill="#201806"/>
<path d="M198.651 264.506L203.403 237.034L212.981 238.691C218.459 239.638 221.241 242.799 220.492 247.134C220.048 249.696 218.59 251.555 216.468 252.325C219.24 253.9 220.382 256.452 219.789 259.881C218.916 264.926 215.048 267.342 209.451 266.374L198.651 264.506ZM206.441 248.804L211.092 249.609C213.575 250.038 215.06 249.199 215.415 247.149C215.776 245.06 214.601 243.639 212.197 243.224L207.546 242.419L206.441 248.804ZM204.362 260.826L209.841 261.773C212.6 262.251 214.514 261.039 214.93 258.635C215.332 256.309 214.013 254.782 211.136 254.285L205.657 253.337L204.362 260.826ZM227.037 269.822C224.396 269.365 222.737 267.455 223.337 263.986L227.285 241.165L232.014 241.983L228.122 264.489C227.972 265.356 228.423 265.799 229.29 265.949C229.723 266.024 230.249 266.034 230.829 265.972L230.174 269.756C229.042 269.966 227.943 269.979 227.037 269.822ZM244.542 252.025C249.666 252.911 252.361 256.341 251.549 261.031L249.429 273.289L245.094 272.539L245.136 269.948C243.679 271.564 241.281 272.286 238.719 271.842C234.62 271.133 232.16 267.988 232.801 264.283C233.196 261.997 234.521 260.44 236.563 259.9C237.966 259.534 239.669 259.544 241.876 259.926L246.724 260.765L246.82 260.213C247.188 258.085 245.994 256.538 243.747 256.15C241.776 255.809 239.747 256.513 238.001 258.16L235.069 254.689C237.879 252.293 240.994 251.411 244.542 252.025ZM240.163 267.952C243.001 268.443 245.674 266.835 246.111 264.312L241.893 263.583C240.277 263.303 239.297 263.337 238.585 263.7C238.011 263.967 237.64 264.471 237.517 265.18C237.278 266.56 238.271 267.624 240.163 267.952ZM261.988 275.867C255.643 274.77 253.42 269.311 254.307 264.187C255.193 259.063 259.1 254.543 265.446 255.641C269.309 256.309 272.023 258.686 272.853 262.808L268.053 263.804C267.895 261.666 266.662 260.113 264.73 259.779C261.459 259.213 259.686 261.951 259.155 265.026C258.623 268.1 259.354 271.149 262.665 271.722C264.557 272.049 266.273 271.047 267.133 269.125L271.142 271.524C269.215 274.925 265.851 276.535 261.988 275.867ZM273.847 277.512L278.599 250.04L283.328 250.858L280.574 266.782L289.072 260.133L295.418 261.23L286.863 267.504L292.884 280.805L287.248 279.83L283.127 269.862L279.558 272.655L278.577 278.33L273.847 277.512ZM311.134 283.961L315.102 261.022L306.509 259.536L307.293 255.003L329.444 258.834L328.66 263.367L320.068 261.881L316.1 284.82L311.134 283.961ZM342.279 279.078C342.177 279.669 342.035 280.254 341.847 280.871L328.525 278.566C328.279 281.162 329.562 283.13 332.637 283.662C334.371 283.962 336.043 283.683 337.649 282.377L340.423 285.82C337.885 287.817 335.126 288.517 331.854 287.951C325.154 286.792 323.147 281.493 324.047 276.29C324.927 271.206 328.572 266.559 335.036 267.677C341.066 268.72 343.213 273.678 342.279 279.078ZM329.133 274.815L338.08 276.363C338.431 273.866 336.798 272.041 334.315 271.611C331.438 271.114 329.743 272.932 329.133 274.815ZM355.396 271.198C360.52 272.085 363.215 275.514 362.404 280.204L360.283 292.462L355.948 291.712L355.99 289.122C354.533 290.737 352.135 291.459 349.573 291.016C345.474 290.307 343.014 287.162 343.655 283.457C344.05 281.171 345.375 279.614 347.417 279.074C348.82 278.707 350.523 278.718 352.73 279.1L357.578 279.938L357.674 279.386C358.042 277.258 356.848 275.712 354.601 275.323C352.631 274.982 350.601 275.687 348.855 277.333L345.923 273.863C348.733 271.467 351.849 270.585 355.396 271.198ZM351.017 287.125C353.855 287.616 356.528 286.008 356.965 283.485L352.747 282.756C351.131 282.476 350.151 282.51 349.439 282.874C348.865 283.14 348.494 283.644 348.371 284.354C348.132 285.733 349.126 286.798 351.017 287.125Z" fill="#201806"/>
</svg>
