<svg width="981" height="1112" viewBox="0 0 981 1112" fill="none" xmlns="http://www.w3.org/2000/svg">
<path d="M416.398 326.099C510.674 330.034 595.825 359.507 657.282 403.845C718.753 448.193 756.301 507.22 756.085 570.359C755.87 633.498 717.931 689.374 656.175 728.579C594.433 767.775 509.105 790.131 414.829 786.196C320.553 782.261 235.401 752.789 173.944 708.451C112.473 664.102 74.9256 605.076 75.1409 541.937C75.3562 478.797 113.295 422.922 175.051 383.717C236.793 344.521 322.122 322.164 416.398 326.099Z" stroke="#201806" stroke-width="5"/>
<path d="M417.796 361.358C499.736 364.778 573.731 389.972 627.121 427.808C680.529 465.657 713.077 515.947 712.894 569.646C712.711 623.346 679.829 670.905 626.178 704.285C572.545 737.654 498.4 756.664 416.459 753.244C334.519 749.824 260.525 724.631 207.135 686.794C153.726 648.945 121.178 598.655 121.362 544.956C121.545 491.257 154.426 443.698 208.077 410.318C261.71 376.948 335.855 357.938 417.796 361.358Z" fill="#F4EDDB" stroke="#201806" stroke-width="5"/>
</svg>
