<svg width="563" height="551" viewBox="0 0 563 551" fill="none" xmlns="http://www.w3.org/2000/svg">
<path d="M202.19 259.604L202.204 259.6L202.218 259.595L346.641 214.412L346.668 214.403L346.694 214.394L474.398 171.282L495.219 215.146L503.493 247.732L379.812 292.923L235.466 338.083L235.446 338.089L86.1446 383.414L65.5323 329.133L58.0202 302.811L202.19 259.604ZM504.73 252.603L519.545 310.944L519.549 310.959L541.185 398.412C542.102 402.118 540.089 405.921 536.509 407.246L346.237 477.705L151.757 536.533C147.984 537.674 143.973 535.701 142.574 532.016L87.9237 388.1L236.918 342.867L236.928 342.864L236.938 342.861L381.361 297.677L381.417 297.659L381.473 297.639L504.73 252.603ZM56.6479 298.003L15.8809 155.157C14.8052 151.388 16.8136 147.426 20.4898 146.065L209.541 76.0987L405.218 16.8095C408.903 15.6932 412.834 17.5476 414.315 21.1008L474.695 165.904L345.121 209.648L200.754 254.814L200.725 254.823L56.6479 298.003Z" stroke="#201806" stroke-width="5"/>
<path d="M201.353 305.566L201.05 302.072L211.272 299.117L212.627 314.173L209.361 315.117L208.706 311.268C207.464 314.458 204.62 316.863 200.969 317.919C193.707 320.019 189.141 316.468 187.374 310.358C184.718 301.174 188.786 291.628 198.085 288.939C204.31 287.139 208.417 289.532 210.518 293.63L206.915 296.004C205.45 293.097 202.869 291.803 198.834 292.97C191.879 294.981 189.463 302.175 191.419 308.938C192.63 313.127 195.378 315.288 200.22 313.888C204.793 312.566 207.924 308.995 207.474 303.838L207.539 303.777L201.353 305.566ZM225.336 289.595C226.643 289.217 227.808 289.213 229.095 289.632L227.602 293.686C226.953 293.458 226.178 293.515 225.333 293.76C222.451 294.593 220.778 297.159 221.171 301.542L222.077 311.44L218.119 312.585L216.329 292.574L220.326 291.418L220.583 294.467C221.299 291.761 223.377 290.161 225.336 289.595ZM247.56 295.327L234.265 299.171C234.299 299.578 234.35 299.896 234.45 300.242C235.15 302.663 236.933 303.646 239.738 302.835C241.698 302.268 243.189 301.088 244.451 298.974L247.6 300.936C245.72 303.937 243.423 305.642 240.426 306.509C235.046 308.064 231.862 305.404 230.651 301.216C228.773 294.722 231.52 287.807 237.86 285.973C242.817 284.54 245.88 287.068 247.036 291.065C247.403 292.333 247.606 294.189 247.56 295.327ZM238.52 289.405C235.215 290.361 234.038 293.491 234.035 296.073L243.45 293.351C243.514 292.708 243.424 292.109 243.29 291.648C242.746 289.765 241.056 288.672 238.52 289.405ZM267.486 289.564L254.191 293.409C254.225 293.816 254.276 294.134 254.376 294.48C255.076 296.901 256.859 297.884 259.664 297.073C261.624 296.506 263.115 295.326 264.377 293.212L267.526 295.174C265.646 298.175 263.349 299.88 260.352 300.746C254.972 302.302 251.788 299.642 250.577 295.454C248.699 288.96 251.446 282.044 257.786 280.211C262.743 278.777 265.806 281.306 266.962 285.302C267.328 286.57 267.532 288.427 267.486 289.564ZM258.445 283.643C255.141 284.598 253.964 287.729 253.961 290.311L263.376 287.589C263.439 286.945 263.35 286.347 263.216 285.886C262.672 284.003 260.981 282.909 258.445 283.643ZM280.094 273.76C284.052 272.615 286.459 274.459 287.381 277.649C287.548 278.225 287.71 279.219 287.773 279.867L288.862 292.127L284.904 293.272L283.838 281.38C283.809 280.847 283.796 280.226 283.574 279.457C283.141 277.959 282.093 276.929 279.749 277.607C275.407 278.863 275.323 283.467 275.693 287.483L276.45 295.716L272.492 296.861L270.703 276.85L274.661 275.706L274.8 277.914C275.968 275.619 278.058 274.349 280.094 273.76ZM310.203 285.956L308.016 261.688L299.332 264.199L299 260.173L320.519 253.95L320.85 257.977L312.166 260.488L314.353 284.755L310.203 285.956ZM337.695 269.261L324.4 273.106C324.434 273.512 324.485 273.831 324.585 274.177C325.285 276.598 327.068 277.581 329.873 276.77C331.833 276.203 333.324 275.022 334.586 272.909L337.735 274.871C335.855 277.871 333.558 279.577 330.561 280.443C325.181 281.999 321.997 279.339 320.786 275.151C318.908 268.657 321.655 261.741 327.995 259.908C332.952 258.474 336.015 261.003 337.171 264.999C337.538 266.267 337.741 268.124 337.695 269.261ZM328.655 263.34C325.35 264.295 324.173 267.425 324.171 270.008L333.585 267.285C333.649 266.642 333.559 266.044 333.425 265.583C332.881 263.7 331.191 262.606 328.655 263.34ZM353.401 252.936L357.358 251.791L359.148 271.802L355.228 272.935L354.984 270.508C353.915 272.857 351.832 274.292 349.68 274.915C345.222 276.204 342.1 273.9 340.833 269.52C339.033 263.295 341.273 256.068 347.383 254.301C349.842 253.59 352.201 254.115 353.617 255.413L353.401 252.936ZM354.399 261.141C353.764 258.369 351.875 256.875 348.993 257.708C344.766 258.93 343.452 263.891 344.641 268.002C345.386 270.577 347.126 271.698 349.777 270.931C353.85 269.753 355.424 265.259 354.399 261.141Z" fill="#201806"/>
<path d="M386.878 423.056L383.48 437.727L383.837 439.092L386.878 450.693L370.225 445.575C370.225 445.575 362.643 443.427 357.65 443.186C350.957 442.864 347.222 444.225 340.657 445.575C335.012 446.736 332.056 448.313 326.383 449.328C318.656 450.711 314.176 450.433 306.331 450.693C298.903 450.938 294.732 450.693 287.299 450.693C280.796 450.693 277.108 451.434 270.646 450.693C262.746 449.786 258.877 445.935 250.934 445.575C245.472 445.327 237 446.94 237 446.94C237 446.94 246.476 438.148 252.634 432.609C258.166 427.632 260.803 424.235 266.908 419.985C273.201 415.603 277.187 413.77 284.241 410.773C292.553 407.24 297.321 404.486 306.331 403.949C312.594 403.575 316.119 404.606 322.305 405.655C328.622 406.726 332.176 407.449 338.278 409.408C343.725 411.156 347.096 411.712 351.873 414.867C359.701 420.038 366.487 433.974 366.487 433.974L374.303 443.186L386.878 450.693L383.837 439.092L374.303 430.903L365.127 419.985L352.552 395.76C352.552 395.76 347.517 391.043 344.396 387.912C339.879 383.383 337.88 380.309 333.18 375.97C331.241 374.18 330.065 373.277 328.083 371.535C324.334 368.24 322.551 366.008 318.566 363.005C314.561 359.986 311.763 359.108 307.691 356.181C304.236 353.697 302.891 351.462 299.194 349.357C293.898 346.341 289.675 347.68 284.241 344.921C279.573 342.552 273.365 337.074 273.365 337.074C273.365 337.074 281.837 338.319 287.299 338.78C299.467 339.806 306.719 335.814 318.566 338.78C323.21 339.942 325.925 340.566 330.122 342.874C335.488 345.825 337.819 348.641 342.017 353.11C346.77 358.171 349.917 361.008 352.552 367.441C355.402 374.395 354.931 386.548 354.931 386.548L352.552 395.76L360.029 380.406C360.029 380.406 362.234 375.123 362.748 371.535C363.221 368.238 362.748 363.005 362.748 363.005C362.748 363.005 367.082 365.086 368.866 367.441C373.451 373.493 369.467 380.315 365.127 386.548C361.644 391.55 352.552 395.76 352.552 395.76L365.127 419.985L374.303 430.903L383.837 439.092L383.48 437.727L386.878 423.056C386.878 423.056 383.099 418.989 381.441 415.891C378.911 411.165 378.92 407.876 378.042 402.584C375.504 387.281 377.555 378.02 381.441 363.005C383.827 353.782 385.995 348.813 389.937 340.145C394.553 329.996 397.594 324.443 403.871 315.237C409.152 307.493 411.581 302.403 418.825 296.471C427.431 289.425 434.111 288.031 444.655 284.529C452.051 282.074 464.027 279.753 464.027 279.753L480 276C480 276 472.79 282.621 470.824 288.283C469.544 291.966 470.384 294.387 469.464 298.177C467.736 305.303 465.134 308.793 461.648 315.237C453.69 329.943 446.402 336.426 435.818 349.357C430.499 355.856 426.943 359.029 421.884 365.735C416.038 373.483 414.495 379.087 408.29 386.548C404.259 391.394 400.77 393.04 397.074 398.148C390.918 406.657 386.878 423.056 386.878 423.056Z" fill="#201806"/>
<path d="M389.597 464L386.878 450.693M386.878 450.693L383.837 439.092M386.878 450.693L374.303 443.186L366.487 433.974C366.487 433.974 359.701 420.038 351.873 414.867C347.096 411.712 343.725 411.156 338.278 409.408C332.176 407.449 328.622 406.726 322.305 405.655C316.119 404.606 312.594 403.575 306.331 403.949C297.321 404.486 292.553 407.24 284.241 410.773C277.187 413.77 273.201 415.603 266.908 419.985C260.803 424.235 258.166 427.632 252.634 432.609C246.476 438.148 237 446.94 237 446.94C237 446.94 245.472 445.327 250.934 445.575C258.877 445.935 262.746 449.786 270.646 450.693C277.108 451.434 280.796 450.693 287.299 450.693C294.732 450.693 298.903 450.938 306.331 450.693C314.176 450.433 318.656 450.711 326.383 449.328C332.056 448.313 335.012 446.736 340.657 445.575C347.222 444.225 350.957 442.864 357.65 443.186C362.643 443.427 370.225 445.575 370.225 445.575L386.878 450.693ZM386.878 423.056L383.48 437.727L383.837 439.092M386.878 423.056C386.878 423.056 390.918 406.657 397.074 398.148C400.77 393.04 404.259 391.394 408.29 386.548C414.495 379.087 416.038 373.483 421.884 365.735C426.943 359.029 430.499 355.856 435.818 349.357C446.402 336.426 453.69 329.943 461.648 315.237C465.134 308.793 467.736 305.303 469.464 298.177C470.384 294.387 469.544 291.966 470.824 288.283C472.79 282.621 480 276 480 276L464.027 279.753C464.027 279.753 452.051 282.074 444.655 284.529C434.111 288.031 427.431 289.425 418.825 296.471C411.581 302.403 409.152 307.493 403.871 315.237C397.594 324.443 394.553 329.996 389.937 340.145C385.995 348.813 383.827 353.782 381.441 363.005C377.555 378.02 375.504 387.281 378.042 402.584C378.92 407.876 378.911 411.165 381.441 415.891C383.099 418.989 386.878 423.056 386.878 423.056ZM383.837 439.092L374.303 430.903L365.127 419.985L352.552 395.76M352.552 395.76L354.931 386.548C354.931 386.548 355.402 374.395 352.552 367.441C349.917 361.008 346.77 358.171 342.017 353.11C337.819 348.641 335.488 345.825 330.122 342.874C325.925 340.566 323.21 339.942 318.566 338.78C306.719 335.814 299.467 339.806 287.299 338.78C281.837 338.319 273.365 337.074 273.365 337.074C273.365 337.074 279.573 342.552 284.241 344.921C289.675 347.68 293.898 346.341 299.194 349.357C302.891 351.462 304.236 353.697 307.691 356.181C311.763 359.108 314.561 359.986 318.566 363.005C322.551 366.008 324.334 368.24 328.083 371.535C330.065 373.277 331.241 374.18 333.18 375.97C337.88 380.309 339.879 383.383 344.396 387.912C347.517 391.043 352.552 395.76 352.552 395.76ZM352.552 395.76C352.552 395.76 361.644 391.55 365.127 386.548C369.467 380.315 373.451 373.493 368.866 367.441C367.082 365.086 362.748 363.005 362.748 363.005C362.748 363.005 363.221 368.238 362.748 371.535C362.234 375.123 360.029 380.406 360.029 380.406L352.552 395.76Z" stroke="#201806" stroke-width="5"/>
<path d="M147.894 128.315L134.635 125.672L133.651 124.875L125.285 118.099L123.316 133.615C123.316 133.615 122.271 140.612 120.622 144.785C118.411 150.379 115.918 152.932 112.387 157.803C109.351 161.993 106.968 163.828 104.04 168.093C100.053 173.903 98.6237 177.671 95.5119 183.993C92.5651 189.979 91.2243 193.482 88.4769 199.563C86.073 204.883 84.1032 207.626 82.3213 213.186C80.1428 219.984 81.8632 224.572 79.222 231.204C77.4058 235.764 72.9549 242.099 72.9549 242.099C72.9549 242.099 83.6499 237.596 90.4569 234.606C96.5736 231.919 100.327 231.018 106.061 227.595C111.972 224.066 114.945 221.483 120.004 216.821C125.966 211.327 129.982 208.443 133.752 201.271C136.373 196.286 136.832 193.021 138.261 187.573C139.72 182.009 140.442 178.834 141.095 173.118C141.678 168.017 142.469 165.053 141.654 159.979C140.317 151.663 131.425 140.961 131.425 140.961L126.778 131.161L125.285 118.099L133.651 124.875L136.826 135.701L142.366 147.244L157.536 166.486C157.536 166.486 159.534 172.349 160.941 176.059C162.977 181.429 164.753 184.2 166.565 189.648C167.313 191.897 167.616 193.193 168.309 195.458C169.619 199.743 170.786 202.027 171.77 206.396C172.759 210.789 172.443 213.402 173.332 217.816C174.087 221.56 175.419 223.487 175.774 227.289C176.284 232.737 173.627 235.696 173.875 241.162C174.088 245.856 176.275 252.959 176.275 252.959C176.275 252.959 178.388 245.569 180.03 240.93C183.689 230.596 189.634 226.139 191.588 215.351C192.353 211.123 192.846 208.671 192.509 204.384C192.079 198.904 190.637 195.955 188.532 190.87C186.15 185.11 184.992 181.488 180.704 176.954C176.068 172.052 165.952 167.945 165.952 167.945L157.536 166.486L172.861 166.044C172.861 166.044 177.998 166.194 181.123 167.099C183.995 167.931 188.101 170.252 188.101 170.252C188.101 170.252 188.001 165.938 186.734 163.608C183.477 157.62 176.424 158.358 169.721 159.604C164.341 160.604 157.536 166.486 157.536 166.486L142.366 147.244L136.826 135.701L133.651 124.875L134.635 125.672L147.894 128.315C147.894 128.315 149.824 132.91 151.746 135.412C154.676 139.228 157.371 140.437 161.375 143.111C172.956 150.844 181.29 152.589 195.01 154.96C203.437 156.417 208.304 156.481 216.852 156.46C226.86 156.435 232.528 155.999 242.379 154.267C250.666 152.81 255.728 152.704 263.259 148.97C272.204 144.534 275.814 139.585 282.575 132.254C287.318 127.111 293.644 118.172 293.644 118.172L302.619 106.492C302.619 106.492 294.537 109.942 289.178 109.458C285.692 109.144 284.021 107.562 280.581 106.913C274.113 105.693 270.296 106.531 263.735 107.002C248.763 108.076 240.766 111.642 226.275 115.52C218.993 117.469 215.082 119.206 207.727 120.866C199.227 122.784 194.072 121.975 185.675 124.294C180.221 125.8 177.584 128.045 172.039 129.181C162.803 131.072 147.894 128.315 147.894 128.315Z" fill="#201806"/>
<path d="M115.404 110.956L125.285 118.099M125.285 118.099L133.651 124.875M125.285 118.099L126.778 131.161L131.425 140.961C131.425 140.961 140.317 151.663 141.654 159.979C142.469 165.053 141.678 168.017 141.095 173.118C140.442 178.834 139.72 182.009 138.261 187.573C136.832 193.021 136.373 196.286 133.752 201.271C129.982 208.443 125.966 211.327 120.004 216.821C114.945 221.483 111.972 224.066 106.061 227.595C100.327 231.018 96.5736 231.919 90.4569 234.606C83.6499 237.596 72.9549 242.099 72.9549 242.099C72.9549 242.099 77.4058 235.764 79.222 231.204C81.8632 224.572 80.1428 219.984 82.3213 213.186C84.1032 207.626 86.073 204.883 88.4769 199.563C91.2243 193.482 92.5651 189.979 95.5119 183.993C98.6237 177.671 100.053 173.903 104.04 168.093C106.968 163.828 109.351 161.993 112.387 157.803C115.918 152.932 118.411 150.379 120.622 144.785C122.271 140.612 123.316 133.615 123.316 133.615L125.285 118.099ZM147.894 128.315L134.635 125.672L133.651 124.875M147.894 128.315C147.894 128.315 162.803 131.072 172.039 129.181C177.584 128.045 180.221 125.8 185.675 124.294C194.072 121.975 199.227 122.784 207.727 120.866C215.082 119.206 218.993 117.469 226.275 115.52C240.766 111.642 248.763 108.076 263.735 107.002C270.296 106.531 274.113 105.693 280.581 106.913C284.021 107.562 285.692 109.144 289.178 109.458C294.537 109.942 302.619 106.492 302.619 106.492L293.644 118.172C293.644 118.172 287.318 127.111 282.575 132.254C275.814 139.585 272.204 144.534 263.259 148.97C255.728 152.704 250.667 152.81 242.379 154.267C232.528 155.999 226.86 156.435 216.852 156.46C208.304 156.481 203.437 156.417 195.01 154.96C181.29 152.589 172.956 150.844 161.375 143.111C157.371 140.437 154.676 139.228 151.746 135.412C149.824 132.91 147.894 128.315 147.894 128.315ZM133.651 124.875L136.826 135.701L142.366 147.244L157.536 166.486M157.536 166.486L165.952 167.945C165.952 167.945 176.068 172.052 180.704 176.954C184.992 181.488 186.15 185.11 188.532 190.87C190.637 195.955 192.079 198.904 192.509 204.384C192.846 208.671 192.353 211.123 191.588 215.351C189.634 226.139 183.689 230.596 180.03 240.93C178.388 245.569 176.275 252.959 176.275 252.959C176.275 252.959 174.088 245.856 173.875 241.162C173.627 235.696 176.284 232.737 175.774 227.289C175.419 223.487 174.087 221.56 173.332 217.816C172.443 213.402 172.759 210.789 171.77 206.396C170.786 202.027 169.619 199.743 168.309 195.458C167.616 193.193 167.313 191.897 166.565 189.648C164.753 184.2 162.977 181.429 160.941 176.059C159.534 172.349 157.536 166.486 157.536 166.486ZM157.536 166.486C157.536 166.486 164.341 160.604 169.721 159.604C176.424 158.358 183.477 157.62 186.734 163.608C188.001 165.938 188.101 170.252 188.101 170.252C188.101 170.252 183.995 167.931 181.123 167.099C177.998 166.194 172.861 166.044 172.861 166.044L157.536 166.486Z" stroke="#201806" stroke-width="5"/>
<path d="M362.599 139.635L365.346 140.27C363.725 143.223 361.537 146.622 359.662 148.944L357.534 148.269C359.27 145.909 361.483 142.207 362.599 139.635ZM345.196 146.988L346.63 144.983C348.872 145.747 351.61 147.102 352.98 148.159L351.571 150.366C350.189 149.271 347.476 147.864 345.196 146.988ZM342.988 135.068L357.616 130.129L358.371 132.365L343.742 137.304L342.988 135.068ZM342.987 141.569L363.831 134.533L364.676 137.034L343.831 144.071L342.987 141.569ZM352.304 140.155L354.919 139.272L360.676 156.327C361.163 157.767 361.14 158.577 360.334 159.313C359.514 160.012 358.099 160.574 355.901 161.316C355.545 160.634 354.807 159.701 354.172 159.071C355.79 158.61 357.192 158.136 357.685 157.97C358.089 157.791 358.202 157.626 358.061 157.21L352.304 140.155ZM347.124 158.2C349.252 155.751 352.449 151.716 355.42 147.885L356.894 149.625C354.39 153.214 351.647 156.968 349.457 159.861L347.124 158.2ZM356.598 144.87C359.811 148.386 364.906 150.846 369.915 150.928C369.475 151.626 369.012 152.88 368.863 153.69C363.688 153.242 358.452 150.238 354.869 146.128L356.598 144.87ZM340.247 129.576L355.596 124.394L356.415 126.82L341.066 132.001L340.247 129.576ZM354.459 124.778L354.762 124.676L355.166 124.371L357.226 123.844C358.391 127.546 359.865 132.663 360.841 136.555L358.061 137.325C357.072 133.395 355.457 127.861 354.574 125.119L354.459 124.778ZM333.967 157.744C333.623 157.227 332.721 156.054 332.174 155.436C332.932 155.054 333.433 153.787 334.097 152.001C334.811 150.24 336.734 143.68 337.445 137.783L340.344 138.367C339.304 144.417 337.52 150.761 335.35 155.589L335.375 155.664C335.375 155.664 333.775 157.176 333.967 157.744ZM333.967 157.744L333.047 155.521L334.092 154.113L342.978 149.172C343.158 149.955 343.516 151.016 343.759 151.61C335.669 156.283 334.546 157.084 333.967 157.744ZM330.631 148.738C330.275 148.183 329.346 146.934 328.737 146.253C329.368 145.872 329.705 144.744 330.041 143.238C330.402 141.681 331.328 135.922 331.208 130.938L334.397 131.255C334.139 136.493 333.212 142.252 331.824 146.52L331.862 146.634C331.862 146.634 330.426 148.132 330.631 148.738ZM330.631 148.738L329.876 146.629L330.947 145.296L337.349 142.375C337.478 143.134 337.723 144.233 337.952 144.789C332.106 147.607 331.135 148.23 330.631 148.738ZM334.67 162.953C337.345 161.248 341.205 158.551 345.103 155.842L346.326 158.089C342.782 160.721 339.086 163.404 336.248 165.502L334.67 162.953ZM374.523 138.565L398.74 130.39L399.648 133.081L375.431 141.256L374.523 138.565ZM383.498 130.511L386.379 129.539L392.929 148.943L390.049 149.915L383.498 130.511ZM379.406 142.151L382.619 142.038C381.824 145.937 379.677 150.082 377.437 153.075C376.714 152.686 375.22 152.135 374.397 151.948C376.726 149.22 378.736 145.544 379.406 142.151ZM394.054 138.769L395.765 136.46C399.426 137.673 404.037 139.578 406.472 141.163L404.622 143.687C402.314 142.102 397.727 140.02 394.054 138.769ZM383.3 124.921C381.46 129.975 376.463 136.433 370.877 141.147C370.331 140.529 369.328 139.685 368.58 139.22C374.394 134.682 379.176 128.213 380.876 122.995L383.757 122.023C389.449 125.378 397.336 126.98 403.938 126.778C403.574 127.702 403.288 128.981 403.165 129.867C396.663 129.74 388.384 127.975 383.3 124.921ZM364.371 123.374L397.722 112.116L398.617 114.769L365.266 126.027L364.371 123.374ZM371.532 117.326L374.337 116.379L377.689 126.309L374.884 127.255L371.532 117.326ZM385.176 112.72L387.98 111.773L391.332 121.703L388.528 122.65L385.176 112.72Z" fill="#201806"/>
</svg>
