<svg width="779" height="749" viewBox="0 0 779 749" fill="none" xmlns="http://www.w3.org/2000/svg">
<path d="M592.622 285.526C619.363 319.662 623.007 367.065 606.739 416.442C590.477 465.798 554.386 516.822 502.222 557.686C450.059 598.55 391.877 621.376 340.063 625.348C288.228 629.322 243.075 614.436 216.334 580.3C183.812 538.784 173.313 473.74 202.561 414.202C212.106 394.771 227.689 376.422 246.181 358.805C264.666 341.196 285.924 324.442 306.734 308.14C327.543 291.838 349.295 274.9 371.215 260.858C393.147 246.808 415.083 235.769 436.227 231.154C500.98 217.023 560.064 243.965 592.622 285.526Z" fill="#201806" stroke="#F4EDDB" stroke-width="5"/>
<path d="M228.426 375.2L205.666 346.146C205.666 346.146 211.516 321.625 218.306 307.746C226.785 290.413 246.967 268.746 246.967 268.746L223.76 239.122L260.918 210.013L284.125 239.637C284.125 239.637 310.524 225.675 329.316 220.783C345.82 216.487 373.342 214.793 373.342 214.793L396.103 243.847L373.416 257.942L337.688 284.092L293.098 319.023L254.974 350.726L228.426 375.2Z" fill="#201806"/>
<path d="M205.666 346.146L228.426 375.2L254.974 350.726L293.098 319.023L337.688 284.092L373.416 257.942L396.103 243.847L373.342 214.793M205.666 346.146L373.342 214.793M205.666 346.146C205.666 346.146 211.516 321.625 218.306 307.746C226.785 290.413 246.967 268.746 246.967 268.746L223.76 239.122L260.918 210.013L284.125 239.637C284.125 239.637 310.524 225.675 329.316 220.783C345.82 216.487 373.342 214.793 373.342 214.793" stroke="#F4EDDB" stroke-width="5"/>
<path d="M473.494 187.683C470.508 203.114 472.352 227.671 472.352 227.671L492 228.429L509.772 231.656C509.772 231.656 506.129 209.103 507.454 195.963C508.926 181.358 508.984 171.328 518.4 159.722C527.429 148.591 536.344 144.576 550.245 141.391C564.436 138.14 573.492 139.854 587.001 144.474C601.434 149.41 609.587 154.527 619.061 166.271C628.98 178.567 632.449 188.185 633.717 204.109C635.044 220.767 630.373 230.466 624.34 246.338C618.021 262.965 597.418 290.027 597.418 290.027L607.134 309.727L613.426 328.299C613.426 328.299 627.677 306.437 633.695 294.944C642.874 277.416 650.82 268.5 656.249 249.61C661.768 230.406 662.946 218.621 660.947 199.017C658.76 177.561 656.115 164.325 643.825 146.872C631.56 129.453 620.641 121.288 600.677 113.312C580.581 105.283 566.592 102.87 545.006 107.604C524.103 112.189 511.72 119.111 497.092 134.914C481.644 151.604 477.748 165.697 473.494 187.683Z" fill="#201806" stroke="#F4EDDB" stroke-width="5"/>
<path d="M89.4695 454.838L184.285 468.849L183.826 475.56L183.682 497.268L186.517 517.913L193.36 543.675L70.6101 504.546L89.4695 454.838Z" fill="#201806" stroke="#F4EDDB" stroke-width="5"/>
<path d="M407.313 475.981C416.945 474.1 431.713 476.904 430.833 467.129C429.995 457.831 417.052 462.391 408.147 459.587C396.592 455.95 390.431 452.045 378.372 450.89C370.413 450.127 365.901 451.523 357.905 451.474C348.835 451.419 343.766 450.77 334.702 450.422C326.485 450.107 321.879 449.811 313.656 449.749C307.846 449.705 301.068 444.553 298.78 449.893C296.489 455.238 303.909 457.882 308.966 460.753C315.006 464.181 319.702 462.262 326.539 463.484C343.302 466.478 352.118 471.091 368.974 473.516C383.824 475.652 392.588 478.857 407.313 475.981Z" stroke="#F4EDDB" stroke-width="5"/>
<path d="M472.767 479.879C468.624 478.265 465.495 475.99 464.977 471.574C464.371 466.408 469.543 464.82 473.062 460.989C479.45 454.032 484.586 451.794 492.127 446.107C499.833 440.296 504.145 437.015 512.111 431.565C520.582 425.77 524.274 414.994 534.251 417.402C539.501 418.669 544.205 420.253 545.456 425.506C547.119 432.494 537.424 433.334 532.041 438.089C522.652 446.383 516.376 449.821 506.926 458.044C499.057 464.893 496.957 472.042 487.443 476.32C482.064 478.739 478.263 482.018 472.767 479.879Z" stroke="#F4EDDB" stroke-width="5"/>
<path d="M441.474 506.634C444.693 495.595 443.345 485.17 453.487 479.754C458.509 477.072 462.734 474.563 467.824 477.114C475.897 481.16 464.392 490.897 463.996 499.918C463.655 507.684 466.027 512.055 465.22 519.786C464.242 529.154 462.991 534.818 457.977 542.791C452.97 550.754 449.09 555.644 440.41 559.27C435.157 561.464 431.731 562.549 426.074 561.909C422.722 561.53 420.06 561.968 417.786 559.476C413.407 554.674 426.026 553.291 429.924 548.09C433.622 543.156 435.009 539.839 437.188 534.071C441.022 523.926 438.438 517.045 441.474 506.634Z" stroke="#F4EDDB" stroke-width="5"/>
<path d="M423.147 521.729C431.289 510.838 445.169 508.774 445.683 495.185C445.88 489.968 446.91 485.552 443.004 482.087C438.842 478.396 434.167 480.296 428.767 481.632C420.92 483.573 417.726 488.165 412.256 494.116C403.872 503.239 404.162 511.71 398.027 522.475C392.605 531.989 388.166 536.496 383.018 546.161C377.042 557.38 375.188 564.389 370.286 576.116C368.043 581.484 362.356 584.5 364.579 589.876C365.69 592.563 367.103 593.945 369.672 595.306C377.474 599.438 378.166 584.456 383.565 577.471C391.836 566.77 396.764 560.982 404.584 549.949C412.212 539.187 415.248 532.294 423.147 521.729Z" stroke="#F4EDDB" stroke-width="5"/>
<path d="M376.758 509.402C386.778 501.799 404.165 505.199 404.249 492.621C404.276 488.567 404.128 485.679 401.471 482.618C396.335 476.702 391.045 479.188 383.837 481.746C378.574 483.613 374.994 485.346 369.721 487.181C361.968 489.879 359.78 493.259 355.667 500.364C352.17 506.405 351.583 508.896 344.949 515.822C338.314 522.748 336.714 528.247 330.079 535.173C323.445 542.099 305.977 545.229 313.53 548.896C317.687 550.913 320.798 548.934 325.331 548.034C337.376 545.641 352.483 532.172 352.483 532.172C352.483 532.172 366.403 517.258 376.758 509.402Z" stroke="#F4EDDB" stroke-width="5"/>
<path d="M488.174 446.479C485.378 448.985 482.564 448.71 478.81 448.658C463.897 448.45 472.494 426.248 467.897 412.06C466.388 407.401 464.971 404.947 463.94 400.16C462.433 393.16 463.384 388.998 462.977 381.849C462.535 374.088 461.28 369.741 461.753 361.982C462.208 354.539 460.571 349.082 465.143 343.191C468.68 338.633 473.085 332.188 477.78 335.54C480.65 337.588 480.311 340.532 480.918 344.005C481.688 348.415 480.299 350.971 480.242 355.447C480.123 364.821 482.198 369.993 482.265 379.368C482.315 386.262 481.08 390.113 481.391 397C481.747 404.867 482.27 410.196 484.131 417.847C485.741 424.463 489.415 426.723 489.828 433.519C490.137 438.612 491.973 443.073 488.174 446.479Z" stroke="#F4EDDB" stroke-width="5"/>
<path d="M507.158 424.469C504.196 426.382 502.179 427.623 498.711 426.988C494.673 426.25 493.26 424.387 491.161 420.86C487.277 414.334 487.922 409.729 487.422 402.151C486.865 393.701 487.223 389.19 488.414 380.805C489.248 374.935 488.195 370.868 489.23 365.029C490.584 357.393 491.975 352.966 491.102 345.26C490.309 338.268 478.783 328.923 485.766 328.049C490.459 327.462 492.422 331.535 495.771 334.876C499.714 338.808 503.442 346.894 503.442 346.894C503.442 346.894 506.001 358.788 506.842 366.522C507.773 375.079 506.626 380.005 507.687 388.546C508.84 397.832 515.367 402.943 512.825 411.948C511.112 418.017 512.455 421.047 507.158 424.469Z" stroke="#F4EDDB" stroke-width="5"/>
<path d="M463.728 426.667C467.782 440.48 475.385 459.249 461.622 463.469C454.32 465.708 450.102 460.283 442.551 459.141C435.965 458.145 432.187 458.318 425.558 457.668C416.622 456.792 411.422 457.265 402.714 455.078C392.39 452.486 386.455 450.346 377.651 444.363C367.608 437.537 364.686 430.541 356.379 421.685C350.295 415.198 345.214 412.796 340.799 405.076C337.265 398.895 330.47 393.462 334.844 387.845C340.062 381.146 345.834 395.347 352.08 401.099C357.239 405.849 359.183 409.47 364.364 414.195C375.03 423.921 382.255 428.256 395.32 434.394C410.876 441.702 437.695 446.283 437.695 446.283C437.695 446.283 428.006 440.771 421.878 437.102C412.02 431.199 406.325 428.111 396.974 421.434C388.116 415.109 384.171 410.205 375.224 404.008C364.195 396.369 355.735 395.507 345.407 386.943C337.903 380.721 322.037 376.183 328.329 368.737C333.097 363.096 336.368 364.072 347.239 368.413L375.077 379.527C385.949 383.868 410.389 408.85 410.389 408.85L450.175 443.584C450.175 443.584 440.043 429.714 432.916 421.344C425.377 412.49 420.499 408.107 412.543 399.625L397.263 383.335C397.263 383.335 391.021 375.973 392.088 370.777C392.088 370.777 391.544 349.713 402.309 361.189L429.873 390.574C440.637 402.05 458.286 408.124 463.728 426.667Z" stroke="#F4EDDB" stroke-width="5"/>
<path d="M368.597 345.713C364.429 346.382 361.088 344.623 357.923 347.427C352.22 352.479 362.683 366.112 369.5 369.5C377.632 373.542 379.634 359.749 388.239 356.855C394.69 354.685 402.642 354.038 408.5 357.5C419.5 364 427.949 366.5 427.949 366.5M368.597 345.713C360.879 343.716 349.957 346.658 346.001 339.713C343.67 335.622 343.252 330.318 346.006 326.5C349.231 322.028 354.432 322.999 359.5 325.143C364.957 327.451 374 331.317 374 331.317L381 333.285M368.597 345.713C376.268 345.713 382.198 350.457 388.239 345.713C390.577 343.877 391.101 342.056 392.936 339.713M381 333.285C381 333.285 356.5 326.52 356.5 317.429C356.5 314.001 357.506 308.401 360.5 306.001C363.619 303.501 364.5 303.501 371.5 303.501C375.162 303.501 379.665 307.508 383 306.001M381 333.285H392.936M383 306.001C388.196 303.36 396.932 293.462 402.756 293.501C408.418 293.54 416.847 302.501 416.847 302.501M383 306.001C384.834 310.687 392.238 312.443 392.936 317.429C393.353 320.412 392.936 322.13 392.936 325.143C392.936 328.323 392.936 333.285 392.936 333.285M416.847 302.501C416.847 302.501 428.912 293.573 433.499 293.5C437.542 293.437 437.769 306.001 437.769 306.001M416.847 302.501C416.847 302.501 417.473 310.713 416.847 314.001C416.243 317.176 412.76 318.676 413.858 321.715C414.462 323.387 416.333 323.161 417.5 324.5M461 314.001C458.832 309.315 459.85 308.491 455.703 305.43C450.598 301.663 439.477 305.43 439.477 305.43L437.769 306.001M461 314.001C458.832 318.519 459.962 326.377 455.703 329C450.152 332.417 445.96 325.763 439.477 325.143C434.995 324.714 427.949 325.143 427.949 325.143M461 314.001C463.704 310.181 478.296 315.18 481 319C483.853 323.031 470.455 324.664 468.085 329C464.188 336.131 463.436 343.281 455.703 345.713C449.555 347.646 454.836 358.026 448.5 356.855M421.544 325.143C426.213 328.323 429.679 329.118 433.499 333.285C436.444 336.496 446.849 352.818 448.5 356.855M421.544 325.143C419.71 325.143 419.5 326 417.5 324.5M421.544 325.143C424.045 325.143 427.949 325.143 427.949 325.143M448.5 356.855C447 369.5 427.949 366.5 427.949 366.5M427.949 366.5C427.949 366.5 413.997 348.893 409.161 345.713M409.161 345.713C406.66 339.186 398.946 334.854 402.756 329C405.875 324.207 412.388 321.96 417.5 324.5M409.161 345.713C405.826 344.541 400.621 342.713 400.621 342.713C400.621 342.713 395.937 340.885 392.936 339.713M392.936 333.285C392.936 333.285 392.936 337.203 392.936 339.713M437.769 306.001L433.499 311.43C433.499 311.43 432.273 315.114 431.365 317.429C430.16 320.496 427.949 325.143 427.949 325.143" stroke="#F4EDDB" stroke-width="5"/>
</svg>
