<svg width="1113" height="936" viewBox="0 0 1113 936" fill="none" xmlns="http://www.w3.org/2000/svg">
<rect x="374.536" y="227.309" width="316.463" height="564.724" transform="rotate(-45 374.536 227.309)" stroke="#201806" stroke-width="5"/>
<rect x="533.543" y="82.5957" width="92.7321" height="132.975" transform="rotate(-45 533.543 82.5957)" stroke="#201806" stroke-width="5"/>
<rect x="637.075" y="186.002" width="92.7321" height="132.975" transform="rotate(-45 637.075 186.002)" stroke="#201806" stroke-width="5"/>
<rect x="386.95" y="228.235" width="92.7321" height="132.975" transform="rotate(-45 386.95 228.235)" stroke="#201806" stroke-width="5"/>
<rect x="460.723" y="155.415" width="92.7321" height="132.975" transform="rotate(-45 460.723 155.415)" stroke="#201806" stroke-width="5"/>
<rect x="564.246" y="258.822" width="92.7321" height="132.975" transform="rotate(-45 564.246 258.822)" stroke="#201806" stroke-width="5"/>
<rect x="490.473" y="331.643" width="92.7321" height="132.975" transform="rotate(-45 490.473 331.643)" stroke="#201806" stroke-width="5"/>
<rect x="801.672" y="190.854" width="439.46" height="339.155" transform="rotate(45 801.672 190.854)" fill="#201806"/>
<path d="M671.819 419.017C665.522 425.315 658.837 422.691 654.515 415.744C650.385 409.157 649.902 400.801 656.089 394.614C660.025 390.678 664.569 390.167 668.905 393.04L666.806 396.851C663.934 394.365 661.199 395.166 658.561 397.804C654.142 402.224 654.556 408.162 657.76 413.3C660.826 418.216 664.969 420.205 669.32 415.855C672.096 413.079 673.049 409.695 672.054 405.248L675.907 404.102C677.137 410.054 675.604 415.233 671.819 419.017ZM682.633 407.679L667.621 383.662L670.521 380.762L676.211 390.015C676.101 387.198 677.192 385.002 678.642 383.552C682.191 380.002 685.948 381.88 688.213 385.471L694.621 395.691L691.721 398.591L685.451 388.592C683.959 386.189 682.357 385.029 680.258 387.129C677.938 389.449 678.159 393.012 679.995 395.981L685.533 404.779L682.633 407.679ZM704.551 386.286C700.325 390.512 694.87 389.2 691.734 384.187C688.82 379.56 689.138 373.055 693.226 368.967C697.452 364.741 702.894 365.957 706.015 370.956C708.915 375.624 708.639 382.198 704.551 386.286ZM702.355 383.538C705.117 380.776 704.703 376.577 702.645 373.276C700.822 370.349 698.06 369.078 695.436 371.702C692.674 374.464 693.046 378.594 695.104 381.867C696.941 384.808 699.731 386.162 702.355 383.538ZM719.894 370.942C715.503 375.334 710.503 373.29 707.506 368.526C704.868 364.23 704.219 357.974 708.528 353.665C711.277 350.917 714.55 350.516 717.63 352.74L715.613 356.414C714.025 355.074 712.285 355.102 710.835 356.552C708.238 359.148 708.915 363.25 710.821 366.261C712.506 368.995 715.075 370.57 717.56 368.084C719.135 366.509 719.522 363.968 718.831 361.786L722.436 360.64C723.485 364.617 722.505 368.332 719.894 370.942ZM734.023 356.814C729.797 361.04 724.341 359.728 721.206 354.715C718.292 350.088 718.61 343.583 722.698 339.496C726.924 335.269 732.366 336.485 735.487 341.484C738.387 346.152 738.111 352.726 734.023 356.814ZM731.827 354.066C734.589 351.304 734.175 347.105 732.117 343.804C730.294 340.877 727.532 339.606 724.908 342.23C722.146 344.992 722.518 349.122 724.576 352.395C726.413 355.336 729.203 356.69 731.827 354.066ZM746.687 344.15C744.906 345.931 743.055 345.959 741.315 343.169L728.554 322.729L731.399 319.884L743.732 339.647C744.339 340.614 744.892 340.808 745.734 339.965C746.038 339.661 746.37 339.219 746.701 338.75L748.745 341.595C748.165 342.451 747.35 343.487 746.687 344.15ZM756.658 334.178C752.764 338.073 747.847 336.167 744.74 331.237C741.895 326.679 741.563 320.63 745.278 316.915C747.032 315.161 749.366 314.484 751.424 315.354L749.877 312.841L752.791 309.927L763.426 326.886L760.76 329.552L759.144 327.19C759.434 330.021 758.343 332.493 756.658 334.178ZM755.029 330.615C757.598 328.046 757.363 324.11 755.222 320.754C753.372 317.744 750.748 316.639 748.317 319.07C745.734 321.652 745.969 325.671 748.068 328.958C749.933 331.955 752.598 333.046 755.029 330.615ZM772.624 318.213C769.944 320.893 767.086 320.437 765.111 317.302L759.379 308.145L757.128 310.396L755.277 307.441L757.57 305.148L754.766 300.715L756.009 295.384L760.374 302.345L763.964 298.754L765.815 301.709L762.224 305.3L767.748 314.139C768.936 316.017 769.861 315.921 770.856 314.926C771.602 314.181 772.126 313.076 772.375 312.413L774.599 315.575C774.267 316.266 773.494 317.343 772.624 318.213ZM781.048 288.824C784.432 292.208 780.869 297.704 774.999 303.546C775.206 303.781 775.413 304.016 775.634 304.237C777.485 306.087 779.363 306.281 781.449 304.195C782.968 302.676 783.658 300.853 783.81 298.519L787.387 298.782C787.139 302.29 785.965 304.872 783.783 307.054C779.916 310.921 776.035 310.383 772.817 307.165C768.19 302.538 767.389 294.804 772.375 289.818C775.634 286.559 779.046 286.822 781.048 288.824ZM774.695 292.304C772.361 294.638 772.237 297.856 773.3 300.632C775.717 298.16 780.399 293.313 778.438 291.351C777.499 290.412 775.938 291.061 774.695 292.304Z" fill="#F4EDDB"/>
<circle cx="841.484" cy="407.643" r="35.6435" fill="#201806"/>
<circle cx="841.485" cy="407.644" r="29.4446" fill="#F4EDDB"/>
<circle cx="799.643" cy="466.533" r="35.6435" fill="#201806"/>
<circle cx="835.283" cy="526.971" r="35.6435" fill="#201806"/>
<circle cx="906.574" cy="508.375" r="35.6435" fill="#201806"/>
<circle cx="906.574" cy="437.088" r="35.6435" fill="#201806"/>
<circle cx="906.576" cy="437.088" r="29.4446" fill="#F4EDDB"/>
<circle cx="906.576" cy="508.375" r="29.4446" fill="#F4EDDB"/>
<circle cx="835.285" cy="526.971" r="29.4446" fill="#F4EDDB"/>
<circle cx="799.639" cy="466.533" r="29.4446" fill="#F4EDDB"/>
<path d="M907.64 519.4C901.2 519.4 898.08 514.4 898.08 509.2C898.08 504 901.16 498.88 907.6 498.88C911.52 498.88 914.6 500.76 916.12 504.68L911.56 506.48C911.04 504.4 909.56 503.08 907.6 503.08C904.28 503.08 903 506.08 903 509.2C903 512.32 904.24 515.2 907.6 515.2C909.52 515.2 911.04 513.92 911.56 511.88L915.92 513.56C914.6 517.24 911.56 519.4 907.64 519.4Z" fill="#201806"/>
<path d="M836.44 517.88C841.64 517.88 844.88 520.8 844.88 525.56V538H840.48L840.08 535.44C838.92 537.28 836.68 538.4 834.08 538.4C829.92 538.4 826.96 535.72 826.96 531.96C826.96 529.64 828 527.88 829.92 527C831.24 526.4 832.92 526.12 835.16 526.12H840.08V525.56C840.08 523.4 838.64 522.08 836.36 522.08C834.36 522.08 832.48 523.12 831.04 525.04L827.56 522.12C829.92 519.28 832.84 517.88 836.44 517.88ZM834.84 534.32C837.72 534.32 840.08 532.28 840.08 529.72H835.8C834.16 529.72 833.2 529.92 832.56 530.4C832.04 530.76 831.76 531.32 831.76 532.04C831.76 533.44 832.92 534.32 834.84 534.32Z" fill="#201806"/>
<path d="M842.32 398.88C847.16 398.88 850.64 402.68 850.64 409.12C850.64 415.04 847.68 419.4 842.32 419.4C840.2 419.4 838 418.72 836.64 417.04V419H831.84V391.12H836.64V401.28C837.88 399.8 840.08 398.88 842.32 398.88ZM841.16 414.96C844.36 414.96 845.84 412.8 845.84 409.16C845.84 405.48 844.32 403.24 841.12 403.24C837.68 403.24 836.2 405.88 836.2 409.16C836.2 412.44 837.68 414.96 841.16 414.96Z" fill="#201806"/>
<path d="M897.84 451V423.12H902.64V439.28L909.88 431.28H916.32L908.96 438.92L917.16 451H911.44L905.68 441.88L902.64 445.24V451H897.84Z" fill="#201806"/>
<path d="M801.24 477.4C798.56 477.4 796.6 475.8 796.6 472.28V449.12H801.4V471.96C801.4 472.84 801.92 473.2 802.8 473.2C803.24 473.2 803.76 473.12 804.32 472.96V476.8C803.24 477.2 802.16 477.4 801.24 477.4Z" fill="#201806"/>
<path d="M234.5 757C284.5 765 343 771.5 343 823.5C343 868 301 889.5 240.5 889.5C174 889.5 132.5 863 132.5 814.5C132.5 810 133 806.5 133.5 803.5L175.5 765.5C155 757.5 140.5 744 140.5 719.5C140.5 699.5 150 685 168.5 673.5C154.5 659 146.5 639.5 146.5 617.5C146.5 568.5 186 534 238 534C263 534 285 542 300.5 556L333.5 527L346.5 543.5L314 571.5C323.5 584.5 328.5 601 328.5 619C328.5 668 289.5 700.5 238 700.5C217.5 700.5 199.5 695.5 185 686.5C171.5 693 164 703 164 716.5C164 744.5 197 751 234.5 757ZM238.5 555C199.5 555 171 581 171 618C171 653.5 197 680 238 680C278.5 680 303.5 654 303.5 618.5C303.5 581 277.5 555 238.5 555ZM241.5 868.5C289 868.5 318 854 318 825.5C318 790.5 273.5 786 229.5 778.5C218 776.5 206.5 774.5 195.5 772L157.5 809C157 812 157 813.5 157 815C157 853 193.5 868.5 241.5 868.5Z" fill="#201806"/>
<circle cx="237" cy="691" r="234.5" stroke="#201806" stroke-width="5"/>
<path d="M483.112 875V858.272H488.944C492.28 858.272 494.248 859.856 494.248 862.496C494.248 864.056 493.576 865.304 492.4 865.976C494.2 866.624 495.136 868.016 495.136 870.104C495.136 873.176 493.096 875 489.688 875H483.112ZM486.112 864.92H488.944C490.456 864.92 491.248 864.272 491.248 863.024C491.248 861.752 490.408 861.032 488.944 861.032H486.112V864.92ZM486.112 872.24H489.448C491.128 872.24 492.136 871.328 492.136 869.864C492.136 868.448 491.2 867.68 489.448 867.68H486.112V872.24ZM507.971 868.928C507.971 869.288 507.947 869.648 507.899 870.032H499.787C499.907 871.592 500.867 872.624 502.739 872.624C503.795 872.624 504.755 872.288 505.571 871.352L507.563 873.104C506.267 874.544 504.707 875.24 502.715 875.24C498.635 875.24 496.907 872.312 496.907 869.144C496.907 866.048 498.587 862.928 502.523 862.928C506.195 862.928 507.971 865.64 507.971 868.928ZM499.763 867.752H505.211C505.163 866.24 504.011 865.328 502.499 865.328C500.747 865.328 499.931 866.576 499.763 867.752ZM514.92 862.928C518.04 862.928 519.984 864.68 519.984 867.536V875H517.344L517.104 873.464C516.408 874.568 515.064 875.24 513.504 875.24C511.008 875.24 509.232 873.632 509.232 871.376C509.232 869.984 509.856 868.928 511.008 868.4C511.8 868.04 512.808 867.872 514.152 867.872H517.104V867.536C517.104 866.24 516.24 865.448 514.872 865.448C513.672 865.448 512.544 866.072 511.68 867.224L509.592 865.472C511.008 863.768 512.76 862.928 514.92 862.928ZM513.96 872.792C515.688 872.792 517.104 871.568 517.104 870.032H514.536C513.552 870.032 512.976 870.152 512.592 870.44C512.28 870.656 512.112 870.992 512.112 871.424C512.112 872.264 512.808 872.792 513.96 872.792ZM530.316 863.168H533.196V875H530.316V873.632C529.476 874.76 528.18 875.24 526.788 875.24C523.812 875.24 522.564 873.08 522.564 870.56V863.168H525.444V869.84C525.444 870.656 525.444 872.72 527.628 872.72C530.316 872.72 530.316 869.768 530.316 867.656V863.168ZM542.875 865.448H539.923V871.472C539.923 872.408 540.499 872.84 541.435 872.84C541.843 872.84 542.347 872.744 542.875 872.576V874.88C542.155 875.12 541.435 875.24 540.715 875.24C538.723 875.24 537.043 874.208 537.043 871.688V865.448H535.123V863.168H537.043V860.888L539.923 858.752V863.168H542.875V865.448ZM545.327 860.936V858.272H548.351V860.936H545.327ZM545.399 875V863.168H548.279V875H545.399ZM552.329 875V865.448H550.073V863.168H552.353V861.824C552.353 858.824 554.057 858.032 555.929 858.032C556.841 858.032 557.537 858.224 558.161 858.512L557.225 860.72C556.961 860.552 556.625 860.432 556.241 860.432C555.209 860.432 555.209 861.368 555.209 861.8V863.168H557.969V865.448H555.209V875H552.329ZM566.996 863.168H569.876V875H566.996V873.632C566.156 874.76 564.86 875.24 563.468 875.24C560.492 875.24 559.244 873.08 559.244 870.56V863.168H562.124V869.84C562.124 870.656 562.124 872.72 564.308 872.72C566.996 872.72 566.996 869.768 566.996 867.656V863.168ZM575.907 875.24C574.299 875.24 573.123 874.28 573.123 872.168V858.272H576.003V871.976C576.003 872.504 576.315 872.72 576.843 872.72C577.107 872.72 577.419 872.672 577.755 872.576V874.88C577.107 875.12 576.459 875.24 575.907 875.24ZM586.454 875V865.448H584.198V863.168H586.478V861.824C586.478 858.824 588.182 858.032 590.054 858.032C590.966 858.032 591.662 858.224 592.286 858.512L591.35 860.72C591.086 860.552 590.75 860.432 590.366 860.432C589.334 860.432 589.334 861.368 589.334 861.8V863.168H592.094V865.448H589.334V875H586.454ZM598.318 875.24C594.646 875.24 592.39 872.408 592.39 869.072C592.39 865.712 594.646 862.928 598.318 862.928C601.966 862.928 604.246 865.712 604.246 869.072C604.246 872.408 601.966 875.24 598.318 875.24ZM598.318 872.72C600.502 872.72 601.366 870.992 601.366 869.072C601.366 867.128 600.502 865.448 598.318 865.448C596.134 865.448 595.27 867.128 595.27 869.072C595.27 870.992 596.134 872.72 598.318 872.72ZM613.003 862.928C615.667 862.928 617.179 864.56 617.179 867.368V875H614.299V868.088C614.299 867.272 614.299 865.448 612.115 865.448C609.427 865.448 609.427 868.16 609.427 870.272V875H606.547V863.168H609.427V864.536C610.267 863.408 611.563 862.928 613.003 862.928ZM626.594 865.448H623.642V871.472C623.642 872.408 624.218 872.84 625.154 872.84C625.562 872.84 626.066 872.744 626.594 872.576V874.88C625.874 875.12 625.154 875.24 624.434 875.24C622.442 875.24 620.762 874.208 620.762 871.688V865.448H618.842V863.168H620.762V860.888L623.642 858.752V863.168H626.594V865.448Z" fill="#201806"/>
<path d="M380.217 889.232C379.241 890.208 379.241 891.791 380.217 892.768L396.127 908.678C397.103 909.654 398.686 909.654 399.662 908.678C400.639 907.701 400.639 906.118 399.662 905.142L385.52 891L399.662 876.858C400.639 875.881 400.639 874.299 399.662 873.322C398.686 872.346 397.103 872.346 396.127 873.322L380.217 889.232ZM729.008 888.5L381.985 888.5V893.5L729.008 893.5V888.5Z" fill="#201806"/>
</svg>
