<svg width="617" height="591" viewBox="0 0 617 591" fill="none" xmlns="http://www.w3.org/2000/svg">
<path d="M550.906 345.385C537.667 327.4 528.223 311.431 503.982 311.844C494.258 312.01 488.499 314.046 479.057 317.794C471.576 320.764 466.968 322.314 460.708 327.553C436.827 347.541 464.645 371.908 474.601 397.415C483.506 420.225 484.425 468.314 506.197 450.945C515.488 443.532 514.641 434.915 520.774 424.975C535.121 401.724 566.866 393.5 563.378 368.756C561.892 358.211 557.014 353.682 550.906 345.385Z" fill="#201806" stroke="#201806"/>
<path d="M220.805 276.052L220.82 276.049L220.835 276.046L368.483 242.887L368.51 242.881L368.538 242.875L499.353 210.406L516.498 255.834L522.065 288.989L395.088 323.859L247.518 357.001L247.497 357.005L94.9753 389.904L78.895 334.112L73.5721 307.262L220.805 276.052ZM522.898 293.945L532.866 353.307L532.869 353.322L547.243 442.257C547.852 446.026 545.533 449.651 541.856 450.678L346.436 505.256L147.778 547.898C143.925 548.725 140.089 546.429 138.997 542.642L96.3632 394.719L248.572 361.888L248.582 361.886L248.592 361.884L396.241 328.725L396.298 328.712L396.355 328.697L522.898 293.945ZM72.5998 302.357L43.7134 156.643C42.9512 152.798 45.2785 149.015 49.0542 147.961L243.217 93.7721L443.106 50.7695C446.87 49.9598 450.635 52.1311 451.82 55.7941L500.092 205.071L367.36 238.015L219.769 271.161L219.739 271.167L72.5998 302.357Z" stroke="#201806" stroke-width="5"/>
<path d="M336.188 149.831L365.418 240.223L340.862 245.536L308.119 158.908L336.188 149.831Z" fill="#201806"/>
<path d="M335.296 125.947C329.934 133.745 336.65 151.258 336.65 151.258L320.95 156.335C320.95 156.335 311.025 126.151 322.579 115.871C329.581 109.641 343.218 106.569 343.218 106.569C343.218 106.569 373.182 105.728 381.919 110.87C395.558 118.898 341.713 116.615 335.296 125.947Z" fill="#201806"/>
<path d="M290.976 183.895C299.734 173.988 318.977 164.856 318.977 164.856C318.977 164.856 306.961 159.559 298.787 159.298C281.331 158.741 269.833 166.455 259.383 180.448C250.537 192.294 250.63 202.177 249.094 216.882C247.307 233.986 253.285 260.719 253.285 260.719C253.285 260.719 267.017 242.675 273.802 229.912C282.806 212.975 278.272 198.266 290.976 183.895Z" fill="#201806"/>
<path d="M475.9 340.953C454.05 332.178 436.661 323.301 415.8 335.028C407.431 339.733 403.589 344.134 397.522 351.693C392.716 357.681 389.595 361.137 387.155 368.444C377.846 396.32 416.049 403.57 439.36 420.157C460.207 434.99 488.619 474.645 497.595 449.943C501.426 439.401 495.741 432.615 495.372 421.449C494.509 395.33 517.417 373.567 500.174 354.579C492.826 346.487 485.98 345.002 475.9 340.953Z" fill="#201806" stroke="#201806"/>
<path d="M298.734 129.888C312.589 137.912 323.829 170.118 323.829 170.118C323.829 170.118 302.76 156.962 291.917 149.433C275.928 138.331 243.466 167.832 241.169 148.503C239.52 134.627 251.101 126.732 263.714 120.718C277.432 114.177 285.582 122.271 298.734 129.888Z" fill="#201806"/>
<path d="M365.909 132.863C351.194 139.142 325.258 169.656 325.258 169.656C325.258 169.656 345.196 128.341 361.14 118.115C371.659 111.369 379.122 109.152 391.588 108.269C404.397 107.362 412.656 107.984 423.95 114.094C436.646 120.963 441.984 128.959 448.208 141.984C454.411 154.965 454.681 178.251 454.681 178.251C454.681 178.251 444.817 162.689 436.873 154.057C425.063 141.225 418.796 129.989 401.701 126.544C387.787 123.74 378.964 127.293 365.909 132.863Z" fill="#201806"/>
<rect x="529.158" y="315.635" width="45.6438" height="99.1433" transform="rotate(-9.30355 529.158 315.635)" fill="#F4EDDB"/>
<path d="M74.0005 184.499L97.0652 222.951" stroke="#201806" stroke-width="8"/>
<path d="M83.2661 180.736L102.191 221.385" stroke="#201806" stroke-width="8"/>
<path d="M96.7583 177.486L107.456 221.133" stroke="#201806" stroke-width="8"/>
<path d="M106.907 175.194L114.734 219.446" stroke="#201806" stroke-width="8"/>
<path d="M119.18 174L120.816 218.909" stroke="#201806" stroke-width="8"/>
<path d="M134.946 175.552L126.292 219.651" stroke="#201806" stroke-width="8"/>
<path d="M147.484 179.474L130.239 220.973" stroke="#201806" stroke-width="8"/>
<path d="M147.461 179.944L130.216 221.443" stroke="#201806" stroke-width="8"/>
<path d="M157.781 190.27L133.554 228.12" stroke="#201806" stroke-width="8"/>
<path d="M65.0005 190.416L92.7608 225.756" stroke="#201806" stroke-width="8"/>
<path d="M61.0005 202.929L93.7789 233.672" stroke="#201806" stroke-width="8"/>
<path d="M101.523 259.961C96.0619 251.426 87.2217 250.533 83.8265 240.986C75.3868 217.254 149.352 203.811 147.183 228.906C146.28 239.364 136.235 242.187 134.321 252.508C131.683 266.736 143.803 288.329 143.803 288.329L112.754 294.691C112.754 294.691 109.206 271.968 101.523 259.961Z" fill="#201806"/>
<path d="M298.761 421.716C319.155 419.381 348.499 394.307 360.236 410.452C366.597 419.201 358.473 428.126 362.858 437.982L362.863 437.993C365.839 444.681 367.804 449.099 374.033 453.118C381.131 457.698 409.035 430.87 413.848 437.709C419.842 446.226 390.148 472.821 382.935 480.645C366.795 498.15 336.654 499.903 313.227 495.585C292.029 491.678 283.344 480.099 267.15 466.398C249.268 451.268 227.966 421.299 227.966 421.299C227.966 421.299 271.239 424.869 298.761 421.716Z" fill="#201806"/>
<path d="M382.281 363.833C355.013 371.484 331.947 375.826 320.432 401.7C315.813 412.079 315.31 418.915 314.957 430.27C314.677 439.267 314.183 444.71 317.122 453.217C328.335 485.675 370.164 464.823 404.472 463.332C435.153 461.998 491.004 478.135 481.765 448.847C477.822 436.349 467.476 434.181 459.06 424.135C439.372 400.635 445.602 364.015 415.372 358.912C402.49 356.738 394.86 360.303 382.281 363.833Z" fill="#201806" stroke="#201806"/>
<path d="M228.202 331.156C225.938 331.663 224.058 330.772 223.307 327.415L218.911 307.781C217.765 307.423 216.524 307.372 215.158 307.678C212.582 308.255 211.552 309.879 212.172 312.651L212.496 314.095L216.633 313.169L217.206 315.91L213.107 316.827L216.804 333.339L213.447 334.09L209.75 317.579L206.55 318.295L205.938 315.563L209.139 314.846L208.807 313.363C207.793 308.835 210.517 305.807 214.382 304.942C217.075 304.339 218.771 304.41 221.845 305.321L226.546 326.321C226.887 327.843 227.629 328.046 228.644 327.819C229.112 327.714 229.711 327.457 230.291 327.122L230.929 329.971C229.984 330.511 229.061 330.963 228.202 331.156ZM242.818 327.884C237.158 329.151 232.51 325.6 231.251 319.98C229.993 314.359 232.692 309.205 238.352 307.937C243.973 306.679 248.729 310.164 249.988 315.785C251.237 321.367 248.477 326.617 242.818 327.884ZM242.153 324.917C246.096 324.035 247.505 320.44 246.631 316.537C245.739 312.555 242.959 310.021 239.016 310.904C235.074 311.787 233.726 315.286 234.608 319.228C235.491 323.17 238.25 325.791 242.153 324.917ZM259.789 323.715L249.743 305.756L253.334 304.952L260.362 318.217L261.765 303.065L264.771 302.392L272.501 315.5L273.202 300.504L276.793 299.7L275.364 320.229L272.28 320.919L264.336 307.408L262.873 323.025L259.789 323.715ZM298.133 304.269C298.255 304.815 298.365 305.488 298.401 306.012L284.622 309.097C285.56 312.74 288.127 314.502 291.679 313.707C293.631 313.27 295.148 312.356 296.394 310.233L299.16 311.786C297.499 314.617 295.375 316.117 292.33 316.799C286.202 318.171 282.261 314.299 281.064 308.951C279.875 303.642 281.698 298.234 287.553 296.923C293.447 295.603 297.085 299.585 298.133 304.269ZM284.01 306.365L294.705 303.97C294.649 303.901 294.622 303.784 294.587 303.628C293.806 300.687 291.383 299.017 288.143 299.742C284.864 300.476 283.597 303.424 284.01 306.365ZM309.893 291.921C311.103 291.651 312.257 291.679 313.537 292.089L312.527 295.267C311.62 295.06 310.757 295.048 309.898 295.24C306.97 295.896 305.521 298.393 306.412 302.374L308.737 312.757L305.38 313.509L301.071 294.265L304.428 293.514L305.101 296.519C305.761 293.789 307.863 292.376 309.893 291.921ZM336.424 289.22L331.701 290.277L334.244 301.636C334.637 303.393 335.71 303.972 337.232 303.632C337.895 303.483 338.641 303.152 339.439 302.687L340.077 305.536C339.101 306.123 338.091 306.554 337.076 306.782C334.305 307.402 331.778 306.369 330.965 302.739L328.344 291.029L325.182 291.737L324.57 289.004L327.732 288.297L326.71 283.73L329.507 280.48L331.089 287.545L335.812 286.488L336.424 289.22ZM358.094 290.845C358.217 291.392 358.326 292.064 358.362 292.589L344.583 295.673C345.521 299.316 348.088 301.078 351.64 300.283C353.592 299.846 355.109 298.933 356.355 296.809L359.121 298.362C357.46 301.194 355.336 302.694 352.292 303.375C346.163 304.747 342.222 300.875 341.025 295.527C339.836 290.219 341.659 284.81 347.514 283.499C353.408 282.18 357.046 286.161 358.094 290.845ZM343.971 292.941L354.666 290.547C354.61 290.477 354.584 290.36 354.549 290.204C353.767 287.264 351.344 285.593 348.104 286.318C344.825 287.052 343.559 290 343.971 292.941ZM367.902 278.935C372.82 277.834 376.377 279.989 377.443 284.751L380.135 296.773L377.051 297.464L376.17 294.627C375.267 297.002 373.226 298.689 370.338 299.335C366.2 300.262 363.06 298.505 362.23 294.797C361.776 292.767 362.285 291.014 363.654 289.805C364.924 288.701 366.766 287.961 370.006 287.236L374.261 286.283L374.086 285.502C373.422 282.536 371.416 281.263 368.488 281.919C366.224 282.426 364.625 283.89 363.557 286.261L360.683 284.773C362.218 281.56 364.545 279.686 367.902 278.935ZM370.489 296.35C373.885 295.59 375.685 292.646 374.89 289.093L374.846 288.898L370.982 289.763C368.054 290.419 366.78 290.95 366.1 291.758C365.589 292.405 365.404 293.226 365.622 294.202C366.042 296.075 367.913 296.927 370.489 296.35Z" fill="#201806"/>
</svg>
